<svg xmlns="http://www.w3.org/2000/svg" viewBox="0 0 559.66 508.81"><defs><style>.cls-1{fill:#e86b05;}.cls-2{fill:#fff;}.cls-3{fill:#575756;}</style></defs><title>diagram-b</title><g id="Layer_2" data-name="Layer 2"><g id="Layer_1-2" data-name="Layer 1"><path class="cls-1" d="M272.59,405.38l8.72,8.67,8.7-8.67a1,1,0,0,1,1.22,0,.9.9,0,0,1,0,1.2l-9.31,9.18,0,0a.83.83,0,0,1-.58.24.84.84,0,0,1-.52-.18s0,0-.06-.06l0,0-9.24-9.18a.78.78,0,0,1-.27-.59.84.84,0,0,1,1.4-.61Z"/><path class="cls-1" d="M281.29,410.1a1,1,0,0,1-1-1V349.33a1,1,0,0,1,2,0V409.1A1,1,0,0,1,281.29,410.1Z"/><polygon class="cls-1" points="24.73 83.45 74.18 83.45 98.91 41.73 74.18 0 24.73 0 0 41.73 24.73 83.45"/><path class="cls-2" d="M33.15,36.12a2.5,2.5,0,0,1,1,1,3,3,0,0,1,.34,1.43A3.23,3.23,0,0,1,34.11,40a2.58,2.58,0,0,1-1,1,2.55,2.55,0,0,1-1.39.38h-2.9v3.73a.42.42,0,1,1-.84,0v-9a.41.41,0,0,1,.12-.31.44.44,0,0,1,.3-.11h3.32A2.71,2.71,0,0,1,33.15,36.12ZM33.08,40a2.2,2.2,0,0,0,.5-1.47,2,2,0,0,0-.5-1.41,1.71,1.71,0,0,0-1.32-.55h-2.9v4h2.9A1.67,1.67,0,0,0,33.08,40Z"/><path class="cls-2" d="M41.85,38.54a.41.41,0,0,1,.12.31v6.3a.41.41,0,0,1-.42.42.39.39,0,0,1-.3-.12.41.41,0,0,1-.12-.3v-.94a3,3,0,0,1-1.05,1.06,2.86,2.86,0,0,1-1.53.44,3.09,3.09,0,0,1-1.69-.49,3.35,3.35,0,0,1-1.17-1.35A4.17,4.17,0,0,1,35.26,42,4.26,4.26,0,0,1,35.69,40a3.38,3.38,0,0,1,1.19-1.32,3.1,3.1,0,0,1,3.2-.07,2.81,2.81,0,0,1,1.05,1.06v-.86a.41.41,0,0,1,.12-.31.37.37,0,0,1,.3-.13A.38.38,0,0,1,41.85,38.54Zm-1.91,6a2.59,2.59,0,0,0,.91-1.07A3.43,3.43,0,0,0,41.18,42a3.31,3.31,0,0,0-.33-1.48,2.62,2.62,0,0,0-.91-1.06A2.34,2.34,0,0,0,38.63,39a2.25,2.25,0,0,0-1.3.38,2.49,2.49,0,0,0-.91,1,3.31,3.31,0,0,0-.33,1.5,3.42,3.42,0,0,0,.32,1.52,2.49,2.49,0,0,0,.9,1.07,2.4,2.4,0,0,0,1.32.38A2.34,2.34,0,0,0,39.94,44.54Z"/><path class="cls-2" d="M47.66,38.36a.35.35,0,0,1,.23.33.48.48,0,0,1-.11.32.37.37,0,0,1-.27.12,1.32,1.32,0,0,1-.27-.07,1.15,1.15,0,0,0-.39-.07,1.7,1.7,0,0,0-1,.39,3.17,3.17,0,0,0-.84,1,2.74,2.74,0,0,0-.33,1.28v3.46a.44.44,0,0,1-.11.3.41.41,0,0,1-.31.12.41.41,0,0,1-.42-.42V38.87a.41.41,0,0,1,.42-.42.41.41,0,0,1,.31.12.44.44,0,0,1,.11.3v1.24a3.19,3.19,0,0,1,1-1.33,2.42,2.42,0,0,1,1.53-.54A1,1,0,0,1,47.66,38.36Z"/><path class="cls-2" d="M50.25,39.22v4.69a1,1,0,0,0,.2.72.69.69,0,0,0,.52.19l.21,0,.19,0a.28.28,0,0,1,.22.11.36.36,0,0,1,.09.24.38.38,0,0,1-.22.33,1,1,0,0,1-.53.14,3.39,3.39,0,0,1-.68-.07,1.11,1.11,0,0,1-.56-.42A1.86,1.86,0,0,1,49.41,44V39.22h-1a.36.36,0,0,1-.28-.11.36.36,0,0,1-.12-.28.38.38,0,0,1,.12-.28.39.39,0,0,1,.28-.11h1V36.89a.41.41,0,0,1,.12-.31.44.44,0,0,1,.3-.11.38.38,0,0,1,.42.42v1.55h1.4a.35.35,0,0,1,.28.13.38.38,0,0,1,.12.28.34.34,0,0,1-.12.27.37.37,0,0,1-.28.1Z"/><path class="cls-2" d="M58.54,39a3.17,3.17,0,0,1,.6,2v4.12a.41.41,0,0,1-.12.3.42.42,0,0,1-.3.12.41.41,0,0,1-.42-.42V41.07a2.33,2.33,0,0,0-.45-1.48A1.71,1.71,0,0,0,56.44,39a2.4,2.4,0,0,0-1.14.28,2.26,2.26,0,0,0-.87.75,1.66,1.66,0,0,0-.34,1v4.08a.42.42,0,1,1-.84,0V38.87a.42.42,0,1,1,.84,0v.77a3.18,3.18,0,0,1,2.53-1.4A2.32,2.32,0,0,1,58.54,39Z"/><path class="cls-2" d="M66.91,41.86a.4.4,0,0,1-.29.12H61.33a3.26,3.26,0,0,0,.34,1.51,2.68,2.68,0,0,0,1,1,2.94,2.94,0,0,0,1.51.38,2.5,2.5,0,0,0,1.2-.28,2.38,2.38,0,0,0,.85-.71.46.46,0,0,1,.3-.13.38.38,0,0,1,.25.11.37.37,0,0,1,0,.55,3.63,3.63,0,0,1-1.13.9,3.11,3.11,0,0,1-1.43.35,3.8,3.8,0,0,1-1.9-.47A3.27,3.27,0,0,1,61,44,3.91,3.91,0,0,1,60.52,42,4.24,4.24,0,0,1,61,40a3.24,3.24,0,0,1,1.21-1.32,3.12,3.12,0,0,1,1.61-.46,3.23,3.23,0,0,1,1.58.4,3,3,0,0,1,1.19,1.14,3.5,3.5,0,0,1,.48,1.8A.35.35,0,0,1,66.91,41.86Zm-4.62-2.24a2.55,2.55,0,0,0-.89,1.61h4.77v-.12A2.05,2.05,0,0,0,65.75,40a2.17,2.17,0,0,0-.87-.72,2.58,2.58,0,0,0-1.09-.24A2.3,2.3,0,0,0,62.29,39.62Z"/><path class="cls-2" d="M72.28,38.36a.36.36,0,0,1,.22.33.48.48,0,0,1-.11.32.37.37,0,0,1-.27.12,1.32,1.32,0,0,1-.27-.07,1.15,1.15,0,0,0-.39-.07,1.72,1.72,0,0,0-1,.39,3.17,3.17,0,0,0-.84,1,2.85,2.85,0,0,0-.32,1.28v3.46a.41.41,0,0,1-.42.42.41.41,0,0,1-.31-.12.44.44,0,0,1-.11-.3V38.87a.44.44,0,0,1,.11-.3.41.41,0,0,1,.31-.12.41.41,0,0,1,.42.42v1.24a3.09,3.09,0,0,1,1-1.33,2.42,2.42,0,0,1,1.53-.54A1.07,1.07,0,0,1,72.28,38.36Z"/><polygon class="cls-1" points="139.91 83.45 189.37 83.45 214.09 41.73 189.37 0 139.91 0 115.19 41.73 139.91 83.45"/><path class="cls-2" d="M148.33,36.12a2.5,2.5,0,0,1,1,1,2.94,2.94,0,0,1,.35,1.43,3.12,3.12,0,0,1-.35,1.46,2.58,2.58,0,0,1-1,1,2.52,2.52,0,0,1-1.38.38h-2.9v3.73a.42.42,0,1,1-.84,0v-9a.41.41,0,0,1,.12-.31.44.44,0,0,1,.3-.11H147A2.67,2.67,0,0,1,148.33,36.12Zm-.07,3.9a2.16,2.16,0,0,0,.51-1.47,2,2,0,0,0-.51-1.41,1.67,1.67,0,0,0-1.31-.55h-2.9v4H147A1.64,1.64,0,0,0,148.26,40Z"/><path class="cls-2" d="M157,38.54a.45.45,0,0,1,.11.31v6.3a.44.44,0,0,1-.11.3.41.41,0,0,1-.31.12.41.41,0,0,1-.42-.42v-.94a2.88,2.88,0,0,1-1.05,1.06,2.81,2.81,0,0,1-1.52.44,3.07,3.07,0,0,1-1.69-.49,3.35,3.35,0,0,1-1.17-1.35,4.17,4.17,0,0,1-.43-1.92,4.13,4.13,0,0,1,.43-1.91,3.38,3.38,0,0,1,1.19-1.32,3,3,0,0,1,1.65-.48,3,3,0,0,1,1.54.41,2.67,2.67,0,0,1,1.05,1.06v-.86a.41.41,0,0,1,.12-.31.38.38,0,0,1,.3-.13A.39.39,0,0,1,157,38.54Zm-1.91,6a2.59,2.59,0,0,0,.91-1.07,3.43,3.43,0,0,0,.33-1.52,3.31,3.31,0,0,0-.33-1.48,2.62,2.62,0,0,0-.91-1.06,2.36,2.36,0,0,0-1.31-.38,2.31,2.31,0,0,0-1.31.38,2.64,2.64,0,0,0-.91,1,3.31,3.31,0,0,0-.33,1.5,3.43,3.43,0,0,0,.33,1.52,2.49,2.49,0,0,0,.9,1.07,2.4,2.4,0,0,0,1.32.38A2.36,2.36,0,0,0,155.13,44.54Z"/><path class="cls-2" d="M162.85,38.36a.35.35,0,0,1,.23.33A.44.44,0,0,1,163,39a.34.34,0,0,1-.26.12,1.32,1.32,0,0,1-.27-.07A1.15,1.15,0,0,0,162,39a1.68,1.68,0,0,0-1,.39,3.17,3.17,0,0,0-.84,1,2.74,2.74,0,0,0-.33,1.28v3.46a.42.42,0,1,1-.84,0V38.87a.42.42,0,1,1,.84,0v1.24a3.19,3.19,0,0,1,1-1.33,2.42,2.42,0,0,1,1.53-.54A1.06,1.06,0,0,1,162.85,38.36Z"/><path class="cls-2" d="M165.44,39.22v4.69a1,1,0,0,0,.2.72.69.69,0,0,0,.52.19l.21,0,.19,0a.28.28,0,0,1,.22.11.36.36,0,0,1,.09.24.38.38,0,0,1-.22.33,1,1,0,0,1-.54.14,3.36,3.36,0,0,1-.67-.07,1.17,1.17,0,0,1-.57-.42A1.87,1.87,0,0,1,164.6,44V39.22h-1a.39.39,0,0,1-.29-.11.36.36,0,0,1-.12-.28.38.38,0,0,1,.12-.28.44.44,0,0,1,.29-.11h1V36.89a.41.41,0,0,1,.12-.31.46.46,0,0,1,.6,0,.41.41,0,0,1,.12.31v1.55h1.4a.34.34,0,0,1,.27.13.38.38,0,0,1,.12.28.33.33,0,0,1-.11.27.39.39,0,0,1-.28.1Z"/><path class="cls-2" d="M173.72,39a3.12,3.12,0,0,1,.61,2v4.12a.41.41,0,0,1-.12.3.44.44,0,0,1-.3.12.41.41,0,0,1-.42-.42V41.07a2.33,2.33,0,0,0-.45-1.48,1.74,1.74,0,0,0-1.41-.56,2.4,2.4,0,0,0-1.14.28,2.37,2.37,0,0,0-.88.75,1.72,1.72,0,0,0-.33,1v4.08a.42.42,0,1,1-.84,0V38.87a.42.42,0,1,1,.84,0v.77a3.14,3.14,0,0,1,2.53-1.4A2.29,2.29,0,0,1,173.72,39Z"/><path class="cls-2" d="M182.1,41.86a.4.4,0,0,1-.29.12h-5.29a3.26,3.26,0,0,0,.34,1.51,2.61,2.61,0,0,0,1,1,2.88,2.88,0,0,0,1.5.38,2.54,2.54,0,0,0,1.21-.28,2.38,2.38,0,0,0,.85-.71.44.44,0,0,1,.3-.13.38.38,0,0,1,.25.11.38.38,0,0,1,.11.26.42.42,0,0,1-.14.29,3.63,3.63,0,0,1-1.13.9,3.11,3.11,0,0,1-1.43.35,3.83,3.83,0,0,1-1.91-.47A3.18,3.18,0,0,1,176.17,44,3.91,3.91,0,0,1,175.7,42a4.25,4.25,0,0,1,.46-2,3.24,3.24,0,0,1,1.21-1.32,3.09,3.09,0,0,1,1.61-.46,3.19,3.19,0,0,1,1.57.4,3.12,3.12,0,0,1,1.2,1.14,3.5,3.5,0,0,1,.48,1.8A.35.35,0,0,1,182.1,41.86Zm-4.63-2.24a2.58,2.58,0,0,0-.88,1.61h4.77v-.12a2.23,2.23,0,0,0-.42-1.09,2.19,2.19,0,0,0-.88-.72,2.57,2.57,0,0,0-1.08-.24A2.34,2.34,0,0,0,177.47,39.62Z"/><path class="cls-2" d="M187.46,38.36a.35.35,0,0,1,.23.33.48.48,0,0,1-.11.32.37.37,0,0,1-.27.12,1.32,1.32,0,0,1-.27-.07,1.15,1.15,0,0,0-.39-.07,1.7,1.7,0,0,0-1,.39,3.17,3.17,0,0,0-.84,1,2.74,2.74,0,0,0-.33,1.28v3.46a.41.41,0,0,1-.12.3.39.39,0,0,1-.3.12.41.41,0,0,1-.42-.42V38.87a.41.41,0,0,1,.42-.42.39.39,0,0,1,.3.12.41.41,0,0,1,.12.3v1.24a3.19,3.19,0,0,1,1-1.33,2.42,2.42,0,0,1,1.53-.54A1,1,0,0,1,187.46,38.36Z"/><polygon class="cls-1" points="255.1 83.45 304.56 83.45 329.28 41.73 304.56 0 255.1 0 230.38 41.73 255.1 83.45"/><path class="cls-2" d="M263.52,36.12a2.5,2.5,0,0,1,1,1,2.93,2.93,0,0,1,.34,1.43,3.11,3.11,0,0,1-.34,1.46,2.58,2.58,0,0,1-1,1,2.52,2.52,0,0,1-1.38.38h-2.9v3.73a.42.42,0,1,1-.84,0v-9a.41.41,0,0,1,.12-.31.44.44,0,0,1,.3-.11h3.32A2.67,2.67,0,0,1,263.52,36.12Zm-.07,3.9a2.16,2.16,0,0,0,.51-1.47,2,2,0,0,0-.51-1.41,1.67,1.67,0,0,0-1.31-.55h-2.9v4h2.9A1.64,1.64,0,0,0,263.45,40Z"/><path class="cls-2" d="M272.22,38.54a.41.41,0,0,1,.12.31v6.3a.42.42,0,1,1-.84,0v-.94a2.88,2.88,0,0,1-1.05,1.06,2.81,2.81,0,0,1-1.52.44,3.07,3.07,0,0,1-1.69-.49,3.45,3.45,0,0,1-1.18-1.35,4.3,4.3,0,0,1-.42-1.92,4.13,4.13,0,0,1,.43-1.91,3.36,3.36,0,0,1,1.18-1.32,3.1,3.1,0,0,1,3.2-.07,2.67,2.67,0,0,1,1.05,1.06v-.86a.41.41,0,0,1,.12-.31.41.41,0,0,1,.6,0Zm-1.9,6a2.59,2.59,0,0,0,.91-1.07,3.43,3.43,0,0,0,.33-1.52,3.31,3.31,0,0,0-.33-1.48,2.62,2.62,0,0,0-.91-1.06A2.36,2.36,0,0,0,269,39a2.29,2.29,0,0,0-1.31.38,2.56,2.56,0,0,0-.91,1,3.31,3.31,0,0,0-.33,1.5,3.56,3.56,0,0,0,.32,1.52,2.59,2.59,0,0,0,.91,1.07,2.47,2.47,0,0,0,2.63,0Z"/><path class="cls-2" d="M278,38.36a.34.34,0,0,1,.22.33.43.43,0,0,1-.11.32.34.34,0,0,1-.26.12,1.54,1.54,0,0,1-.28-.07,1.06,1.06,0,0,0-.38-.07,1.68,1.68,0,0,0-1,.39,3.17,3.17,0,0,0-.84,1,2.74,2.74,0,0,0-.33,1.28v3.46a.42.42,0,1,1-.84,0V38.87a.42.42,0,1,1,.84,0v1.24a3.17,3.17,0,0,1,1-1.33,2.47,2.47,0,0,1,1.54-.54A1.06,1.06,0,0,1,278,38.36Z"/><path class="cls-2" d="M280.63,39.22v4.69a.94.94,0,0,0,.2.72.69.69,0,0,0,.51.19l.21,0a1.15,1.15,0,0,1,.2,0,.29.29,0,0,1,.22.11.36.36,0,0,1,.09.24.39.39,0,0,1-.23.33,1,1,0,0,1-.53.14,3.36,3.36,0,0,1-.67-.07,1.09,1.09,0,0,1-.57-.42,1.87,1.87,0,0,1-.27-1.12V39.22h-1a.39.39,0,0,1-.29-.11.36.36,0,0,1-.12-.28.38.38,0,0,1,.12-.28.44.44,0,0,1,.29-.11h1V36.89a.41.41,0,0,1,.12-.31.46.46,0,0,1,.6,0,.41.41,0,0,1,.12.31v1.55H282a.35.35,0,0,1,.27.13.38.38,0,0,1,.12.28.37.37,0,0,1-.11.27.4.4,0,0,1-.28.1Z"/><path class="cls-2" d="M288.91,39a3.12,3.12,0,0,1,.61,2v4.12a.38.38,0,0,1-.13.3.4.4,0,0,1-.29.12.41.41,0,0,1-.42-.42V41.07a2.28,2.28,0,0,0-.46-1.48,1.7,1.7,0,0,0-1.4-.56,2.4,2.4,0,0,0-1.14.28,2.37,2.37,0,0,0-.88.75,1.72,1.72,0,0,0-.33,1v4.08a.41.41,0,0,1-.42.42.41.41,0,0,1-.31-.12.4.4,0,0,1-.11-.3V38.87a.4.4,0,0,1,.11-.3.41.41,0,0,1,.31-.12.41.41,0,0,1,.42.42v.77a3.14,3.14,0,0,1,2.53-1.4A2.3,2.3,0,0,1,288.91,39Z"/><path class="cls-2" d="M297.29,41.86A.4.4,0,0,1,297,42h-5.3a3.26,3.26,0,0,0,.35,1.51,2.54,2.54,0,0,0,1,1,2.88,2.88,0,0,0,1.5.38,2.54,2.54,0,0,0,1.21-.28,2.47,2.47,0,0,0,.85-.71.44.44,0,0,1,.29-.13.38.38,0,0,1,.37.37.42.42,0,0,1-.14.29,3.75,3.75,0,0,1-1.13.9,3.11,3.11,0,0,1-1.43.35,3.83,3.83,0,0,1-1.91-.47A3.27,3.27,0,0,1,291.35,44a4,4,0,0,1-.46-1.93,4.13,4.13,0,0,1,.46-2,3.17,3.17,0,0,1,1.21-1.32,3.09,3.09,0,0,1,1.61-.46,3.19,3.19,0,0,1,1.57.4,3.12,3.12,0,0,1,1.2,1.14,3.5,3.5,0,0,1,.48,1.8A.39.39,0,0,1,297.29,41.86Zm-4.63-2.24a2.59,2.59,0,0,0-.89,1.61h4.78v-.12a2.23,2.23,0,0,0-.42-1.09,2.26,2.26,0,0,0-.88-.72,2.57,2.57,0,0,0-1.08-.24A2.32,2.32,0,0,0,292.66,39.62Z"/><path class="cls-2" d="M302.65,38.36a.34.34,0,0,1,.22.33.43.43,0,0,1-.11.32.34.34,0,0,1-.26.12,1.54,1.54,0,0,1-.28-.07,1.06,1.06,0,0,0-.38-.07,1.68,1.68,0,0,0-1,.39,3.17,3.17,0,0,0-.84,1,2.74,2.74,0,0,0-.33,1.28v3.46a.42.42,0,1,1-.84,0V38.87a.42.42,0,1,1,.84,0v1.24a3.26,3.26,0,0,1,1-1.33,2.47,2.47,0,0,1,1.54-.54A1.06,1.06,0,0,1,302.65,38.36Z"/><rect class="cls-2" x="240.31" y="359.31" width="81" height="37.64"/><path class="cls-3" d="M246.21,373.89v-9.23h2.53a4,4,0,0,1,2.26.56,1.92,1.92,0,0,1,.81,1.69,2.17,2.17,0,0,1-.36,1.26,1.92,1.92,0,0,1-1.06.75V369a2.58,2.58,0,0,1,1.45.74,2.08,2.08,0,0,1,.54,1.49,2.32,2.32,0,0,1-.93,2,4.08,4.08,0,0,1-2.52.7Zm.74-5.18h1.55c1.72,0,2.57-.58,2.57-1.73a1.44,1.44,0,0,0-.62-1.31,3.56,3.56,0,0,0-1.87-.4H247Zm0,4.56h1.81a3.77,3.77,0,0,0,2.13-.51,1.76,1.76,0,0,0,.75-1.56,1.6,1.6,0,0,0-.74-1.43,3.94,3.94,0,0,0-2.14-.48H247Z"/><path class="cls-3" d="M253.69,370.52a4,4,0,0,1,.42-1.87,3.12,3.12,0,0,1,1.09-1.23,2.63,2.63,0,0,1,1.45-.44,2.36,2.36,0,0,1,1.91.83,3.49,3.49,0,0,1,.69,2.3,3.07,3.07,0,0,1-.05.53h-4.81a3.2,3.2,0,0,0,.36,1.5,2.48,2.48,0,0,0,.9,1,2.41,2.41,0,0,0,1.25.33,3,3,0,0,0,1.78-.59l.29.52a4.66,4.66,0,0,1-1,.51,3.39,3.39,0,0,1-1.15.18,3,3,0,0,1-1.59-.43,2.87,2.87,0,0,1-1.13-1.23A4,4,0,0,1,253.69,370.52Zm.73-.45h4.16a2.86,2.86,0,0,0-.51-1.84,1.72,1.72,0,0,0-1.42-.63,2,2,0,0,0-1,.28,2.25,2.25,0,0,0-.82.83A3.11,3.11,0,0,0,254.42,370.07Z"/><path class="cls-3" d="M260,367.77v-.56l1.07-.06.08-1.94h.6v1.94h1.94v.62h-1.94V372a1.82,1.82,0,0,0,.26,1.06,1,1,0,0,0,.88.35,1.62,1.62,0,0,0,.4-.06,3,3,0,0,0,.42-.14l.19.57a3.75,3.75,0,0,1-1.14.25,1.55,1.55,0,0,1-1.33-.54A2.59,2.59,0,0,1,261,372v-4.21Z"/><path class="cls-3" d="M264.16,367.77v-.56l1.06-.06.09-1.94h.6v1.94h1.93v.62h-1.93V372a1.82,1.82,0,0,0,.25,1.06,1,1,0,0,0,.88.35,1.69,1.69,0,0,0,.41-.06,3,3,0,0,0,.42-.14l.18.57a3.7,3.7,0,0,1-1.13.25,1.54,1.54,0,0,1-1.33-.54,2.59,2.59,0,0,1-.39-1.54v-4.21Z"/><path class="cls-3" d="M268.75,370.52a4,4,0,0,1,.41-1.87,3.12,3.12,0,0,1,1.09-1.23,2.65,2.65,0,0,1,1.45-.44,2.36,2.36,0,0,1,1.91.83,3.49,3.49,0,0,1,.69,2.3,4.55,4.55,0,0,1,0,.53h-4.82a3.2,3.2,0,0,0,.36,1.5,2.56,2.56,0,0,0,.9,1,2.43,2.43,0,0,0,1.25.33,3,3,0,0,0,1.78-.59l.3.52a4.5,4.5,0,0,1-1,.51,3.35,3.35,0,0,1-1.15.18,3,3,0,0,1-1.59-.43,2.87,2.87,0,0,1-1.13-1.23A4,4,0,0,1,268.75,370.52Zm.72-.45h4.16a2.86,2.86,0,0,0-.51-1.84,1.72,1.72,0,0,0-1.42-.63,1.94,1.94,0,0,0-1,.28,2.27,2.27,0,0,0-.83.83A3.25,3.25,0,0,0,269.47,370.07Z"/><path class="cls-3" d="M276.08,373.89v-6.74h.6l.1,1.25h0a3.35,3.35,0,0,1,.86-1,1.7,1.7,0,0,1,1.06-.38,1.42,1.42,0,0,1,.68.15l-.16.64a1.1,1.1,0,0,0-.3-.09l-.32,0a1.51,1.51,0,0,0-1,.4,3.16,3.16,0,0,0-.83,1.29v4.54Z"/><path class="cls-3" d="M283.39,373.89v-6.74H284l.09,1.25h0a3.19,3.19,0,0,1,.85-1A1.72,1.72,0,0,1,286,367a1.4,1.4,0,0,1,.68.15l-.16.64a1,1,0,0,0-.29-.09l-.32,0a1.51,1.51,0,0,0-1,.4,3.27,3.27,0,0,0-.83,1.29v4.54Z"/><path class="cls-3" d="M287.21,370.52a4.12,4.12,0,0,1,.41-1.87,3.19,3.19,0,0,1,1.09-1.23,2.68,2.68,0,0,1,1.46-.44,2.34,2.34,0,0,1,1.9.83,3.44,3.44,0,0,1,.7,2.3,4.53,4.53,0,0,1,0,.53h-4.81a3.19,3.19,0,0,0,.35,1.5,2.51,2.51,0,0,0,.91,1,2.4,2.4,0,0,0,1.24.33,3,3,0,0,0,1.79-.59l.29.52a4.66,4.66,0,0,1-1,.51,3.41,3.41,0,0,1-1.16.18,3,3,0,0,1-1.58-.43,3,3,0,0,1-1.14-1.23A4.1,4.1,0,0,1,287.21,370.52Zm.72-.45h4.17a2.86,2.86,0,0,0-.51-1.84,1.73,1.73,0,0,0-1.42-.63,2,2,0,0,0-1,.28,2.25,2.25,0,0,0-.82.83A3.11,3.11,0,0,0,287.93,370.07Z"/><path class="cls-3" d="M293.52,367.77v-.56l1.07-.06.08-1.94h.6v1.94h1.93v.62h-1.93V372a1.82,1.82,0,0,0,.25,1.06,1,1,0,0,0,.88.35,1.69,1.69,0,0,0,.41-.06,3,3,0,0,0,.42-.14l.19.57a3.81,3.81,0,0,1-1.14.25,1.54,1.54,0,0,1-1.33-.54,2.59,2.59,0,0,1-.39-1.54v-4.21Z"/><path class="cls-3" d="M298.73,371.47v-4.32h.71v4.21a2.64,2.64,0,0,0,.36,1.55,1.3,1.3,0,0,0,1.13.5,1.82,1.82,0,0,0,1-.31,5.12,5.12,0,0,0,1.07-1v-4.93h.71v6.74h-.6l-.07-1.12h0a4.44,4.44,0,0,1-1.07,1,2.26,2.26,0,0,1-1.2.33,1.86,1.86,0,0,1-1.55-.64A3.18,3.18,0,0,1,298.73,371.47Z"/><path class="cls-3" d="M306.27,373.89v-6.74h.6l.09,1.25h0a3.33,3.33,0,0,1,.85-1,1.73,1.73,0,0,1,1.07-.38,1.36,1.36,0,0,1,.67.15l-.15.64a1.21,1.21,0,0,0-.3-.09l-.32,0a1.49,1.49,0,0,0-1,.4,3.16,3.16,0,0,0-.83,1.29v4.54Z"/><path class="cls-3" d="M310.79,373.89v-6.74h.6l.09,1h0a4.94,4.94,0,0,1,1.12-.87,2.3,2.3,0,0,1,1.19-.31,1.86,1.86,0,0,1,1.55.64,3.18,3.18,0,0,1,.5,1.95v4.32h-.74v-4.22a2.78,2.78,0,0,0-.35-1.57,1.26,1.26,0,0,0-1.13-.5,1.84,1.84,0,0,0-1,.29,5.57,5.57,0,0,0-1.1.95v5.05Z"/><path class="cls-3" d="M262.18,383.77v-.56l.91-.06v-1.43a2.3,2.3,0,0,1,.45-1.52,1.54,1.54,0,0,1,1.28-.53,2.36,2.36,0,0,1,1,.22l-.18.58a1.72,1.72,0,0,0-.78-.19c-.7,0-1,.5-1,1.49v1.38h1.51v.62h-1.51v6.12h-.74v-6.12Z"/><path class="cls-3" d="M266,386.52a4.06,4.06,0,0,1,.42-1.9,3,3,0,0,1,1.1-1.22,3,3,0,0,1,3,0,3,3,0,0,1,1.11,1.23,4.54,4.54,0,0,1,0,3.77,3.09,3.09,0,0,1-1.11,1.23,2.9,2.9,0,0,1-3,0,3.06,3.06,0,0,1-1.1-1.23A4,4,0,0,1,266,386.52Zm.74,0a3.6,3.6,0,0,0,.3,1.51,2.42,2.42,0,0,0,.83,1,2,2,0,0,0,1.17.36,2.06,2.06,0,0,0,1.19-.36,2.4,2.4,0,0,0,.82-1,3.6,3.6,0,0,0,.29-1.51,3.65,3.65,0,0,0-.29-1.52,2.49,2.49,0,0,0-.82-1,2,2,0,0,0-1.19-.37,1.92,1.92,0,0,0-1.17.37,2.48,2.48,0,0,0-.83,1A3.6,3.6,0,0,0,266.75,386.52Z"/><path class="cls-3" d="M274.06,389.89v-6.74h.6l.1,1.25h0a3.35,3.35,0,0,1,.86-1,1.7,1.7,0,0,1,1.06-.38,1.42,1.42,0,0,1,.68.15l-.16.64a1.1,1.1,0,0,0-.3-.09l-.32,0a1.51,1.51,0,0,0-1,.4,3.16,3.16,0,0,0-.83,1.29v4.54Z"/><path class="cls-3" d="M281.37,389.89v-6.74H282l.09,1.25h0a3.19,3.19,0,0,1,.85-1A1.72,1.72,0,0,1,284,383a1.4,1.4,0,0,1,.68.15l-.16.64a1,1,0,0,0-.29-.09l-.32,0a1.51,1.51,0,0,0-1,.4,3.27,3.27,0,0,0-.83,1.29v4.54Z"/><path class="cls-3" d="M285.7,381a.57.57,0,0,1,.17-.42.57.57,0,0,1,.41-.17.52.52,0,0,1,.4.18.57.57,0,0,1,.17.41.6.6,0,0,1-.17.44.52.52,0,0,1-.4.18.54.54,0,0,1-.41-.18A.6.6,0,0,1,285.7,381Zm.19,8.94v-6.74h.74v6.74Z"/><path class="cls-3" d="M288.33,389.1l.39-.5a4.3,4.3,0,0,0,1,.62,2.73,2.73,0,0,0,1.14.22,1.65,1.65,0,0,0,1.13-.36,1.17,1.17,0,0,0,.42-.91,1,1,0,0,0-.44-.86,5.14,5.14,0,0,0-1.18-.6,8.15,8.15,0,0,1-1.09-.44,2.38,2.38,0,0,1-.74-.59,1.35,1.35,0,0,1-.3-.89,1.67,1.67,0,0,1,.59-1.29,2.38,2.38,0,0,1,1.61-.52,2.92,2.92,0,0,1,1.05.2,3.29,3.29,0,0,1,.9.51l-.36.49a4.15,4.15,0,0,0-.77-.45,2,2,0,0,0-.82-.16,1.64,1.64,0,0,0-1.1.34,1.08,1.08,0,0,0-.39.83.9.9,0,0,0,.21.6,1.58,1.58,0,0,0,.52.39c.21.1.49.21.85.34.53.2.92.36,1.18.49a2.07,2.07,0,0,1,.69.57,1.59,1.59,0,0,1,.3,1,1.81,1.81,0,0,1-.27,1,2,2,0,0,1-.79.71,2.79,2.79,0,0,1-1.23.26,3.41,3.41,0,0,1-1.34-.27A3.74,3.74,0,0,1,288.33,389.1Z"/><path class="cls-3" d="M294.85,389.89V379.84h.71v7.29h0l3.24-4h.82l-2.2,2.68,2.56,4.06h-.8L297,386.35l-1.47,1.72v1.82Z"/><path class="cls-3" d="M394.85,331.55v-9.23h2.53a3.94,3.94,0,0,1,2.25.56,1.92,1.92,0,0,1,.81,1.7,2.16,2.16,0,0,1-.36,1.25,1.92,1.92,0,0,1-1.06.75v.05a2.65,2.65,0,0,1,1.46.74,2.12,2.12,0,0,1,.53,1.49,2.37,2.37,0,0,1-.92,2,4.15,4.15,0,0,1-2.53.69Zm.73-5.18h1.55c1.72,0,2.58-.58,2.58-1.73a1.43,1.43,0,0,0-.62-1.3,3.5,3.5,0,0,0-1.88-.4h-1.63Zm0,4.56h1.81a3.8,3.8,0,0,0,2.14-.51,1.77,1.77,0,0,0,.74-1.56,1.58,1.58,0,0,0-.74-1.43,4,4,0,0,0-2.14-.47h-1.81Z"/><path class="cls-3" d="M402.32,328.19a3.94,3.94,0,0,1,.42-1.87,3.08,3.08,0,0,1,1.09-1.24,2.65,2.65,0,0,1,1.45-.44,2.36,2.36,0,0,1,1.91.83,3.49,3.49,0,0,1,.69,2.3,4.39,4.39,0,0,1,0,.53H403a3.2,3.2,0,0,0,.36,1.5,2.56,2.56,0,0,0,.9,1,2.43,2.43,0,0,0,1.25.33,3,3,0,0,0,1.78-.59l.3.52a4.5,4.5,0,0,1-1,.51,3.35,3.35,0,0,1-1.15.18,3,3,0,0,1-1.59-.43,2.91,2.91,0,0,1-1.13-1.22A4,4,0,0,1,402.32,328.19Zm.73-.46h4.16a2.86,2.86,0,0,0-.51-1.84,1.72,1.72,0,0,0-1.42-.63,1.92,1.92,0,0,0-1,.28,2.27,2.27,0,0,0-.83.83A3.29,3.29,0,0,0,403.05,327.73Z"/><path class="cls-3" d="M408.63,325.43v-.56l1.07-.05.08-1.95h.6v1.95h1.94v.61h-1.94v4.26a1.82,1.82,0,0,0,.26,1.06,1,1,0,0,0,.88.35,1.76,1.76,0,0,0,.41-.06l.42-.14.18.57a3.42,3.42,0,0,1-1.13.25,1.53,1.53,0,0,1-1.33-.54,2.52,2.52,0,0,1-.4-1.54v-4.21Z"/><path class="cls-3" d="M412.79,325.43v-.56l1.07-.05.08-1.95h.6v1.95h1.94v.61h-1.94v4.26a1.82,1.82,0,0,0,.25,1.06,1,1,0,0,0,.89.35,1.68,1.68,0,0,0,.4-.06,3,3,0,0,0,.42-.14l.19.57a3.52,3.52,0,0,1-1.14.25,1.54,1.54,0,0,1-1.33-.54,2.59,2.59,0,0,1-.39-1.54v-4.21Z"/><path class="cls-3" d="M417.38,328.19a4.06,4.06,0,0,1,.41-1.87,3.16,3.16,0,0,1,1.09-1.24,2.67,2.67,0,0,1,1.45-.44,2.36,2.36,0,0,1,1.91.83,3.49,3.49,0,0,1,.7,2.3c0,.19,0,.36-.05.53h-4.82a3.2,3.2,0,0,0,.36,1.5,2.56,2.56,0,0,0,.9,1,2.43,2.43,0,0,0,1.25.33,3,3,0,0,0,1.79-.59l.29.52a4.66,4.66,0,0,1-1,.51,3.45,3.45,0,0,1-1.16.18,3,3,0,0,1-1.59-.43,3,3,0,0,1-1.13-1.22A4.13,4.13,0,0,1,417.38,328.19Zm.72-.46h4.17a2.86,2.86,0,0,0-.51-1.84,1.74,1.74,0,0,0-1.43-.63,1.94,1.94,0,0,0-1,.28,2.18,2.18,0,0,0-.82.83A3.15,3.15,0,0,0,418.1,327.73Z"/><path class="cls-3" d="M424.71,331.55v-6.73h.6l.1,1.24h0a3.3,3.3,0,0,1,.85-1,1.7,1.7,0,0,1,1.06-.38,1.4,1.4,0,0,1,.68.15l-.16.64-.29-.09-.32,0a1.57,1.57,0,0,0-1,.4,3.16,3.16,0,0,0-.83,1.29v4.54Z"/><path class="cls-3" d="M372.22,350.56v-9.74h.6l.09.82h0a3.79,3.79,0,0,1,2.24-1,2.37,2.37,0,0,1,2,.92,4.11,4.11,0,0,1,.68,2.51,4.51,4.51,0,0,1-.4,1.94,3.15,3.15,0,0,1-1.08,1.27,2.66,2.66,0,0,1-1.46.44,3.29,3.29,0,0,1-2-.84v3.68Zm.73-4.32a3.82,3.82,0,0,0,1,.63,2.5,2.5,0,0,0,.9.2,1.92,1.92,0,0,0,1.17-.37,2.62,2.62,0,0,0,.8-1.07,4,4,0,0,0,.29-1.56,3.7,3.7,0,0,0-.5-2.05,1.75,1.75,0,0,0-1.57-.76,3.45,3.45,0,0,0-2.11,1.08Z"/><path class="cls-3" d="M379.86,347.55v-6.73h.6l.09,1.24h0a3.44,3.44,0,0,1,.85-1,1.73,1.73,0,0,1,1.07-.38,1.36,1.36,0,0,1,.67.15l-.15.64-.3-.09-.32,0a1.54,1.54,0,0,0-1,.4,3.16,3.16,0,0,0-.83,1.29v4.54Z"/><path class="cls-3" d="M383.67,344.18a4,4,0,0,1,.42-1.89,2.94,2.94,0,0,1,1.1-1.23,3,3,0,0,1,3,0,3,3,0,0,1,1.11,1.23,4.18,4.18,0,0,1,.41,1.89,4.1,4.1,0,0,1-.41,1.88,3,3,0,0,1-1.11,1.23,2.9,2.9,0,0,1-3,0,2.94,2.94,0,0,1-1.1-1.23A4,4,0,0,1,383.67,344.18Zm.74,0a3.6,3.6,0,0,0,.3,1.51,2.48,2.48,0,0,0,.82,1,2,2,0,0,0,1.18.36,2.08,2.08,0,0,0,1.19-.36,2.4,2.4,0,0,0,.82-1,3.77,3.77,0,0,0,.29-1.51,3.85,3.85,0,0,0-.29-1.52,2.49,2.49,0,0,0-.82-1,2,2,0,0,0-1.19-.37,2,2,0,0,0-1.18.37,2.54,2.54,0,0,0-.82,1A3.6,3.6,0,0,0,384.41,344.18Z"/><path class="cls-3" d="M391.17,344.18a4,4,0,0,1,.41-1.85,3.16,3.16,0,0,1,1.08-1.25,2.72,2.72,0,0,1,1.48-.44,2.54,2.54,0,0,1,1,.2,4.76,4.76,0,0,1,1,.62l0-1.22V337.5h.74v10.05h-.6l-.09-.87h0a3.07,3.07,0,0,1-2.18,1,2.45,2.45,0,0,1-2-.93A4,4,0,0,1,391.17,344.18Zm.74,0a3.53,3.53,0,0,0,.57,2.12,1.87,1.87,0,0,0,1.59.77,2.27,2.27,0,0,0,1-.26,4.17,4.17,0,0,0,1-.81v-3.9a3.58,3.58,0,0,0-1-.65,2.41,2.41,0,0,0-.95-.19,1.91,1.91,0,0,0-1.16.39,2.51,2.51,0,0,0-.83,1.05A3.53,3.53,0,0,0,391.91,344.18Z"/><path class="cls-3" d="M399.27,345.13v-4.31H400V345a2.63,2.63,0,0,0,.36,1.54,1.26,1.26,0,0,0,1.13.5,1.82,1.82,0,0,0,1-.31,5.12,5.12,0,0,0,1.07-1v-4.92h.71v6.73h-.6l-.07-1.12h0a4.63,4.63,0,0,1-1.07,1,2.26,2.26,0,0,1-1.2.33,1.83,1.83,0,0,1-1.55-.64A3.18,3.18,0,0,1,399.27,345.13Z"/><path class="cls-3" d="M406.26,344.18a4,4,0,0,1,.42-1.89,3.07,3.07,0,0,1,1.13-1.23,3,3,0,0,1,1.55-.42,2.66,2.66,0,0,1,1.1.22,3.82,3.82,0,0,1,.88.6l-.41.5a3.66,3.66,0,0,0-.73-.52,1.86,1.86,0,0,0-.82-.18,2.06,2.06,0,0,0-1.21.37,2.61,2.61,0,0,0-.86,1,3.52,3.52,0,0,0-.31,1.51,3.77,3.77,0,0,0,.29,1.51,2.37,2.37,0,0,0,.84,1,2.17,2.17,0,0,0,1.23.36,2.57,2.57,0,0,0,1.77-.75l.36.5a3.19,3.19,0,0,1-2.17.9,3,3,0,0,1-1.57-.42,2.82,2.82,0,0,1-1.09-1.22A4.19,4.19,0,0,1,406.26,344.18Z"/><path class="cls-3" d="M412.08,341.43v-.56l1.06-.05.08-1.95h.61v1.95h1.93v.61h-1.93v4.26a1.82,1.82,0,0,0,.25,1.06,1,1,0,0,0,.88.35,1.76,1.76,0,0,0,.41-.06,3,3,0,0,0,.42-.14l.18.57a3.42,3.42,0,0,1-1.13.25,1.53,1.53,0,0,1-1.33-.54,2.59,2.59,0,0,1-.39-1.54v-4.21Z"/><path class="cls-3" d="M417,349.29a2.18,2.18,0,0,0,.8-.7,1.85,1.85,0,0,0,.31-1H418a.73.73,0,0,1-.47-.15.56.56,0,0,1-.19-.45.57.57,0,0,1,.19-.44.68.68,0,0,1,.46-.16.66.66,0,0,1,.56.28,1.23,1.23,0,0,1,.21.75,2.4,2.4,0,0,1-.41,1.37,2.75,2.75,0,0,1-1.09,1Z"/><path class="cls-3" d="M423.55,350.56v-9.74h.6l.09.82h0a3.79,3.79,0,0,1,2.24-1,2.37,2.37,0,0,1,2,.92,4.11,4.11,0,0,1,.68,2.51,4.37,4.37,0,0,1-.4,1.94,3.15,3.15,0,0,1-1.08,1.27,2.66,2.66,0,0,1-1.46.44,3.29,3.29,0,0,1-2-.84l0,1.23v2.45Zm.74-4.32a3.63,3.63,0,0,0,1,.63,2.5,2.5,0,0,0,.9.2,1.92,1.92,0,0,0,1.17-.37,2.54,2.54,0,0,0,.8-1.07,4,4,0,0,0,.29-1.56A3.7,3.7,0,0,0,428,342a1.74,1.74,0,0,0-1.57-.76,3.41,3.41,0,0,0-2.1,1.08Z"/><path class="cls-3" d="M431.19,347.55v-6.73h.6l.09,1.24h0a3.47,3.47,0,0,1,.86-1,1.7,1.7,0,0,1,1.06-.38,1.42,1.42,0,0,1,.68.15l-.16.64-.3-.09-.32,0a1.54,1.54,0,0,0-1,.4,3.16,3.16,0,0,0-.83,1.29v4.54Z"/><path class="cls-3" d="M435.52,338.61a.57.57,0,0,1,.17-.42.54.54,0,0,1,.4-.16.53.53,0,0,1,.41.17.57.57,0,0,1,.17.41.64.64,0,0,1-.17.45.57.57,0,0,1-.41.17.54.54,0,0,1-.4-.17A.6.6,0,0,1,435.52,338.61Zm.19,8.94v-6.73h.74v6.73Z"/><path class="cls-3" d="M438.41,344.18a4,4,0,0,1,.42-1.89,2.95,2.95,0,0,1,2.68-1.65,2.66,2.66,0,0,1,1.1.22,3.82,3.82,0,0,1,.88.6l-.41.5a3.66,3.66,0,0,0-.73-.52,1.86,1.86,0,0,0-.82-.18,2.06,2.06,0,0,0-1.21.37,2.61,2.61,0,0,0-.86,1,3.52,3.52,0,0,0-.31,1.51,3.6,3.6,0,0,0,.29,1.51,2.35,2.35,0,0,0,.83,1,2.2,2.2,0,0,0,1.24.36,2.57,2.57,0,0,0,1.77-.75l.36.5a3.19,3.19,0,0,1-2.17.9,3,3,0,0,1-1.57-.42,2.9,2.9,0,0,1-1.1-1.22A4.33,4.33,0,0,1,438.41,344.18Z"/><path class="cls-3" d="M444.44,344.19a4.06,4.06,0,0,1,.41-1.87,3.16,3.16,0,0,1,1.09-1.24,2.67,2.67,0,0,1,1.45-.44,2.36,2.36,0,0,1,1.91.83,3.49,3.49,0,0,1,.7,2.3,4.34,4.34,0,0,1-.05.53h-4.82a3.2,3.2,0,0,0,.36,1.5,2.56,2.56,0,0,0,.9,1,2.43,2.43,0,0,0,1.25.33,3,3,0,0,0,1.79-.59l.29.52a4.66,4.66,0,0,1-1,.51,3.45,3.45,0,0,1-1.16.18,3,3,0,0,1-1.59-.43,3,3,0,0,1-1.13-1.22A4.13,4.13,0,0,1,444.44,344.19Zm.72-.46h4.17a2.86,2.86,0,0,0-.51-1.84,1.74,1.74,0,0,0-1.43-.63,1.94,1.94,0,0,0-1,.28,2.18,2.18,0,0,0-.82.83A3.15,3.15,0,0,0,445.16,343.73Z"/><path class="cls-3" d="M385.92,361.19a2.22,2.22,0,0,1,.49-1.43,7,7,0,0,1,1.38-1.27,5.25,5.25,0,0,1-.62-2.25,2.06,2.06,0,0,1,.55-1.48,1.83,1.83,0,0,1,1.4-.59,1.48,1.48,0,0,1,1.16.47,1.8,1.8,0,0,1,.41,1.22,1.93,1.93,0,0,1-.29,1,3.17,3.17,0,0,1-.68.82q-.41.36-1.11.9a10.7,10.7,0,0,0,1.11,1.63,13.3,13.3,0,0,0,1.38,1.42,8.36,8.36,0,0,0,1.43-3h.69a9.92,9.92,0,0,1-1.65,3.37,5.79,5.79,0,0,0,1.78,1l-.23.65a6.7,6.7,0,0,1-2-1.15,3.44,3.44,0,0,1-2.52,1.15,3,3,0,0,1-1.37-.32,2.45,2.45,0,0,1-1-.89A2.55,2.55,0,0,1,385.92,361.19Zm.71,0a1.86,1.86,0,0,0,.28,1,1.89,1.89,0,0,0,.74.69,2.19,2.19,0,0,0,1,.24,2.83,2.83,0,0,0,2-.94,13.4,13.4,0,0,1-1.42-1.49,11.93,11.93,0,0,1-1.16-1.67,5.52,5.52,0,0,0-1.06,1A1.84,1.84,0,0,0,386.63,361.15Zm1.21-4.92a4.3,4.3,0,0,0,.5,1.88,8.62,8.62,0,0,0,1.31-1.12,1.6,1.6,0,0,0,.44-1.1,1.35,1.35,0,0,0-.24-.82.84.84,0,0,0-.74-.34,1.12,1.12,0,0,0-.93.43A1.63,1.63,0,0,0,387.84,356.23Z"/><path class="cls-3" d="M396.79,362.76l.39-.49a5.12,5.12,0,0,0,1,.62,2.85,2.85,0,0,0,1.13.21,1.66,1.66,0,0,0,1.14-.36,1.15,1.15,0,0,0,.41-.91,1,1,0,0,0-.43-.86,4.69,4.69,0,0,0-1.19-.59,8.63,8.63,0,0,1-1.09-.45,2.21,2.21,0,0,1-.73-.59,1.35,1.35,0,0,1-.3-.89,1.64,1.64,0,0,1,.59-1.29,2.35,2.35,0,0,1,1.6-.52,2.93,2.93,0,0,1,1.06.2,3.29,3.29,0,0,1,.9.51l-.36.5a4.33,4.33,0,0,0-.77-.46,2.23,2.23,0,0,0-.83-.16,1.57,1.57,0,0,0-1.09.35,1.06,1.06,0,0,0-.39.83.87.87,0,0,0,.21.59,1.58,1.58,0,0,0,.52.39c.21.1.49.21.85.35a12.46,12.46,0,0,1,1.18.48,2,2,0,0,1,.69.58,1.54,1.54,0,0,1,.3,1,1.71,1.71,0,0,1-.28,1,1.89,1.89,0,0,1-.79.71,2.71,2.71,0,0,1-1.22.26,3.64,3.64,0,0,1-1.35-.26A3.92,3.92,0,0,1,396.79,362.76Z"/><path class="cls-3" d="M402.76,360.19a4.06,4.06,0,0,1,.41-1.87,3.16,3.16,0,0,1,1.09-1.24,2.68,2.68,0,0,1,1.46-.44,2.34,2.34,0,0,1,1.9.83,3.44,3.44,0,0,1,.7,2.3,4.34,4.34,0,0,1-.05.53h-4.81a3.19,3.19,0,0,0,.35,1.5,2.51,2.51,0,0,0,.91,1,2.4,2.4,0,0,0,1.24.33,3,3,0,0,0,1.79-.59l.29.52a4.66,4.66,0,0,1-1,.51,3.41,3.41,0,0,1-1.16.18,3,3,0,0,1-2.72-1.65A4.13,4.13,0,0,1,402.76,360.19Zm.72-.46h4.17a2.86,2.86,0,0,0-.51-1.84,1.73,1.73,0,0,0-1.42-.63,2,2,0,0,0-1,.28,2.18,2.18,0,0,0-.82.83A3.15,3.15,0,0,0,403.48,359.73Z"/><path class="cls-3" d="M410.09,363.55v-6.73h.61l.09,1.24h0a3.3,3.3,0,0,1,.85-1,1.72,1.72,0,0,1,1.06-.38,1.4,1.4,0,0,1,.68.15l-.16.64-.29-.09-.32,0a1.57,1.57,0,0,0-1,.4,3.16,3.16,0,0,0-.83,1.29v4.54Z"/><path class="cls-3" d="M414,356.82h.77l1.47,4.13c.2.64.43,1.29.68,1.95H417l.67-1.95,1.47-4.13h.72l-2.47,6.73h-.85Z"/><path class="cls-3" d="M421.06,354.61a.57.57,0,0,1,.17-.42.56.56,0,0,1,.41-.16.51.51,0,0,1,.4.17.57.57,0,0,1,.17.41.64.64,0,0,1-.17.45.54.54,0,0,1-.4.17.57.57,0,0,1-.41-.17A.6.6,0,0,1,421.06,354.61Zm.19,8.94v-6.73H422v6.73Z"/><path class="cls-3" d="M424,360.18a4,4,0,0,1,.42-1.89,3,3,0,0,1,1.14-1.23,3,3,0,0,1,1.54-.42,2.66,2.66,0,0,1,1.1.22,3.61,3.61,0,0,1,.88.6l-.41.5a3.66,3.66,0,0,0-.73-.52,1.86,1.86,0,0,0-.82-.18,2.06,2.06,0,0,0-1.21.37,2.61,2.61,0,0,0-.86,1,3.52,3.52,0,0,0-.31,1.51,3.77,3.77,0,0,0,.29,1.51,2.37,2.37,0,0,0,.84,1,2.17,2.17,0,0,0,1.23.36,2.56,2.56,0,0,0,1.77-.75l.36.5a3.19,3.19,0,0,1-2.17.9,3,3,0,0,1-1.57-.42,2.82,2.82,0,0,1-1.09-1.22A4.19,4.19,0,0,1,424,360.18Z"/><path class="cls-3" d="M430,360.19a4.06,4.06,0,0,1,.41-1.87,3.1,3.1,0,0,1,1.1-1.24,2.63,2.63,0,0,1,1.45-.44,2.34,2.34,0,0,1,1.9.83,3.44,3.44,0,0,1,.7,2.3,4.34,4.34,0,0,1-.05.53h-4.81a3.19,3.19,0,0,0,.35,1.5,2.51,2.51,0,0,0,.91,1,2.4,2.4,0,0,0,1.24.33,3,3,0,0,0,1.79-.59l.29.52a4.66,4.66,0,0,1-1,.51,3.41,3.41,0,0,1-1.16.18,3,3,0,0,1-2.72-1.65A4.13,4.13,0,0,1,430,360.19Zm.72-.46h4.17a2.86,2.86,0,0,0-.51-1.84,1.73,1.73,0,0,0-1.42-.63,2,2,0,0,0-1,.28,2.25,2.25,0,0,0-.82.83A3.15,3.15,0,0,0,430.7,359.73Z"/><path class="cls-3" d="M323.06,122.36v-9.23h.74v4h4.8v-4h.74v9.23h-.74V117.8h-4.8v4.56Z"/><path class="cls-3" d="M331.75,113.43a.54.54,0,0,1,.17-.42.57.57,0,0,1,.41-.17.56.56,0,0,1,.4.17.57.57,0,0,1,.17.42.62.62,0,0,1-.17.44.56.56,0,0,1-.4.17.57.57,0,0,1-.41-.17A.58.58,0,0,1,331.75,113.43Zm.19,8.93v-6.73h.74v6.73Z"/><path class="cls-3" d="M334.63,123.72a1.57,1.57,0,0,1,.27-.85,2.57,2.57,0,0,1,.73-.74v-.06a1.3,1.3,0,0,1-.48-.45A1.1,1.1,0,0,1,335,121a1.26,1.26,0,0,1,.23-.72,2.18,2.18,0,0,1,.52-.53v0a2.61,2.61,0,0,1-.56-.79,2.45,2.45,0,0,1-.23-1,2.4,2.4,0,0,1,.32-1.23,2.24,2.24,0,0,1,.86-.84,2.27,2.27,0,0,1,1.19-.31,2.07,2.07,0,0,1,.92.17h2.32v.59H339a1.9,1.9,0,0,1,.52.71,2.25,2.25,0,0,1,.2.93,2.39,2.39,0,0,1-.32,1.22,2.29,2.29,0,0,1-.88.84,2.53,2.53,0,0,1-1.22.3,2.22,2.22,0,0,1-.57-.07,2,2,0,0,1-.51-.21,1.84,1.84,0,0,0-.37.44,1,1,0,0,0-.14.52c0,.56.42.84,1.25.84h1.43a3.08,3.08,0,0,1,1.7.38,1.31,1.31,0,0,1,.56,1.18,1.8,1.8,0,0,1-.41,1.11,2.84,2.84,0,0,1-1.15.85,4.26,4.26,0,0,1-1.7.32,3.59,3.59,0,0,1-2-.5A1.57,1.57,0,0,1,334.63,123.72Zm.69-.09a1.16,1.16,0,0,0,.57,1,2.79,2.79,0,0,0,1.56.38,3.23,3.23,0,0,0,1.29-.24,2.18,2.18,0,0,0,.86-.61,1.23,1.23,0,0,0,.3-.78.84.84,0,0,0-.37-.77,2.28,2.28,0,0,0-1.15-.23H337a3.72,3.72,0,0,1-.83-.11,2.15,2.15,0,0,0-.63.65A1.38,1.38,0,0,0,335.32,123.63Zm.31-5.79a2,2,0,0,0,.23,1,1.62,1.62,0,0,0,.62.65,1.53,1.53,0,0,0,.84.24,1.61,1.61,0,0,0,1.19-.52,1.85,1.85,0,0,0,.5-1.32,1.8,1.8,0,0,0-.49-1.31,1.64,1.64,0,0,0-1.2-.5,1.61,1.61,0,0,0-1.2.5A1.77,1.77,0,0,0,335.63,117.84Z"/><path class="cls-3" d="M342,122.36V112.3h.74v2.88l0,1.47a5.94,5.94,0,0,1,1.14-.89,2.38,2.38,0,0,1,1.18-.3,1.85,1.85,0,0,1,1.56.64,3.14,3.14,0,0,1,.49,2v4.31h-.74v-4.22a2.84,2.84,0,0,0-.34-1.57,1.31,1.31,0,0,0-1.14-.5,1.92,1.92,0,0,0-1,.29,5.62,5.62,0,0,0-1.1,1v5Z"/><path class="cls-3" d="M348.93,119a4,4,0,0,1,.41-1.87,3.16,3.16,0,0,1,1.09-1.24,2.66,2.66,0,0,1,1.45-.43,2.36,2.36,0,0,1,1.91.82,3.51,3.51,0,0,1,.69,2.3,4.24,4.24,0,0,1,0,.53h-4.82a3.2,3.2,0,0,0,.36,1.5,2.49,2.49,0,0,0,.9,1,2.35,2.35,0,0,0,1.25.34,3.09,3.09,0,0,0,1.79-.59l.29.51a4.66,4.66,0,0,1-1,.51,3.45,3.45,0,0,1-1.16.18,3.1,3.1,0,0,1-1.59-.42,3.06,3.06,0,0,1-1.13-1.23A4,4,0,0,1,348.93,119Zm.72-.46h4.16a2.86,2.86,0,0,0-.51-1.84,1.72,1.72,0,0,0-1.42-.63,2,2,0,0,0-1,.28,2.28,2.28,0,0,0-.82.84A3.07,3.07,0,0,0,349.65,118.54Z"/><path class="cls-3" d="M356.26,122.36v-6.73h.6l.1,1.24h0a3.26,3.26,0,0,1,.85-1,1.64,1.64,0,0,1,1.06-.38,1.55,1.55,0,0,1,.68.14l-.16.64-.29-.09-.33,0a1.53,1.53,0,0,0-1,.41,3.19,3.19,0,0,0-.83,1.28v4.54Z"/><path class="cls-3" d="M304.57,135a3.88,3.88,0,0,1,.43-1.89,3,3,0,0,1,2.68-1.64,2.5,2.5,0,0,1,1.09.22,3.31,3.31,0,0,1,.88.59l-.41.51a2.82,2.82,0,0,0-.73-.52,1.74,1.74,0,0,0-.82-.19,2.13,2.13,0,0,0-1.21.37,2.57,2.57,0,0,0-.86,1.05,3.5,3.5,0,0,0-.31,1.5,3.77,3.77,0,0,0,.29,1.51,2.37,2.37,0,0,0,.84,1,2.18,2.18,0,0,0,1.24.36,2.55,2.55,0,0,0,1.76-.75l.36.51a3.23,3.23,0,0,1-2.17.89,3,3,0,0,1-1.57-.42,2.88,2.88,0,0,1-1.09-1.22A4.19,4.19,0,0,1,304.57,135Z"/><path class="cls-3" d="M310.6,135a4.12,4.12,0,0,1,.41-1.89,3,3,0,0,1,1.11-1.22,3,3,0,0,1,3,0,3.06,3.06,0,0,1,1.11,1.22,4.56,4.56,0,0,1,0,3.78,3.06,3.06,0,0,1-1.11,1.22,2.9,2.9,0,0,1-3,0,3.06,3.06,0,0,1-1.11-1.22A4.18,4.18,0,0,1,310.6,135Zm.74,0a3.6,3.6,0,0,0,.3,1.51,2.48,2.48,0,0,0,.82,1,2.11,2.11,0,0,0,2.36,0,2.35,2.35,0,0,0,.83-1,4.08,4.08,0,0,0,0-3,2.47,2.47,0,0,0-.83-1,2.07,2.07,0,0,0-2.36,0,2.61,2.61,0,0,0-.82,1A3.63,3.63,0,0,0,311.34,135Z"/><path class="cls-3" d="M318.65,138.36v-6.73h.6l.09,1h0a5.58,5.58,0,0,1,1.12-.87,2.42,2.42,0,0,1,1.19-.3,1.83,1.83,0,0,1,1.55.64,3.14,3.14,0,0,1,.5,2v4.31H323v-4.22a2.83,2.83,0,0,0-.35-1.57,1.29,1.29,0,0,0-1.13-.5,1.93,1.93,0,0,0-1,.29,5.61,5.61,0,0,0-1.09.95v5.05Z"/><path class="cls-3" d="M325,131.63h.77l1.47,4.14c.2.63.43,1.28.67,1.94H328l.67-1.94,1.47-4.14h.72l-2.47,6.73h-.86Z"/><path class="cls-3" d="M331.7,135a4,4,0,0,1,.42-1.87,3.08,3.08,0,0,1,1.09-1.24,2.64,2.64,0,0,1,1.45-.43,2.36,2.36,0,0,1,1.91.82,3.51,3.51,0,0,1,.69,2.3,2.89,2.89,0,0,1-.05.53H332.4a3.2,3.2,0,0,0,.36,1.5,2.49,2.49,0,0,0,.9,1,2.32,2.32,0,0,0,1.25.34,3,3,0,0,0,1.78-.59l.29.51a4.23,4.23,0,0,1-1,.51,3.35,3.35,0,0,1-1.15.18,3.1,3.1,0,0,1-1.59-.42,3,3,0,0,1-1.13-1.23A4,4,0,0,1,331.7,135Zm.73-.46h4.16a2.86,2.86,0,0,0-.51-1.84,1.72,1.72,0,0,0-1.42-.63,2.08,2.08,0,0,0-1,.28,2.45,2.45,0,0,0-.82.84A3.06,3.06,0,0,0,332.43,134.54Z"/><path class="cls-3" d="M339,138.36v-6.73h.6l.09,1.24h0a3.4,3.4,0,0,1,.85-1,1.67,1.67,0,0,1,1.07-.38,1.48,1.48,0,0,1,.67.14l-.15.64-.3-.09-.32,0a1.5,1.5,0,0,0-1,.41,3.19,3.19,0,0,0-.83,1.28v4.54Z"/><path class="cls-3" d="M342.72,137.58l.39-.5a4.67,4.67,0,0,0,1,.62,2.9,2.9,0,0,0,1.14.22,1.6,1.6,0,0,0,1.13-.37,1.14,1.14,0,0,0,.42-.91,1,1,0,0,0-.44-.86,5.16,5.16,0,0,0-1.18-.59,8,8,0,0,1-1.09-.45,2.22,2.22,0,0,1-.74-.58,1.37,1.37,0,0,1-.3-.89,1.64,1.64,0,0,1,.59-1.29,2.33,2.33,0,0,1,1.61-.52,2.72,2.72,0,0,1,1,.2,3.55,3.55,0,0,1,.9.5l-.36.5a3.27,3.27,0,0,0-.77-.45,2,2,0,0,0-.82-.16,1.59,1.59,0,0,0-1.1.34,1.08,1.08,0,0,0-.39.83.87.87,0,0,0,.21.59,1.35,1.35,0,0,0,.52.39c.21.1.49.22.85.35a12,12,0,0,1,1.18.49,2.07,2.07,0,0,1,.69.57,1.54,1.54,0,0,1,.3,1,1.84,1.84,0,0,1-.27,1,2,2,0,0,1-.8.7,2.58,2.58,0,0,1-1.22.26,3.49,3.49,0,0,1-1.35-.26A4.28,4.28,0,0,1,342.72,137.58Z"/><path class="cls-3" d="M348.78,136.67a1.86,1.86,0,0,1,1-1.7,8.52,8.52,0,0,1,3.28-.83v-.07a2.72,2.72,0,0,0-.33-1.41,1.29,1.29,0,0,0-1.21-.59,3.57,3.57,0,0,0-2.12.78l-.33-.52a5.53,5.53,0,0,1,1.16-.61,3.53,3.53,0,0,1,1.38-.26,2,2,0,0,1,1.67.71,3.26,3.26,0,0,1,.52,1.92v4.27h-.6l-.09-.86h0a3.78,3.78,0,0,1-2.37,1,2.08,2.08,0,0,1-1.4-.47A1.73,1.73,0,0,1,348.78,136.67Zm.74,0a1.16,1.16,0,0,0,.38,1,1.49,1.49,0,0,0,1,.32,2.45,2.45,0,0,0,1.05-.25,5.77,5.77,0,0,0,1.14-.79v-2.23a7.82,7.82,0,0,0-2.75.71A1.42,1.42,0,0,0,349.52,136.63Z"/><path class="cls-3" d="M355.11,132.24v-.56l1.07-.05.08-1.95h.6v1.95h1.93v.61h-1.93v4.27a1.81,1.81,0,0,0,.25,1.05,1,1,0,0,0,.88.36,1.69,1.69,0,0,0,.41-.06,2.05,2.05,0,0,0,.42-.15l.19.57a3.52,3.52,0,0,1-1.14.25,1.54,1.54,0,0,1-1.33-.54,2.59,2.59,0,0,1-.39-1.54v-4.21Z"/><path class="cls-3" d="M360.22,129.43a.57.57,0,0,1,.17-.42.57.57,0,0,1,.41-.17.58.58,0,0,1,.41.17.57.57,0,0,1,.16.42.61.61,0,0,1-.16.44.58.58,0,0,1-.41.17.57.57,0,0,1-.41-.17A.62.62,0,0,1,360.22,129.43Zm.19,8.93v-6.73h.74v6.73Z"/><path class="cls-3" d="M363.11,135a4,4,0,0,1,.42-1.89,2.88,2.88,0,0,1,2.62-1.64,2.88,2.88,0,0,1,1.52.42,3,3,0,0,1,1.11,1.22,4.56,4.56,0,0,1,0,3.78,3,3,0,0,1-1.11,1.22,2.9,2.9,0,0,1-3,0,3,3,0,0,1-1.1-1.22A4.05,4.05,0,0,1,363.11,135Zm.74,0a3.6,3.6,0,0,0,.3,1.51,2.42,2.42,0,0,0,.83,1,2,2,0,0,0,1.17.36,2.06,2.06,0,0,0,1.19-.36,2.4,2.4,0,0,0,.82-1,4.08,4.08,0,0,0,0-3,2.53,2.53,0,0,0-.82-1,2.07,2.07,0,0,0-1.19-.37,2,2,0,0,0-1.17.37,2.55,2.55,0,0,0-.83,1A3.63,3.63,0,0,0,363.85,135Z"/><path class="cls-3" d="M371.16,138.36v-6.73h.6l.1,1h0a6.21,6.21,0,0,1,1.12-.87,2.42,2.42,0,0,1,1.19-.3,1.83,1.83,0,0,1,1.55.64,3.14,3.14,0,0,1,.5,2v4.31h-.74v-4.22a2.74,2.74,0,0,0-.35-1.57,1.29,1.29,0,0,0-1.13-.5,2,2,0,0,0-1,.29,5.92,5.92,0,0,0-1.09.95v5.05Z"/><path class="cls-3" d="M233.25,129.86v-9.23h2.16a4,4,0,0,1,3.17,1.22,6,6,0,0,1,0,6.78,3.93,3.93,0,0,1-3.14,1.23Zm.74-.61h1.36a3.2,3.2,0,0,0,2.64-1.08,4.51,4.51,0,0,0,.87-2.93,4.43,4.43,0,0,0-.87-2.91,3.24,3.24,0,0,0-2.64-1H234Z"/><path class="cls-3" d="M241.19,128.17a1.86,1.86,0,0,1,1-1.7,8.46,8.46,0,0,1,3.28-.83v-.07a2.72,2.72,0,0,0-.33-1.41,1.29,1.29,0,0,0-1.21-.59,3.54,3.54,0,0,0-2.12.78l-.33-.52a5.29,5.29,0,0,1,1.16-.61A3.52,3.52,0,0,1,244,123a2,2,0,0,1,1.68.71,3.26,3.26,0,0,1,.52,1.92v4.27h-.61l-.08-.86h0a3.78,3.78,0,0,1-2.37,1,2.12,2.12,0,0,1-1.41-.47A1.76,1.76,0,0,1,241.19,128.17Zm.74,0a1.19,1.19,0,0,0,.37,1,1.54,1.54,0,0,0,1,.32,2.45,2.45,0,0,0,1-.25,5.77,5.77,0,0,0,1.14-.79v-2.23a7.88,7.88,0,0,0-2.76.71A1.43,1.43,0,0,0,241.93,128.13Z"/><path class="cls-3" d="M247.52,123.74v-.56l1.06-.05.09-1.95h.6v1.95h1.93v.61h-1.93V128a1.81,1.81,0,0,0,.25,1.05,1,1,0,0,0,.88.36,1.69,1.69,0,0,0,.41-.06,2.05,2.05,0,0,0,.42-.15l.18.57a3.42,3.42,0,0,1-1.13.25,1.53,1.53,0,0,1-1.33-.54,2.59,2.59,0,0,1-.39-1.54v-4.21Z"/><path class="cls-3" d="M252.06,128.17a1.86,1.86,0,0,1,1-1.7,8.41,8.41,0,0,1,3.28-.83v-.07a2.72,2.72,0,0,0-.33-1.41,1.29,1.29,0,0,0-1.21-.59,3.54,3.54,0,0,0-2.12.78l-.33-.52a5.29,5.29,0,0,1,1.16-.61,3.52,3.52,0,0,1,1.37-.26,1.93,1.93,0,0,1,1.67.71,3.19,3.19,0,0,1,.52,1.92v4.27h-.6l-.09-.86h0a3.78,3.78,0,0,1-2.37,1,2.12,2.12,0,0,1-1.41-.47A1.76,1.76,0,0,1,252.06,128.17Zm.74,0a1.19,1.19,0,0,0,.37,1,1.54,1.54,0,0,0,1,.32,2.45,2.45,0,0,0,1.05-.25,5.77,5.77,0,0,0,1.14-.79v-2.23a7.88,7.88,0,0,0-2.76.71A1.41,1.41,0,0,0,252.8,128.13Z"/><path class="cls-3" d="M126.16,331.55v-9.23h2.16a4,4,0,0,1,3.17,1.22,6,6,0,0,1,0,6.78,3.93,3.93,0,0,1-3.14,1.23Zm.74-.62h1.36a3.18,3.18,0,0,0,2.64-1.07,4.51,4.51,0,0,0,.88-2.93,4.43,4.43,0,0,0-.88-2.91,3.23,3.23,0,0,0-2.64-1H126.9Z"/><path class="cls-3" d="M134.1,329.86a1.88,1.88,0,0,1,1-1.71,8.9,8.9,0,0,1,3.28-.83v-.06a2.72,2.72,0,0,0-.33-1.41,1.29,1.29,0,0,0-1.21-.59,3.62,3.62,0,0,0-2.12.77l-.33-.52a6.66,6.66,0,0,1,1.16-.61,3.72,3.72,0,0,1,1.38-.26,1.93,1.93,0,0,1,1.67.72,3.24,3.24,0,0,1,.52,1.92v4.27h-.6l-.09-.86h0a3.78,3.78,0,0,1-2.37,1,2,2,0,0,1-1.4-.48A1.72,1.72,0,0,1,134.1,329.86Zm.74,0a1.16,1.16,0,0,0,.38,1,1.49,1.49,0,0,0,1,.31,2.32,2.32,0,0,0,1-.25,5.28,5.28,0,0,0,1.14-.78v-2.23a7.6,7.6,0,0,0-2.75.71A1.41,1.41,0,0,0,134.84,329.82Z"/><path class="cls-3" d="M140.43,325.43v-.56l1.07-.05.08-1.95h.6v1.95h1.93v.61h-1.93v4.26a1.82,1.82,0,0,0,.25,1.06,1,1,0,0,0,.88.35,1.69,1.69,0,0,0,.41-.06,3,3,0,0,0,.42-.14l.19.57a3.52,3.52,0,0,1-1.14.25,1.54,1.54,0,0,1-1.33-.54,2.59,2.59,0,0,1-.39-1.54v-4.21Z"/><path class="cls-3" d="M145,329.86a1.88,1.88,0,0,1,1-1.71,8.84,8.84,0,0,1,3.28-.83v-.06a2.72,2.72,0,0,0-.33-1.41,1.29,1.29,0,0,0-1.21-.59,3.62,3.62,0,0,0-2.12.77l-.33-.52a6.66,6.66,0,0,1,1.16-.61,3.72,3.72,0,0,1,1.38-.26,1.93,1.93,0,0,1,1.67.72,3.24,3.24,0,0,1,.52,1.92v4.27h-.6l-.09-.86h0a3.78,3.78,0,0,1-2.37,1,2,2,0,0,1-1.4-.48A1.72,1.72,0,0,1,145,329.86Zm.74,0a1.16,1.16,0,0,0,.38,1,1.49,1.49,0,0,0,1,.31,2.32,2.32,0,0,0,1-.25,5.28,5.28,0,0,0,1.14-.78v-2.23a7.54,7.54,0,0,0-2.75.71A1.41,1.41,0,0,0,145.71,329.82Z"/><path class="cls-3" d="M154.38,329.19a2.22,2.22,0,0,1,.49-1.43,7,7,0,0,1,1.38-1.27,5.25,5.25,0,0,1-.62-2.25,2.06,2.06,0,0,1,.55-1.48,1.83,1.83,0,0,1,1.4-.59,1.48,1.48,0,0,1,1.16.47,1.8,1.8,0,0,1,.41,1.22,1.93,1.93,0,0,1-.29,1,3.38,3.38,0,0,1-.68.82q-.41.36-1.11.9a10.7,10.7,0,0,0,1.11,1.63,13.3,13.3,0,0,0,1.38,1.42,8.36,8.36,0,0,0,1.43-3h.69a9.92,9.92,0,0,1-1.65,3.37,5.79,5.79,0,0,0,1.78,1l-.23.65a6.7,6.7,0,0,1-2-1.15,3.44,3.44,0,0,1-2.52,1.15,3,3,0,0,1-1.37-.32,2.45,2.45,0,0,1-1-.89A2.55,2.55,0,0,1,154.38,329.19Zm.71,0a1.86,1.86,0,0,0,.28,1,1.89,1.89,0,0,0,.74.69,2.19,2.19,0,0,0,1,.24,2.83,2.83,0,0,0,2-.94,13.4,13.4,0,0,1-1.42-1.49,11.93,11.93,0,0,1-1.16-1.67,5.52,5.52,0,0,0-1.06,1A1.84,1.84,0,0,0,155.09,329.15Zm1.21-4.92a4.3,4.3,0,0,0,.5,1.88,8.62,8.62,0,0,0,1.31-1.12,1.59,1.59,0,0,0,.43-1.1,1.35,1.35,0,0,0-.23-.82.84.84,0,0,0-.74-.34,1.12,1.12,0,0,0-.93.43A1.63,1.63,0,0,0,156.3,324.23Z"/><path class="cls-3" d="M108.09,350.56v-9.74h.6l.09.82h0a3.79,3.79,0,0,1,2.24-1,2.37,2.37,0,0,1,2,.92,4.11,4.11,0,0,1,.68,2.51,4.51,4.51,0,0,1-.4,1.94,3.15,3.15,0,0,1-1.08,1.27,2.66,2.66,0,0,1-1.46.44,3.29,3.29,0,0,1-2-.84v3.68Zm.73-4.32a3.82,3.82,0,0,0,1,.63,2.49,2.49,0,0,0,.89.2,1.88,1.88,0,0,0,1.17-.37,2.56,2.56,0,0,0,.81-1.07,4,4,0,0,0,.29-1.56,3.7,3.7,0,0,0-.5-2.05,1.75,1.75,0,0,0-1.57-.76,3.43,3.43,0,0,0-2.11,1.08Z"/><path class="cls-3" d="M115.18,344.19a4.06,4.06,0,0,1,.41-1.87,3.1,3.1,0,0,1,1.1-1.24,2.63,2.63,0,0,1,1.45-.44,2.38,2.38,0,0,1,1.91.83,3.49,3.49,0,0,1,.69,2.3,4.34,4.34,0,0,1,0,.53h-4.81a3.32,3.32,0,0,0,.35,1.5,2.51,2.51,0,0,0,.91,1,2.4,2.4,0,0,0,1.24.33,3,3,0,0,0,1.79-.59l.29.52a4.66,4.66,0,0,1-1,.51,3.39,3.39,0,0,1-1.15.18,3,3,0,0,1-2.73-1.65A4.13,4.13,0,0,1,115.18,344.19Zm.73-.46h4.16a2.86,2.86,0,0,0-.51-1.84,1.72,1.72,0,0,0-1.42-.63,2,2,0,0,0-1,.28,2.25,2.25,0,0,0-.82.83A3.15,3.15,0,0,0,115.91,343.73Z"/><path class="cls-3" d="M122.52,347.55v-6.73h.6l.09,1.24h0a3.44,3.44,0,0,1,.85-1,1.72,1.72,0,0,1,1.06-.38,1.4,1.4,0,0,1,.68.15l-.16.64-.29-.09-.32,0a1.59,1.59,0,0,0-1,.4,3.27,3.27,0,0,0-.83,1.29v4.54Z"/><path class="cls-3" d="M126.24,341.43v-.56l.91-.05v-1.43a2.33,2.33,0,0,1,.45-1.53,1.61,1.61,0,0,1,1.29-.53,2.35,2.35,0,0,1,1,.22l-.18.58a1.79,1.79,0,0,0-.78-.19c-.69,0-1,.5-1,1.49v1.39h1.51v.61h-1.51v6.12h-.74v-6.12Z"/><path class="cls-3" d="M130.08,344.18a4,4,0,0,1,.41-1.89,3,3,0,0,1,1.11-1.23,2.94,2.94,0,0,1,3,0,2.89,2.89,0,0,1,1.11,1.23,4,4,0,0,1,.41,1.89,4,4,0,0,1-.41,1.88,2.89,2.89,0,0,1-1.11,1.23,2.88,2.88,0,0,1-3,0,3,3,0,0,1-1.11-1.23A4,4,0,0,1,130.08,344.18Zm.73,0a3.6,3.6,0,0,0,.31,1.51,2.4,2.4,0,0,0,.82,1,2,2,0,0,0,1.18.36,2.05,2.05,0,0,0,1.18-.36,2.4,2.4,0,0,0,.82-1,3.6,3.6,0,0,0,.3-1.51,3.68,3.68,0,0,0-.3-1.52,2.49,2.49,0,0,0-.82-1,2,2,0,0,0-1.18-.37,2,2,0,0,0-1.18.37,2.46,2.46,0,0,0-.82,1A3.6,3.6,0,0,0,130.81,344.18Z"/><path class="cls-3" d="M138.12,347.55v-6.73h.6l.1,1.24h0a3.3,3.3,0,0,1,.85-1,1.7,1.7,0,0,1,1.06-.38,1.4,1.4,0,0,1,.68.15l-.16.64-.29-.09-.32,0a1.57,1.57,0,0,0-1,.4,3.16,3.16,0,0,0-.83,1.29v4.54Z"/><path class="cls-3" d="M142.64,347.55v-6.73h.6l.1,1h0a4.52,4.52,0,0,1,1-.86,2.14,2.14,0,0,1,1.09-.32,1.75,1.75,0,0,1,1.85,1.35,6.25,6.25,0,0,1,1.15-1,2.15,2.15,0,0,1,1.12-.35c1.35,0,2,.87,2,2.6v4.31h-.71v-4.22a2.72,2.72,0,0,0-.36-1.56,1.25,1.25,0,0,0-1.1-.51,1.7,1.7,0,0,0-.93.3,5.62,5.62,0,0,0-1,.94v5.05h-.71v-4.22a2.72,2.72,0,0,0-.36-1.56,1.27,1.27,0,0,0-1.11-.51,2.8,2.8,0,0,0-1.94,1.24v5.05Z"/><path class="cls-3" d="M153.59,345.86a1.88,1.88,0,0,1,1-1.71,8.78,8.78,0,0,1,3.27-.83v-.06a2.72,2.72,0,0,0-.33-1.41,1.27,1.27,0,0,0-1.2-.59,3.64,3.64,0,0,0-2.13.77l-.32-.52a6.21,6.21,0,0,1,1.15-.61,3.8,3.8,0,0,1,1.38-.26,1.92,1.92,0,0,1,1.67.72,3.17,3.17,0,0,1,.52,1.92v4.27H158l-.09-.86h0a3.74,3.74,0,0,1-2.37,1,2,2,0,0,1-1.4-.48A1.72,1.72,0,0,1,153.59,345.86Zm.74,0a1.19,1.19,0,0,0,.38,1,1.49,1.49,0,0,0,1,.31,2.33,2.33,0,0,0,1.06-.25,5.5,5.5,0,0,0,1.13-.78v-2.23a7.66,7.66,0,0,0-2.75.71A1.41,1.41,0,0,0,154.33,345.82Z"/><path class="cls-3" d="M161,347.55v-6.73h.6l.1,1h0a5.13,5.13,0,0,1,1.11-.87,2.43,2.43,0,0,1,1.19-.31,1.85,1.85,0,0,1,1.55.64,3.19,3.19,0,0,1,.5,2v4.31h-.74v-4.22a2.72,2.72,0,0,0-.35-1.57,1.29,1.29,0,0,0-1.13-.5,2,2,0,0,0-1,.29,5.92,5.92,0,0,0-1.09.95v5.05Z"/><path class="cls-3" d="M167.89,344.18a4,4,0,0,1,.42-1.89,2.95,2.95,0,0,1,2.68-1.65,2.7,2.7,0,0,1,1.1.22,3.82,3.82,0,0,1,.88.6l-.41.5a3.71,3.71,0,0,0-.74-.52,1.83,1.83,0,0,0-.82-.18,2.08,2.08,0,0,0-1.21.37,2.59,2.59,0,0,0-.85,1,3.52,3.52,0,0,0-.32,1.51,3.6,3.6,0,0,0,.3,1.51,2.28,2.28,0,0,0,.83,1,2.18,2.18,0,0,0,1.24.36,2.55,2.55,0,0,0,1.76-.75l.37.5a3.21,3.21,0,0,1-2.17.9,3,3,0,0,1-1.58-.42,3,3,0,0,1-1.09-1.22A4.33,4.33,0,0,1,167.89,344.18Z"/><path class="cls-3" d="M173.92,344.19a3.94,3.94,0,0,1,.41-1.87,3.08,3.08,0,0,1,1.09-1.24,2.65,2.65,0,0,1,1.45-.44,2.36,2.36,0,0,1,1.91.83,3.49,3.49,0,0,1,.69,2.3,4.39,4.39,0,0,1,0,.53h-4.82a3.2,3.2,0,0,0,.36,1.5,2.56,2.56,0,0,0,.9,1,2.43,2.43,0,0,0,1.25.33,3,3,0,0,0,1.78-.59l.3.52a4.66,4.66,0,0,1-1,.51,3.45,3.45,0,0,1-1.16.18,3,3,0,0,1-1.59-.43,2.91,2.91,0,0,1-1.13-1.22A4,4,0,0,1,173.92,344.19Zm.72-.46h4.16a2.86,2.86,0,0,0-.51-1.84,1.72,1.72,0,0,0-1.42-.63,1.94,1.94,0,0,0-1,.28,2.27,2.27,0,0,0-.83.83A3.29,3.29,0,0,0,174.64,343.73Z"/><path class="cls-3" d="M405,269.13V259.9h2.15a4,4,0,0,1,3.17,1.22,5.91,5.91,0,0,1,0,6.78,3.93,3.93,0,0,1-3.14,1.23Zm.73-.62h1.36a3.21,3.21,0,0,0,2.64-1.07,4.47,4.47,0,0,0,.88-2.93,4.38,4.38,0,0,0-.88-2.91,3.23,3.23,0,0,0-2.64-1.05H405.7Z"/><path class="cls-3" d="M412.9,267.44a1.88,1.88,0,0,1,1-1.71,8.59,8.59,0,0,1,3.27-.83v-.07a2.71,2.71,0,0,0-.33-1.4,1.25,1.25,0,0,0-1.2-.59,3.64,3.64,0,0,0-2.13.77l-.32-.52a6.21,6.21,0,0,1,1.15-.61,3.76,3.76,0,0,1,1.38-.26,1.92,1.92,0,0,1,1.67.72,3.14,3.14,0,0,1,.52,1.91v4.28h-.6l-.09-.87h0a3.78,3.78,0,0,1-2.37,1,2,2,0,0,1-1.4-.48A1.72,1.72,0,0,1,412.9,267.44Zm.74,0a1.21,1.21,0,0,0,.38,1,1.49,1.49,0,0,0,1,.31,2.33,2.33,0,0,0,1.06-.25,5.93,5.93,0,0,0,1.13-.78v-2.23a7.64,7.64,0,0,0-2.75.7A1.44,1.44,0,0,0,413.64,267.4Z"/><path class="cls-3" d="M419.23,263v-.56l1.07-.06.08-1.94h.6v1.94h1.94V263H421v4.26a1.9,1.9,0,0,0,.25,1.06,1,1,0,0,0,.89.35,1.62,1.62,0,0,0,.4-.06,3,3,0,0,0,.42-.14l.19.57a3.81,3.81,0,0,1-1.14.25,1.55,1.55,0,0,1-1.33-.54,2.59,2.59,0,0,1-.39-1.54V263Z"/><path class="cls-3" d="M423.77,267.44a1.88,1.88,0,0,1,1-1.71,8.7,8.7,0,0,1,3.28-.83v-.07a2.71,2.71,0,0,0-.33-1.4,1.25,1.25,0,0,0-1.2-.59,3.64,3.64,0,0,0-2.13.77l-.33-.52a6.66,6.66,0,0,1,1.16-.61,3.72,3.72,0,0,1,1.38-.26,1.93,1.93,0,0,1,1.67.72,3.14,3.14,0,0,1,.52,1.91v4.28h-.6l-.09-.87h0a3.8,3.8,0,0,1-2.37,1,2,2,0,0,1-1.4-.48A1.72,1.72,0,0,1,423.77,267.44Zm.74,0a1.21,1.21,0,0,0,.38,1,1.49,1.49,0,0,0,1,.31,2.29,2.29,0,0,0,1.05-.25,5.67,5.67,0,0,0,1.14-.78v-2.23a7.64,7.64,0,0,0-2.75.7A1.44,1.44,0,0,0,424.51,267.4Z"/><polygon class="cls-1" points="255.1 508.81 304.56 508.81 329.28 467.08 304.56 425.35 255.1 425.35 230.38 467.08 255.1 508.81"/><path class="cls-2" d="M254.46,470.79a.42.42,0,0,1-.31.13.44.44,0,0,1-.32-.12.41.41,0,0,1-.12-.31v-8.94a.42.42,0,0,1,.13-.31.44.44,0,0,1,.32-.12.4.4,0,0,1,.31.13.42.42,0,0,1,.13.3v8.94A.47.47,0,0,1,254.46,470.79Z"/><path class="cls-2" d="M261.94,464.36a3.12,3.12,0,0,1,.61,2v4.12a.38.38,0,0,1-.13.3.4.4,0,0,1-.29.12.41.41,0,0,1-.42-.42v-4.07a2.26,2.26,0,0,0-.46-1.48,1.68,1.68,0,0,0-1.4-.57,2.53,2.53,0,0,0-2,1,1.73,1.73,0,0,0-.34,1v4.07a.44.44,0,0,1-.11.3.41.41,0,0,1-.31.12.41.41,0,0,1-.42-.42v-6.27a.41.41,0,0,1,.42-.42.41.41,0,0,1,.31.12.44.44,0,0,1,.11.3V465a3,3,0,0,1,1.09-1,2.86,2.86,0,0,1,1.45-.4A2.29,2.29,0,0,1,261.94,464.36Z"/><path class="cls-2" d="M270,463.72a.32.32,0,0,1,.12.26.59.59,0,0,1-.05.23l-2.75,6.44a.42.42,0,0,1-.16.19.32.32,0,0,1-.22.08.37.37,0,0,1-.25-.06.41.41,0,0,1-.17-.21l-2.75-6.44,0-.08a.23.23,0,0,1,0-.11.4.4,0,0,1,.12-.29.41.41,0,0,1,.32-.12.4.4,0,0,1,.23.08.53.53,0,0,1,.16.2l2.38,5.67,2.39-5.67a.55.55,0,0,1,.17-.2.34.34,0,0,1,.24-.06A.48.48,0,0,1,270,463.72Z"/><path class="cls-2" d="M277.23,467.22a.4.4,0,0,1-.29.12h-5.29a3.19,3.19,0,0,0,.34,1.5,2.68,2.68,0,0,0,1,1.05,2.85,2.85,0,0,0,1.51.39,2.62,2.62,0,0,0,1.2-.28,2.42,2.42,0,0,0,.85-.72.53.53,0,0,1,.3-.12.38.38,0,0,1,.36.36.38.38,0,0,1-.14.29,3.43,3.43,0,0,1-1.12.9,3.19,3.19,0,0,1-1.44.35,3.79,3.79,0,0,1-1.9-.46,3.29,3.29,0,0,1-1.29-1.3,3.84,3.84,0,0,1-.46-1.92,4.26,4.26,0,0,1,.45-2,3.37,3.37,0,0,1,1.21-1.32,3.11,3.11,0,0,1,1.61-.45,3.33,3.33,0,0,1,1.58.39,3,3,0,0,1,1.19,1.15,3.43,3.43,0,0,1,.48,1.79A.37.37,0,0,1,277.23,467.22ZM272.61,465a2.59,2.59,0,0,0-.89,1.61h4.77v-.11a2.09,2.09,0,0,0-.42-1.1,2.22,2.22,0,0,0-.87-.71,2.45,2.45,0,0,0-1.09-.25A2.35,2.35,0,0,0,272.61,465Z"/><path class="cls-2" d="M278.23,469.48a.3.3,0,0,1,.18-.28.29.29,0,0,1,.22-.09.43.43,0,0,1,.31.14,2.63,2.63,0,0,0,2.2,1.1,2.14,2.14,0,0,0,1.17-.32,1,1,0,0,0,.5-.92,1,1,0,0,0-.47-.88,4.54,4.54,0,0,0-1.28-.5,5.56,5.56,0,0,1-1.82-.76,1.6,1.6,0,0,1-.66-1.38,1.75,1.75,0,0,1,.32-1,2.14,2.14,0,0,1,.88-.71,2.91,2.91,0,0,1,1.25-.25,3.5,3.5,0,0,1,1.21.23,2.53,2.53,0,0,1,1,.73.33.33,0,0,1,.13.28.41.41,0,0,1-.14.3.41.41,0,0,1-.25.08.34.34,0,0,1-.26-.11,2.22,2.22,0,0,0-.79-.57,2.55,2.55,0,0,0-1-.2,1.94,1.94,0,0,0-1.12.31,1,1,0,0,0-.47.92,1,1,0,0,0,.51.86,5.53,5.53,0,0,0,1.42.53,7.28,7.28,0,0,1,1.2.4,2,2,0,0,1,.78.63,1.79,1.79,0,0,1,.3,1.08,1.7,1.7,0,0,1-.73,1.45,2.92,2.92,0,0,1-1.8.54,3.28,3.28,0,0,1-2.72-1.27A.68.68,0,0,1,278.23,469.48Z"/><path class="cls-2" d="M286.36,464.58v4.69a1,1,0,0,0,.2.72.69.69,0,0,0,.52.19.68.68,0,0,0,.21,0l.19,0a.27.27,0,0,1,.22.1.37.37,0,0,1-.13.58,1,1,0,0,1-.54.13,2.76,2.76,0,0,1-.67-.07,1.11,1.11,0,0,1-.56-.42,1.77,1.77,0,0,1-.28-1.12v-4.73h-1a.44.44,0,0,1-.29-.11.38.38,0,0,1-.12-.28.35.35,0,0,1,.12-.28.4.4,0,0,1,.29-.12h1v-1.55a.42.42,0,1,1,.84,0v1.55h1.4a.39.39,0,0,1,.28.13.43.43,0,0,1,.11.28.33.33,0,0,1-.11.27.39.39,0,0,1-.28.11Z"/><path class="cls-2" d="M295.43,469.24a3.35,3.35,0,0,1-1.27,1.34,3.63,3.63,0,0,1-3.61,0,3.44,3.44,0,0,1-1.28-1.34,4.17,4.17,0,0,1,0-3.81,3.51,3.51,0,0,1,1.28-1.34,3.49,3.49,0,0,1,4.88,1.34,4.1,4.1,0,0,1,0,3.81Zm-.72-3.42a2.68,2.68,0,0,0-1-1.05,2.62,2.62,0,0,0-2.75,0,2.73,2.73,0,0,0-1,1.05,3.19,3.19,0,0,0-.36,1.52,3.07,3.07,0,0,0,.36,1.49,2.76,2.76,0,0,0,1,1.06,2.51,2.51,0,0,0,1.37.39,2.63,2.63,0,0,0,2.36-1.43,3.26,3.26,0,0,0,.35-1.51A3.3,3.3,0,0,0,294.71,465.82Z"/><path class="cls-2" d="M301.12,463.71a.36.36,0,0,1,.22.34.41.41,0,0,1-.11.31.34.34,0,0,1-.27.12,1,1,0,0,1-.27-.07,1.06,1.06,0,0,0-.38-.07,1.64,1.64,0,0,0-1,.4,3.17,3.17,0,0,0-.84,1,2.7,2.7,0,0,0-.33,1.27v3.46a.42.42,0,1,1-.84,0v-6.27a.42.42,0,1,1,.84,0v1.23a3.2,3.2,0,0,1,1-1.32,2.46,2.46,0,0,1,1.53-.54A1.19,1.19,0,0,1,301.12,463.71Z"/><path class="cls-2" d="M301.79,469.48a.47.47,0,0,1,.41-.37.42.42,0,0,1,.3.14,2.63,2.63,0,0,0,2.2,1.1,2.14,2.14,0,0,0,1.17-.32,1,1,0,0,0,.5-.92,1,1,0,0,0-.46-.88,4.75,4.75,0,0,0-1.29-.5,5.56,5.56,0,0,1-1.82-.76,1.6,1.6,0,0,1-.66-1.38,1.75,1.75,0,0,1,.32-1,2.14,2.14,0,0,1,.88-.71,2.94,2.94,0,0,1,1.25-.25,3.46,3.46,0,0,1,1.21.23,2.53,2.53,0,0,1,1,.73.33.33,0,0,1,.13.28.41.41,0,0,1-.14.3.41.41,0,0,1-.25.08.32.32,0,0,1-.25-.11,2.26,2.26,0,0,0-.8-.57,2.55,2.55,0,0,0-1-.2,2,2,0,0,0-1.12.31,1,1,0,0,0-.47.92,1,1,0,0,0,.51.86,5.53,5.53,0,0,0,1.42.53,7,7,0,0,1,1.2.4,2,2,0,0,1,.78.63,1.79,1.79,0,0,1,.3,1.08,1.7,1.7,0,0,1-.73,1.45,2.92,2.92,0,0,1-1.8.54,3.28,3.28,0,0,1-2.72-1.27A.68.68,0,0,1,301.79,469.48Z"/><polygon class="cls-1" points="228 339.31 331.66 339.31 383.49 251.84 331.66 164.38 228 164.38 176.17 251.84 228 339.31"/><path class="cls-2" d="M215.12,236.35a3.57,3.57,0,0,1,1.39,1.44,4.28,4.28,0,0,1,.5,2.09,4.42,4.42,0,0,1-.5,2.12,3.82,3.82,0,0,1-1.39,1.51,3.76,3.76,0,0,1-2,.55h-4.22v5.42a.61.61,0,1,1-1.22,0v-13a.6.6,0,0,1,.17-.44.58.58,0,0,1,.44-.17h4.83A3.92,3.92,0,0,1,215.12,236.35ZM215,242a3.21,3.21,0,0,0,.73-2.14,3,3,0,0,0-.73-2.06,2.49,2.49,0,0,0-1.92-.79h-4.22v5.85h4.22A2.42,2.42,0,0,0,215,242Z"/><path class="cls-2" d="M231.13,246.73a6.85,6.85,0,0,1-9.47,2.62,6.68,6.68,0,0,1-2.43-2.62,8.65,8.65,0,0,1,0-7.56,6.52,6.52,0,0,1,2.43-2.61,7.08,7.08,0,0,1,7.05,0,6.43,6.43,0,0,1,2.42,2.61,8.56,8.56,0,0,1,0,7.56ZM230,239.79a5.38,5.38,0,0,0-9.64,0,7.53,7.53,0,0,0,0,6.34,5.37,5.37,0,0,0,9.64,0,7.43,7.43,0,0,0,0-6.34Z"/><path class="cls-2" d="M242.72,249.05a.58.58,0,0,1,.17.43.58.58,0,0,1-.61.61H235a.6.6,0,0,1-.44-.17.59.59,0,0,1-.18-.44v-13a.58.58,0,0,1,.19-.44.71.71,0,0,1,.92,0,.57.57,0,0,1,.18.44v12.45h6.6A.61.61,0,0,1,242.72,249.05Z"/><path class="cls-2" d="M253.05,249.05a.54.54,0,0,1,.17.43.58.58,0,0,1-.17.44.6.6,0,0,1-.44.17h-7.27a.62.62,0,0,1-.44-.17.58.58,0,0,1-.17-.44v-13a.57.57,0,0,1,.18-.44.63.63,0,0,1,.47-.17.6.6,0,0,1,.45.17.57.57,0,0,1,.18.44v12.45h6.6A.6.6,0,0,1,253.05,249.05Z"/><path class="cls-2" d="M263.59,249.07a.63.63,0,0,1,.17.43.58.58,0,0,1-.17.43.61.61,0,0,1-.44.16h-7.48a.58.58,0,0,1-.61-.61v-13a.6.6,0,0,1,.17-.44.58.58,0,0,1,.44-.17h7.48a.58.58,0,0,1,.44.17.6.6,0,0,1,.17.44.6.6,0,0,1-.17.43.66.66,0,0,1-.44.16h-6.81v5.11h5.89a.59.59,0,0,1,.44.18.56.56,0,0,1,.17.43.54.54,0,0,1-.17.43.62.62,0,0,1-.44.17h-5.89v5.54h6.81A.59.59,0,0,1,263.59,249.07Z"/><path class="cls-2" d="M277,236a.58.58,0,0,1,.15.41v13a.62.62,0,0,1-.19.48.64.64,0,0,1-.44.17.67.67,0,0,1-.28-.06.7.7,0,0,1-.21-.14l-8.74-11.78v11.43a.51.51,0,0,1-.18.39.55.55,0,0,1-.4.16.56.56,0,0,1-.57-.55v-13.1a.58.58,0,0,1,.18-.45.57.57,0,0,1,.42-.16.54.54,0,0,1,.48.22L276,247.89V236.4a.55.55,0,0,1,.57-.57A.57.57,0,0,1,277,236Z"/><path class="cls-2" d="M286.76,249.81a7.27,7.27,0,0,1-2.19-1.53.61.61,0,0,1-.25-.49.66.66,0,0,1,.2-.45.55.55,0,0,1,.43-.2.59.59,0,0,1,.45.2,5.15,5.15,0,0,0,4,1.75,4.08,4.08,0,0,0,2.43-.69,2.12,2.12,0,0,0,1-1.81,2.21,2.21,0,0,0-.48-1.46,3.67,3.67,0,0,0-1.25-.95,18.41,18.41,0,0,0-2-.75,12.35,12.35,0,0,1-2.19-.86,4.06,4.06,0,0,1-1.44-1.25,3.44,3.44,0,0,1-.55-2,3.29,3.29,0,0,1,.58-1.91,3.91,3.91,0,0,1,1.63-1.32,5.78,5.78,0,0,1,2.42-.48,6.42,6.42,0,0,1,2.33.42,4.18,4.18,0,0,1,1.74,1.19,1,1,0,0,1,.31.59.59.59,0,0,1-.2.42.65.65,0,0,1-.45.19.46.46,0,0,1-.35-.14,4,4,0,0,0-1.47-1.06,4.69,4.69,0,0,0-1.91-.41,4.15,4.15,0,0,0-2.43.67,2.09,2.09,0,0,0-.93,1.8,2.06,2.06,0,0,0,.89,1.81,9.59,9.59,0,0,0,2.57,1.17,15,15,0,0,1,2.36.87,3.88,3.88,0,0,1,1.5,1.28,3.67,3.67,0,0,1,.58,2.17,3.17,3.17,0,0,1-.6,1.88,4.16,4.16,0,0,1-1.67,1.34,5.86,5.86,0,0,1-2.43.48A6.59,6.59,0,0,1,286.76,249.81Z"/><path class="cls-2" d="M306,236a.55.55,0,0,1,.18.43.51.51,0,0,1-.18.41.59.59,0,0,1-.43.16h-4.22v12.49a.56.56,0,0,1-.19.44.68.68,0,0,1-.9,0,.59.59,0,0,1-.18-.44V237h-4.21a.6.6,0,0,1-.44-.17.53.53,0,0,1-.18-.42.52.52,0,0,1,.18-.41.6.6,0,0,1,.44-.16h9.7A.59.59,0,0,1,306,236Z"/><path class="cls-2" d="M319,249.5a.54.54,0,0,1-.09.26.61.61,0,0,1-.22.23.68.68,0,0,1-.31.08A.71.71,0,0,1,318,250a2.31,2.31,0,0,1-.92-1.06,5.84,5.84,0,0,1-.35-2.34,2.32,2.32,0,0,0-.79-2,3.11,3.11,0,0,0-1.9-.58h-4.52v5.48a.61.61,0,0,1-.16.44.58.58,0,0,1-.43.17.77.77,0,0,1-.49-.17.54.54,0,0,1-.2-.44v-13a.58.58,0,0,1,.61-.61h5.5a4.21,4.21,0,0,1,2.08.5,3.63,3.63,0,0,1,1.43,1.37,3.78,3.78,0,0,1,.52,2,3.89,3.89,0,0,1-.68,2.29,3.47,3.47,0,0,1-1.78,1.36,3.11,3.11,0,0,1,1.47,1.17,3.6,3.6,0,0,1,.59,2,7.41,7.41,0,0,0,.17,1.78,1.14,1.14,0,0,0,.5.71A.62.62,0,0,1,319,249.5Zm-4.55-6.62a2.81,2.81,0,0,0,1.33-.47,3,3,0,0,0,1-1.1,3.28,3.28,0,0,0,.37-1.59,2.58,2.58,0,0,0-.78-1.93,2.83,2.83,0,0,0-2.05-.76h-4.73v5.85Z"/><path class="cls-2" d="M329.92,249.07a.63.63,0,0,1,.17.43.58.58,0,0,1-.17.43.61.61,0,0,1-.44.16H322a.58.58,0,0,1-.61-.61v-13a.6.6,0,0,1,.17-.44.58.58,0,0,1,.44-.17h7.48a.58.58,0,0,1,.44.17.6.6,0,0,1,.17.44.6.6,0,0,1-.17.43.66.66,0,0,1-.44.16h-6.81v5.11h5.89a.57.57,0,0,1,.44.18.56.56,0,0,1,.17.43.54.54,0,0,1-.17.43.6.6,0,0,1-.44.17h-5.89v5.54h6.81A.59.59,0,0,1,329.92,249.07Z"/><path class="cls-2" d="M341,249.07a.6.6,0,0,1,.18.43.55.55,0,0,1-.18.43.59.59,0,0,1-.43.16h-7.48a.6.6,0,0,1-.44-.17.58.58,0,0,1-.17-.44v-13a.58.58,0,0,1,.61-.61h7.48a.56.56,0,0,1,.43.17.57.57,0,0,1,.18.44.57.57,0,0,1-.18.43.63.63,0,0,1-.43.16h-6.81v5.11h5.89a.59.59,0,0,1,.44.18.6.6,0,0,1,.17.43.58.58,0,0,1-.17.43.62.62,0,0,1-.44.17h-5.89v5.54h6.81A.57.57,0,0,1,341,249.07Z"/><path class="cls-2" d="M353.05,236a.58.58,0,0,1,.17.43.53.53,0,0,1-.17.41.61.61,0,0,1-.44.16h-4.22v12.49a.59.59,0,0,1-.18.44.64.64,0,0,1-.45.17.65.65,0,0,1-.46-.17.62.62,0,0,1-.17-.44V237h-4.22a.62.62,0,0,1-.44-.17.56.56,0,0,1-.17-.42.55.55,0,0,1,.17-.41.61.61,0,0,1,.44-.16h9.7A.61.61,0,0,1,353.05,236Z"/><path class="cls-2" d="M254.47,262.14a.77.77,0,0,1-.15.41.55.55,0,0,1-.46.22.6.6,0,0,1-.33-.1,6.35,6.35,0,0,0-3.57-1.08,5.88,5.88,0,0,0-3,.77,5.55,5.55,0,0,0-2.1,2.17,7,7,0,0,0,0,6.38,5.55,5.55,0,0,0,2.11,2.16,5.86,5.86,0,0,0,3,.77,6.37,6.37,0,0,0,3.55-1.06.62.62,0,0,1,.35-.1.55.55,0,0,1,.46.24.56.56,0,0,1,.15.39.53.53,0,0,1-.29.49,7.34,7.34,0,0,1-2,.88A7.67,7.67,0,0,1,250,275a7.1,7.1,0,0,1-3.57-.93,6.79,6.79,0,0,1-2.61-2.6,7.87,7.87,0,0,1,0-7.55,7,7,0,0,1,6.19-3.57,8.09,8.09,0,0,1,2.24.32,7.36,7.36,0,0,1,2,.92A.56.56,0,0,1,254.47,262.14Z"/><path class="cls-2" d="M267.22,274.27a.54.54,0,0,1-.18.42.61.61,0,0,1-.43.17.55.55,0,0,1-.35-.12.68.68,0,0,1-.24-.29l-1.53-3.73h-6.62l-1.51,3.73a.57.57,0,0,1-.55.41.53.53,0,0,1-.59-.53v-.06a.78.78,0,0,1,0-.19l5.38-13.16a.61.61,0,0,1,.61-.41.61.61,0,0,1,.36.11.76.76,0,0,1,.23.3l5.36,13.1A1,1,0,0,1,267.22,274.27Zm-8.88-4.75H264l-2.85-7Z"/><path class="cls-2" d="M276.68,261.09a3.69,3.69,0,0,1,1.4,1.45,4.36,4.36,0,0,1,.5,2.09,4.57,4.57,0,0,1-.5,2.12,3.82,3.82,0,0,1-1.4,1.5,3.76,3.76,0,0,1-2,.55h-4.22v5.42a.57.57,0,0,1-.17.44.57.57,0,0,1-.44.18.6.6,0,0,1-.61-.62v-13a.58.58,0,0,1,.61-.61h4.83A3.92,3.92,0,0,1,276.68,261.09Zm-.1,5.68a3.18,3.18,0,0,0,.73-2.14,2.9,2.9,0,0,0-.73-2.06,2.5,2.5,0,0,0-1.92-.8h-4.22v5.85h4.22A2.41,2.41,0,0,0,276.58,266.77Z"/><path class="cls-2" d="M281.94,274.65a.58.58,0,0,1-.45.19.62.62,0,0,1-.46-.18.6.6,0,0,1-.17-.46v-13a.62.62,0,0,1,.18-.46.68.68,0,0,1,.47-.17.61.61,0,0,1,.45.18.64.64,0,0,1,.18.45v13A.67.67,0,0,1,281.94,274.65Z"/><path class="cls-2" d="M295,260.73a.6.6,0,0,1,.17.43.54.54,0,0,1-.17.42.65.65,0,0,1-.44.15h-4.22v12.49a.57.57,0,0,1-.18.44.61.61,0,0,1-.45.18.62.62,0,0,1-.46-.18.6.6,0,0,1-.17-.44V261.73h-4.22a.61.61,0,0,1-.44-.16.58.58,0,0,1-.17-.43.57.57,0,0,1,.17-.41.66.66,0,0,1,.44-.16h9.7A.66.66,0,0,1,295,260.73Z"/><path class="cls-2" d="M306.9,274.27a.54.54,0,0,1-.18.42.63.63,0,0,1-.43.17.58.58,0,0,1-.36-.12.66.66,0,0,1-.23-.29l-1.53-3.73h-6.62L296,274.45a.57.57,0,0,1-.55.41.53.53,0,0,1-.59-.53v-.06a.47.47,0,0,1,0-.19l5.38-13.16a.61.61,0,0,1,.61-.41.64.64,0,0,1,.36.11.76.76,0,0,1,.23.3l5.36,13.1A1,1,0,0,1,306.9,274.27ZM298,269.52h5.66l-2.85-7Z"/><path class="cls-2" d="M317.22,273.8a.54.54,0,0,1,.18.42.61.61,0,0,1-.62.62h-7.27a.59.59,0,0,1-.44-.18.6.6,0,0,1-.17-.44v-13a.6.6,0,0,1,.18-.44.68.68,0,0,1,.47-.17.64.64,0,0,1,.45.17.6.6,0,0,1,.18.44v12.45h6.6A.6.6,0,0,1,317.22,273.8Z"/><polygon class="cls-1" points="370.29 83.45 419.74 83.45 444.47 41.73 419.74 0 370.29 0 345.56 41.73 370.29 83.45"/><path class="cls-2" d="M378.71,36.12a2.5,2.5,0,0,1,1,1,2.93,2.93,0,0,1,.34,1.43,3.11,3.11,0,0,1-.34,1.46,2.58,2.58,0,0,1-1,1,2.53,2.53,0,0,1-1.39.38h-2.89v3.73a.41.41,0,0,1-.42.42.41.41,0,0,1-.31-.12.44.44,0,0,1-.11-.3v-9a.38.38,0,0,1,.42-.42h3.31A2.69,2.69,0,0,1,378.71,36.12Zm-.07,3.9a2.15,2.15,0,0,0,.5-1.47,2,2,0,0,0-.5-1.41,1.71,1.71,0,0,0-1.32-.55h-2.89v4h2.89A1.67,1.67,0,0,0,378.64,40Z"/><path class="cls-2" d="M387.41,38.54a.41.41,0,0,1,.12.31v6.3a.42.42,0,1,1-.84,0v-.94a3.06,3.06,0,0,1-2.58,1.5,3.06,3.06,0,0,1-1.68-.49,3.45,3.45,0,0,1-1.18-1.35,4.3,4.3,0,0,1-.43-1.92,4.13,4.13,0,0,1,.44-1.91,3.36,3.36,0,0,1,1.18-1.32,3.1,3.1,0,0,1,3.2-.07,2.67,2.67,0,0,1,1.05,1.06v-.86a.41.41,0,0,1,.12-.31.41.41,0,0,1,.6,0Zm-1.9,6a2.66,2.66,0,0,0,.91-1.07,3.43,3.43,0,0,0,.33-1.52,3.31,3.31,0,0,0-.33-1.48,2.7,2.7,0,0,0-.91-1.06A2.39,2.39,0,0,0,384.2,39a2.29,2.29,0,0,0-1.31.38,2.56,2.56,0,0,0-.91,1,3.31,3.31,0,0,0-.33,1.5,3.56,3.56,0,0,0,.32,1.52,2.64,2.64,0,0,0,.9,1.07,2.48,2.48,0,0,0,2.64,0Z"/><path class="cls-2" d="M393.23,38.36a.34.34,0,0,1,.22.33.48.48,0,0,1-.11.32.36.36,0,0,1-.27.12,1.75,1.75,0,0,1-.27-.07,1.1,1.1,0,0,0-.38-.07,1.68,1.68,0,0,0-1,.39,3.17,3.17,0,0,0-.84,1,2.74,2.74,0,0,0-.33,1.28v3.46a.42.42,0,1,1-.84,0V38.87a.42.42,0,1,1,.84,0v1.24a3.17,3.17,0,0,1,1-1.33,2.44,2.44,0,0,1,1.53-.54A1.07,1.07,0,0,1,393.23,38.36Z"/><path class="cls-2" d="M395.82,39.22v4.69a1,1,0,0,0,.19.72.71.71,0,0,0,.52.19l.21,0a1.15,1.15,0,0,1,.2,0,.28.28,0,0,1,.21.11.37.37,0,0,1,.1.24.39.39,0,0,1-.23.33,1,1,0,0,1-.53.14,3.28,3.28,0,0,1-.67-.07,1.09,1.09,0,0,1-.57-.42A1.87,1.87,0,0,1,395,44V39.22h-1a.38.38,0,0,1-.29-.11.36.36,0,0,1-.12-.28.38.38,0,0,1,.12-.28.42.42,0,0,1,.29-.11h1V36.89a.41.41,0,0,1,.12-.31.46.46,0,0,1,.6,0,.41.41,0,0,1,.12.31v1.55h1.4a.35.35,0,0,1,.27.13.38.38,0,0,1,.12.28.37.37,0,0,1-.11.27.4.4,0,0,1-.28.1Z"/><path class="cls-2" d="M404.1,39a3.18,3.18,0,0,1,.61,2v4.12a.38.38,0,0,1-.13.3.4.4,0,0,1-.29.12.41.41,0,0,1-.42-.42V41.07a2.28,2.28,0,0,0-.46-1.48A1.7,1.7,0,0,0,402,39a2.41,2.41,0,0,0-1.15.28,2.26,2.26,0,0,0-.87.75,1.73,1.73,0,0,0-.34,1v4.08a.42.42,0,1,1-.84,0V38.87a.42.42,0,1,1,.84,0v.77a3.11,3.11,0,0,1,1.09-1,3,3,0,0,1,1.45-.4A2.3,2.3,0,0,1,404.1,39Z"/><path class="cls-2" d="M412.48,41.86a.44.44,0,0,1-.3.12h-5.29a3.39,3.39,0,0,0,.34,1.51,2.68,2.68,0,0,0,1,1,2.94,2.94,0,0,0,1.51.38,2.47,2.47,0,0,0,1.2-.28,2.41,2.41,0,0,0,.86-.71.44.44,0,0,1,.29-.13.36.36,0,0,1,.25.11.34.34,0,0,1,.11.26.38.38,0,0,1-.14.29,3.59,3.59,0,0,1-1.12.9,3.12,3.12,0,0,1-1.44.35,3.8,3.8,0,0,1-1.9-.47A3.27,3.27,0,0,1,406.54,44a3.91,3.91,0,0,1-.46-1.93,4.24,4.24,0,0,1,.45-2,3.3,3.3,0,0,1,1.21-1.32,3.15,3.15,0,0,1,1.61-.46,3.23,3.23,0,0,1,1.58.4,3.12,3.12,0,0,1,1.2,1.14,3.59,3.59,0,0,1,.47,1.8A.38.38,0,0,1,412.48,41.86Zm-4.63-2.24a2.59,2.59,0,0,0-.89,1.61h4.77v-.12a2.05,2.05,0,0,0-.42-1.09,2.17,2.17,0,0,0-.87-.72,2.58,2.58,0,0,0-1.09-.24A2.3,2.3,0,0,0,407.85,39.62Z"/><path class="cls-2" d="M417.84,38.36a.34.34,0,0,1,.22.33A.43.43,0,0,1,418,39a.34.34,0,0,1-.27.12,1.75,1.75,0,0,1-.27-.07A1.06,1.06,0,0,0,417,39a1.68,1.68,0,0,0-1,.39,3.17,3.17,0,0,0-.84,1,2.74,2.74,0,0,0-.33,1.28v3.46a.42.42,0,1,1-.84,0V38.87a.42.42,0,1,1,.84,0v1.24a3.17,3.17,0,0,1,1-1.33,2.46,2.46,0,0,1,1.53-.54A1.07,1.07,0,0,1,417.84,38.36Z"/><polygon class="cls-1" points="485.48 83.45 534.93 83.45 559.66 41.73 534.93 0 485.48 0 460.75 41.73 485.48 83.45"/><path class="cls-2" d="M493.9,36.12a2.5,2.5,0,0,1,1,1,3,3,0,0,1,.34,1.43,3.23,3.23,0,0,1-.34,1.46,2.58,2.58,0,0,1-1,1,2.55,2.55,0,0,1-1.39.38h-2.9v3.73a.42.42,0,1,1-.84,0v-9a.41.41,0,0,1,.12-.31.44.44,0,0,1,.3-.11h3.32A2.71,2.71,0,0,1,493.9,36.12Zm-.07,3.9a2.2,2.2,0,0,0,.5-1.47,2,2,0,0,0-.5-1.41,1.71,1.71,0,0,0-1.32-.55h-2.9v4h2.9A1.67,1.67,0,0,0,493.83,40Z"/><path class="cls-2" d="M502.6,38.54a.41.41,0,0,1,.12.31v6.3a.42.42,0,1,1-.84,0v-.94a3,3,0,0,1-1.05,1.06,2.86,2.86,0,0,1-1.53.44,3.09,3.09,0,0,1-1.69-.49,3.35,3.35,0,0,1-1.17-1.35A4.17,4.17,0,0,1,496,42a4.26,4.26,0,0,1,.43-1.91,3.38,3.38,0,0,1,1.19-1.32,3.1,3.1,0,0,1,3.2-.07,2.81,2.81,0,0,1,1.05,1.06v-.86a.41.41,0,0,1,.12-.31.41.41,0,0,1,.6,0Zm-1.91,6a2.59,2.59,0,0,0,.91-1.07,3.43,3.43,0,0,0,.33-1.52,3.31,3.31,0,0,0-.33-1.48,2.62,2.62,0,0,0-.91-1.06,2.34,2.34,0,0,0-1.31-.38,2.25,2.25,0,0,0-1.3.38,2.56,2.56,0,0,0-.91,1,3.31,3.31,0,0,0-.33,1.5,3.42,3.42,0,0,0,.32,1.52,2.49,2.49,0,0,0,.9,1.07,2.4,2.4,0,0,0,1.32.38A2.34,2.34,0,0,0,500.69,44.54Z"/><path class="cls-2" d="M508.41,38.36a.35.35,0,0,1,.23.33.48.48,0,0,1-.11.32.37.37,0,0,1-.27.12,1.32,1.32,0,0,1-.27-.07,1.15,1.15,0,0,0-.39-.07,1.7,1.7,0,0,0-1,.39,3.17,3.17,0,0,0-.84,1,2.74,2.74,0,0,0-.33,1.28v3.46a.4.4,0,0,1-.11.3.41.41,0,0,1-.31.12.41.41,0,0,1-.42-.42V38.87a.41.41,0,0,1,.42-.42.41.41,0,0,1,.31.12.4.4,0,0,1,.11.3v1.24a3.19,3.19,0,0,1,1-1.33,2.42,2.42,0,0,1,1.53-.54A1,1,0,0,1,508.41,38.36Z"/><path class="cls-2" d="M511,39.22v4.69a1,1,0,0,0,.2.72.69.69,0,0,0,.52.19l.21,0,.19,0a.28.28,0,0,1,.22.11.36.36,0,0,1,.09.24.38.38,0,0,1-.22.33,1,1,0,0,1-.53.14,3.39,3.39,0,0,1-.68-.07,1.11,1.11,0,0,1-.56-.42,1.86,1.86,0,0,1-.28-1.12V39.22h-1a.36.36,0,0,1-.28-.11.36.36,0,0,1-.12-.28.38.38,0,0,1,.12-.28.39.39,0,0,1,.28-.11h1V36.89a.41.41,0,0,1,.12-.31.44.44,0,0,1,.3-.11.45.45,0,0,1,.31.11.41.41,0,0,1,.11.31v1.55h1.4a.35.35,0,0,1,.28.13.38.38,0,0,1,.12.28.34.34,0,0,1-.12.27.37.37,0,0,1-.28.1Z"/><path class="cls-2" d="M519.29,39a3.17,3.17,0,0,1,.6,2v4.12a.41.41,0,0,1-.12.3.42.42,0,0,1-.3.12.41.41,0,0,1-.42-.42V41.07a2.33,2.33,0,0,0-.45-1.48,1.71,1.71,0,0,0-1.41-.56,2.4,2.4,0,0,0-1.14.28,2.26,2.26,0,0,0-.87.75,1.66,1.66,0,0,0-.34,1v4.08a.42.42,0,1,1-.84,0V38.87a.42.42,0,1,1,.84,0v.77a3.18,3.18,0,0,1,2.53-1.4A2.32,2.32,0,0,1,519.29,39Z"/><path class="cls-2" d="M527.66,41.86a.4.4,0,0,1-.29.12h-5.29a3.26,3.26,0,0,0,.34,1.51,2.68,2.68,0,0,0,1,1,2.94,2.94,0,0,0,1.51.38,2.5,2.5,0,0,0,1.2-.28,2.3,2.3,0,0,0,.85-.71.46.46,0,0,1,.3-.13.36.36,0,0,1,.25.11.37.37,0,0,1,0,.55,3.7,3.7,0,0,1-1.12.9,3.19,3.19,0,0,1-1.44.35,3.8,3.8,0,0,1-1.9-.47A3.27,3.27,0,0,1,521.73,44a3.91,3.91,0,0,1-.46-1.93,4.24,4.24,0,0,1,.45-2,3.24,3.24,0,0,1,1.21-1.32,3.12,3.12,0,0,1,1.61-.46,3.23,3.23,0,0,1,1.58.4,3,3,0,0,1,1.19,1.14,3.5,3.5,0,0,1,.48,1.8A.35.35,0,0,1,527.66,41.86ZM523,39.62a2.59,2.59,0,0,0-.89,1.61h4.77v-.12A2.05,2.05,0,0,0,526.5,40a2.17,2.17,0,0,0-.87-.72,2.58,2.58,0,0,0-1.09-.24A2.3,2.3,0,0,0,523,39.62Z"/><path class="cls-2" d="M533,38.36a.34.34,0,0,1,.22.33.48.48,0,0,1-.11.32.37.37,0,0,1-.27.12,1.5,1.5,0,0,1-.27-.07,1.11,1.11,0,0,0-.39-.07,1.68,1.68,0,0,0-1,.39,2.93,2.93,0,0,0-.84,1,2.74,2.74,0,0,0-.33,1.28v3.46a.41.41,0,0,1-.42.42.38.38,0,0,1-.3-.12.41.41,0,0,1-.12-.3V38.87a.41.41,0,0,1,.12-.3.38.38,0,0,1,.3-.12.41.41,0,0,1,.42.42v1.24a3.17,3.17,0,0,1,1-1.33,2.42,2.42,0,0,1,1.53-.54A1.07,1.07,0,0,1,533,38.36Z"/><polygon class="cls-1" points="24.73 338.79 74.18 338.79 98.91 297.06 74.18 255.33 24.73 255.33 0 297.06 24.73 338.79"/><path class="cls-2" d="M26.85,300.7a4.89,4.89,0,0,1-1.5-1.05.42.42,0,0,1-.17-.33.43.43,0,0,1,.13-.31.4.4,0,0,1,.61,0,3.54,3.54,0,0,0,2.73,1.2,2.89,2.89,0,0,0,1.68-.47,1.48,1.48,0,0,0,.66-1.25,1.53,1.53,0,0,0-.33-1,2.48,2.48,0,0,0-.86-.65,11.28,11.28,0,0,0-1.36-.52,8.09,8.09,0,0,1-1.5-.59,2.67,2.67,0,0,1-1-.86,2.32,2.32,0,0,1-.38-1.36,2.29,2.29,0,0,1,.4-1.32,2.73,2.73,0,0,1,1.12-.9,3.93,3.93,0,0,1,1.66-.33,4.25,4.25,0,0,1,1.6.29,2.83,2.83,0,0,1,1.2.82.65.65,0,0,1,.21.4.42.42,0,0,1-.14.29.43.43,0,0,1-.31.13.33.33,0,0,1-.24-.1,2.61,2.61,0,0,0-1-.72,3.16,3.16,0,0,0-1.32-.28,2.86,2.86,0,0,0-1.67.45,1.55,1.55,0,0,0,0,2.49,6.84,6.84,0,0,0,1.76.79,10.55,10.55,0,0,1,1.62.61,2.56,2.56,0,0,1,1,.87,2.52,2.52,0,0,1,.4,1.49,2.23,2.23,0,0,1-.41,1.3,2.85,2.85,0,0,1-1.15.91,3.89,3.89,0,0,1-1.67.34A4.4,4.4,0,0,1,26.85,300.7Z"/><path class="cls-2" d="M39.22,297.2a.4.4,0,0,1-.29.12H33.64a3.19,3.19,0,0,0,.34,1.5,2.61,2.61,0,0,0,1,1.05,2.82,2.82,0,0,0,1.5.39,2.66,2.66,0,0,0,1.21-.28,2.51,2.51,0,0,0,.85-.72.5.5,0,0,1,.3-.13.35.35,0,0,1,.25.12.36.36,0,0,1,.11.25.42.42,0,0,1-.14.29,3.36,3.36,0,0,1-1.13.9,3.11,3.11,0,0,1-1.43.35,3.94,3.94,0,0,1-1.91-.46,3.2,3.2,0,0,1-1.28-1.3,3.85,3.85,0,0,1-.47-1.92,4.26,4.26,0,0,1,.46-2A3.3,3.3,0,0,1,34.49,294a3.08,3.08,0,0,1,1.61-.45,3.33,3.33,0,0,1,1.58.39,3.05,3.05,0,0,1,1.19,1.15,3.43,3.43,0,0,1,.48,1.79A.37.37,0,0,1,39.22,297.2ZM34.6,295a2.55,2.55,0,0,0-.89,1.61h4.77v-.11a2.27,2.27,0,0,0-.42-1.1,2.34,2.34,0,0,0-.87-.72,2.62,2.62,0,0,0-1.09-.24A2.35,2.35,0,0,0,34.6,295Z"/><path class="cls-2" d="M44.58,293.69a.36.36,0,0,1,.23.34.45.45,0,0,1-.11.31.37.37,0,0,1-.27.12.87.87,0,0,1-.27-.07,1.15,1.15,0,0,0-.39-.07,1.66,1.66,0,0,0-1,.4,3.07,3.07,0,0,0-.84,1,2.7,2.7,0,0,0-.33,1.27v3.46a.44.44,0,0,1-.11.3.41.41,0,0,1-.31.12.41.41,0,0,1-.42-.42v-6.27a.41.41,0,0,1,.42-.42.41.41,0,0,1,.31.12.44.44,0,0,1,.11.3v1.23a3.23,3.23,0,0,1,1-1.32,2.42,2.42,0,0,1,1.53-.54A1,1,0,0,1,44.58,293.69Z"/><path class="cls-2" d="M52.14,293.7a.3.3,0,0,1,.13.26.46.46,0,0,1-.06.23l-2.74,6.44a.49.49,0,0,1-.16.19.37.37,0,0,1-.22.08.36.36,0,0,1-.25-.06.41.41,0,0,1-.17-.21l-2.76-6.44a.15.15,0,0,0,0-.08.52.52,0,0,1,0-.11.42.42,0,0,1,.11-.29.45.45,0,0,1,.33-.12.4.4,0,0,1,.23.08.53.53,0,0,1,.16.2l2.38,5.67,2.39-5.67a.53.53,0,0,1,.16-.2.35.35,0,0,1,.25-.06A.43.43,0,0,1,52.14,293.7Z"/><path class="cls-2" d="M53.49,292.55a.5.5,0,0,1-.16-.39V292a.47.47,0,0,1,.17-.38.64.64,0,0,1,.44-.13c.37,0,.56.17.56.51v.14a.5.5,0,0,1-.15.39.61.61,0,0,1-.43.13A.63.63,0,0,1,53.49,292.55Zm.73,8.23a.42.42,0,0,1-.72-.3V294a.42.42,0,1,1,.84,0v6.44A.41.41,0,0,1,54.22,300.78Z"/><path class="cls-2" d="M60.5,293.72a2.79,2.79,0,0,1,.9.4.71.71,0,0,1,.35.55.45.45,0,0,1-.11.28.32.32,0,0,1-.26.12.41.41,0,0,1-.23-.05,1,1,0,0,1-.2-.17,1.26,1.26,0,0,0-.35-.26,2.4,2.4,0,0,0-.55-.17,4.35,4.35,0,0,0-.74-.06,2.67,2.67,0,0,0-1.41.39,2.86,2.86,0,0,0-1,1.07,3.09,3.09,0,0,0-.36,1.48,3.26,3.26,0,0,0,.35,1.51,2.68,2.68,0,0,0,1,1.06,2.63,2.63,0,0,0,1.42.39,2.92,2.92,0,0,0,.81-.09,2.71,2.71,0,0,0,.59-.24,2.06,2.06,0,0,0,.34-.25l.2-.15a.34.34,0,0,1,.18,0,.33.33,0,0,1,.26.1.36.36,0,0,1,.1.27.72.72,0,0,1-.33.51,2.88,2.88,0,0,1-.93.47,4.08,4.08,0,0,1-1.3.2,3.46,3.46,0,0,1-1.82-.48,3.34,3.34,0,0,1-1.24-1.34,4.18,4.18,0,0,1-.44-1.92,3.94,3.94,0,0,1,.45-1.87,3.55,3.55,0,0,1,1.26-1.35,3.5,3.5,0,0,1,1.86-.5A5.32,5.32,0,0,1,60.5,293.72Z"/><path class="cls-2" d="M68.94,297.2a.4.4,0,0,1-.29.12H63.36a3.19,3.19,0,0,0,.34,1.5,2.68,2.68,0,0,0,1,1.05,2.85,2.85,0,0,0,1.51.39,2.65,2.65,0,0,0,1.2-.28,2.51,2.51,0,0,0,.85-.72.52.52,0,0,1,.3-.13.35.35,0,0,1,.25.12.36.36,0,0,1,.11.25.42.42,0,0,1-.14.29,3.36,3.36,0,0,1-1.13.9,3.11,3.11,0,0,1-1.43.35,3.9,3.9,0,0,1-1.9-.46,3.23,3.23,0,0,1-1.29-1.3,3.84,3.84,0,0,1-.46-1.92,4.26,4.26,0,0,1,.45-2A3.3,3.3,0,0,1,64.21,294a3.11,3.11,0,0,1,1.61-.45,3.33,3.33,0,0,1,1.58.39,3,3,0,0,1,1.19,1.15,3.43,3.43,0,0,1,.48,1.79A.37.37,0,0,1,68.94,297.2ZM64.32,295a2.55,2.55,0,0,0-.89,1.61H68.2v-.11a2.27,2.27,0,0,0-.42-1.1,2.34,2.34,0,0,0-.87-.72,2.62,2.62,0,0,0-1.09-.24A2.35,2.35,0,0,0,64.32,295Z"/><path class="cls-2" d="M74.31,293.69a.37.37,0,0,1,.22.34.45.45,0,0,1-.11.31.37.37,0,0,1-.27.12.87.87,0,0,1-.27-.07,1.15,1.15,0,0,0-.39-.07,1.68,1.68,0,0,0-1,.4,3.07,3.07,0,0,0-.84,1A2.81,2.81,0,0,0,71.3,297v3.46a.41.41,0,0,1-.42.42.41.41,0,0,1-.31-.12.44.44,0,0,1-.11-.3v-6.27a.44.44,0,0,1,.11-.3.41.41,0,0,1,.31-.12.41.41,0,0,1,.42.42v1.23a3.12,3.12,0,0,1,1-1.32,2.42,2.42,0,0,1,1.53-.54A1.06,1.06,0,0,1,74.31,293.69Z"/><polygon class="cls-1" points="485.48 338.79 534.93 338.79 559.66 297.06 534.93 255.33 485.48 255.33 460.75 297.06 485.48 338.79"/><path class="cls-2" d="M489.05,292.18a.6.6,0,0,1-.09.28.43.43,0,0,1-.33.15.38.38,0,0,1-.22-.07,4.38,4.38,0,0,0-2.45-.74,4,4,0,0,0-2,.53,3.82,3.82,0,0,0-1.44,1.49,4.79,4.79,0,0,0,0,4.38,3.85,3.85,0,0,0,1.45,1.49,4,4,0,0,0,2,.52,4.33,4.33,0,0,0,2.43-.72.44.44,0,0,1,.24-.07.41.41,0,0,1,.33.16.44.44,0,0,1,.09.27.37.37,0,0,1-.19.34,5.12,5.12,0,0,1-1.35.6A5.07,5.07,0,0,1,486,301a4.86,4.86,0,0,1-2.46-.64,4.71,4.71,0,0,1-1.79-1.78,5.18,5.18,0,0,1-.66-2.62,5.09,5.09,0,0,1,.65-2.57,4.83,4.83,0,0,1,1.78-1.81A4.88,4.88,0,0,1,486,291a5.3,5.3,0,0,1,1.53.23,4.92,4.92,0,0,1,1.35.63A.38.38,0,0,1,489.05,292.18Z"/><path class="cls-2" d="M495.92,293.91a.41.41,0,0,1,.12.3v3.94a2.79,2.79,0,0,1-.77,2.11,3.41,3.41,0,0,1-4.24,0,2.82,2.82,0,0,1-.76-2.11v-3.94a.42.42,0,1,1,.84,0v3.94a2.08,2.08,0,0,0,.53,1.54,2.06,2.06,0,0,0,1.5.52,2.09,2.09,0,0,0,1.52-.52,2,2,0,0,0,.54-1.54v-3.94a.42.42,0,0,1,.72-.3Z"/><path class="cls-2" d="M497.37,299.46a.3.3,0,0,1,.18-.28.29.29,0,0,1,.22-.09.43.43,0,0,1,.31.14,2.62,2.62,0,0,0,2.2,1.09,2.13,2.13,0,0,0,1.17-.31,1,1,0,0,0,.5-.92,1,1,0,0,0-.46-.88,4.75,4.75,0,0,0-1.29-.5,5.35,5.35,0,0,1-1.82-.77,1.57,1.57,0,0,1-.66-1.37,1.75,1.75,0,0,1,.32-1,2.14,2.14,0,0,1,.88-.71,2.91,2.91,0,0,1,1.25-.25,3.28,3.28,0,0,1,1.21.23,2.53,2.53,0,0,1,1,.73.33.33,0,0,1,.13.28.41.41,0,0,1-.14.3.41.41,0,0,1-.25.08.38.38,0,0,1-.26-.11,2.22,2.22,0,0,0-.79-.57,2.38,2.38,0,0,0-1-.2,1.94,1.94,0,0,0-1.12.31,1,1,0,0,0,0,1.77,5.15,5.15,0,0,0,1.42.54,6.45,6.45,0,0,1,1.2.4,2,2,0,0,1,.78.63,1.77,1.77,0,0,1,.3,1.08,1.7,1.7,0,0,1-.73,1.45,2.92,2.92,0,0,1-1.8.54,3.31,3.31,0,0,1-2.72-1.27A.72.72,0,0,1,497.37,299.46Z"/><path class="cls-2" d="M505.5,294.56v4.69a1,1,0,0,0,.2.72.74.74,0,0,0,.52.19.68.68,0,0,0,.21,0l.19,0a.27.27,0,0,1,.22.1.37.37,0,0,1,.09.25.38.38,0,0,1-.22.33,1,1,0,0,1-.54.13,2.76,2.76,0,0,1-.67-.07,1.11,1.11,0,0,1-.56-.42,1.77,1.77,0,0,1-.28-1.12v-4.73h-1a.44.44,0,0,1-.29-.11.38.38,0,0,1-.12-.28.38.38,0,0,1,.12-.29.44.44,0,0,1,.29-.11h1v-1.55a.42.42,0,1,1,.84,0v1.55h1.4a.39.39,0,0,1,.28.13.38.38,0,0,1,.11.28.33.33,0,0,1-.11.27.39.39,0,0,1-.28.11Z"/><path class="cls-2" d="M514.57,299.22a3.41,3.41,0,0,1-1.27,1.34,3.63,3.63,0,0,1-3.61,0,3.51,3.51,0,0,1-1.28-1.34,4.17,4.17,0,0,1,0-3.81,3.44,3.44,0,0,1,1.28-1.34,3.57,3.57,0,0,1,3.61,0,3.35,3.35,0,0,1,1.27,1.34,4.1,4.1,0,0,1,0,3.81Zm-.72-3.42a2.68,2.68,0,0,0-1-1.05,2.62,2.62,0,0,0-2.75,0,2.73,2.73,0,0,0-1,1.05,3.19,3.19,0,0,0-.36,1.52,3.1,3.1,0,0,0,.36,1.49,2.76,2.76,0,0,0,1,1.06,2.52,2.52,0,0,0,1.38.39,2.63,2.63,0,0,0,2.35-1.43,3.26,3.26,0,0,0,.35-1.51A3.3,3.3,0,0,0,513.85,295.8Z"/><path class="cls-2" d="M526.38,294.47a3.25,3.25,0,0,1,.6,2v4a.42.42,0,1,1-.84,0v-3.92a2.46,2.46,0,0,0-.44-1.51,1.64,1.64,0,0,0-1.37-.58,2.4,2.4,0,0,0-1.11.28,2.33,2.33,0,0,0-.85.77,1.87,1.87,0,0,0-.32,1v3.92a.42.42,0,1,1-.84,0v-4a2.43,2.43,0,0,0-.42-1.48,1.53,1.53,0,0,0-1.32-.57,2.29,2.29,0,0,0-1.08.28,2.4,2.4,0,0,0-.83.75,1.8,1.8,0,0,0-.31,1v4a.42.42,0,1,1-.84,0v-6.27a.42.42,0,1,1,.84,0V295a3,3,0,0,1,1-.95,2.66,2.66,0,0,1,1.36-.38,2.47,2.47,0,0,1,1.4.39,2.18,2.18,0,0,1,.84,1.15,2.54,2.54,0,0,1,1.08-1.08,3.06,3.06,0,0,1,1.58-.46A2.17,2.17,0,0,1,526.38,294.47Z"/><path class="cls-2" d="M534.75,297.2a.42.42,0,0,1-.3.12h-5.29a3.19,3.19,0,0,0,.35,1.5,2.54,2.54,0,0,0,1,1.05,2.79,2.79,0,0,0,1.5.39,2.59,2.59,0,0,0,1.2-.28,2.55,2.55,0,0,0,.86-.72.5.5,0,0,1,.29-.13.32.32,0,0,1,.25.12.33.33,0,0,1,.12.25.42.42,0,0,1-.14.29,3.46,3.46,0,0,1-1.13.9A3.12,3.12,0,0,1,532,301a3.93,3.93,0,0,1-1.9-.46,3.29,3.29,0,0,1-1.29-1.3,3.84,3.84,0,0,1-.46-1.92,4.14,4.14,0,0,1,.46-2A3.23,3.23,0,0,1,530,294a3.08,3.08,0,0,1,1.61-.45,3.29,3.29,0,0,1,1.57.39,3.07,3.07,0,0,1,1.2,1.15,3.43,3.43,0,0,1,.47,1.79A.4.4,0,0,1,534.75,297.2ZM530.12,295a2.59,2.59,0,0,0-.89,1.61H534v-.11a2.27,2.27,0,0,0-.42-1.1,2.45,2.45,0,0,0-.88-.72,2.57,2.57,0,0,0-1.08-.24A2.36,2.36,0,0,0,530.12,295Z"/><path class="cls-2" d="M540.11,293.69a.35.35,0,0,1,.22.34.41.41,0,0,1-.11.31.34.34,0,0,1-.26.12,1,1,0,0,1-.28-.07,1.06,1.06,0,0,0-.38-.07,1.64,1.64,0,0,0-1,.4,3.07,3.07,0,0,0-.84,1,2.7,2.7,0,0,0-.33,1.27v3.46a.42.42,0,1,1-.84,0v-6.27a.42.42,0,1,1,.84,0v1.23a3.29,3.29,0,0,1,1-1.32,2.47,2.47,0,0,1,1.54-.54A1,1,0,0,1,540.11,293.69Z"/><polygon class="cls-1" points="24.73 210.81 74.18 210.81 98.91 169.09 74.18 127.36 24.73 127.36 0 169.09 24.73 210.81"/><path class="cls-2" d="M21.44,164.8a5.12,5.12,0,0,1-1.5-1.05.43.43,0,0,1,0-.65.4.4,0,0,1,.61,0,3.55,3.55,0,0,0,2.73,1.21,2.77,2.77,0,0,0,1.67-.48,1.46,1.46,0,0,0,.67-1.25,1.53,1.53,0,0,0-.33-1,2.6,2.6,0,0,0-.86-.65,12,12,0,0,0-1.36-.52,7.85,7.85,0,0,1-1.5-.58,2.79,2.79,0,0,1-1-.87,2.3,2.3,0,0,1-.38-1.36,2.24,2.24,0,0,1,.4-1.32,2.73,2.73,0,0,1,1.12-.9,3.93,3.93,0,0,1,1.66-.33,4.46,4.46,0,0,1,1.6.29,2.83,2.83,0,0,1,1.2.82.67.67,0,0,1,.21.4.4.4,0,0,1-.14.29.43.43,0,0,1-.31.13.36.36,0,0,1-.24-.09,2.62,2.62,0,0,0-1-.73,3.16,3.16,0,0,0-1.32-.28,2.86,2.86,0,0,0-1.67.45,1.45,1.45,0,0,0-.64,1.24,1.42,1.42,0,0,0,.62,1.25,6.66,6.66,0,0,0,1.76.8,9.67,9.67,0,0,1,1.62.6,2.56,2.56,0,0,1,1,.87,2.52,2.52,0,0,1,.4,1.49,2.23,2.23,0,0,1-.41,1.3,2.87,2.87,0,0,1-1.15.92,4,4,0,0,1-1.67.33A4.57,4.57,0,0,1,21.44,164.8Z"/><path class="cls-2" d="M33.81,161.29a.4.4,0,0,1-.29.12H28.23a3.19,3.19,0,0,0,.34,1.5,2.49,2.49,0,0,0,1,1.05,2.79,2.79,0,0,0,1.5.39,2.66,2.66,0,0,0,1.21-.28,2.51,2.51,0,0,0,.85-.72.48.48,0,0,1,.3-.12.34.34,0,0,1,.25.11.36.36,0,0,1,.11.25.46.46,0,0,1-.14.3,3.46,3.46,0,0,1-1.13.89,3.11,3.11,0,0,1-1.43.35,3.83,3.83,0,0,1-1.91-.46,3.2,3.2,0,0,1-1.28-1.3,3.85,3.85,0,0,1-.47-1.92,4.14,4.14,0,0,1,.46-2,3.37,3.37,0,0,1,1.21-1.32,3.08,3.08,0,0,1,1.61-.45,3.29,3.29,0,0,1,1.57.39,3.15,3.15,0,0,1,1.2,1.15,3.43,3.43,0,0,1,.48,1.79A.37.37,0,0,1,33.81,161.29ZM29.18,159a2.58,2.58,0,0,0-.88,1.61h4.77v-.11a2.21,2.21,0,0,0-1.3-1.81,2.44,2.44,0,0,0-1.08-.25A2.4,2.4,0,0,0,29.18,159Z"/><path class="cls-2" d="M41.49,158a.45.45,0,0,1,.12.31v6.3a.42.42,0,1,1-.84,0v-.94a2.9,2.9,0,0,1-1.05,1.07,2.86,2.86,0,0,1-1.53.43,3,3,0,0,1-1.68-.49,3.34,3.34,0,0,1-1.18-1.34,4.3,4.3,0,0,1-.43-1.92,4.1,4.1,0,0,1,.44-1.91,3.23,3.23,0,0,1,1.18-1.32,3,3,0,0,1,1.66-.48,2.94,2.94,0,0,1,1.54.41,2.61,2.61,0,0,1,1.05,1.06v-.87a.45.45,0,0,1,.12-.31.43.43,0,0,1,.6,0Zm-1.9,6a2.63,2.63,0,0,0,.91-1.06,3.43,3.43,0,0,0,.33-1.52,3.28,3.28,0,0,0-.33-1.48,2.7,2.7,0,0,0-.91-1.06,2.32,2.32,0,0,0-1.31-.39,2.36,2.36,0,0,0-1.31.38,2.56,2.56,0,0,0-.91,1,3.38,3.38,0,0,0-.33,1.51,3.56,3.56,0,0,0,.32,1.52A2.61,2.61,0,0,0,37,164a2.43,2.43,0,0,0,2.64,0Z"/><path class="cls-2" d="M42.94,163.55a.3.3,0,0,1,.18-.28.3.3,0,0,1,.23-.08.39.39,0,0,1,.3.14,2.65,2.65,0,0,0,2.2,1.09A2.14,2.14,0,0,0,47,164.1a1,1,0,0,0,.5-.91,1,1,0,0,0-.46-.89,4.75,4.75,0,0,0-1.29-.5A5.56,5.56,0,0,1,44,161a1.6,1.6,0,0,1-.66-1.38,1.75,1.75,0,0,1,.32-1,2.22,2.22,0,0,1,.88-.71,2.91,2.91,0,0,1,1.25-.25,3.5,3.5,0,0,1,1.21.23,2.46,2.46,0,0,1,1,.74.31.31,0,0,1,.13.28.38.38,0,0,1-.14.29.36.36,0,0,1-.25.08.31.31,0,0,1-.25-.11,2.26,2.26,0,0,0-.8-.57,2.55,2.55,0,0,0-1-.2,1.94,1.94,0,0,0-1.12.31,1,1,0,0,0-.47.92,1,1,0,0,0,.51.86A5.53,5.53,0,0,0,46,161a6.4,6.4,0,0,1,1.2.41,1.85,1.85,0,0,1,.78.63,1.76,1.76,0,0,1,.3,1.07,1.7,1.7,0,0,1-.73,1.45,2.92,2.92,0,0,1-1.8.54,3.28,3.28,0,0,1-2.72-1.27A.68.68,0,0,1,42.94,163.55Z"/><path class="cls-2" d="M55.82,163.31a3.42,3.42,0,0,1-1.27,1.34,3.65,3.65,0,0,1-3.62,0,3.42,3.42,0,0,1-1.27-1.34,4.17,4.17,0,0,1,0-3.81,3.48,3.48,0,0,1,1.27-1.34,3.59,3.59,0,0,1,3.62,0,3.48,3.48,0,0,1,1.27,1.34,4.17,4.17,0,0,1,0,3.81Zm-.73-3.41a2.68,2.68,0,0,0-1-1.06,2.57,2.57,0,0,0-1.38-.39,2.51,2.51,0,0,0-1.37.39,2.78,2.78,0,0,0-1,1.06,3.41,3.41,0,0,0,0,3,2.76,2.76,0,0,0,1,1.05,2.51,2.51,0,0,0,1.37.39,2.65,2.65,0,0,0,1.38-.38,2.59,2.59,0,0,0,1-1.05,3.43,3.43,0,0,0,0-3Z"/><path class="cls-2" d="M62.94,158.43a3.21,3.21,0,0,1,.61,2v4.11a.38.38,0,0,1-.13.3.4.4,0,0,1-.29.12.41.41,0,0,1-.42-.42V160.5a2.26,2.26,0,0,0-.46-1.48,1.68,1.68,0,0,0-1.4-.57,2.54,2.54,0,0,0-1.15.28,2.45,2.45,0,0,0-.87.75,1.76,1.76,0,0,0-.34,1v4.07a.42.42,0,1,1-.84,0V158.3a.42.42,0,1,1,.84,0v.77a3,3,0,0,1,1.09-1,2.86,2.86,0,0,1,1.45-.4A2.31,2.31,0,0,1,62.94,158.43Z"/><path class="cls-2" d="M71.32,161.29a.44.44,0,0,1-.3.12H65.73a3.19,3.19,0,0,0,.34,1.5,2.55,2.55,0,0,0,1,1.05,2.85,2.85,0,0,0,1.51.39,2.59,2.59,0,0,0,1.2-.28,2.55,2.55,0,0,0,.86-.72.48.48,0,0,1,.29-.12.38.38,0,0,1,.36.36.42.42,0,0,1-.14.3,3.42,3.42,0,0,1-1.12.89,3.16,3.16,0,0,1-1.44.35,3.79,3.79,0,0,1-1.9-.46,3.29,3.29,0,0,1-1.29-1.3,3.84,3.84,0,0,1-.46-1.92,4.26,4.26,0,0,1,.45-2,3.44,3.44,0,0,1,1.21-1.32,3.14,3.14,0,0,1,1.61-.45,3.33,3.33,0,0,1,1.58.39,3.15,3.15,0,0,1,1.2,1.15,3.53,3.53,0,0,1,.47,1.79A.4.4,0,0,1,71.32,161.29ZM66.69,159a2.59,2.59,0,0,0-.89,1.61h4.77v-.11a2.09,2.09,0,0,0-.42-1.1,2.22,2.22,0,0,0-.87-.71,2.45,2.45,0,0,0-1.09-.25A2.35,2.35,0,0,0,66.69,159Z"/><path class="cls-2" d="M78.94,154.75a.41.41,0,0,1,.12.3v9.52a.42.42,0,1,1-.84,0v-1a3,3,0,0,1-1,1.09,2.8,2.8,0,0,1-1.54.45,3,3,0,0,1-1.67-.48,3.35,3.35,0,0,1-1.18-1.34,4.18,4.18,0,0,1-.44-1.92,4.12,4.12,0,0,1,.44-1.9A3.35,3.35,0,0,1,74,158.15a3,3,0,0,1,1.66-.48,3,3,0,0,1,1.52.41,2.89,2.89,0,0,1,1.07,1.07v-4.1a.42.42,0,0,1,.72-.3ZM77,164a2.57,2.57,0,0,0,.91-1.06,3.56,3.56,0,0,0,.32-1.52A3.43,3.43,0,0,0,78,159.9a2.7,2.7,0,0,0-.91-1.06,2.4,2.4,0,0,0-2.62,0,2.62,2.62,0,0,0-.91,1.06,3.3,3.3,0,0,0-.33,1.49,3.43,3.43,0,0,0,.33,1.52,2.59,2.59,0,0,0,.91,1.05,2.29,2.29,0,0,0,1.31.39A2.39,2.39,0,0,0,77,164Z"/><path class="cls-2" d="M27,173.25a3.23,3.23,0,0,1,1.18,1.3,4.3,4.3,0,0,1,0,3.75A3.19,3.19,0,0,1,27,179.61a3,3,0,0,1-1.67.48,2.93,2.93,0,0,1-1.49-.39,3,3,0,0,1-1.08-1v3.69a.41.41,0,0,1-.42.42.41.41,0,0,1-.31-.12.44.44,0,0,1-.11-.3v-9.13a.44.44,0,0,1,.11-.3.39.39,0,0,1,.31-.13.38.38,0,0,1,.3.13.41.41,0,0,1,.12.3v1a2.57,2.57,0,0,1,1.05-1,3.08,3.08,0,0,1,1.51-.38A3.18,3.18,0,0,1,27,173.25Zm-.44,5.68a2.58,2.58,0,0,0,.91-1,3.3,3.3,0,0,0,.33-1.49,3.17,3.17,0,0,0-.33-1.46,2.51,2.51,0,0,0-.91-1,2.38,2.38,0,0,0-1.31-.37,2.48,2.48,0,0,0-1.33.36,2.41,2.41,0,0,0-.91,1,3.25,3.25,0,0,0-.32,1.48,3.29,3.29,0,0,0,.32,1.49,2.44,2.44,0,0,0,.91,1,2.48,2.48,0,0,0,2.64,0Z"/><path class="cls-2" d="M36.15,178.31a3.42,3.42,0,0,1-1.27,1.34,3.65,3.65,0,0,1-3.62,0A3.42,3.42,0,0,1,30,178.31a4.17,4.17,0,0,1,0-3.81,3.48,3.48,0,0,1,1.27-1.34,3.59,3.59,0,0,1,3.62,0,3.48,3.48,0,0,1,1.27,1.34,4.17,4.17,0,0,1,0,3.81Zm-.73-3.41a2.68,2.68,0,0,0-1-1.06,2.57,2.57,0,0,0-1.38-.39,2.51,2.51,0,0,0-1.37.39,2.78,2.78,0,0,0-1,1.06,3.41,3.41,0,0,0,0,3,2.76,2.76,0,0,0,1,1.05,2.51,2.51,0,0,0,1.37.39,2.65,2.65,0,0,0,1.38-.38,2.59,2.59,0,0,0,1-1.05,3.43,3.43,0,0,0,0-3Z"/><path class="cls-2" d="M41.83,172.78a.37.37,0,0,1,.23.34.45.45,0,0,1-.11.31.37.37,0,0,1-.27.12.87.87,0,0,1-.27-.07,1.15,1.15,0,0,0-.39-.07,1.66,1.66,0,0,0-1,.4,3.17,3.17,0,0,0-.84,1,2.7,2.7,0,0,0-.33,1.27v3.46a.41.41,0,0,1-.12.3.39.39,0,0,1-.3.12.41.41,0,0,1-.42-.42V173.3a.41.41,0,0,1,.42-.42.39.39,0,0,1,.3.12.41.41,0,0,1,.12.3v1.23a3.23,3.23,0,0,1,1-1.32,2.42,2.42,0,0,1,1.53-.54A1.15,1.15,0,0,1,41.83,172.78Z"/><path class="cls-2" d="M44.42,173.65v4.69a1,1,0,0,0,.2.72.69.69,0,0,0,.52.19.68.68,0,0,0,.21,0l.19,0a.27.27,0,0,1,.22.1.37.37,0,0,1-.13.58,1,1,0,0,1-.53.13,2.79,2.79,0,0,1-.68-.07,1.11,1.11,0,0,1-.56-.42,1.77,1.77,0,0,1-.28-1.12v-4.73h-1a.44.44,0,0,1-.29-.11.37.37,0,0,1-.11-.28.36.36,0,0,1,.11-.28.39.39,0,0,1,.29-.11h1v-1.56a.41.41,0,0,1,.42-.42.39.39,0,0,1,.3.12.41.41,0,0,1,.12.3v1.56h1.4a.38.38,0,0,1,.28.12.41.41,0,0,1,.12.28.34.34,0,0,1-.12.27.38.38,0,0,1-.28.11Z"/><path class="cls-2" d="M48.87,170.72a1.27,1.27,0,0,0-.25.82V173h1.57a.35.35,0,0,1,.27.11.36.36,0,0,1,.12.28.38.38,0,0,1-.12.28.39.39,0,0,1-.27.11H48.62v5.81a.41.41,0,0,1-.12.3.39.39,0,0,1-.3.12.41.41,0,0,1-.42-.42v-5.81h-1a.38.38,0,0,1-.28-.12.4.4,0,0,1-.11-.27.36.36,0,0,1,.39-.39h1v-1.44a1.8,1.8,0,0,1,.51-1.37,1.94,1.94,0,0,1,1.37-.48,2.19,2.19,0,0,1,.73.12c.22.08.33.2.33.38a.36.36,0,0,1-.11.28.32.32,0,0,1-.25.11.84.84,0,0,1-.31-.07,2.22,2.22,0,0,0-.49-.08A.85.85,0,0,0,48.87,170.72Z"/><path class="cls-2" d="M57.81,178.31a3.44,3.44,0,0,1-3.08,1.82,3.47,3.47,0,0,1-1.81-.48,3.42,3.42,0,0,1-1.27-1.34,4.17,4.17,0,0,1,0-3.81,3.48,3.48,0,0,1,1.27-1.34,3.57,3.57,0,0,1,3.61,0,3.51,3.51,0,0,1,1.28,1.34,4.17,4.17,0,0,1,0,3.81Zm-.73-3.41a2.68,2.68,0,0,0-1-1.06,2.57,2.57,0,0,0-1.38-.39,2.49,2.49,0,0,0-1.37.39,2.71,2.71,0,0,0-1,1.06,3.41,3.41,0,0,0,0,3,2.68,2.68,0,0,0,1,1.05,2.49,2.49,0,0,0,1.37.39,2.65,2.65,0,0,0,1.38-.38,2.59,2.59,0,0,0,1-1.05,3.43,3.43,0,0,0,0-3Z"/><path class="cls-2" d="M60.45,179.87a.41.41,0,0,1-.3.12.41.41,0,0,1-.31-.12.4.4,0,0,1-.11-.3v-9.52a.4.4,0,0,1,.11-.3.41.41,0,0,1,.31-.12.41.41,0,0,1,.42.42v9.52A.41.41,0,0,1,60.45,179.87Z"/><path class="cls-2" d="M62.47,171.64a.49.49,0,0,1-.15-.38v-.14a.47.47,0,0,1,.16-.39.64.64,0,0,1,.44-.13c.37,0,.56.17.56.52v.14a.49.49,0,0,1-.15.38.61.61,0,0,1-.43.13A.63.63,0,0,1,62.47,171.64Zm.73,8.23a.42.42,0,0,1-.72-.3v-6.44a.42.42,0,1,1,.84,0v6.44A.41.41,0,0,1,63.2,179.87Z"/><path class="cls-2" d="M71.3,178.31A3.35,3.35,0,0,1,70,179.65a3.63,3.63,0,0,1-3.61,0,3.44,3.44,0,0,1-1.28-1.34,4.17,4.17,0,0,1,0-3.81,3.51,3.51,0,0,1,1.28-1.34,3.49,3.49,0,0,1,4.88,1.34,4.1,4.1,0,0,1,0,3.81Zm-.73-3.41a2.61,2.61,0,0,0-1-1.06,2.62,2.62,0,0,0-2.75,0,2.76,2.76,0,0,0-1,1.06,3.33,3.33,0,0,0,0,3,2.73,2.73,0,0,0,1,1.05,2.51,2.51,0,0,0,1.37.39A2.6,2.6,0,0,0,69.6,179a2.53,2.53,0,0,0,1-1.05,3.43,3.43,0,0,0,0-3Z"/><path class="cls-2" d="M72.62,178.55a.3.3,0,0,1,.18-.28.29.29,0,0,1,.22-.08.39.39,0,0,1,.31.14,2.65,2.65,0,0,0,2.2,1.09,2.14,2.14,0,0,0,1.17-.32,1,1,0,0,0,.5-.91,1,1,0,0,0-.46-.89,4.75,4.75,0,0,0-1.29-.5,5.56,5.56,0,0,1-1.82-.76,1.6,1.6,0,0,1-.66-1.38,1.75,1.75,0,0,1,.32-1,2.22,2.22,0,0,1,.88-.71,2.91,2.91,0,0,1,1.25-.25,3.5,3.5,0,0,1,1.21.23,2.46,2.46,0,0,1,1,.74.31.31,0,0,1,.13.28.38.38,0,0,1-.14.29.36.36,0,0,1-.25.08.34.34,0,0,1-.26-.11,2.22,2.22,0,0,0-.79-.57,2.55,2.55,0,0,0-1-.2,1.94,1.94,0,0,0-1.12.31,1,1,0,0,0-.47.92,1,1,0,0,0,.51.86,5.53,5.53,0,0,0,1.42.53,6.4,6.4,0,0,1,1.2.41,1.85,1.85,0,0,1,.78.63,1.76,1.76,0,0,1,.3,1.07,1.7,1.7,0,0,1-.73,1.45,2.92,2.92,0,0,1-1.8.54,3.28,3.28,0,0,1-2.72-1.27A.68.68,0,0,1,72.62,178.55Z"/><polygon class="cls-1" points="485.39 210.81 534.85 210.81 559.57 169.09 534.85 127.36 485.39 127.36 460.67 169.09 485.39 210.81"/><path class="cls-2" d="M487.55,164.8a5.29,5.29,0,0,1-1.51-1.05.45.45,0,0,1-.17-.34.46.46,0,0,1,.14-.31.42.42,0,0,1,.3-.14.46.46,0,0,1,.31.14,3.55,3.55,0,0,0,2.73,1.21,2.77,2.77,0,0,0,1.67-.48,1.47,1.47,0,0,0,.66-1.25,1.52,1.52,0,0,0-.32-1,2.6,2.6,0,0,0-.86-.65,12,12,0,0,0-1.36-.52,8.24,8.24,0,0,1-1.51-.58,3,3,0,0,1-1-.87,2.3,2.3,0,0,1-.37-1.36,2.24,2.24,0,0,1,.4-1.32,2.67,2.67,0,0,1,1.12-.9,3.92,3.92,0,0,1,1.65-.33,4.51,4.51,0,0,1,1.61.29,2.83,2.83,0,0,1,1.2.82.74.74,0,0,1,.21.4.4.4,0,0,1-.14.29.45.45,0,0,1-.31.13.32.32,0,0,1-.24-.09,2.66,2.66,0,0,0-1-.73,3.16,3.16,0,0,0-1.32-.28,2.83,2.83,0,0,0-1.66.45,1.54,1.54,0,0,0,0,2.49,6.75,6.75,0,0,0,1.77.8,9.67,9.67,0,0,1,1.62.6,2.63,2.63,0,0,1,1,.87,2.6,2.6,0,0,1,.4,1.49,2.17,2.17,0,0,1-.42,1.3,2.77,2.77,0,0,1-1.14.92,4.06,4.06,0,0,1-1.68.33A4.52,4.52,0,0,1,487.55,164.8Z"/><path class="cls-2" d="M499.92,161.29a.44.44,0,0,1-.3.12h-5.29a3.19,3.19,0,0,0,.34,1.5,2.55,2.55,0,0,0,1,1.05,2.85,2.85,0,0,0,1.51.39,2.59,2.59,0,0,0,1.2-.28,2.55,2.55,0,0,0,.86-.72.48.48,0,0,1,.29-.12.38.38,0,0,1,.36.36.42.42,0,0,1-.14.3,3.42,3.42,0,0,1-1.12.89,3.16,3.16,0,0,1-1.44.35,3.79,3.79,0,0,1-1.9-.46,3.29,3.29,0,0,1-1.29-1.3,3.84,3.84,0,0,1-.46-1.92,4.26,4.26,0,0,1,.45-2,3.44,3.44,0,0,1,1.21-1.32,3.14,3.14,0,0,1,1.61-.45,3.33,3.33,0,0,1,1.58.39,3.15,3.15,0,0,1,1.2,1.15A3.53,3.53,0,0,1,500,161,.4.4,0,0,1,499.92,161.29ZM495.29,159a2.59,2.59,0,0,0-.89,1.61h4.77v-.11a2.09,2.09,0,0,0-.42-1.1,2.22,2.22,0,0,0-.87-.71,2.45,2.45,0,0,0-1.09-.25A2.35,2.35,0,0,0,495.29,159Z"/><path class="cls-2" d="M505.75,157.82a2.48,2.48,0,0,1,.91.4.68.68,0,0,1,.34.54.42.42,0,0,1-.1.28.32.32,0,0,1-.26.13.39.39,0,0,1-.23-.06,1.3,1.3,0,0,1-.21-.17,1.13,1.13,0,0,0-.35-.26,2,2,0,0,0-.55-.16,3.45,3.45,0,0,0-.74-.07,2.54,2.54,0,0,0-1.4.4,2.69,2.69,0,0,0-1,1.06,3,3,0,0,0-.37,1.48,3.3,3.3,0,0,0,.35,1.52,2.68,2.68,0,0,0,1,1.05,2.59,2.59,0,0,0,1.42.39,2.89,2.89,0,0,0,.8-.09,3,3,0,0,0,.6-.23l.33-.26a1.5,1.5,0,0,1,.2-.14.29.29,0,0,1,.18,0,.36.36,0,0,1,.27.1.41.41,0,0,1,.09.28.76.76,0,0,1-.33.51,3.09,3.09,0,0,1-.93.47,4.08,4.08,0,0,1-1.3.19,3.46,3.46,0,0,1-1.82-.48,3.34,3.34,0,0,1-1.24-1.34,4.18,4.18,0,0,1-.44-1.92,3.94,3.94,0,0,1,.45-1.87,3.55,3.55,0,0,1,1.26-1.35,3.5,3.5,0,0,1,1.86-.5A4.82,4.82,0,0,1,505.75,157.82Z"/><path class="cls-2" d="M513.92,158a.41.41,0,0,1,.12.3v3.95a2.74,2.74,0,0,1-.77,2.1,3,3,0,0,1-2.13.74,2.91,2.91,0,0,1-2.1-.74,2.78,2.78,0,0,1-.77-2.1V158.3a.41.41,0,0,1,.42-.42.41.41,0,0,1,.31.12.44.44,0,0,1,.11.3v3.95a1.86,1.86,0,0,0,2,2.06,2.08,2.08,0,0,0,1.52-.53,2,2,0,0,0,.54-1.53V158.3a.42.42,0,0,1,.72-.3Z"/><path class="cls-2" d="M519.74,157.78a.36.36,0,0,1,.22.34.41.41,0,0,1-.11.31.34.34,0,0,1-.26.12,1,1,0,0,1-.28-.07,1.06,1.06,0,0,0-.38-.07,1.64,1.64,0,0,0-1,.4,3.17,3.17,0,0,0-.84,1,2.7,2.7,0,0,0-.33,1.27v3.46a.42.42,0,1,1-.84,0V158.3a.42.42,0,1,1,.84,0v1.23a3.29,3.29,0,0,1,1-1.32,2.47,2.47,0,0,1,1.54-.54A1.18,1.18,0,0,1,519.74,157.78Z"/><path class="cls-2" d="M526.54,161.29a.4.4,0,0,1-.29.12H521a3.19,3.19,0,0,0,.34,1.5,2.55,2.55,0,0,0,1,1.05,2.85,2.85,0,0,0,1.51.39,2.62,2.62,0,0,0,1.2-.28,2.42,2.42,0,0,0,.85-.72.53.53,0,0,1,.3-.12.38.38,0,0,1,.36.36.42.42,0,0,1-.14.3,3.53,3.53,0,0,1-1.12.89,3.19,3.19,0,0,1-1.44.35,3.79,3.79,0,0,1-1.9-.46,3.29,3.29,0,0,1-1.29-1.3,3.84,3.84,0,0,1-.46-1.92,4.26,4.26,0,0,1,.45-2,3.37,3.37,0,0,1,1.21-1.32,3.11,3.11,0,0,1,1.61-.45,3.33,3.33,0,0,1,1.58.39,3.05,3.05,0,0,1,1.19,1.15,3.43,3.43,0,0,1,.48,1.79A.37.37,0,0,1,526.54,161.29ZM521.92,159a2.59,2.59,0,0,0-.89,1.61h4.77v-.11a2.09,2.09,0,0,0-.42-1.1,2.22,2.22,0,0,0-.87-.71,2.45,2.45,0,0,0-1.09-.25A2.35,2.35,0,0,0,521.92,159Z"/><path class="cls-2" d="M534.17,154.75a.41.41,0,0,1,.12.3v9.52a.41.41,0,0,1-.42.42.39.39,0,0,1-.3-.12.41.41,0,0,1-.12-.3v-1a3,3,0,0,1-1.05,1.09,2.74,2.74,0,0,1-1.53.45,3,3,0,0,1-1.67-.48,3.37,3.37,0,0,1-1.19-1.34,4.3,4.3,0,0,1-.43-1.92,4.25,4.25,0,0,1,.43-1.9,3.37,3.37,0,0,1,1.19-1.34,3,3,0,0,1,1.66-.48,3,3,0,0,1,2.59,1.48v-4.1a.41.41,0,0,1,.12-.3.39.39,0,0,1,.3-.12A.41.41,0,0,1,534.17,154.75ZM532.26,164a2.5,2.5,0,0,0,.91-1.06,3.43,3.43,0,0,0,.33-1.52,3.3,3.3,0,0,0-.33-1.49,2.62,2.62,0,0,0-.91-1.06,2.38,2.38,0,0,0-2.61,0,2.55,2.55,0,0,0-.91,1.06,3.3,3.3,0,0,0-.33,1.49,3.43,3.43,0,0,0,.33,1.52,2.52,2.52,0,0,0,.91,1.05,2.26,2.26,0,0,0,1.3.39A2.34,2.34,0,0,0,532.26,164Z"/><path class="cls-2" d="M495.74,179.87a.42.42,0,0,1-.72-.3v-9.52a.42.42,0,1,1,.84,0v9.52A.41.41,0,0,1,495.74,179.87Z"/><path class="cls-2" d="M503.81,178.31a3.42,3.42,0,0,1-1.27,1.34,3.65,3.65,0,0,1-3.62,0,3.42,3.42,0,0,1-1.27-1.34,4.17,4.17,0,0,1,0-3.81,3.48,3.48,0,0,1,1.27-1.34,3.59,3.59,0,0,1,3.62,0,3.48,3.48,0,0,1,1.27,1.34,4.17,4.17,0,0,1,0,3.81Zm-.73-3.41a2.68,2.68,0,0,0-1-1.06,2.57,2.57,0,0,0-1.38-.39,2.51,2.51,0,0,0-1.37.39,2.78,2.78,0,0,0-1,1.06,3.41,3.41,0,0,0,0,3,2.76,2.76,0,0,0,1,1.05,2.51,2.51,0,0,0,1.37.39,2.65,2.65,0,0,0,1.38-.38,2.59,2.59,0,0,0,1-1.05,3.43,3.43,0,0,0,0-3Z"/><path class="cls-2" d="M511.75,173a.45.45,0,0,1,.12.31v6.3a.42.42,0,1,1-.84,0v-.94a2.9,2.9,0,0,1-1,1.07,2.8,2.8,0,0,1-1.52.43,3,3,0,0,1-1.69-.49,3.42,3.42,0,0,1-1.18-1.34,4.3,4.3,0,0,1-.42-1.92,4.1,4.1,0,0,1,.43-1.91,3.23,3.23,0,0,1,1.18-1.32,3,3,0,0,1,1.66-.48,2.91,2.91,0,0,1,1.54.41,2.61,2.61,0,0,1,1,1.06v-.87a.45.45,0,0,1,.12-.31.44.44,0,0,1,.6,0Zm-1.9,6a2.56,2.56,0,0,0,.91-1.06,3.43,3.43,0,0,0,.33-1.52,3.28,3.28,0,0,0-.33-1.48,2.62,2.62,0,0,0-.91-1.06,2.29,2.29,0,0,0-1.31-.39,2.39,2.39,0,0,0-1.31.38,2.56,2.56,0,0,0-.91,1,3.38,3.38,0,0,0-.33,1.51,3.43,3.43,0,0,0,.33,1.52,2.47,2.47,0,0,0,.9,1.06,2.33,2.33,0,0,0,1.32.39A2.29,2.29,0,0,0,509.85,179Z"/><path class="cls-2" d="M519,173.43a3.2,3.2,0,0,1,.6,2v4.11a.41.41,0,0,1-.12.3.42.42,0,0,1-.3.12.41.41,0,0,1-.42-.42V175.5a2.31,2.31,0,0,0-.45-1.48,1.69,1.69,0,0,0-1.41-.57,2.53,2.53,0,0,0-1.14.28,2.45,2.45,0,0,0-.87.75,1.69,1.69,0,0,0-.34,1v4.07a.42.42,0,1,1-.84,0V173.3a.42.42,0,1,1,.84,0v.77a3.18,3.18,0,0,1,2.53-1.4A2.31,2.31,0,0,1,519,173.43Z"/><path class="cls-2" d="M520.94,178.55a.31.31,0,0,1,.19-.28.27.27,0,0,1,.22-.08.41.41,0,0,1,.31.14,2.63,2.63,0,0,0,2.2,1.09,2.18,2.18,0,0,0,1.17-.32,1,1,0,0,0,.49-.91,1,1,0,0,0-.46-.89,4.75,4.75,0,0,0-1.29-.5A5.66,5.66,0,0,1,522,176a1.6,1.6,0,0,1-.66-1.38,1.69,1.69,0,0,1,.33-1,2.12,2.12,0,0,1,.87-.71,3,3,0,0,1,1.25-.25,3.51,3.51,0,0,1,1.22.23,2.53,2.53,0,0,1,1,.74.32.32,0,0,1,.12.28.35.35,0,0,1-.14.29.33.33,0,0,1-.25.08.34.34,0,0,1-.25-.11,2.17,2.17,0,0,0-.8-.57,2.54,2.54,0,0,0-1-.2,2,2,0,0,0-1.13.31,1.05,1.05,0,0,0,0,1.78A5.84,5.84,0,0,0,524,176a6.52,6.52,0,0,1,1.21.41,1.92,1.92,0,0,1,.78.63,1.76,1.76,0,0,1,.3,1.07,1.72,1.72,0,0,1-.73,1.45,3,3,0,0,1-1.81.54,3.26,3.26,0,0,1-2.71-1.27A.61.61,0,0,1,520.94,178.55Z"/><path class="cls-1" d="M184.53,305.77l8.66-8.72-8.66-8.7a1,1,0,0,1,0-1.22.89.89,0,0,1,1.19,0l9.19,9.31,0,0a.86.86,0,0,1,.23.58.84.84,0,0,1-.18.52s0,0-.05.06l0,0-9.19,9.24a.77.77,0,0,1-.58.27.82.82,0,0,1-.61-.27A.84.84,0,0,1,184.53,305.77Z"/><path class="cls-1" d="M188.24,298.07H105.8a1,1,0,0,1,0-2h82.44a1,1,0,0,1,0,2Z"/><path class="cls-1" d="M446.69,317.11l8.66-8.72-8.66-8.7a1,1,0,0,1,0-1.22.89.89,0,0,1,1.19,0l9.19,9.31,0,0a.86.86,0,0,1,.23.58.84.84,0,0,1-.18.52s0,0,0,.06l0,0-9.19,9.24a.77.77,0,0,1-.58.27.82.82,0,0,1-.61-.27A.84.84,0,0,1,446.69,317.11Z"/><path class="cls-1" d="M450.4,309.41H368a1,1,0,0,1,0-2H450.4a1,1,0,0,1,0,2Z"/><path class="cls-1" d="M378.6,279.79l-8.66,8.73,8.66,8.69a1,1,0,0,1,0,1.22.89.89,0,0,1-1.19,0l-9.19-9.3,0,0a.85.85,0,0,1-.23-.58.87.87,0,0,1,.17-.52s0,0,.06-.06l0,0,9.19-9.25a.78.78,0,0,1,.58-.26.83.83,0,0,1,.61,1.39Z"/><path class="cls-1" d="M457.33,289.49H374.88a1,1,0,0,1,0-2h82.45a1,1,0,0,1,0,2Z"/><path class="cls-1" d="M297.81,104.22l-8.73-8.66-8.69,8.66a.94.94,0,0,1-1.22,0,.89.89,0,0,1,0-1.19l9.3-9.18,0,0a.84.84,0,0,1,1.11-.06s0,0,.06.06l0,0,9.24,9.18a.76.76,0,0,1,.26.58.8.8,0,0,1-.26.61A.82.82,0,0,1,297.81,104.22Z"/><path class="cls-1" d="M289.11,158.47a1,1,0,0,1-1-1v-57a1,1,0,1,1,2,0v57A1,1,0,0,1,289.11,158.47Z"/><path class="cls-1" d="M258.58,146.83l8.73,8.66,8.69-8.66a1,1,0,0,1,1.22,0,.88.88,0,0,1,0,1.19l-9.3,9.19,0,0a.9.9,0,0,1-.58.23.87.87,0,0,1-.52-.17s0,0-.06-.06l0,0L257.45,148a.8.8,0,0,1-.26-.58.83.83,0,0,1,1.39-.61Z"/><path class="cls-1" d="M267.28,151.54a1,1,0,0,1-1-1v-57a1,1,0,1,1,2,0v57A1,1,0,0,1,267.28,151.54Z"/><path class="cls-1" d="M374,205.62l-3.5,11.79L382.24,221a1,1,0,0,1,.58,1.08.89.89,0,0,1-1.05.56l-12.5-3.84h0a.87.87,0,0,1-.48-.4.88.88,0,0,1-.1-.55s0,0,0-.08v0l3.71-12.49a.81.81,0,0,1,.39-.51.8.8,0,0,1,.66-.05A.83.83,0,0,1,374,205.62Z"/><path class="cls-1" d="M374.84,216a1,1,0,0,1-.88-.52,1,1,0,0,1-.12-.48,1,1,0,0,1,.52-.88l82.13-44a1,1,0,0,1,.94,1.77l-82.12,44A.89.89,0,0,1,374.84,216Z"/><path class="cls-1" d="M187.15,204.63a.8.8,0,0,1,.66.05.81.81,0,0,1,.39.51l3.71,12.49v0s0,.06,0,.08a.88.88,0,0,1-.1.55.87.87,0,0,1-.48.4h0l-12.49,3.84a.89.89,0,0,1-1.05-.56,1,1,0,0,1,.57-1.08l11.75-3.55-3.5-11.79A.84.84,0,0,1,187.15,204.63Z"/><path class="cls-1" d="M185.76,216a.89.89,0,0,1-.47-.12l-82.12-44a1,1,0,0,1,.94-1.77l82.13,44a1,1,0,0,1,.52.88,1.05,1.05,0,0,1-.11.48A1,1,0,0,1,185.76,216Z"/></g></g></svg>