<svg xmlns="http://www.w3.org/2000/svg" viewBox="0 0 412 74"><defs><style>.cls-1{fill:#fff;}.cls-2{fill:#e2973d;}.cls-3{fill:#160e06;}</style></defs><title>honeycomb</title><g id="Layer_2" data-name="Layer 2"><g id="_4_COL" data-name="4 COL"><rect class="cls-1" width="412" height="74"/><path class="cls-2" d="M35.46,73.31.73,53V38.73l35-20.16,12.07,7.15,0,40ZM1.73,52.4,35.44,72.15l11.38-7,0-38.88L35.7,19.73l-34,19.58Z"/><path class="cls-2" d="M20.7,72.92,8,66l.26-40.24,12.33-7.12,35,20.21-.16,14ZM9,65.41l11.73,6.37L54.33,52.29l.15-12.87L20.54,19.8,9.21,26.34Z"/><polygon class="cls-2" points="48.92 50.29 14.2 29.95 14.2 22.72 15.2 22.72 15.2 29.38 48.92 49.13 54.66 45.74 55.17 46.6 48.92 50.29"/><polygon class="cls-2" points="42.26 69.11 41.26 69.11 41.26 62.46 7.55 42.71 1.8 46.09 1.3 45.23 7.54 41.55 42.26 61.89 42.26 69.11"/><polygon class="cls-2" points="13.95 69 13.85 61.75 48.72 41.67 54.99 45.25 54.5 46.12 48.72 42.82 14.86 62.33 14.95 68.99 13.95 69"/><polygon class="cls-2" points="7.49 50.17 1.22 46.59 1.71 45.72 7.49 49.02 41.35 29.51 41.25 22.85 42.25 22.83 42.35 30.08 7.49 50.17"/><polygon class="cls-2" points="14.95 69.82 14.45 68.95 20.22 65.64 20.58 26.57 14.79 23.27 15.28 22.4 21.59 25.99 21.22 66.23 14.95 69.82"/><polygon class="cls-2" points="41.01 69.55 34.71 65.96 35.08 25.73 41.34 22.13 41.84 23 36.07 26.31 35.71 65.38 41.51 68.68 41.01 69.55"/><path class="cls-3" d="M69.58,20.12H73.1v9.82H86.35V20.12h3.53V43.88H86.35V32.77H73.1V43.88H69.58Z"/><path class="cls-3" d="M108.63,28.29c1.66,1.48,2.5,3.67,2.5,6.56a10.69,10.69,0,0,1-2.2,6.91q-2.19,2.73-6.81,2.73A8,8,0,0,1,96,42.08a9.1,9.1,0,0,1-2.26-6.49,9.86,9.86,0,0,1,2.38-7,8.33,8.33,0,0,1,6.42-2.58A8.79,8.79,0,0,1,108.63,28.29Zm-2,11.51a10.27,10.27,0,0,0,1.16-4.87A8.08,8.08,0,0,0,107,31a4.74,4.74,0,0,0-4.54-2.39,4.6,4.6,0,0,0-4.17,2A9,9,0,0,0,97,35.54a7.86,7.86,0,0,0,1.3,4.61A4.73,4.73,0,0,0,102.41,42Q105.52,42,106.67,39.8Z"/><path class="cls-3" d="M115,26.56h3V29a8.31,8.31,0,0,1,2.83-2.19,8.1,8.1,0,0,1,3.32-.66q4,0,5.4,2.57a8.58,8.58,0,0,1,.77,4V43.88h-3.21V33a5.5,5.5,0,0,0-.51-2.55,3.13,3.13,0,0,0-3-1.62,6.7,6.7,0,0,0-1.84.21,4.76,4.76,0,0,0-2.28,1.42,4.25,4.25,0,0,0-1,1.78,10.82,10.82,0,0,0-.24,2.61v9.07H115Z"/><path class="cls-3" d="M146.6,27a6.92,6.92,0,0,1,2.84,2.24,7.22,7.22,0,0,1,1.25,3,18.31,18.31,0,0,1,.28,3.82H137.3a7.07,7.07,0,0,0,1.35,4.24,4.64,4.64,0,0,0,3.88,1.6,5.21,5.21,0,0,0,3.91-1.51,5,5,0,0,0,1.16-2h3.11a5.57,5.57,0,0,1-.82,2.12,7.77,7.77,0,0,1-1.54,1.92,7.58,7.58,0,0,1-3.54,1.75,11.63,11.63,0,0,1-2.56.25,8.17,8.17,0,0,1-5.91-2.35,8.77,8.77,0,0,1-2.42-6.59,9.47,9.47,0,0,1,2.44-6.77,8.33,8.33,0,0,1,6.38-2.61A9.05,9.05,0,0,1,146.6,27Zm1.13,6.8a7.29,7.29,0,0,0-.89-3,4.65,4.65,0,0,0-4.3-2.1,4.93,4.93,0,0,0-3.62,1.45,5.23,5.23,0,0,0-1.54,3.68Z"/><path class="cls-3" d="M166.72,26.56h3.49c-.44,1.11-1.43,3.65-3,7.6q-1.73,4.47-2.88,7.28-2.73,6.63-3.86,8.08c-.74,1-2,1.46-3.85,1.46a8.63,8.63,0,0,1-1,0,7.25,7.25,0,0,1-.88-.18V48.1a11,11,0,0,0,1.19.26,5.42,5.42,0,0,0,.65,0,2.09,2.09,0,0,0,2-.92c.06-.09.27-.53.64-1.33s.62-1.38.78-1.77L153,26.56h3.57l5,14.11Z"/><path class="cls-3" d="M185.36,27.48q2,1.43,2.39,4.9h-3.07a5,5,0,0,0-1.28-2.66,4.24,4.24,0,0,0-3.21-1.06,4.46,4.46,0,0,0-4.32,2.72,10,10,0,0,0-.84,4.34,7.75,7.75,0,0,0,1.19,4.38A4.22,4.22,0,0,0,180,41.87a4.27,4.27,0,0,0,3.11-1.1,5.85,5.85,0,0,0,1.59-3h3.07a7.4,7.4,0,0,1-2.63,5,8.69,8.69,0,0,1-5.39,1.59,7.49,7.49,0,0,1-5.88-2.48,9,9,0,0,1-2.19-6.2,9.92,9.92,0,0,1,2.4-7.1,8.06,8.06,0,0,1,6.13-2.54A8.68,8.68,0,0,1,185.36,27.48Z"/><path class="cls-3" d="M204.53,28.29Q207,30.51,207,34.85a10.69,10.69,0,0,1-2.2,6.91q-2.19,2.73-6.81,2.73a8,8,0,0,1-6.12-2.41,9.1,9.1,0,0,1-2.26-6.49,9.82,9.82,0,0,1,2.39-7,8.3,8.3,0,0,1,6.41-2.58A8.83,8.83,0,0,1,204.53,28.29Zm-2,11.51a10.27,10.27,0,0,0,1.16-4.87,8.2,8.2,0,0,0-.83-3.94,4.75,4.75,0,0,0-4.55-2.39,4.57,4.57,0,0,0-4.16,2,8.93,8.93,0,0,0-1.31,4.91,7.8,7.8,0,0,0,1.31,4.61A4.71,4.71,0,0,0,198.31,42C200.38,42,201.79,41.26,202.56,39.8Z"/><path class="cls-3" d="M210.89,26.56H214V29a10.53,10.53,0,0,1,2-1.86,6.5,6.5,0,0,1,3.55-1,5.9,5.9,0,0,1,3.61,1,5.38,5.38,0,0,1,1.41,1.71,6.71,6.71,0,0,1,2.47-2.06,7.49,7.49,0,0,1,3.19-.67q3.79,0,5.16,2.52a7.74,7.74,0,0,1,.74,3.66V43.88H232.9v-12a2.7,2.7,0,0,0-.94-2.38,4,4,0,0,0-2.29-.65,4.35,4.35,0,0,0-4.55,5V43.88h-3.21V32.58a5.56,5.56,0,0,0-.45-2.58,2.88,2.88,0,0,0-2.69-1.21,4.83,4.83,0,0,0-3.25,1.28q-1.47,1.28-1.47,4.62v9.19h-3.16Z"/><path class="cls-3" d="M240.57,20h3.07v8.62a7,7,0,0,1,2.48-1.9,7.45,7.45,0,0,1,3.14-.65A7.68,7.68,0,0,1,255,28.33q2.19,2.22,2.19,6.56A10.6,10.6,0,0,1,255,41.71a7.28,7.28,0,0,1-6,2.72,6.55,6.55,0,0,1-3.63-1,8.39,8.39,0,0,1-1.88-1.81v2.22h-2.91ZM252.64,40A8.65,8.65,0,0,0,253.92,35a7.59,7.59,0,0,0-1.28-4.52,4.31,4.31,0,0,0-3.76-1.8,5.49,5.49,0,0,0-3.79,1.47q-1.64,1.47-1.63,4.85a9.92,9.92,0,0,0,.67,4,4.65,4.65,0,0,0,4.67,2.86A4.34,4.34,0,0,0,252.64,40Z"/><path class="cls-3" d="M69.81,56.12h2.53V72.88H69.81Z"/><path class="cls-3" d="M76.12,60.67h2.16V62.4a5.53,5.53,0,0,1,4.42-2c1.92,0,3.21.61,3.89,1.82a5.88,5.88,0,0,1,.55,2.84v7.83H84.83v-7.7a3.89,3.89,0,0,0-.36-1.8,2.28,2.28,0,0,0-2.2-1.14,4.92,4.92,0,0,0-1.33.15,3.48,3.48,0,0,0-1.64,1,3,3,0,0,0-.74,1.25,7.79,7.79,0,0,0-.17,1.84v6.4H76.12Z"/><path class="cls-3" d="M91.62,60.67l3.61,9.94L99,60.67h2.49L96.39,72.88H94L89,60.67Z"/><path class="cls-3" d="M111.79,61a5.12,5.12,0,0,1,2,1.58,5.22,5.22,0,0,1,.9,2.16,12.27,12.27,0,0,1,.21,2.69H105.1a4.92,4.92,0,0,0,1,3,3.38,3.38,0,0,0,2.8,1.13,3.82,3.82,0,0,0,2.82-1.07,3.5,3.5,0,0,0,.83-1.43h2.24a4,4,0,0,1-.59,1.5,5.33,5.33,0,0,1-3.66,2.58,7.94,7.94,0,0,1-1.84.19,6,6,0,0,1-4.25-1.66A6.1,6.1,0,0,1,102.66,67a6.63,6.63,0,0,1,1.76-4.78A6,6,0,0,1,109,60.39,6.61,6.61,0,0,1,111.79,61Zm.81,4.8a5,5,0,0,0-.64-2.13,3.37,3.37,0,0,0-3.09-1.49,3.6,3.6,0,0,0-2.61,1,3.68,3.68,0,0,0-1.11,2.6Z"/><path class="cls-3" d="M119.17,69.05a2.68,2.68,0,0,0,.58,1.57,3.86,3.86,0,0,0,3,1,4.92,4.92,0,0,0,2.26-.5,1.61,1.61,0,0,0,1-1.53,1.29,1.29,0,0,0-.78-1.2,9.83,9.83,0,0,0-2-.58l-1.84-.41a9.6,9.6,0,0,1-2.59-.87,2.56,2.56,0,0,1-1.49-2.31,3.37,3.37,0,0,1,1.4-2.8,6,6,0,0,1,3.77-1.07q3.09,0,4.47,1.62a3.3,3.3,0,0,1,.83,2.21h-2.15a2.18,2.18,0,0,0-.56-1.26,3.82,3.82,0,0,0-2.77-.81,3.63,3.63,0,0,0-2,.45,1.34,1.34,0,0,0-.68,1.17,1.43,1.43,0,0,0,.89,1.27,5.71,5.71,0,0,0,1.52.5l1.53.33a13.28,13.28,0,0,1,3.35,1,2.68,2.68,0,0,1,1.32,2.48,3.58,3.58,0,0,1-1.39,2.81,6.31,6.31,0,0,1-4.22,1.19c-2,0-3.48-.41-4.33-1.24A4.39,4.39,0,0,1,117,69.05Z"/><path class="cls-3" d="M131.2,57.25h2.3v3.42h2.16v1.67H133.5v8a.84.84,0,0,0,.48.85,2.07,2.07,0,0,0,.88.13h.35l.45,0v1.63a5.4,5.4,0,0,1-.82.15,8.61,8.61,0,0,1-.91,0,2.61,2.61,0,0,1-2.16-.74,3,3,0,0,1-.57-1.91V62.34h-1.83V60.67h1.83Z"/><path class="cls-3" d="M137.93,60.67h2.25V62.4a7.11,7.11,0,0,1,1.46-1.31,4.7,4.7,0,0,1,2.55-.7,4.29,4.29,0,0,1,2.6.72,3.78,3.78,0,0,1,1,1.21,4.93,4.93,0,0,1,1.78-1.46,5.53,5.53,0,0,1,2.3-.47c1.82,0,3.06.59,3.71,1.78a5.27,5.27,0,0,1,.53,2.58v8.13h-2.36V64.4a1.87,1.87,0,0,0-.67-1.68,2.84,2.84,0,0,0-1.65-.46,3.46,3.46,0,0,0-2.3.81,3.34,3.34,0,0,0-1,2.71v7.1h-2.31v-8a3.83,3.83,0,0,0-.33-1.82,2.06,2.06,0,0,0-1.93-.85,3.51,3.51,0,0,0-2.34.9,4.11,4.11,0,0,0-1.06,3.26v6.48h-2.27Z"/><path class="cls-3" d="M167.82,61a5.09,5.09,0,0,1,2.05,1.58,5.22,5.22,0,0,1,.9,2.16,12.42,12.42,0,0,1,.2,2.69h-9.83a4.92,4.92,0,0,0,1,3,3.37,3.37,0,0,0,2.8,1.13,3.78,3.78,0,0,0,2.81-1.07,3.41,3.41,0,0,0,.84-1.43h2.23a3.84,3.84,0,0,1-.58,1.5,5.67,5.67,0,0,1-1.12,1.35,5.36,5.36,0,0,1-2.54,1.23,7.94,7.94,0,0,1-1.84.19,6,6,0,0,1-4.26-1.66A6.13,6.13,0,0,1,158.7,67a6.63,6.63,0,0,1,1.76-4.78,6,6,0,0,1,4.59-1.84A6.57,6.57,0,0,1,167.82,61Zm.82,4.8a5,5,0,0,0-.64-2.13,3.37,3.37,0,0,0-3.09-1.49,3.6,3.6,0,0,0-2.61,1,3.68,3.68,0,0,0-1.11,2.6Z"/><path class="cls-3" d="M173.85,60.67H176V62.4a5.92,5.92,0,0,1,2-1.54,6,6,0,0,1,2.39-.47c1.92,0,3.22.61,3.89,1.82a5.87,5.87,0,0,1,.56,2.84v7.83h-2.31v-7.7a3.88,3.88,0,0,0-.37-1.8,2.27,2.27,0,0,0-2.2-1.14,4.79,4.79,0,0,0-1.32.15,3.51,3.51,0,0,0-1.65,1,3,3,0,0,0-.73,1.25,7.29,7.29,0,0,0-.17,1.84v6.4h-2.28Z"/><path class="cls-3" d="M188.69,57.25H191v3.42h2.16v1.67H191v8a.84.84,0,0,0,.48.85,2.07,2.07,0,0,0,.88.13h.35l.45,0v1.63a5.4,5.4,0,0,1-.82.15,8.46,8.46,0,0,1-.91,0,2.61,2.61,0,0,1-2.16-.74,3,3,0,0,1-.57-1.91V62.34h-1.83V60.67h1.83Z"/><path class="cls-3" d="M215.94,56.12v2h-6.25V72.88h-2.54V58.12H200.9v-2Z"/><path class="cls-3" d="M217.06,60.67h2.16v2.11a4.6,4.6,0,0,1,1.3-1.5,3.58,3.58,0,0,1,2.39-.89h.21l.52.05v2.17a2.71,2.71,0,0,0-.37,0h-.37a3.39,3.39,0,0,0-2.64,1,3.26,3.26,0,0,0-.93,2.3v7h-2.27Z"/><path class="cls-3" d="M227.88,60.67v8.11a3.2,3.2,0,0,0,.32,1.52,2.28,2.28,0,0,0,2.2,1.1,3.11,3.11,0,0,0,3.15-1.92,6.94,6.94,0,0,0,.46-2.81v-6h2.27V72.88h-2.15l0-1.8a4.35,4.35,0,0,1-1.08,1.18,5.06,5.06,0,0,1-3.1.95c-1.89,0-3.18-.58-3.86-1.74a4.9,4.9,0,0,1-.56-2.5v-8.3Z"/><path class="cls-3" d="M241.34,69.05a2.82,2.82,0,0,0,.58,1.57,3.9,3.9,0,0,0,3.05,1,5,5,0,0,0,2.26-.5,1.61,1.61,0,0,0,1-1.53,1.29,1.29,0,0,0-.78-1.2,9.77,9.77,0,0,0-2-.58l-1.83-.41a9.6,9.6,0,0,1-2.59-.87,2.54,2.54,0,0,1-1.49-2.31,3.37,3.37,0,0,1,1.4-2.8,6,6,0,0,1,3.77-1.07q3.09,0,4.46,1.62a3.26,3.26,0,0,1,.84,2.21h-2.15a2.18,2.18,0,0,0-.56-1.26,3.83,3.83,0,0,0-2.78-.81,3.62,3.62,0,0,0-2,.45,1.34,1.34,0,0,0-.68,1.17,1.43,1.43,0,0,0,.89,1.27,5.59,5.59,0,0,0,1.52.5l1.53.33a13,13,0,0,1,3.34,1,2.67,2.67,0,0,1,1.33,2.48,3.58,3.58,0,0,1-1.39,2.81,6.31,6.31,0,0,1-4.22,1.19c-2,0-3.48-.41-4.33-1.24a4.39,4.39,0,0,1-1.36-3.06Z"/><path class="cls-3" d="M253.38,57.25h2.3v3.42h2.15v1.67h-2.15v8a.84.84,0,0,0,.48.85,2.07,2.07,0,0,0,.88.13h.35l.44,0v1.63A5.27,5.27,0,0,1,257,73a8.65,8.65,0,0,1-.92,0,2.57,2.57,0,0,1-2.15-.74,3,3,0,0,1-.57-1.91V62.34h-1.83V60.67h1.83Z"/></g></g></svg>