<svg xmlns="http://www.w3.org/2000/svg" viewBox="0 0 412 74"><defs><style>.cls-1{fill:#fff;}.cls-2{fill:#113a51;}.cls-3{fill:#0ea3e5;}</style></defs><title>p2p</title><g id="Layer_2" data-name="Layer 2"><g id="_4_COL" data-name="4 COL"><rect class="cls-1" width="412" height="74"/><g id="XVOg0A"><path class="cls-2" d="M8.14,38c.73,0,1.46,0,2.19,0,10.9-.66,12.14,6.2,11.1,13.79-.58,4.27-3.67,6.54-9.14,6.55-3.12,0-4,1-3.74,4s0,5.83.07,8.75c0,1.57-.6,2-2.14,2.13-6,.43-5.95.49-5.95-5.29V42.71C.53,38,.53,38,5.22,38Zm.33,10.06c1,1.38-1.61,4.4,2.17,4.57,3,.14,3.61-1.83,3.6-4.29s-.26-4.41-3.37-4.51C7.3,43.71,9.06,46.42,8.47,48.06Z"/><path class="cls-2" d="M68.5,46.05v4.39c-1.25,5.85-5.13,8.18-10.8,8-1.93-.08-2.56.61-2.49,2.51.12,3.16-.06,6.34.06,9.5.09,2-.5,2.75-2.63,2.78-5.48.07-5.48.19-5.48-5.38,0-8.53.21-17.07-.1-25.58-.13-3.69,1.08-4.74,4.49-4.27a34.18,34.18,0,0,0,4.75,0C64.39,38,65.7,38.87,68.5,46.05ZM55.05,48.21c1,1.39-1.46,4.24,2.08,4.4,3.08.15,3.44-1.9,3.41-4.34s-.11-4.51-3.31-4.41C53.63,44,56,46.81,55.05,48.21Z"/><path class="cls-2" d="M32.92,67.22c2.64,0,4.45,0,6.27,0s3.71-.39,3.74,2.78-1.47,3.24-3.78,3.16c-3.41-.11-6.83,0-10.25,0-4.58,0-6.09-2.76-3.57-6.89,2.67-4.36,5.6-8.56,8.35-12.88,1.17-1.84,2.48-3.65,2.59-6,.08-1.58-.18-3.18-2-3.3-1.53-.1-2.16,1.26-2.48,2.68-.77,3.39-2.82,4.52-6.27,3.69-1.16-.28-1.2-.92-1.24-1.83C24,44,26,39.82,29.39,38.53c4.06-1.52,8.19-1.6,11.74,1.34,2.73,2.27,3.41,7.39,1.72,11.61-1.5,3.78-4.18,6.85-6.33,10.24C35.5,63.34,34.42,64.93,32.92,67.22Z"/></g><path class="cls-3" d="M88.9,58.82V56.29H99.62V73.34H97.28V67.81h-.09a7.84,7.84,0,0,1-7.36,6.09c-6.84,0-10.68-5.29-10.68-17.28S83,39.33,89.83,39.33c6.37,0,9.23,4.17,9.61,9.93h-3c0-4-2.2-7.4-6.61-7.4-4.78,0-7.68,3.94-7.68,14.76s2.9,14.75,7.68,14.75c4.5,0,7-4,7-11.85v-.7Z"/><path class="cls-3" d="M104.77,39.89h3V73.34h-3Z"/></g></g></svg>