<svg enable-background="new 0 0 120 63.1" viewBox="0 0 120 63.1" xmlns="http://www.w3.org/2000/svg"><g fill="#fff"><g enable-background="new"><path d="m62.1 2.9h6.6c1.3 0 2.4.4 3.2 1.1s1.2 1.8 1.2 3.1c0 1.2-.4 2.2-1.1 3s-1.8 1.3-3.3 1.3h-4.6v6.3h-2zm7.8 2.1c-.4-.2-1-.3-1.8-.3h-4v5.1h4c.9 0 1.6-.2 2.2-.6s.8-1.1.8-2c0-1.1-.4-1.8-1.2-2.2z"/><path d="m82.7 8c1 .9 1.4 2.3 1.4 4.1 0 1.7-.4 3.2-1.3 4.3s-2.2 1.7-3.9 1.7c-1.5 0-2.7-.5-3.5-1.5-.9-1-1.3-2.4-1.3-4.1 0-1.8.5-3.3 1.4-4.3.9-1.1 2.1-1.6 3.7-1.6 1.4 0 2.6.5 3.5 1.4zm-1.1 7.2c.4-.9.7-1.9.7-3 0-1-.2-1.8-.5-2.5-.5-1-1.4-1.5-2.6-1.5-1.1 0-1.9.4-2.4 1.3-.5.8-.8 1.9-.8 3.1s.2 2.1.8 2.9c.5.8 1.3 1.2 2.4 1.2 1.1-.1 2-.6 2.4-1.5z"/><path d="m85.9 2.9h1.8v14.8h-1.8z"/><path d="m89.9 2.9h1.8v14.8h-1.8z"/><path d="m100.5 7.2c.7.4 1.3.8 1.6 1.4.4.5.6 1.2.7 1.9.1.5.2 1.3.2 2.4h-7.9c0 1.1.3 2 .8 2.7s1.2 1 2.2 1c.9 0 1.7-.3 2.3-.9.3-.4.5-.8.7-1.3h1.8c0 .4-.2.8-.5 1.3s-.6.9-.9 1.2c-.5.5-1.2.9-2 1.1-.4.1-.9.2-1.5.2-1.3 0-2.5-.5-3.4-1.5s-1.4-2.4-1.4-4.1.5-3.2 1.4-4.2 2.2-1.6 3.7-1.6c.7-.1 1.5.1 2.2.4zm.6 4.3c-.1-.8-.2-1.4-.5-1.9-.5-.9-1.3-1.3-2.5-1.3-.8 0-1.5.3-2.1.9s-.9 1.4-.9 2.3z"/><path d="m104.7 6.9h1.7v1.5c.5-.6 1.1-1.1 1.6-1.4.6-.3 1.2-.4 1.9-.4 1.5 0 2.6.5 3.1 1.6.3.6.4 1.4.4 2.5v6.9h-1.9v-6.8c0-.7-.1-1.2-.3-1.6-.3-.7-.9-1-1.8-1-.4 0-.8 0-1.1.1-.5.1-.9.4-1.3.9-.3.4-.5.7-.6 1.1s-.1.9-.1 1.6v5.7h-1.8v-10.7z"/></g><g enable-background="new"><path d="m63.2 30.7c0 .8.2 1.5.6 2.1.6 1 1.8 1.5 3.4 1.5.7 0 1.4-.1 2-.3 1.2-.4 1.7-1.2 1.7-2.2 0-.8-.2-1.4-.7-1.7s-1.3-.6-2.3-.9l-1.9-.5c-1.3-.3-2.2-.6-2.7-1-.9-.6-1.4-1.5-1.4-2.8s.4-2.4 1.3-3.3 2.2-1.3 3.8-1.3c1.5 0 2.8.4 3.9 1.1 1.1.8 1.6 2 1.6 3.6h-1.9c-.1-.8-.3-1.4-.6-1.8-.6-.8-1.6-1.2-3-1.2-1.1 0-2 .2-2.5.7s-.7 1.1-.7 1.7c0 .7.3 1.3.9 1.6.4.2 1.3.5 2.6.8l2 .5c1 .2 1.7.5 2.3.9.9.7 1.4 1.7 1.4 3 0 1.6-.6 2.8-1.8 3.5s-2.5 1.1-4.1 1.1c-1.8 0-3.2-.5-4.2-1.4s-1.5-2.2-1.5-3.8h1.8z"/><path d="m75.3 21.6h1.8v3h1.7v1.5h-1.7v7.1c0 .4.1.6.4.8.1.1.4.1.7.1h.3.4v1.4c-.2.1-.4.1-.7.1-.2 0-.5 0-.7 0-.8 0-1.4-.2-1.7-.7-.3-.4-.5-1-.5-1.7v-7.2h-1.5v-1.5h1.5z"/><path d="m80.1 24.6h1.7v1.9c.1-.4.5-.8 1-1.3s1.2-.8 1.9-.8h.2s.2 0 .4 0v1.9c-.1 0-.2 0-.3 0s-.2 0-.3 0c-.9 0-1.6.3-2.1.9s-.7 1.3-.7 2v6.2h-1.8z"/><path d="m93 24.9c.7.4 1.3.8 1.6 1.4.4.5.6 1.2.7 1.9.1.5.2 1.3.2 2.4h-7.9c0 1.1.3 2 .8 2.7s1.2 1 2.2 1c.9 0 1.7-.3 2.3-.9.3-.4.5-.8.7-1.3h1.8c0 .4-.2.8-.5 1.3s-.6.9-.9 1.2c-.5.5-1.2.9-2 1.1-.4.1-.9.2-1.5.2-1.3 0-2.5-.5-3.4-1.5s-1.4-2.4-1.4-4.1.5-3.2 1.4-4.2 2.2-1.6 3.7-1.6c.8-.1 1.5.1 2.2.4zm.7 4.3c-.1-.8-.2-1.4-.5-1.9-.5-.9-1.3-1.3-2.5-1.3-.8 0-1.5.3-2.1.9s-.9 1.4-.9 2.3z"/><path d="m103.9 24.9c.7.4 1.3.8 1.6 1.4.4.5.6 1.2.7 1.9.1.5.2 1.3.2 2.4h-7.9c0 1.1.3 2 .8 2.7s1.2 1 2.2 1c.9 0 1.7-.3 2.3-.9.3-.4.5-.8.7-1.3h1.8c0 .4-.2.8-.5 1.3s-.6.9-.9 1.2c-.5.5-1.2.9-2 1.1-.4.1-.9.2-1.5.2-1.3 0-2.5-.5-3.4-1.5s-1.4-2.4-1.4-4.1.5-3.2 1.4-4.2 2.2-1.6 3.7-1.6c.8-.1 1.5.1 2.2.4zm.7 4.3c-.1-.8-.2-1.4-.5-1.9-.5-.9-1.3-1.3-2.5-1.3-.8 0-1.5.3-2.1.9s-.9 1.4-.9 2.3z"/><path d="m108.5 21.6h1.8v3h1.7v1.5h-1.7v7.1c0 .4.1.6.4.8.1.1.4.1.7.1h.3.4v1.4c-.2.1-.4.1-.7.1-.2 0-.5 0-.7 0-.8 0-1.4-.2-1.7-.7-.3-.4-.5-1-.5-1.7v-7.2h-1.5v-1.5h1.5z"/></g><g enable-background="new"><path d="m72.4 39.4c1 1 1.6 2.1 1.7 3.4h-2c-.2-1-.7-1.7-1.3-2.3-.7-.6-1.6-.8-2.7-.8-1.4 0-2.6.5-3.5 1.5s-1.3 2.6-1.3 4.7c0 1.7.4 3.2 1.2 4.2s2 1.6 3.6 1.6c1.5 0 2.6-.6 3.3-1.7.4-.6.7-1.4.9-2.4h2c-.2 1.6-.7 2.9-1.7 3.9-1.2 1.3-2.7 1.9-4.7 1.9-1.7 0-3.1-.5-4.3-1.6-1.5-1.4-2.3-3.5-2.3-6.4 0-2.2.6-4 1.7-5.4 1.2-1.5 2.9-2.3 5.1-2.3 1.9.2 3.3.7 4.3 1.7z"/><path d="m81.8 46.6c.4-.1.7-.2.8-.5.1-.2.1-.4.1-.7 0-.6-.2-1.1-.7-1.4-.4-.3-1.1-.4-1.9-.4-.9 0-1.6.3-2 .8-.2.3-.4.7-.4 1.3h-1.7c0-1.3.5-2.3 1.3-2.8s1.8-.8 2.9-.8c1.3 0 2.3.2 3.1.7s1.2 1.2 1.2 2.3v6.2c0 .2 0 .3.1.5.1.1.2.2.5.2h.3.3v1.3c-.3.1-.5.1-.6.2s-.4 0-.6 0c-.6 0-1.1-.2-1.4-.7-.1-.2-.3-.6-.3-1-.4.5-.9.9-1.6 1.3s-1.5.5-2.3.5c-1 0-1.8-.3-2.5-.9s-1-1.4-1-2.3c0-1 .3-1.8.9-2.3.6-.6 1.4-.9 2.5-1zm-3.8 4.9c.4.3.8.5 1.4.5s1.3-.1 1.9-.4c1-.5 1.5-1.3 1.5-2.4v-1.5c-.2.1-.5.3-.9.4s-.7.2-1 .2l-1.1.1c-.7.1-1.2.2-1.5.4-.6.3-.8.8-.8 1.5-.1.5.1.9.5 1.2z"/><path d="m86.8 42.4h1.8v1.4c.4-.5.8-.9 1.2-1.1.6-.4 1.3-.6 2.2-.6 1.2 0 2.3.5 3.1 1.4.9.9 1.3 2.3 1.3 4 0 2.4-.6 4-1.9 5.1-.8.6-1.7 1-2.7 1-.8 0-1.5-.2-2.1-.5-.3-.2-.7-.5-1.1-1v5.5h-1.8zm6.8 8.5c.6-.7.8-1.8.8-3.2 0-.9-.1-1.6-.4-2.2-.5-1.2-1.3-1.8-2.6-1.8s-2.1.6-2.6 1.9c-.2.7-.4 1.5-.4 2.6 0 .8.1 1.5.4 2.1.5 1.1 1.3 1.7 2.6 1.7 1-.1 1.7-.4 2.2-1.1z"/><path d="m97.9 38.3h1.8v2.1h-1.8zm0 4.1h1.8v10.8h-1.8z"/><path d="m102.2 39.3h1.8v3h1.7v1.5h-1.7v7.1c0 .4.1.6.4.8.1.1.4.1.7.1h.3.4v1.4c-.2.1-.4.1-.7.1-.2 0-.5 0-.7 0-.8 0-1.4-.2-1.7-.7-.3-.4-.5-1-.5-1.7v-7.2h-1.5v-1.5h1.5z"/><path d="m112.8 46.6c.4-.1.7-.2.8-.5.1-.2.1-.4.1-.7 0-.6-.2-1.1-.7-1.4-.4-.3-1.1-.4-1.9-.4-.9 0-1.6.3-2 .8-.2.3-.4.7-.4 1.3h-1.7c0-1.3.5-2.3 1.3-2.8s1.8-.8 2.9-.8c1.3 0 2.3.2 3.1.7s1.2 1.2 1.2 2.3v6.2c0 .2 0 .3.1.5.1.1.2.2.5.2h.3.3v1.3c-.3.1-.5.1-.6.2s-.4 0-.6 0c-.6 0-1.1-.2-1.4-.7-.1-.2-.3-.6-.3-1-.4.5-.9.9-1.6 1.3s-1.5.5-2.3.5c-1 0-1.8-.3-2.5-.9s-1-1.4-1-2.3c0-1 .3-1.8.9-2.3.6-.6 1.4-.9 2.5-1zm-3.8 4.9c.4.3.8.5 1.4.5s1.3-.1 1.9-.4c1-.5 1.5-1.3 1.5-2.4v-1.5c-.2.1-.5.3-.9.4s-.7.2-1 .2l-1.1.1c-.7.1-1.2.2-1.5.4-.6.3-.8.8-.8 1.5-.1.5.1.9.5 1.2z"/><path d="m118 38.3h1.8v14.8h-1.8z"/></g></g><path d="m18.4 10.5h-8.5l-4.3 7.4 4.3 7.4h8.5l2.2-3.7 2.1-3.7z" fill="#bebebe"/><path d="m28.2 26v-7.4h-4.3l-2.1 3.7-2.2 3.7 2.2 3.7z" fill="#bebebe"/><path d="m18.4 26.7h-9.4l-5-8.8 5-8.8h10.2l4.7 8.1h4.3v-7.5l-14.1-8.1-14.1 8.1v16.3l14.1 8.2 6.5-3.8z" fill="#bebebe"/><path d="m28.2 18.6v7.4l6.5 3.7 2.1-3.7-2.1-3.7-2.2-3.7z" fill="#898482"/><path d="m42.3 1.6-14.1 8.1v7.5h4.3l4.7-8.1h10.2l5.1 8.8-5.1 8.8h-9.4l-2.1 3.7 6.4 3.8 14.1-8.2v-16.3z" fill="#898482"/><path d="m38 25.3h8.6l4.3-7.4-4.3-7.4h-8.6l-4.3 7.4 2.2 3.7z" fill="#898482"/><path d="m28.2 26-6.4 3.7 2.1 3.8h8.6l2.2-3.8z" fill="#a5a1a0"/><path d="m33.7 34.2 4.7 8.1-5.1 8.8h-10.2l-5.1-8.8 4.7-8.1-2.1-3.8-6.5 3.8v16.3l14.1 8.1 14.1-8.1v-16.3l-6.4-3.8z" fill="#a5a1a0"/><path d="m19.6 42.3 4.3 7.4h8.6l4.3-7.4-4.3-7.5h-8.6z" fill="#a5a1a0"/></svg>