<svg enable-background="new 0 0 320.3 323.9" viewBox="0 0 320.3 323.9" xmlns="http://www.w3.org/2000/svg"><path d="m188.4 110.7h-58.9l-29.5 51.1 29.5 51h58.9l29.5-51z" fill="#e86b05"/><path d="m188.7 213.2h-59.4l-29.8-51.4.1-.2 29.6-51.3h59.4l.1.2 29.6 51.3zm-58.9-.8h58.4l29.2-50.6-29.2-50.7h-58.4l-29.2 50.7z" fill="#575756"/><path d="m188.4 4.5h-58.9l-29.5 51.1 29.5 51.1h58.9l29.5-51.1z" fill="#ddd"/><path d="m188.7 107.1h-59.4l-29.8-51.5.1-.2 29.6-51.3h59.4l.1.2 29.6 51.3zm-58.9-.8h58.4l29.2-50.7-29.3-50.7h-58.4l-29.2 50.7z" fill="#575756"/><path d="m188.4 216.6h-58.9l-29.5 51.1 29.5 51.1h58.9l29.5-51.1z" fill="#ddd"/><path d="m188.7 319.2h-59.4l-29.8-51.5.1-.2 29.6-51.3h59.4l.1.2 29.6 51.3zm-58.9-.8h58.4l29.2-50.7-29.3-50.7h-58.4l-29.2 50.7z" fill="#575756"/><path d="m96.8 56.9h-59l-29.5 51.1 29.5 51.1h59l29.4-51.1z" fill="#ddd"/><path d="m97.1 159.5h-59.6l-29.7-51.5.1-.2 29.6-51.3h59.5l29.7 51.5zm-59-.8h58.5l29.1-50.7-29.2-50.7h-58.4l-29.3 50.7z" fill="#575756"/><path d="m280.5 56.9h-59l-29.4 51.1 29.4 51.1h59l29.5-51.1z" fill="#ddd"/><path d="m280.8 159.5h-59.5l-29.7-51.5.1-.2 29.5-51.3h59.5l.1.2 29.6 51.3zm-59-.8h58.5l29.2-50.7-29.2-50.7h-58.5l-29.2 50.7z" fill="#575756"/><path d="m96.8 163.1h-59l-29.5 51.1 29.5 51h59l29.4-51z" fill="#ddd"/><path d="m97.1 265.6h-59.6l-29.7-51.4.1-.2 29.6-51.3h59.5l29.7 51.5-.1.2zm-59-.8h58.5l29.1-50.6-29.1-50.7h-58.5l-29.3 50.7z" fill="#575756"/><path d="m280.5 163.1h-59l-29.4 51.1 29.4 51h59l29.5-51z" fill="#ddd"/><path d="m280.8 265.6h-59.5l-29.7-51.4.1-.2 29.5-51.3h59.5l.1.2 29.6 51.3-.1.2zm-59-.8h58.5l29.2-50.6-29.2-50.7h-58.5l-29.1 50.7z" fill="#575756"/><path d="m118.3 49.1h79.6v22.4h-79.6z" fill="none"/><g enable-background="new" fill="#22292d"><path d="m135.6 61.1c-.1.1-.2.1-.4.1s-.3 0-.4-.1-.1-.2-.1-.4v-10.4c0-.2 0-.3.1-.4s.2-.1.4-.1c.1 0 .3 0 .4.1s.1.2.1.4v10.5c0 .1 0 .2-.1.3z"/><path d="m144.8 53.6c.5.6.7 1.4.7 2.4v4.8c0 .1 0 .3-.1.4s-.2.1-.3.1-.3 0-.4-.1-.1-.2-.1-.4v-4.8c0-.7-.2-1.3-.5-1.7-.4-.4-.9-.7-1.6-.7-.5 0-.9.1-1.3.3s-.8.5-1 .9c-.3.4-.4.8-.4 1.2v4.8c0 .1 0 .3-.1.4s-.2.1-.4.1-.3 0-.4-.1-.1-.2-.1-.4v-7.4c0-.1 0-.3.1-.4s.2-.1.4-.1.3 0 .4.1.1.2.1.4v.9c.3-.5.7-.9 1.3-1.2s1.1-.5 1.7-.5c.8.1 1.5.4 2 1z"/><path d="m147.5 59.6c0-.1.1-.3.2-.3.1-.1.2-.1.3-.1s.3.1.4.2c.6.9 1.5 1.3 2.6 1.3.5 0 1-.1 1.4-.4.4-.2.6-.6.6-1.1s-.2-.8-.5-1-.9-.4-1.5-.6c-.9-.2-1.6-.5-2.1-.9s-.8-.9-.8-1.6c0-.4.1-.9.4-1.2s.6-.6 1-.8.9-.3 1.5-.3c.5 0 .9.1 1.4.3s.9.5 1.2.9c.1.1.1.2.1.3s-.1.2-.2.3-.2.1-.3.1-.2 0-.3-.1c-.3-.3-.6-.5-.9-.7s-.8-.2-1.2-.2c-.5 0-1 .1-1.3.4-.4.2-.6.6-.6 1.1 0 .4.2.8.6 1s.9.4 1.7.6c.6.1 1 .3 1.4.5s.7.4.9.7.4.7.4 1.3c0 .7-.3 1.3-.9 1.7s-1.3.6-2.1.6c-1.3 0-2.4-.5-3.2-1.5-.2-.3-.2-.4-.2-.5z"/><path d="m155.7 51.5c-.1-.1-.2-.3-.2-.5v-.2c0-.2.1-.3.2-.5.1-.1.3-.2.5-.2.4 0 .7.2.7.6v.3c0 .2-.1.3-.2.5-.1.1-.3.2-.5.2-.2-.1-.4-.1-.5-.2zm.9 9.6c-.1.1-.2.1-.4.1-.1 0-.3 0-.4-.1s-.1-.2-.1-.4v-7.6c0-.1 0-.3.1-.4s.2-.1.4-.1c.1 0 .3 0 .4.1s.1.2.1.4v7.6c0 .2 0 .4-.1.4z"/><path d="m166.7 53c.1.1.1.2.1.4v7.1c0 .9-.2 1.6-.5 2.2s-.8 1.1-1.5 1.4-1.3.5-2.1.5c-.4 0-.8 0-1.2-.1s-.8-.2-1.1-.4-.5-.3-.5-.5c-.1-.1-.1-.2-.1-.3s0-.2.1-.3h.2c.1 0 .2 0 .4.1l.3.1c.7.3 1.3.4 1.9.4 1 0 1.7-.3 2.3-.8s.8-1.3.8-2.2v-1c-.3.6-.7 1.1-1.3 1.4s-1.2.5-1.9.5c-.8 0-1.4-.2-2-.6s-1.1-.9-1.4-1.6c-.4-.7-.5-1.4-.5-2.2s.2-1.6.5-2.2c.4-.7.8-1.2 1.4-1.6s1.3-.6 2-.6 1.3.2 1.9.5 1 .8 1.3 1.2v-1.1c0-.1 0-.3.1-.4s.2-.1.4-.1.3.1.4.2zm-2.3 7.1c.5-.3.8-.7 1.1-1.2s.4-1.1.4-1.8-.1-1.3-.4-1.8-.6-.9-1.1-1.2-1-.4-1.6-.4-1.1.2-1.6.5-.8.7-1.1 1.2-.4 1.1-.4 1.8.1 1.2.4 1.8c.3.5.6.9 1.1 1.2s1 .5 1.6.5c.6-.2 1.2-.3 1.6-.6z"/><path d="m175.5 53.8c.5.6.7 1.4.7 2.4v4.6c0 .1 0 .3-.1.4s-.2.1-.4.1c-.1 0-.3 0-.4-.1s-.1-.2-.1-.4v-4.6c0-.7-.2-1.3-.5-1.7s-.9-.7-1.6-.7c-.5 0-.9.1-1.3.3s-.7.5-1 .9-.4.8-.4 1.2v4.6c0 .1 0 .3-.1.4s-.2.1-.4.1-.3 0-.4-.1-.1-.2-.1-.4v-11.2c0-.1 0-.3.1-.4s.2-.1.4-.1.3 0 .4.1.1.2.1.4v4.8c.3-.5.7-.9 1.2-1.2s1.1-.5 1.6-.5c1.1.1 1.8.4 2.3 1.1z"/><path d="m180.4 53.8v5.5c0 .4.1.7.2.8.2.1.4.2.6.2h.2s.2 0 .2 0c.1 0 .2 0 .3.1s.1.2.1.3c0 .2-.1.3-.3.4s-.4.2-.6.2c-.3 0-.6 0-.8-.1s-.5-.2-.7-.5-.3-.7-.3-1.3v-5.5h-1.2c-.1 0-.2 0-.3-.1s-.1-.2-.1-.3 0-.2.1-.3.2-.1.3-.1h1.2v-1.8c0-.1 0-.3.1-.4s.2-.1.4-.1.3 0 .4.1.1.2.1.4v1.8h1.6c.1 0 .2 0 .3.1s.1.2.1.3 0 .2-.1.3-.2.1-.3.1h-1.5z"/></g><path d="m111.3 262.6h96.7v25.5h-96.7z" fill="none"/><g enable-background="new" fill="#22292d"><path d="m123.8 263.7c.5.3.9.7 1.1 1.2.3.5.4 1.1.4 1.7s-.1 1.2-.4 1.7-.6.9-1.1 1.2-1 .4-1.6.4h-3.4v4.4c0 .1 0 .3-.1.4s-.2.1-.4.1c-.1 0-.3 0-.4-.1s-.1-.2-.1-.4v-10.5c0-.1 0-.3.1-.4s.2-.1.4-.1h3.9c.5 0 1.1.1 1.6.4zm-.1 4.6c.4-.5.6-1 .6-1.7s-.2-1.2-.6-1.7-.9-.6-1.5-.6h-3.4v4.7h3.4c.6 0 1.1-.3 1.5-.7z"/><path d="m134.4 266.5c.1.1.1.2.1.4v7.4c0 .1 0 .3-.1.4s-.2.1-.4.1c-.1 0-.3 0-.4-.1s-.1-.2-.1-.4v-1.1c-.3.5-.7.9-1.2 1.2s-1.1.5-1.8.5-1.4-.2-2-.6-1-.9-1.4-1.6c-.3-.7-.5-1.4-.5-2.2s.2-1.6.5-2.2c.3-.7.8-1.2 1.4-1.6s1.2-.6 1.9-.6 1.3.2 1.8.5 1 .7 1.2 1.2v-1c0-.1 0-.3.1-.4s.2-.1.4-.1c.3.1.4.1.5.2zm-2.3 7.1c.5-.3.8-.7 1.1-1.2s.4-1.1.4-1.8c0-.6-.1-1.2-.4-1.7s-.6-.9-1.1-1.2-1-.5-1.5-.5c-.6 0-1.1.1-1.5.4-.5.3-.8.7-1.1 1.2s-.4 1.1-.4 1.8.1 1.3.4 1.8.6.9 1.1 1.2 1 .5 1.6.5c.5-.1 1-.2 1.4-.5z"/><path d="m141.6 266.3c.2.1.3.2.3.4s0 .3-.1.4-.2.1-.3.1-.2 0-.3-.1c-.2-.1-.3-.1-.5-.1-.4 0-.8.2-1.2.5s-.7.7-1 1.2-.4 1-.4 1.5v4.1c0 .1 0 .3-.1.4s-.2.1-.4.1-.3 0-.4-.1-.1-.2-.1-.4v-7.4c0-.1 0-.3.1-.4s.2-.1.4-.1.3 0 .4.1.1.2.1.4v1.4c.3-.6.6-1.1 1.1-1.6.5-.4 1.1-.6 1.8-.6.2.1.4.1.6.2z"/><path d="m145 267.4v5.5c0 .4.1.7.2.8.2.1.4.2.6.2h.2s.2 0 .2 0c.1 0 .2 0 .3.1s.1.2.1.3c0 .2-.1.3-.3.4s-.4.2-.6.2c-.3 0-.6 0-.8-.1s-.5-.2-.7-.5-.3-.7-.3-1.3v-5.5h-1.2c-.1 0-.2 0-.3-.1s-.1-.2-.1-.3 0-.2.1-.3.2-.1.3-.1h1.2v-1.8c0-.1 0-.3.1-.4s.2-.1.4-.1.3 0 .4.1.1.2.1.4v1.8h1.6c.1 0 .2 0 .3.1s.1.2.1.3 0 .2-.1.3-.2.1-.3.1h-1.5z"/><path d="m155.2 267.1c.5.6.7 1.4.7 2.4v4.8c0 .1 0 .3-.1.4s-.2.1-.3.1-.3 0-.4-.1-.1-.2-.1-.4v-4.8c0-.7-.2-1.3-.5-1.7-.4-.4-.9-.7-1.6-.7-.5 0-.9.1-1.3.3s-.8.5-1 .9c-.3.4-.4.8-.4 1.2v4.8c0 .1 0 .3-.1.4s-.2.1-.4.1-.3 0-.4-.1-.1-.2-.1-.4v-7.4c0-.1 0-.3.1-.4s.2-.1.4-.1.3 0 .4.1.1.2.1.4v.9c.3-.5.7-.9 1.3-1.2s1.1-.5 1.7-.5c.7.1 1.5.4 2 1z"/><path d="m165.4 270.4c-.1.1-.2.1-.3.1h-6.2c0 .7.1 1.2.4 1.8.3.5.7.9 1.1 1.2.5.3 1.1.5 1.8.5.5 0 1-.1 1.4-.3s.8-.5 1-.8c.1-.1.2-.1.3-.1s.2 0 .3.1.1.2.1.3-.1.2-.2.3c-.4.4-.8.8-1.3 1.1s-1.1.4-1.7.4c-.8 0-1.6-.2-2.2-.5s-1.1-.9-1.5-1.5c-.4-.7-.5-1.4-.5-2.3s.2-1.7.5-2.4c.4-.7.8-1.2 1.4-1.5.6-.4 1.2-.5 1.9-.5s1.3.2 1.8.5c.6.3 1 .8 1.4 1.3.4.6.5 1.3.6 2.1.1 0 0 .2-.1.2zm-5.4-2.6c-.5.4-.9 1.1-1 1.9h5.6v-.1c-.1-.5-.2-.9-.5-1.3s-.6-.6-1-.8-.8-.3-1.3-.3c-.7 0-1.3.2-1.8.6z"/><path d="m172.1 266.3c.2.1.3.2.3.4s0 .3-.1.4-.2.1-.3.1-.2 0-.3-.1c-.2-.1-.3-.1-.5-.1-.4 0-.8.2-1.2.5s-.7.7-1 1.2-.4 1-.4 1.5v4.1c0 .1 0 .3-.1.4s-.2.1-.4.1c-.1 0-.3 0-.4-.1s-.1-.2-.1-.4v-7.4c0-.1 0-.3.1-.4s.2-.1.4-.1c.1 0 .3 0 .4.1s.1.2.1.4v1.4c.3-.6.6-1.1 1.1-1.6.5-.4 1.1-.6 1.8-.6.2.1.4.1.6.2z"/><path d="m173.3 273.1c0-.1.1-.3.2-.3.1-.1.2-.1.3-.1s.3.1.4.2c.6.9 1.5 1.3 2.6 1.3.5 0 1-.1 1.4-.4.4-.2.6-.6.6-1.1s-.2-.8-.5-1-.9-.4-1.5-.6c-.9-.2-1.6-.5-2.1-.9s-.8-.9-.8-1.6c0-.4.1-.9.4-1.2s.6-.6 1-.8.9-.3 1.5-.3c.5 0 .9.1 1.4.3s.9.5 1.2.9c.1.1.1.2.1.3s-.1.2-.2.3-.2.1-.3.1-.2 0-.3-.1c-.3-.3-.6-.5-.9-.7s-.8-.2-1.2-.2c-.5 0-1 .1-1.3.4-.4.2-.6.6-.6 1.1 0 .4.2.8.6 1s.9.4 1.7.6c.6.1 1 .3 1.4.5s.7.4.9.7.4.7.4 1.3c0 .7-.3 1.3-.9 1.7s-1.3.6-2.1.6c-1.3 0-2.4-.5-3.2-1.5-.2-.3-.2-.4-.2-.5z"/><path d="m187.6 267.3c.5.6.7 1.4.7 2.4v4.6c0 .1 0 .3-.1.4s-.2.1-.4.1-.3 0-.4-.1-.1-.2-.1-.4v-4.6c0-.7-.2-1.3-.5-1.7s-.9-.7-1.6-.7c-.5 0-.9.1-1.3.3s-.7.5-1 .9-.4.8-.4 1.2v4.6c0 .1 0 .3-.1.4s-.2.1-.4.1c-.1 0-.3 0-.4-.1s-.1-.2-.1-.4v-11.2c0-.1 0-.3.1-.4s.2-.1.4-.1c.1 0 .3 0 .4.1s.1.2.1.4v4.8c.3-.5.7-.9 1.2-1.2s1.1-.5 1.6-.5c1.1.1 1.9.4 2.3 1.1z"/><path d="m190.9 265c-.1-.1-.2-.3-.2-.5v-.2c0-.2.1-.3.2-.5.1-.1.3-.2.5-.2.4 0 .7.2.7.6v.2c0 .2-.1.3-.2.5-.1.1-.3.2-.5.2-.2.1-.4 0-.5-.1zm.8 9.6c-.1.1-.2.1-.4.1-.1 0-.3 0-.4-.1s-.1-.2-.1-.4v-7.6c0-.1 0-.3.1-.4s.2-.1.4-.1c.1 0 .3 0 .4.1s.1.2.1.4v7.6c.1.2 0 .4-.1.4z"/><path d="m200.4 266.9c.6.4 1.1.9 1.4 1.5.3.7.5 1.4.5 2.2s-.2 1.6-.5 2.2c-.3.7-.8 1.2-1.4 1.5-.6.4-1.2.6-2 .6-.6 0-1.2-.2-1.7-.5s-1-.7-1.3-1.2v4.3c0 .1 0 .3-.1.4s-.2.1-.4.1c-.1 0-.3 0-.4-.1s-.1-.2-.1-.4v-10.7c0-.1 0-.3.1-.4s.2-.1.4-.1c.1 0 .3 0 .4.1s.1.2.1.4v1.1c.3-.5.7-.9 1.2-1.2s1.1-.4 1.8-.4c.8 0 1.4.2 2 .6zm-.5 6.6c.5-.3.8-.7 1.1-1.2s.4-1.1.4-1.7-.1-1.2-.4-1.7-.6-.9-1.1-1.2-1-.4-1.5-.4c-.6 0-1.1.1-1.6.4s-.8.7-1.1 1.2-.4 1.1-.4 1.7.1 1.2.4 1.7.6.9 1.1 1.2 1 .4 1.6.4c.5.1 1-.1 1.5-.4z"/></g><path d="m208.7 93.8h81.9v34h-81.9z" fill="none"/><g enable-background="new" fill="#22292d"><path d="m229.4 105.5c0 .1 0 .3-.1.3-.1.1-.2.1-.3.1s-.2 0-.3-.1-.1-.1-.2-.2l-1.2-3h-5.3l-1.2 3c-.1.2-.2.3-.4.3s-.3 0-.3-.1c-.1-.1-.1-.2-.1-.3 0-.1 0-.1 0-.1l4.3-10.6c.1-.2.3-.3.5-.3.1 0 .2 0 .3.1s.1.1.2.2l4.3 10.6c-.2 0-.2 0-.2.1zm-7.1-3.8h4.6l-2.3-5.6z"/><path d="m237.4 98.2c.5.6.7 1.4.7 2.4v4.8c0 .1 0 .3-.1.4s-.2.1-.3.1-.3 0-.4-.1-.1-.2-.1-.4v-4.8c0-.7-.2-1.3-.5-1.7-.4-.4-.9-.7-1.6-.7-.5 0-.9.1-1.3.3s-.8.5-1 .9c-.3.4-.4.8-.4 1.2v4.8c0 .1 0 .3-.1.4s-.2.1-.4.1c-.1 0-.3 0-.4-.1s-.1-.2-.1-.4v-7.4c0-.1 0-.3.1-.4s.2-.1.4-.1c.1 0 .3 0 .4.1s.1.2.1.4v1c.3-.5.7-.9 1.3-1.2s1.1-.5 1.7-.5c.8 0 1.5.3 2 .9z"/><path d="m247.9 97.7c.1.1.1.2.1.4v7.4c0 .1 0 .3-.1.4s-.2.1-.4.1-.3 0-.4-.1-.1-.2-.1-.4v-1.1c-.3.5-.7.9-1.2 1.2s-1.1.5-1.8.5-1.4-.2-2-.6-1-.9-1.4-1.6c-.3-.7-.5-1.4-.5-2.2s.2-1.6.5-2.2c.3-.7.8-1.2 1.4-1.6s1.2-.6 1.9-.6 1.3.2 1.8.5 1 .7 1.2 1.2v-1c0-.1 0-.3.1-.4s.2-.1.4-.1.4.1.5.2zm-2.3 7c.5-.3.8-.7 1.1-1.2s.4-1.1.4-1.8c0-.6-.1-1.2-.4-1.7s-.6-.9-1.1-1.2-1-.5-1.5-.5-1.1.1-1.5.4c-.5.3-.8.7-1.1 1.2s-.4 1.1-.4 1.8.1 1.3.4 1.8.6.9 1.1 1.2 1 .5 1.6.5c.5 0 1-.2 1.4-.5z"/><path d="m251.5 105.8c-.1.1-.2.1-.4.1-.1 0-.3 0-.4-.1s-.1-.2-.1-.4v-11.1c0-.1 0-.3.1-.4s.2-.1.4-.1c.1 0 .3 0 .4.1s.1.2.1.4v11.2c.1.1 0 .2-.1.3z"/><path d="m260.7 97.5c.1.1.1.2.1.4v7.2c0 .9-.2 1.6-.5 2.2s-.8 1.1-1.4 1.4-1.3.5-2 .5c-.5 0-.9 0-1.3-.1s-.7-.2-1-.4c-.2-.1-.3-.3-.3-.5 0 0 0-.1 0-.2s.1-.2.2-.2c.1-.1.2-.1.2-.1h.2c.7.4 1.4.6 2 .6.9 0 1.6-.3 2.2-.9s.8-1.3.8-2.3v-.6c-.3.5-.7.8-1.2 1.1s-1.1.4-1.7.4c-1 0-1.7-.3-2.2-.9s-.7-1.3-.7-2.3v-5c0-.1 0-.3.1-.4s.2-.1.4-.1c.1 0 .3 0 .4.1s.1.2.1.4v4.9c0 .8.2 1.4.5 1.8s.9.6 1.6.6c.4 0 .9-.1 1.3-.3s.7-.5 1-.9c.2-.4.4-.8.4-1.2v-4.9c0-.1 0-.3.1-.4s.2-.1.4-.1.2.1.3.2z"/><path d="m265.1 98.5v5.5c0 .4.1.7.2.8s.4.2.6.2h.2s.2 0 .2 0c.1 0 .2 0 .3.1s.1.2.1.3c0 .2-.1.3-.3.4s-.4.2-.6.2c-.3 0-.6 0-.8-.1s-.5-.2-.7-.5-.3-.7-.3-1.3v-5.5h-1.2c-.1 0-.2 0-.3-.1s-.1-.2-.1-.3 0-.2.1-.3.2-.1.3-.1h1.2v-1.8c0-.1 0-.3.1-.4s.2-.1.4-.1c.1 0 .3 0 .4.1s.1.2.1.4v1.8h1.6c.1 0 .2 0 .3.1s.1.2.1.3 0 .2-.1.3-.2.1-.3.1h-1.5z"/><path d="m268.9 96.1c-.1-.1-.2-.3-.2-.5v-.2c0-.2.1-.3.2-.5.1-.1.3-.2.5-.2.4 0 .7.2.7.6v.2c0 .2-.1.3-.2.5-.1.1-.3.2-.5.2-.2.1-.3 0-.5-.1zm.9 9.7c-.1.1-.2.1-.4.1-.1 0-.3 0-.4-.1s-.1-.2-.1-.4v-7.6c0-.1 0-.3.1-.4s.2-.1.4-.1c.1 0 .3 0 .4.1s.1.2.1.4v7.6c0 .2 0 .3-.1.4z"/><path d="m277.6 97.5c.4.1.8.3 1.1.5s.4.4.4.6c0 .1 0 .2-.1.3s-.2.1-.3.1-.2 0-.3-.1-.2-.1-.2-.2c-.1-.1-.3-.2-.4-.3-.2-.1-.4-.1-.6-.2-.3 0-.6-.1-.9-.1-.6 0-1.2.2-1.6.5-.5.3-.9.7-1.2 1.2s-.4 1.1-.4 1.7c0 .7.1 1.2.4 1.8s.7.9 1.1 1.2c.5.3 1 .5 1.7.5.4 0 .7 0 .9-.1s.5-.2.7-.3c.1 0 .2-.1.4-.3.1-.1.2-.1.2-.2s.1-.1.2-.1.2 0 .3.1.1.2.1.3c0 .2-.1.4-.4.6s-.6.4-1.1.5c-.5.2-1 .2-1.5.2-.8 0-1.5-.2-2.1-.6s-1.1-.9-1.5-1.6c-.3-.7-.5-1.4-.5-2.2s.2-1.5.5-2.2.8-1.2 1.5-1.6c.6-.4 1.4-.6 2.2-.6.5.4.9.5 1.4.6z"/></g><g enable-background="new" fill="#22292d"><path d="m232.7 117.2c.2.1.3.2.3.4s0 .3-.1.4-.2.1-.3.1-.2 0-.3-.1c-.2-.1-.3-.1-.5-.1-.4 0-.8.2-1.2.5s-.7.7-1 1.2-.4 1-.4 1.5v4.1c0 .1 0 .3-.1.4s-.2.1-.4.1c-.1 0-.3 0-.4-.1s-.1-.2-.1-.4v-7.4c0-.1 0-.3.1-.4s.2-.1.4-.1c.1 0 .3 0 .4.1s.1.2.1.4v1.4c.3-.6.6-1.1 1.1-1.6.5-.4 1.1-.6 1.8-.6.2 0 .4.1.6.2z"/><path d="m234.5 115.8c-.1-.1-.2-.3-.2-.5v-.2c0-.2.1-.3.2-.5.1-.1.3-.2.5-.2.4 0 .7.2.7.6v.2c0 .2-.1.3-.2.5-.1.1-.3.2-.5.2-.3.1-.4 0-.5-.1zm.8 9.7c-.1.1-.2.1-.4.1-.1 0-.3 0-.4-.1s-.1-.2-.1-.4v-7.6c0-.1 0-.3.1-.4s.2-.1.4-.1c.1 0 .3 0 .4.1s.1.2.1.4v7.6c.1.2 0 .3-.1.4z"/><path d="m245.5 117.4c.1.1.1.2.1.4v7.1c0 .9-.2 1.6-.5 2.2s-.8 1.1-1.5 1.4c-.6.3-1.3.5-2.1.5-.4 0-.8 0-1.2-.1s-.8-.2-1.1-.4-.5-.3-.5-.5c-.1-.1-.1-.2-.1-.3s0-.2.1-.3h.2s.2 0 .4.1l.3.1c.7.3 1.3.4 1.9.4 1 0 1.7-.3 2.3-.8.6-.6.8-1.3.8-2.2v-1c-.3.6-.7 1.1-1.3 1.4s-1.2.5-1.9.5c-.8 0-1.4-.2-2-.6s-1.1-.9-1.4-1.6c-.4-.7-.5-1.4-.5-2.2s.2-1.6.5-2.2.8-1.2 1.4-1.6 1.3-.6 2-.6 1.3.2 1.9.5 1 .8 1.3 1.2v-1.1c0-.1 0-.3.1-.4s.2-.1.4-.1c.1 0 .3.1.4.2zm-2.3 7c.5-.3.8-.7 1.1-1.2s.4-1.1.4-1.8-.1-1.3-.4-1.8-.6-.9-1.1-1.2-1-.4-1.6-.4-1.1.2-1.6.5-.8.7-1.1 1.2-.4 1.1-.4 1.8.1 1.2.4 1.8.6.9 1.1 1.2 1 .5 1.6.5c.5-.1 1.1-.3 1.6-.6z"/><path d="m255.1 123.7c-.4.7-.9 1.2-1.5 1.6s-1.3.6-2.1.6-1.5-.2-2.1-.6-1.1-.9-1.5-1.6-.5-1.4-.5-2.2.2-1.6.5-2.2c.4-.7.9-1.2 1.5-1.6s1.3-.6 2.1-.6 1.5.2 2.1.6 1.1.9 1.5 1.6.5 1.4.5 2.2-.2 1.5-.5 2.2zm-.9-4c-.3-.5-.7-.9-1.1-1.2-.5-.3-1-.5-1.6-.5s-1.1.2-1.6.5-.9.7-1.1 1.2-.4 1.1-.4 1.8c0 .6.1 1.2.4 1.8s.7.9 1.1 1.2c.5.3 1 .5 1.6.5s1.1-.1 1.6-.4.9-.7 1.1-1.2.4-1.1.4-1.8c0-.8-.1-1.4-.4-1.9z"/><path d="m264.3 117.4c.1.1.1.2.1.4v4.6c0 1.1-.3 1.9-.9 2.5s-1.4.9-2.5.9-1.9-.3-2.5-.9-.9-1.4-.9-2.5v-4.6c0-.1 0-.3.1-.4s.2-.1.4-.1c.1 0 .3 0 .4.1s.1.2.1.4v4.6c0 .8.2 1.4.6 1.8s1 .6 1.8.6 1.4-.2 1.8-.6.6-1 .6-1.8v-4.6c0-.1 0-.3.1-.4s.2-.1.4-.1c.1 0 .3 0 .4.1z"/><path d="m271.5 117.2c.2.1.3.2.3.4s0 .3-.1.4-.2.1-.3.1-.2 0-.3-.1c-.2-.1-.3-.1-.5-.1-.4 0-.8.2-1.2.5s-.7.7-1 1.2-.4 1-.4 1.5v4.1c0 .1 0 .3-.1.4s-.2.1-.4.1c-.1 0-.3 0-.4-.1s-.1-.2-.1-.4v-7.4c0-.1 0-.3.1-.4s.2-.1.4-.1c.1 0 .3 0 .4.1s.1.2.1.4v1.4c.3-.6.6-1.1 1.1-1.6.5-.4 1.1-.6 1.8-.6.2 0 .4.1.6.2z"/></g><path d="m114.7 142h88.3v50.2h-88.3z" fill="none"/><g enable-background="new" fill="#fff"><path d="m145.5 142.9c.1.1.2.2.2.4 0 .1 0 .2-.1.3l-5.2 12.4c-.1.1-.1.2-.2.3s-.2.1-.3.1-.2 0-.3-.1-.2-.2-.2-.3l-5.2-12.4c0-.1-.1-.2-.1-.3 0-.2.1-.3.2-.4s.2-.2.4-.2c.3 0 .5.1.6.4l4.7 11.2 4.6-11.2c.1-.1.1-.2.2-.3s.2-.1.3-.1.2.1.4.2z"/><path d="m156 146.6c.1.1.2.3.2.4v8.7c0 .2-.1.3-.2.4s-.2.2-.4.2-.3-.1-.4-.2-.2-.2-.2-.4v-1.3c-.3.6-.8 1.1-1.5 1.5-.6.4-1.4.6-2.1.6-.9 0-1.6-.2-2.3-.7s-1.2-1.1-1.6-1.9-.6-1.7-.6-2.7.2-1.9.6-2.7.9-1.4 1.6-1.8 1.5-.7 2.3-.7 1.5.2 2.1.6 1.1.9 1.5 1.5v-1.1c0-.2.1-.3.2-.4s.2-.2.4-.2.3.1.4.2zm-2.6 8.3c.5-.4 1-.8 1.3-1.5s.5-1.3.5-2.1-.2-1.4-.5-2.1-.7-1.1-1.3-1.5-1.1-.5-1.8-.5-1.3.2-1.8.5-1 .8-1.3 1.4-.5 1.3-.5 2.1.1 1.5.4 2.1.7 1.1 1.3 1.5c.5.4 1.1.5 1.8.5.8.1 1.4 0 1.9-.4z"/><path d="m160.4 156.2c-.1.1-.2.2-.4.2s-.3-.1-.4-.2-.2-.2-.2-.4v-13.2c0-.2.1-.3.2-.4s.2-.2.4-.2.3.1.4.2.2.2.2.4v13.2c-.1.1-.1.2-.2.4z"/><path d="m171.5 146.6c.1.1.2.2.2.4v5.5c0 1.3-.4 2.2-1.1 2.9s-1.7 1-3 1c-1.2 0-2.2-.3-2.9-1s-1.1-1.7-1.1-2.9v-5.5c0-.2.1-.3.2-.4s.2-.2.4-.2.3.1.4.2.2.2.2.4v5.5c0 .9.2 1.6.7 2.1s1.2.7 2.1.7 1.6-.2 2.1-.7.7-1.2.7-2.1v-5.5c0-.2.1-.3.2-.4s.2-.2.4-.2.4.1.5.2z"/><path d="m182.9 151.2c-.1.1-.3.2-.4.2h-7.3c0 .8.2 1.5.5 2.1s.8 1.1 1.4 1.5 1.3.5 2.1.5c.6 0 1.2-.1 1.7-.4s.9-.6 1.2-1c.1-.1.3-.2.4-.2s.2.1.3.2.2.2.2.3-.1.3-.2.4c-.4.5-.9.9-1.6 1.2-.6.3-1.3.5-2 .5-1 0-1.9-.2-2.6-.6-.8-.4-1.4-1-1.8-1.8s-.6-1.7-.6-2.7c0-1.1.2-2 .6-2.8s1-1.4 1.7-1.8 1.4-.6 2.2-.6 1.5.2 2.2.5 1.2.9 1.7 1.6.6 1.5.7 2.5c-.2.1-.3.3-.4.4zm-6.4-3.1c-.6.5-1.1 1.3-1.2 2.2h6.6v-.2c-.1-.6-.3-1.1-.6-1.5s-.7-.8-1.2-1-1-.3-1.5-.3c-.8 0-1.5.3-2.1.8z"/></g><g enable-background="new" fill="#fff"><path d="m129.6 169.7c.5.1.9.3 1.3.6s.5.5.5.8c0 .1 0 .3-.1.4s-.2.2-.4.2c-.1 0-.2 0-.3-.1s-.2-.1-.3-.2c-.2-.2-.3-.3-.5-.4s-.5-.2-.8-.2c-.3-.1-.7-.1-1-.1-.7 0-1.4.2-2 .5-.6.4-1.1.9-1.4 1.5s-.5 1.3-.5 2.1.2 1.5.5 2.1.8 1.1 1.3 1.5c.6.4 1.2.5 2 .5.5 0 .8 0 1.1-.1s.6-.2.8-.3c.1-.1.2-.2.5-.3.1-.1.2-.2.3-.2s.2-.1.3-.1c.2 0 .3 0 .4.1s.1.2.1.4-.2.5-.5.7c-.3.3-.7.5-1.3.7-.5.2-1.1.3-1.8.3-.9 0-1.8-.2-2.5-.7-.7-.4-1.3-1.1-1.7-1.9s-.6-1.7-.6-2.7c0-.9.2-1.8.6-2.6s1-1.4 1.7-1.9c.8-.5 1.6-.7 2.6-.7.6-.1 1.2-.1 1.7.1z"/><path d="m138.9 169.6c.2.1.3.3.3.5s-.1.3-.2.4-.2.2-.4.2c-.1 0-.2 0-.4-.1s-.4-.1-.5-.1c-.5 0-1 .2-1.4.6-.5.4-.9.8-1.2 1.4s-.5 1.2-.5 1.8v4.8c0 .2-.1.3-.2.4s-.2.2-.4.2-.3-.1-.4-.2-.2-.2-.2-.4v-8.7c0-.2.1-.3.2-.4s.2-.2.4-.2.3.1.4.2.2.2.2.4v1.7c.3-.7.7-1.3 1.3-1.8s1.3-.7 2.1-.7c.5-.1.7-.1.9 0z"/><path d="m148.9 174.5c-.1.1-.3.2-.4.2h-7.3c0 .8.2 1.5.5 2.1s.8 1.1 1.4 1.5 1.3.5 2.1.5c.6 0 1.2-.1 1.7-.4s.9-.6 1.2-1c.1-.1.3-.2.4-.2s.2.1.3.2.2.2.2.3-.1.3-.2.4c-.4.5-.9.9-1.6 1.2-.6.3-1.3.5-2 .5-1 0-1.9-.2-2.6-.6-.8-.4-1.4-1-1.8-1.8s-.6-1.7-.6-2.7c0-1.1.2-2 .6-2.8s1-1.4 1.7-1.8 1.4-.6 2.2-.6 1.5.2 2.2.5c.7.4 1.2.9 1.7 1.6s.6 1.5.7 2.5c-.3.1-.3.3-.4.4zm-6.5-3.1c-.6.5-1.1 1.3-1.2 2.2h6.6v-.2c-.1-.6-.3-1.1-.6-1.5s-.7-.8-1.2-1-1-.3-1.5-.3c-.7 0-1.4.3-2.1.8z"/><path d="m160 169.9c.1.1.2.3.2.4v8.7c0 .2-.1.3-.2.4s-.2.2-.4.2-.3-.1-.4-.2-.2-.2-.2-.4v-1.3c-.3.6-.8 1.1-1.5 1.5-.6.4-1.4.6-2.1.6-.9 0-1.6-.2-2.3-.7s-1.2-1.1-1.6-1.9-.6-1.7-.6-2.7.2-1.9.6-2.7.9-1.4 1.6-1.8 1.5-.7 2.3-.7 1.5.2 2.1.6 1.1.9 1.5 1.5v-1.2c0-.2.1-.3.2-.4s.2-.2.4-.2c.1.1.3.2.4.3zm-2.7 8.3c.5-.4 1-.8 1.3-1.5s.5-1.3.5-2.1-.2-1.4-.5-2.1-.7-1.1-1.3-1.5-1.1-.5-1.8-.5-1.3.2-1.8.5-1 .8-1.3 1.4-.5 1.3-.5 2.1.1 1.5.4 2.1.7 1.1 1.3 1.5c.5.4 1.1.5 1.8.5.8.1 1.4 0 1.9-.4z"/><path d="m165.1 170.8v6.5c0 .5.1.8.3 1s.4.3.7.3h.3.3c.1 0 .2 0 .3.1s.1.2.1.3c0 .2-.1.3-.3.5s-.5.2-.7.2c-.3 0-.7 0-.9-.1-.3-.1-.5-.3-.8-.6s-.4-.8-.4-1.6v-6.6h-1.4c-.2 0-.3-.1-.4-.2s-.2-.2-.2-.4.1-.3.2-.4.2-.2.4-.2h1.4v-2.2c0-.2.1-.3.2-.4s.2-.2.4-.2.3.1.4.2.2.2.2.4v2.2h1.9c.1 0 .3.1.4.2s.2.2.2.4-.1.3-.2.4-.2.1-.4.1h-2z"/><path d="m169.7 168c-.1-.1-.2-.3-.2-.5v-.2c0-.2.1-.4.2-.5s.4-.2.6-.2c.5 0 .8.2.8.7v.2c0 .2-.1.4-.2.5s-.3.2-.6.2-.4 0-.6-.2zm1 11.5c-.1.1-.2.2-.4.2s-.3-.1-.4-.2-.2-.2-.2-.4v-8.9c0-.2.1-.3.2-.4s.2-.2.4-.2.3.1.4.2.2.2.2.4v8.9c0 .1 0 .2-.2.4z"/><path d="m182.5 177.3c-.4.8-1 1.4-1.8 1.9-.8.4-1.6.7-2.5.7s-1.8-.2-2.5-.7c-.8-.4-1.3-1.1-1.8-1.9-.4-.8-.6-1.7-.6-2.6 0-1 .2-1.9.6-2.6.4-.8 1-1.4 1.8-1.9s1.6-.7 2.5-.7 1.8.2 2.5.7c.8.5 1.3 1.1 1.8 1.9.4.8.6 1.7.6 2.6s-.2 1.8-.6 2.6zm-1-4.7c-.3-.6-.8-1.1-1.3-1.5s-1.2-.5-1.9-.5-1.3.2-1.9.5-1 .8-1.3 1.5-.5 1.3-.5 2.1.2 1.5.5 2.1.8 1.1 1.3 1.5c.6.4 1.2.5 1.9.5s1.3-.2 1.9-.5 1-.8 1.3-1.5c.3-.6.5-1.3.5-2.1-.1-.8-.2-1.5-.5-2.1z"/><path d="m192.8 170.5c.6.7.8 1.6.8 2.8v5.7c0 .2-.1.3-.2.4s-.3.2-.4.2c-.2 0-.3-.1-.4-.2s-.2-.2-.2-.4v-5.7c0-.8-.2-1.5-.6-2s-1.1-.8-2-.8c-.6 0-1.1.1-1.6.4s-.9.6-1.2 1-.5.9-.5 1.4v5.7c0 .2-.1.3-.2.4s-.2.2-.4.2-.3-.1-.4-.2-.2-.2-.2-.4v-8.7c0-.2.1-.3.2-.4s.2-.2.4-.2.3.1.4.2.2.2.2.4v1.1c.3-.6.9-1 1.5-1.4s1.3-.6 2-.6c1.4.1 2.3.4 2.8 1.1z"/></g><path d="m202.3 207.5h97.3v29.5h-97.3z" fill="none"/><g enable-background="new" fill="#22292d"><path d="m215.6 208.3c.1.1.1.2.1.3s0 .3-.1.3c-.1.1-.2.1-.4.1h-3.4v10.1c0 .1 0 .3-.1.4s-.2.1-.4.1-.3 0-.4-.1-.1-.2-.1-.4v-10.1h-3.4c-.1 0-.3 0-.4-.1s-.1-.2-.1-.3 0-.2.1-.3.2-.1.4-.1h7.8c.2-.1.3 0 .4.1z"/><path d="m222.6 215.3c-.1.1-.2.1-.3.1h-6.3c0 .7.1 1.2.4 1.8.3.5.7.9 1.1 1.2.5.3 1.1.5 1.8.5.5 0 1-.1 1.4-.3s.8-.5 1-.8c.1-.1.2-.1.3-.1s.2 0 .3.1.1.2.1.3-.1.2-.2.3c-.4.4-.8.8-1.3 1.1s-1.1.4-1.7.4c-.8 0-1.6-.2-2.2-.5s-1.1-.9-1.5-1.5c-.4-.7-.5-1.4-.5-2.3s.2-1.7.5-2.4c.4-.7.8-1.2 1.4-1.5.6-.4 1.2-.5 1.9-.5s1.3.2 1.8.5 1 .8 1.4 1.3c.4.6.5 1.3.6 2.1.1 0 .1.1 0 .2zm-5.4-2.7c-.5.4-.9 1.1-1 1.9h5.6v-.1c-.1-.5-.2-.9-.5-1.3s-.6-.6-1-.8-.8-.3-1.3-.3c-.7 0-1.3.2-1.8.6z"/><path d="m229.8 211.2c.4.1.8.3 1.1.5s.4.4.4.6c0 .1 0 .2-.1.3s-.2.1-.3.1-.2 0-.3-.1-.2-.1-.2-.2c-.1-.1-.3-.2-.4-.3-.2-.1-.4-.1-.6-.2-.3 0-.6-.1-.9-.1-.6 0-1.2.2-1.7.5s-.9.7-1.2 1.2-.4 1.1-.4 1.7c0 .7.1 1.2.4 1.8s.7.9 1.1 1.2c.5.3 1 .5 1.7.5.4 0 .7 0 .9-.1s.5-.2.7-.3c.1 0 .2-.1.4-.3.1-.1.2-.1.2-.2.1 0 .1-.1.2-.1s.2 0 .3.1.1.2.1.3c0 .2-.1.4-.4.6s-.6.4-1.1.5-1 .2-1.5.2c-.8 0-1.5-.2-2.1-.6s-1.1-.9-1.5-1.6c-.3-.7-.5-1.4-.5-2.2s.2-1.5.5-2.2c.4-.7.8-1.2 1.5-1.6.6-.4 1.4-.6 2.2-.6.6.4 1.1.5 1.5.6z"/><path d="m239.2 212.1c.5.6.7 1.4.7 2.4v4.6c0 .1 0 .3-.1.4s-.2.1-.4.1c-.1 0-.3 0-.4-.1s-.1-.2-.1-.4v-4.6c0-.7-.2-1.3-.5-1.7s-.9-.7-1.6-.7c-.5 0-.9.1-1.3.3s-.7.5-1 .9-.4.8-.4 1.2v4.6c0 .1 0 .3-.1.4s-.2.1-.4.1-.3 0-.4-.1-.1-.2-.1-.4v-11.1c0-.1 0-.3.1-.4s.2-.1.4-.1.3 0 .4.1.1.2.1.4v4.8c.3-.5.7-.9 1.2-1.2s1.1-.5 1.6-.5c1.1.1 1.9.4 2.3 1z"/><path d="m248.7 211.9c.5.6.7 1.4.7 2.4v4.8c0 .1 0 .3-.1.4s-.2.1-.3.1-.3 0-.4-.1-.1-.2-.1-.4v-4.8c0-.7-.2-1.3-.5-1.7-.4-.4-.9-.7-1.7-.7-.5 0-.9.1-1.3.3s-.8.5-1 .9c-.3.4-.4.8-.4 1.2v4.8c0 .1 0 .3-.1.4s-.2.1-.4.1-.3 0-.4-.1-.1-.2-.1-.4v-7.4c0-.1 0-.3.1-.4s.2-.1.4-.1.3 0 .4.1.1.2.1.4v.9c.3-.5.7-.9 1.3-1.2s1.1-.5 1.7-.5c.9.1 1.7.4 2.1 1z"/><path d="m259.2 217.7c-.4.7-.9 1.2-1.5 1.6s-1.3.6-2.1.6-1.5-.2-2.1-.6-1.1-.9-1.5-1.6-.5-1.4-.5-2.2.2-1.6.5-2.2c.4-.7.9-1.2 1.5-1.6s1.3-.6 2.1-.6 1.5.2 2.1.6 1.1.9 1.5 1.6.5 1.4.5 2.2-.1 1.5-.5 2.2zm-.8-4.1c-.3-.5-.7-.9-1.1-1.2s-1-.5-1.6-.5-1.1.2-1.6.5-.9.7-1.1 1.2-.4 1.1-.4 1.8c0 .6.1 1.2.4 1.8s.7.9 1.1 1.2c.5.3 1 .5 1.6.5s1.1-.1 1.6-.4.9-.7 1.1-1.2.4-1.1.4-1.8-.2-1.3-.4-1.9z"/><path d="m262.7 219.5c-.1.1-.2.1-.4.1s-.3 0-.4-.1-.1-.2-.1-.4v-11.1c0-.1 0-.3.1-.4s.2-.1.4-.1.3 0 .4.1.1.2.1.4v11.2c.1.1 0 .2-.1.3z"/><path d="m272.6 217.7c-.4.7-.9 1.2-1.5 1.6s-1.3.6-2.1.6-1.5-.2-2.1-.6-1.1-.9-1.5-1.6-.5-1.4-.5-2.2.2-1.6.5-2.2c.4-.7.9-1.2 1.5-1.6s1.3-.6 2.1-.6 1.5.2 2.1.6 1.1.9 1.5 1.6.5 1.4.5 2.2-.1 1.5-.5 2.2zm-.8-4.1c-.3-.5-.7-.9-1.1-1.2s-1-.5-1.6-.5-1.1.2-1.6.5-.9.7-1.1 1.2-.4 1.1-.4 1.8c0 .6.1 1.2.4 1.8s.7.9 1.1 1.2c.5.3 1 .5 1.6.5s1.1-.1 1.6-.4.9-.7 1.1-1.2.4-1.1.4-1.8-.2-1.3-.4-1.9z"/><path d="m282.6 211.4c.1.1.1.2.1.4v7.1c0 .9-.2 1.6-.5 2.2s-.8 1.1-1.5 1.4c-.6.3-1.3.5-2.1.5-.4 0-.8 0-1.2-.1s-.8-.2-1.1-.4-.5-.3-.5-.5c-.1-.1-.1-.2-.1-.3s0-.2.1-.3h.2c.1 0 .2 0 .4.1l.3.1c.7.3 1.3.4 1.9.4 1 0 1.7-.3 2.3-.8.6-.6.8-1.3.8-2.2v-1c-.3.6-.7 1.1-1.3 1.4s-1.2.5-1.9.5c-.8 0-1.4-.2-2-.6s-1.1-.9-1.4-1.6c-.4-.7-.5-1.4-.5-2.2s.2-1.6.5-2.2c.3-.7.8-1.2 1.4-1.6s1.3-.6 2-.6 1.3.2 1.9.5 1 .8 1.3 1.2v-1.1c0-.1 0-.3.1-.4s.2-.1.4-.1.3.1.4.2zm-2.3 7c.5-.3.8-.7 1.1-1.2s.4-1.1.4-1.8-.1-1.3-.4-1.8-.6-.9-1.1-1.2-1-.4-1.6-.4-1.1.2-1.6.5-.8.7-1.1 1.2-.4 1.1-.4 1.8.1 1.2.4 1.8c.3.5.6.9 1.1 1.2s1 .5 1.6.5c.6-.1 1.1-.3 1.6-.6z"/><path d="m292 211.2c.1.1.1.2.1.4v7.2c0 .9-.2 1.6-.5 2.2s-.8 1.1-1.4 1.4-1.3.5-2 .5c-.5 0-.9 0-1.3-.1s-.7-.2-1-.4c-.2-.1-.3-.3-.3-.5 0 0 0-.1 0-.2s.1-.2.2-.2c.1-.1.2-.1.2-.1h.2c.7.4 1.4.6 2 .6.9 0 1.6-.3 2.2-.9s.8-1.3.8-2.3v-.6c-.3.5-.7.8-1.2 1.1s-1.1.4-1.7.4c-1 0-1.7-.3-2.2-.9s-.7-1.3-.7-2.3v-5c0-.1 0-.3.1-.4s.2-.1.4-.1.3 0 .4.1.1.2.1.4v4.9c0 .8.2 1.4.5 1.8s.9.6 1.6.6c.4 0 .9-.1 1.3-.3s.7-.5 1-.9c.2-.4.4-.8.4-1.2v-4.9c0-.1 0-.3.1-.4s.2-.1.4-.1.2.1.3.2z"/></g><path d="m25.3 99.5h81.9v34h-81.9z" fill="none"/><g enable-background="new" fill="#22292d"><path d="m44.8 100.6c.5.3.9.7 1.1 1.2.3.5.4 1.1.4 1.7s-.1 1.2-.4 1.7-.6.9-1.1 1.2-1 .4-1.6.4h-3.4v4.4c0 .1 0 .3-.1.4s-.2.1-.4.1c-.1 0-.3 0-.4-.1s-.1-.2-.1-.4v-10.5c0-.1 0-.3.1-.4s.2-.1.4-.1h3.9c.6-.1 1.2.1 1.6.4zm0 4.5c.4-.5.6-1 .6-1.7s-.2-1.2-.6-1.7-.9-.6-1.5-.6h-3.4v4.7h3.4c.5 0 1.1-.2 1.5-.7z"/><path d="m55.5 103.4c.1.1.1.2.1.4v7.4c0 .1 0 .3-.1.4s-.2.1-.4.1c-.1 0-.3 0-.4-.1s-.1-.2-.1-.4v-1.2c-.3.5-.7.9-1.2 1.2s-1.1.5-1.8.5-1.4-.2-2-.6-1-.9-1.4-1.6c-.3-.7-.5-1.4-.5-2.2s.2-1.6.5-2.2c.3-.7.8-1.2 1.4-1.6s1.2-.6 1.9-.6 1.3.2 1.8.5 1 .7 1.2 1.2v-1c0-.1 0-.3.1-.4s.2-.1.4-.1c.2.2.4.2.5.3zm-2.3 7c.5-.3.8-.7 1.1-1.2s.4-1.1.4-1.8c0-.6-.1-1.2-.4-1.7s-.6-.9-1.1-1.2-1-.5-1.5-.5c-.6 0-1.1.1-1.5.4-.5.3-.8.7-1.1 1.2s-.4 1.1-.4 1.8.1 1.3.4 1.8.6.9 1.1 1.2 1 .5 1.6.5c.5 0 1-.2 1.4-.5z"/><path d="m57.6 110c0-.1.1-.3.2-.3.1-.1.2-.1.3-.1s.3.1.4.2c.6.9 1.5 1.3 2.6 1.3.5 0 1-.1 1.4-.4.4-.2.6-.6.6-1.1s-.2-.8-.5-1-.9-.4-1.5-.6c-.9-.2-1.6-.5-2.1-.9s-.8-.9-.8-1.6c0-.4.1-.9.4-1.2s.6-.6 1-.8.9-.3 1.5-.3c.5 0 .9.1 1.4.3s.9.5 1.2.9c.1.1.1.2.1.3s-.1.2-.2.3-.2.1-.3.1-.2 0-.3-.1c-.3-.3-.6-.5-.9-.7s-.8-.2-1.2-.2c-.5 0-1 .1-1.3.4-.4.2-.6.6-.6 1.1 0 .4.2.8.6 1s.9.4 1.7.6c.6.1 1 .3 1.4.5s.7.4.9.7.4.7.4 1.3c0 .7-.3 1.3-.9 1.7s-1.3.6-2.1.6c-1.3 0-2.4-.5-3.2-1.5-.2-.3-.2-.5-.2-.5z"/><path d="m65.3 110c0-.1.1-.3.2-.3.1-.1.2-.1.3-.1s.3.1.4.2c.6.9 1.5 1.3 2.6 1.3.5 0 1-.1 1.4-.4.4-.2.6-.6.6-1.1s-.2-.8-.5-1-.9-.4-1.5-.6c-.9-.2-1.6-.5-2.1-.9s-.8-.9-.8-1.6c0-.4.1-.9.4-1.2s.6-.6 1-.8.9-.3 1.5-.3c.5 0 .9.1 1.4.3s.9.5 1.2.9c.1.1.1.2.1.3s-.1.2-.2.3-.2.1-.3.1-.2 0-.3-.1c-.3-.3-.6-.5-.9-.7s-.8-.2-1.2-.2c-.5 0-1 .1-1.3.4-.4.2-.6.6-.6 1.1 0 .4.2.8.6 1s.9.4 1.7.6c.6.1 1 .3 1.4.5s.7.4.9.7.4.7.4 1.3c0 .7-.3 1.3-.9 1.7s-1.3.6-2.1.6c-1.3 0-2.4-.5-3.2-1.5-.2-.3-.2-.5-.2-.5z"/><path d="m73.5 101.8c-.1-.1-.2-.3-.2-.5v-.2c0-.2.1-.3.2-.5.1-.1.3-.2.5-.2.4 0 .7.2.7.6v.2c0 .2-.1.3-.2.5-.1.1-.3.2-.5.2-.2.1-.4.1-.5-.1zm.9 9.7c-.1.1-.2.1-.4.1-.1 0-.3 0-.4-.1s-.1-.2-.1-.4v-7.6c0-.1 0-.3.1-.4s.2-.1.4-.1c.1 0 .3 0 .4.1s.1.2.1.4v7.6c0 .2 0 .3-.1.4z"/><path d="m84.3 109.7c-.4.7-.9 1.2-1.5 1.6s-1.3.6-2.1.6-1.5-.2-2.1-.6-1.1-.9-1.5-1.6-.5-1.4-.5-2.2.2-1.6.5-2.2c.4-.7.9-1.2 1.5-1.6s1.3-.6 2.1-.6 1.5.2 2.1.6 1.1.9 1.5 1.6.5 1.4.5 2.2-.1 1.5-.5 2.2zm-.9-4c-.3-.5-.7-.9-1.1-1.2s-1-.5-1.6-.5-1.1.2-1.6.5-.9.7-1.1 1.2-.4 1.1-.4 1.8c0 .6.1 1.2.4 1.8s.7.9 1.1 1.2c.5.3 1 .5 1.6.5s1.1-.1 1.6-.4.9-.7 1.1-1.2.4-1.1.4-1.8c0-.8-.1-1.4-.4-1.9z"/><path d="m93 103.9c.5.6.7 1.4.7 2.4v4.8c0 .1 0 .3-.1.4s-.2.1-.3.1-.3 0-.4-.1-.1-.2-.1-.4v-4.8c0-.7-.2-1.3-.5-1.7-.4-.4-.9-.7-1.6-.7-.5 0-.9.1-1.3.3s-.8.5-1 .9c-.3.4-.4.8-.4 1.2v4.8c0 .1 0 .3-.1.4s-.2.1-.4.1-.3 0-.4-.1-.1-.2-.1-.4v-7.4c0-.1 0-.3.1-.4s.2-.1.4-.1.3 0 .4.1.1.2.1.4v.9c.3-.5.7-.9 1.3-1.2s1.1-.5 1.7-.5c.8.2 1.6.5 2 1z"/></g><path d="m25.3 207.5h81.9v34h-81.9z" fill="none"/><g enable-background="new" fill="#22292d"><path d="m40.3 209.4c0 .1 0 .2-.1.3s-.2.2-.4.2c-.1 0-.2 0-.3-.1-.9-.6-1.8-.9-2.9-.9-.9 0-1.7.2-2.4.6s-1.3 1-1.7 1.7c-.4.8-.6 1.6-.6 2.6s.2 1.8.6 2.6c.4.7 1 1.3 1.7 1.7s1.5.6 2.4.6c1 0 2-.3 2.9-.9.1-.1.2-.1.3-.1.2 0 .3.1.4.2s.1.2.1.3c0 .2-.1.3-.2.4-.4.3-1 .5-1.6.7s-1.2.3-1.8.3c-1 0-2-.2-2.9-.7s-1.6-1.2-2.1-2.1-.8-1.9-.8-3.1c0-1.1.3-2.1.8-3s1.2-1.6 2.1-2.1 1.8-.8 2.9-.8c.6 0 1.2.1 1.8.3s1.1.4 1.6.7c.1.3.2.4.2.6z"/><path d="m46.6 211.2c.2.1.3.2.3.4s0 .3-.1.4-.2.1-.3.1-.2 0-.3-.1c-.2-.1-.3-.1-.5-.1-.4 0-.8.2-1.2.5s-.7.7-1 1.2-.4 1-.4 1.5v4.1c0 .1 0 .3-.1.4s-.2.1-.4.1-.3 0-.4-.1-.1-.2-.1-.4v-7.4c0-.1 0-.3.1-.4s.2-.1.4-.1.3 0 .4.1.1.2.1.4v1.4c.3-.6.6-1.1 1.1-1.6.5-.4 1.1-.6 1.8-.6.3 0 .5.1.6.2z"/><path d="m55 215.3c-.1.1-.2.1-.3.1h-6.2c0 .7.1 1.2.4 1.8.3.5.7.9 1.1 1.2.5.3 1.1.5 1.8.5.5 0 1-.1 1.4-.3s.8-.5 1-.8c.1-.1.2-.1.3-.1s.2 0 .3.1.1.2.1.3-.1.2-.2.3c-.4.4-.8.8-1.3 1.1s-1.1.4-1.7.4c-.8 0-1.6-.2-2.2-.5s-1.1-.9-1.5-1.5c-.4-.7-.5-1.4-.5-2.3s.2-1.7.5-2.4c.4-.7.8-1.2 1.4-1.5.6-.4 1.2-.5 1.9-.5s1.3.2 1.8.5 1 .8 1.4 1.3c.4.6.5 1.3.6 2.1.1 0 0 .1-.1.2zm-5.4-2.7c-.5.4-.9 1.1-1 1.9h5.6v-.1c-.1-.5-.2-.9-.5-1.3s-.6-.6-1-.8-.8-.3-1.3-.3c-.7 0-1.3.2-1.8.6z"/><path d="m64.4 211.4c.1.1.1.2.1.4v7.4c0 .1 0 .3-.1.4s-.2.1-.4.1c-.1 0-.3 0-.4-.1s-.1-.2-.1-.4v-1.2c-.3.5-.7.9-1.2 1.2s-1.1.5-1.8.5-1.4-.2-2-.6-1-.9-1.4-1.6c-.3-.7-.5-1.4-.5-2.2s.2-1.6.5-2.2c.3-.7.8-1.2 1.4-1.6s1.2-.6 1.9-.6 1.3.2 1.8.5 1 .7 1.2 1.2v-1c0-.1 0-.3.1-.4s.2-.1.4-.1c.3.1.4.2.5.3zm-2.2 7c.5-.3.8-.7 1.1-1.2s.4-1.1.4-1.8c0-.6-.1-1.2-.4-1.7s-.6-.9-1.1-1.2-1-.5-1.5-.5c-.6 0-1.1.1-1.5.4-.5.3-.8.7-1.1 1.2s-.4 1.1-.4 1.8.1 1.3.4 1.8.6.9 1.1 1.2 1 .5 1.6.5c.4 0 .9-.2 1.4-.5z"/><path d="m68.8 212.2v5.5c0 .4.1.7.2.8.2.1.4.2.6.2h.2s.2 0 .2 0c.1 0 .2 0 .3.1s.1.2.1.3c0 .2-.1.3-.3.4s-.4.2-.6.2c-.3 0-.6 0-.8-.1s-.5-.2-.7-.5-.3-.7-.3-1.3v-5.5h-1.2c-.1 0-.2 0-.3-.1s-.1-.2-.1-.3 0-.2.1-.3.2-.1.3-.1h1.2v-1.8c0-.1 0-.3.1-.4s.2-.1.4-.1.3 0 .4.1.1.2.1.4v1.8h1.6c.1 0 .2 0 .3.1s.1.2.1.3 0 .2-.1.3-.2.1-.3.1h-1.5z"/><path d="m72.7 209.8c-.1-.1-.2-.3-.2-.5v-.2c0-.2.1-.3.2-.5.1-.1.3-.2.5-.2.4 0 .7.2.7.6v.2c0 .2-.1.3-.2.5-.1.1-.3.2-.5.2-.2.1-.4 0-.5-.1zm.8 9.7c-.1.1-.2.1-.4.1-.1 0-.3 0-.4-.1s-.1-.2-.1-.4v-7.6c0-.1 0-.3.1-.4s.2-.1.4-.1c.1 0 .3 0 .4.1s.1.2.1.4v7.6c.1.2 0 .3-.1.4z"/><path d="m82.9 211.2c.1.1.1.2.1.3s0 .2-.1.3l-3.2 7.6c0 .1-.1.2-.2.2-.1.1-.2.1-.3.1s-.2 0-.3-.1-.2-.1-.2-.2l-3.2-7.6v-.1s0-.1 0-.1c0-.1 0-.2.1-.3s.2-.1.4-.1c.1 0 .2 0 .3.1s.1.1.2.2l2.8 6.6 2.8-6.6c0-.1.1-.2.2-.2.1-.1.2-.1.3-.1.1-.1.2-.1.3 0z"/><path d="m84.9 209.8c-.1-.1-.2-.3-.2-.5v-.2c0-.2.1-.3.2-.5.1-.1.3-.2.5-.2.4 0 .7.2.7.6v.2c0 .2-.1.3-.2.5-.1.1-.3.2-.5.2-.2.1-.4 0-.5-.1zm.8 9.7c-.1.1-.2.1-.4.1-.1 0-.3 0-.4-.1s-.1-.2-.1-.4v-7.6c0-.1 0-.3.1-.4s.2-.1.4-.1c.1 0 .3 0 .4.1s.1.2.1.4v7.6c.1.2 0 .3-.1.4z"/><path d="m90.1 212.2v5.5c0 .4.1.7.2.8.2.1.4.2.6.2h.2s.2 0 .2 0c.1 0 .2 0 .3.1s.1.2.1.3c0 .2-.1.3-.3.4s-.4.2-.6.2c-.3 0-.6 0-.8-.1s-.5-.2-.7-.5-.3-.7-.3-1.3v-5.5h-1.2c-.1 0-.2 0-.3-.1s-.1-.2-.1-.3 0-.2.1-.3.2-.1.3-.1h1.2v-1.8c0-.1 0-.3.1-.4s.2-.1.4-.1.3 0 .4.1.1.2.1.4v1.8h1.6c.1 0 .2 0 .3.1s.1.2.1.3 0 .2-.1.3-.2.1-.3.1h-1.5z"/><path d="m100.6 211.2c.1.1.1.2.1.4v7.2c0 .9-.2 1.6-.5 2.2s-.8 1.1-1.4 1.4-1.3.5-2 .5c-.5 0-.9 0-1.3-.1s-.7-.2-1-.4c-.2-.1-.3-.3-.3-.5 0 0 0-.1 0-.2s.1-.2.2-.2.2-.1.2-.1h.2c.7.4 1.4.6 2 .6.9 0 1.6-.3 2.2-.9.5-.6.8-1.3.8-2.3v-.6c-.3.5-.7.8-1.2 1.1s-1.1.4-1.7.4c-1 0-1.7-.3-2.2-.9s-.7-1.3-.7-2.3v-5c0-.1 0-.3.1-.4s.2-.1.4-.1.3 0 .4.1.1.2.1.4v4.9c0 .8.2 1.4.5 1.8s.9.6 1.6.6c.4 0 .9-.1 1.3-.3s.7-.5 1-.9c.2-.4.4-.8.4-1.2v-4.9c0-.1 0-.3.1-.4s.2-.1.4-.1c.1.1.2.1.3.2z"/></g></svg>