<svg xmlns="http://www.w3.org/2000/svg" viewBox="0 0 449.13 323.51"><defs><style>.cls-1{fill:#e86b05;}.cls-2{fill:#fff;}</style></defs><title>the-firm-risk-and-governance-diagram</title><g id="Layer_2" data-name="Layer 2"><g id="Layer_1-2" data-name="Layer 1"><polygon class="cls-1" points="199.84 83.45 249.29 83.45 274.02 41.73 249.29 0 199.84 0 175.11 41.73 199.84 83.45"/><path class="cls-2" d="M216.65,34.09a.32.32,0,0,1,.09.24V37a.35.35,0,0,1-.16.3,4.12,4.12,0,0,1-1.1.52,4.06,4.06,0,0,1-1.24.19,4,4,0,0,1-2-.52,3.72,3.72,0,0,1-1.42-1.42,4.18,4.18,0,0,1,0-4,3.8,3.8,0,0,1,1.42-1.42,4,4,0,0,1,2-.52,4.66,4.66,0,0,1,1.13.14,3.54,3.54,0,0,1,1,.41.31.31,0,0,1,.16.28.36.36,0,0,1-.09.24.34.34,0,0,1-.22.1.36.36,0,0,1-.2-.06,3.59,3.59,0,0,0-1.75-.45,3.22,3.22,0,0,0-1.67.43,3,3,0,0,0-1.16,1.18,3.61,3.61,0,0,0,0,3.38,2.93,2.93,0,0,0,1.16,1.18,3.22,3.22,0,0,0,1.67.43,3.52,3.52,0,0,0,1-.13,3.62,3.62,0,0,0,.85-.36V34.66h-1.74a.3.3,0,0,1-.24-.1.29.29,0,0,1-.1-.23.3.3,0,0,1,.1-.24.32.32,0,0,1,.24-.09h2.1A.34.34,0,0,1,216.65,34.09Z"/><path class="cls-2" d="M221,32.22a.27.27,0,0,1,.18.26.37.37,0,0,1-.09.25.29.29,0,0,1-.21.09.81.81,0,0,1-.22-.06,1,1,0,0,0-.3,0,1.31,1.31,0,0,0-.81.31,2.66,2.66,0,0,0-.66.81,2.19,2.19,0,0,0-.26,1v2.72a.34.34,0,0,1-.09.24.32.32,0,0,1-.24.09.32.32,0,0,1-.23-.09.35.35,0,0,1-.1-.24V32.62a.33.33,0,0,1,.1-.23.29.29,0,0,1,.23-.1.3.3,0,0,1,.24.1.32.32,0,0,1,.09.23v1a2.58,2.58,0,0,1,.77-1,1.88,1.88,0,0,1,1.2-.42A.87.87,0,0,1,221,32.22Z"/><path class="cls-2" d="M226.54,36.56a2.6,2.6,0,0,1-1,1,2.84,2.84,0,0,1-2.84,0,2.66,2.66,0,0,1-1-1,3.14,3.14,0,0,1-.36-1.5,3.1,3.1,0,0,1,.36-1.49,2.78,2.78,0,0,1,3.84-1.06,2.69,2.69,0,0,1,1,1.06,3.1,3.1,0,0,1,.36,1.49A3.14,3.14,0,0,1,226.54,36.56ZM226,33.88a2,2,0,0,0-.76-.83,2.05,2.05,0,0,0-2.17,0,2.11,2.11,0,0,0-.76.83,2.63,2.63,0,0,0,0,2.36,2.18,2.18,0,0,0,.76.83,2.14,2.14,0,0,0,2.17,0,2.1,2.1,0,0,0,.76-.83,2.57,2.57,0,0,0,.27-1.19A2.53,2.53,0,0,0,226,33.88Z"/><path class="cls-2" d="M232.42,32.39a.32.32,0,0,1,.09.23v3.1a2.21,2.21,0,0,1-.6,1.66,2.34,2.34,0,0,1-1.67.58,2.31,2.31,0,0,1-1.66-.58,2.21,2.21,0,0,1-.6-1.66v-3.1a.34.34,0,0,1,.33-.33.3.3,0,0,1,.24.1.32.32,0,0,1,.09.23v3.1a1.45,1.45,0,0,0,1.6,1.62,1.65,1.65,0,0,0,1.19-.41,1.63,1.63,0,0,0,.42-1.21v-3.1a.33.33,0,0,1,.1-.23.29.29,0,0,1,.23-.1A.3.3,0,0,1,232.42,32.39Z"/><path class="cls-2" d="M238,32.58a2.58,2.58,0,0,1,.93,1,3.44,3.44,0,0,1,0,2.94,2.58,2.58,0,0,1-.93,1,2.39,2.39,0,0,1-1.31.38,2.25,2.25,0,0,1-1.17-.31,2.34,2.34,0,0,1-.85-.8v2.9a.31.31,0,0,1-.1.24.32.32,0,0,1-.23.09.32.32,0,0,1-.24-.09.34.34,0,0,1-.09-.24V32.58a.32.32,0,0,1,.09-.24.3.3,0,0,1,.24-.1.29.29,0,0,1,.23.1.3.3,0,0,1,.1.24v.75a2,2,0,0,1,.82-.82,2.41,2.41,0,0,1,1.19-.29A2.52,2.52,0,0,1,238,32.58Zm-.35,4.47a1.89,1.89,0,0,0,.72-.81,2.58,2.58,0,0,0,.26-1.17,2.52,2.52,0,0,0-.26-1.14,2,2,0,0,0-.72-.81,1.88,1.88,0,0,0-1-.29,2,2,0,0,0-1,.29,1.9,1.9,0,0,0-.72.79,2.84,2.84,0,0,0,0,2.33,1.89,1.89,0,0,0,.72.81,2,2,0,0,0,1,.29A1.88,1.88,0,0,0,237.61,37.05Z"/><path class="cls-2" d="M219,52.33a.34.34,0,0,1,.1.23.31.31,0,0,1-.1.23.32.32,0,0,1-.23.09h-4a.32.32,0,0,1-.24-.09.34.34,0,0,1-.09-.24v-7a.34.34,0,0,1,.09-.24.32.32,0,0,1,.24-.09h4a.32.32,0,0,1,.23.09.35.35,0,0,1,.1.24.31.31,0,0,1-.1.23.32.32,0,0,1-.23.09h-3.68v2.76h3.18a.32.32,0,0,1,.24.09.34.34,0,0,1,.09.24.3.3,0,0,1-.09.23.32.32,0,0,1-.24.09h-3.18v3h3.68A.29.29,0,0,1,219,52.33Z"/><path class="cls-2" d="M224.25,52.58a.33.33,0,0,1-.1.24.3.3,0,0,1-.23.1.36.36,0,0,1-.28-.15L222,50.59l-1.68,2.19a.32.32,0,0,1-.27.13.32.32,0,0,1-.22-.08.28.28,0,0,1-.1-.21.32.32,0,0,1,.08-.21l1.81-2.31-1.84-2.37a.29.29,0,0,1-.07-.2.33.33,0,0,1,.11-.23.34.34,0,0,1,.23-.1.32.32,0,0,1,.27.15L222,49.56l1.65-2.21a.35.35,0,0,1,.28-.15.28.28,0,0,1,.22.09.25.25,0,0,1,.09.2.32.32,0,0,1-.08.21L222.37,50l1.8,2.35A.27.27,0,0,1,224.25,52.58Z"/><path class="cls-2" d="M228.49,47.24a2,2,0,0,1,.71.32.54.54,0,0,1,.27.43.32.32,0,0,1-.08.22.25.25,0,0,1-.2.09.3.3,0,0,1-.18,0,.61.61,0,0,1-.16-.13,1,1,0,0,0-.28-.21,2.23,2.23,0,0,0-.43-.13,3.58,3.58,0,0,0-.58,0,2.12,2.12,0,0,0-1.89,1.15,2.4,2.4,0,0,0-.29,1.16,2.46,2.46,0,0,0,.28,1.19,2,2,0,0,0,.76.83,2.11,2.11,0,0,0,1.12.3,2.68,2.68,0,0,0,.63-.06,3.08,3.08,0,0,0,.47-.19,1.64,1.64,0,0,0,.26-.2.66.66,0,0,1,.16-.11.23.23,0,0,1,.14,0,.29.29,0,0,1,.21.08.32.32,0,0,1,.07.22c0,.12-.08.25-.26.4a2.6,2.6,0,0,1-.73.37,3.22,3.22,0,0,1-1,.15,2.75,2.75,0,0,1-1.43-.38,2.53,2.53,0,0,1-1-1,3.26,3.26,0,0,1-.35-1.51,3.19,3.19,0,0,1,.35-1.47,2.88,2.88,0,0,1,1-1.06,2.78,2.78,0,0,1,1.47-.39A4.21,4.21,0,0,1,228.49,47.24Z"/><path class="cls-2" d="M235.3,51.56a2.6,2.6,0,0,1-1,1,2.75,2.75,0,0,1-3.84-1,3.14,3.14,0,0,1-.36-1.5,3.1,3.1,0,0,1,.36-1.49,2.83,2.83,0,0,1,1-1.06,2.84,2.84,0,0,1,2.84,0,2.69,2.69,0,0,1,1,1.06,3,3,0,0,1,.37,1.49A3,3,0,0,1,235.3,51.56Zm-.57-2.68a2,2,0,0,0-.76-.83,2,2,0,0,0-1.09-.31,1.91,1.91,0,0,0-1.07.31,2.06,2.06,0,0,0-.77.83,2.63,2.63,0,0,0,0,2.36,2.13,2.13,0,0,0,.77.83,2,2,0,0,0,1.07.3,2,2,0,0,0,1.09-.29,2.1,2.1,0,0,0,.76-.83,2.58,2.58,0,0,0,.28-1.19A2.54,2.54,0,0,0,234.73,48.88Z"/><polygon class="cls-1" points="374.95 216.15 424.4 216.15 449.13 174.42 424.4 132.69 374.95 132.69 350.22 174.42 374.95 216.15"/><path class="cls-2" d="M372.23,170.26a.39.39,0,0,1-.05.14.23.23,0,0,1-.12.12.29.29,0,0,1-.16,0,.38.38,0,0,1-.19,0,1.26,1.26,0,0,1-.49-.57,3.1,3.1,0,0,1-.19-1.27,1.24,1.24,0,0,0-.43-1.08,1.69,1.69,0,0,0-1-.31h-2.44v3a.32.32,0,0,1-.09.24.32.32,0,0,1-.23.09.42.42,0,0,1-.27-.09.3.3,0,0,1-.11-.24v-7a.29.29,0,0,1,.1-.23.33.33,0,0,1,.23-.1h3a2.29,2.29,0,0,1,1.12.27,2,2,0,0,1,1.06,1.81,2.11,2.11,0,0,1-.37,1.24,1.78,1.78,0,0,1-1,.73,1.74,1.74,0,0,1,.79.63,1.92,1.92,0,0,1,.32,1.09,4.66,4.66,0,0,0,.09,1,.66.66,0,0,0,.27.38A.33.33,0,0,1,372.23,170.26Zm-2.45-3.58a1.56,1.56,0,0,0,.71-.25,1.62,1.62,0,0,0,.53-.6,1.81,1.81,0,0,0,.2-.85,1.36,1.36,0,0,0-.43-1,1.49,1.49,0,0,0-1.1-.42h-2.55v3.16Z"/><path class="cls-2" d="M378,167.66a.3.3,0,0,1-.23.1h-4.16a2.53,2.53,0,0,0,.27,1.18,2.12,2.12,0,0,0,.77.83,2.28,2.28,0,0,0,1.18.3,2,2,0,0,0,.95-.22,2.07,2.07,0,0,0,.67-.56.36.36,0,0,1,.23-.1.27.27,0,0,1,.2.09.25.25,0,0,1,.09.19.35.35,0,0,1-.11.24,2.82,2.82,0,0,1-.89.7,2.44,2.44,0,0,1-1.13.27,3,3,0,0,1-1.49-.36,2.54,2.54,0,0,1-1-1,3,3,0,0,1-.37-1.51,3.32,3.32,0,0,1,.36-1.58,2.64,2.64,0,0,1,.95-1,2.42,2.42,0,0,1,1.27-.36,2.56,2.56,0,0,1,1.24.31,2.53,2.53,0,0,1,.94.9,2.79,2.79,0,0,1,.37,1.41A.27.27,0,0,1,378,167.66Zm-3.63-1.76a2,2,0,0,0-.7,1.26h3.75v-.08a1.84,1.84,0,0,0-.33-.87,1.88,1.88,0,0,0-.69-.56,2,2,0,0,0-.85-.19A1.84,1.84,0,0,0,374.34,165.9Z"/><path class="cls-2" d="M387,165.52a2.59,2.59,0,0,1,.46,1.61v3.11a.31.31,0,0,1-.33.33.32.32,0,0,1-.23-.09.33.33,0,0,1-.1-.24v-3.08a1.92,1.92,0,0,0-.34-1.18,1.27,1.27,0,0,0-1.08-.45,1.9,1.9,0,0,0-1.54.81,1.54,1.54,0,0,0-.25.82v3.08a.31.31,0,0,1-.33.33.32.32,0,0,1-.23-.09.3.3,0,0,1-.1-.24v-3.11a1.9,1.9,0,0,0-.33-1.16,1.18,1.18,0,0,0-1-.44,1.68,1.68,0,0,0-.85.22,1.74,1.74,0,0,0-.65.58,1.4,1.4,0,0,0-.25.8v3.11a.32.32,0,0,1-.09.24.36.36,0,0,1-.24.09.31.31,0,0,1-.33-.33v-4.92a.31.31,0,0,1,.33-.33.36.36,0,0,1,.24.09.32.32,0,0,1,.09.24V166a2.28,2.28,0,0,1,.8-.74,2.06,2.06,0,0,1,1.07-.3,1.92,1.92,0,0,1,1.1.31,1.62,1.62,0,0,1,.66.9,2,2,0,0,1,.85-.85,2.42,2.42,0,0,1,1.24-.36A1.73,1.73,0,0,1,387,165.52Z"/><path class="cls-2" d="M393.35,165.08a.3.3,0,0,1,.1.24v3.1a2.14,2.14,0,0,1-.61,1.65,2.29,2.29,0,0,1-1.67.58,2.24,2.24,0,0,1-1.65-.58,2.17,2.17,0,0,1-.6-1.65v-3.1a.31.31,0,0,1,.33-.33.32.32,0,0,1,.23.09.33.33,0,0,1,.1.24v3.1a1.63,1.63,0,0,0,.41,1.2,1.59,1.59,0,0,0,1.18.42,1.61,1.61,0,0,0,1.19-.42,1.56,1.56,0,0,0,.43-1.2v-3.1a.31.31,0,0,1,.33-.33A.32.32,0,0,1,393.35,165.08Z"/><path class="cls-2" d="M399.05,165.42a2.47,2.47,0,0,1,.48,1.59v3.23a.3.3,0,0,1-.1.24.32.32,0,0,1-.23.09.36.36,0,0,1-.24-.09.32.32,0,0,1-.09-.24V167a1.81,1.81,0,0,0-.36-1.16,1.34,1.34,0,0,0-1.1-.44,2,2,0,0,0-1.59.81,1.36,1.36,0,0,0-.26.79v3.2a.32.32,0,0,1-.09.24.36.36,0,0,1-.24.09.34.34,0,0,1-.24-.09.32.32,0,0,1-.09-.24v-4.92a.32.32,0,0,1,.09-.24.34.34,0,0,1,.24-.09.36.36,0,0,1,.24.09.32.32,0,0,1,.09.24v.6a2.41,2.41,0,0,1,.85-.79,2.38,2.38,0,0,1,1.14-.31A1.81,1.81,0,0,1,399.05,165.42Z"/><path class="cls-2" d="M405.64,167.66a.33.33,0,0,1-.24.1h-4.15a2.53,2.53,0,0,0,.27,1.18,2.05,2.05,0,0,0,.77.83,2.23,2.23,0,0,0,1.18.3,1.92,1.92,0,0,0,.94-.22,2.11,2.11,0,0,0,.68-.56.34.34,0,0,1,.23-.1.31.31,0,0,1,.28.28.32.32,0,0,1-.11.24,2.78,2.78,0,0,1-.88.7,2.47,2.47,0,0,1-1.13.27,3.05,3.05,0,0,1-1.5-.36,2.54,2.54,0,0,1-1-1,3.07,3.07,0,0,1-.36-1.51,3.32,3.32,0,0,1,.36-1.58,2.5,2.5,0,0,1,.95-1,2.39,2.39,0,0,1,1.26-.36,2.56,2.56,0,0,1,1.24.31,2.46,2.46,0,0,1,.94.9,2.69,2.69,0,0,1,.37,1.41A.29.29,0,0,1,405.64,167.66ZM402,165.9a2,2,0,0,0-.7,1.26h3.75v-.08a1.65,1.65,0,0,0-.33-.87,1.8,1.8,0,0,0-.69-.56,1.92,1.92,0,0,0-.85-.19A1.86,1.86,0,0,0,402,165.9Z"/><path class="cls-2" d="M409.85,164.91a.27.27,0,0,1,.17.26.33.33,0,0,1-.08.25.29.29,0,0,1-.21.09.68.68,0,0,1-.22,0,.8.8,0,0,0-.3-.06,1.33,1.33,0,0,0-.81.32,2.4,2.4,0,0,0-.66.81,2.16,2.16,0,0,0-.26,1v2.71a.31.31,0,0,1-.33.33.32.32,0,0,1-.23-.09.3.3,0,0,1-.1-.24v-4.92a.3.3,0,0,1,.1-.24.32.32,0,0,1,.23-.09.31.31,0,0,1,.33.33v1a2.65,2.65,0,0,1,.77-1,1.94,1.94,0,0,1,1.2-.42A.87.87,0,0,1,409.85,164.91Z"/><path class="cls-2" d="M415.45,165.05a.33.33,0,0,1,.1.24v5a.3.3,0,0,1-.1.24.32.32,0,0,1-.23.09.31.31,0,0,1-.33-.33v-.73a2.28,2.28,0,0,1-.83.83,2.2,2.2,0,0,1-1.2.34,2.32,2.32,0,0,1-1.32-.38,2.67,2.67,0,0,1-.93-1.06,3.34,3.34,0,0,1-.33-1.5,3.26,3.26,0,0,1,.34-1.51,2.59,2.59,0,0,1,.93-1,2.36,2.36,0,0,1,1.3-.38,2.4,2.4,0,0,1,1.21.32,2.09,2.09,0,0,1,.83.84v-.69a.36.36,0,0,1,.09-.24.33.33,0,0,1,.24-.1A.33.33,0,0,1,415.45,165.05ZM414,169.77a2.09,2.09,0,0,0,.71-.84,2.73,2.73,0,0,0,.26-1.19,2.64,2.64,0,0,0-.26-1.17,2.06,2.06,0,0,0-.71-.83,1.85,1.85,0,0,0-1-.3,1.9,1.9,0,0,0-1,.29,2.1,2.1,0,0,0-.71.82,2.57,2.57,0,0,0-.26,1.19,2.73,2.73,0,0,0,.25,1.19,2,2,0,0,0,.71.84,1.94,1.94,0,0,0,2.07,0Z"/><path class="cls-2" d="M418.1,165.59v3.69a.78.78,0,0,0,.15.56.56.56,0,0,0,.41.15l.16,0,.16,0a.21.21,0,0,1,.17.08.26.26,0,0,1,.07.19.31.31,0,0,1-.18.26.76.76,0,0,1-.41.1,2.12,2.12,0,0,1-.53,0,.89.89,0,0,1-.45-.33,1.46,1.46,0,0,1-.21-.88v-3.72h-.8a.32.32,0,0,1-.23-.09.29.29,0,0,1-.09-.22.29.29,0,0,1,.32-.3h.8v-1.23a.32.32,0,0,1,.09-.23.33.33,0,0,1,.24-.1.33.33,0,0,1,.23.1.29.29,0,0,1,.1.23V165h1.1a.29.29,0,0,1,.21.09.3.3,0,0,1,.1.22.29.29,0,0,1-.09.22.33.33,0,0,1-.22.08Z"/><path class="cls-2" d="M420.42,164a.38.38,0,0,1-.12-.3v-.11a.38.38,0,0,1,.12-.3.54.54,0,0,1,.35-.11c.29,0,.44.14.44.41v.11a.41.41,0,0,1-.11.3.58.58,0,0,1-.68,0Zm.58,6.47a.37.37,0,0,1-.48,0,.32.32,0,0,1-.09-.24v-5.06a.32.32,0,0,1,.09-.23.34.34,0,0,1,.48,0,.32.32,0,0,1,.09.23v5.06A.32.32,0,0,1,421,170.48Z"/><path class="cls-2" d="M427.36,169.25a2.75,2.75,0,0,1-4.84,0,3.07,3.07,0,0,1-.36-1.49,3.14,3.14,0,0,1,.36-1.5,2.75,2.75,0,0,1,4.84,0,3.14,3.14,0,0,1,.36,1.5A3.07,3.07,0,0,1,427.36,169.25Zm-.57-2.68a2.13,2.13,0,0,0-.77-.83,2.09,2.09,0,0,0-2.16,0,2.1,2.1,0,0,0-.76.83,2.65,2.65,0,0,0,0,2.37,2.17,2.17,0,0,0,.76.83,2.09,2.09,0,0,0,2.16,0,2.1,2.1,0,0,0,.77-.82,2.6,2.6,0,0,0,.27-1.19A2.57,2.57,0,0,0,426.79,166.57Z"/><path class="cls-2" d="M433,165.42a2.47,2.47,0,0,1,.48,1.59v3.23a.3.3,0,0,1-.1.24.34.34,0,0,1-.46,0,.3.3,0,0,1-.1-.24V167a1.81,1.81,0,0,0-.36-1.16,1.33,1.33,0,0,0-1.1-.44,1.87,1.87,0,0,0-.9.22,1.77,1.77,0,0,0-.68.59,1.3,1.3,0,0,0-.27.79v3.2a.31.31,0,0,1-.33.33.36.36,0,0,1-.24-.09.32.32,0,0,1-.09-.24v-4.92a.32.32,0,0,1,.09-.24.36.36,0,0,1,.24-.09.31.31,0,0,1,.33.33v.6a2.41,2.41,0,0,1,.85-.79,2.38,2.38,0,0,1,1.14-.31A1.81,1.81,0,0,1,433,165.42Z"/><path class="cls-2" d="M379.88,178.72a.42.42,0,0,1-.08.22.3.3,0,0,1-.25.12.41.41,0,0,1-.18-.05,3.4,3.4,0,0,0-1.92-.59,3.12,3.12,0,0,0-1.61.42A3.05,3.05,0,0,0,374.7,180a3.6,3.6,0,0,0-.41,1.71,3.53,3.53,0,0,0,.42,1.74,3,3,0,0,0,1.14,1.16,3.11,3.11,0,0,0,1.6.42,3.43,3.43,0,0,0,1.91-.58.41.41,0,0,1,.19-.05.29.29,0,0,1,.25.13.32.32,0,0,1,.08.21.28.28,0,0,1-.15.26,4.17,4.17,0,0,1-1.06.48,4.12,4.12,0,0,1-1.22.19,3.78,3.78,0,0,1-1.93-.5,3.72,3.72,0,0,1-1.41-1.4,4.28,4.28,0,0,1,0-4.07,3.74,3.74,0,0,1,1.4-1.42,3.84,3.84,0,0,1,1.95-.51,4,4,0,0,1,1.2.17,3.7,3.7,0,0,1,1.06.5A.29.29,0,0,1,379.88,178.72Z"/><path class="cls-2" d="M385.66,184.25a2.7,2.7,0,0,1-2.41,1.43,2.63,2.63,0,0,1-1.42-.38,2.69,2.69,0,0,1-1-1.05,3.07,3.07,0,0,1-.36-1.49,3.14,3.14,0,0,1,.36-1.5,2.69,2.69,0,0,1,1-1,2.76,2.76,0,0,1,2.83,0,2.6,2.6,0,0,1,1,1,3,3,0,0,1,.37,1.5A3,3,0,0,1,385.66,184.25Zm-.57-2.68a2.1,2.1,0,0,0-.76-.83,2,2,0,0,0-1.08-.3,2,2,0,0,0-1.08.3,2.13,2.13,0,0,0-.77.83,2.65,2.65,0,0,0,0,2.37,2.2,2.2,0,0,0,.77.83,2,2,0,0,0,1.08.3,2,2,0,0,0,1.08-.3,2.07,2.07,0,0,0,.76-.82,2.49,2.49,0,0,0,.28-1.19A2.46,2.46,0,0,0,385.09,181.57Z"/><path class="cls-2" d="M394.94,180.52a2.59,2.59,0,0,1,.47,1.61v3.11a.32.32,0,0,1-.09.24.34.34,0,0,1-.24.09.36.36,0,0,1-.24-.09.32.32,0,0,1-.09-.24v-3.08a1.86,1.86,0,0,0-.35-1.18,1.25,1.25,0,0,0-1.07-.45,1.76,1.76,0,0,0-.87.22,1.74,1.74,0,0,0-.67.59,1.46,1.46,0,0,0-.25.82v3.08a.32.32,0,0,1-.09.24.36.36,0,0,1-.24.09.31.31,0,0,1-.33-.33v-3.11a1.9,1.9,0,0,0-.33-1.16,1.2,1.2,0,0,0-1-.44,1.71,1.71,0,0,0-.85.22,1.82,1.82,0,0,0-.65.58,1.47,1.47,0,0,0-.24.8v3.11a.33.33,0,0,1-.1.24.32.32,0,0,1-.23.09.31.31,0,0,1-.33-.33v-4.92a.31.31,0,0,1,.33-.33.32.32,0,0,1,.23.09.33.33,0,0,1,.1.24V181a2.2,2.2,0,0,1,.8-.74,2.06,2.06,0,0,1,1.07-.3,1.92,1.92,0,0,1,1.1.31,1.72,1.72,0,0,1,.66.9,2,2,0,0,1,.84-.85,2.46,2.46,0,0,1,1.25-.36A1.69,1.69,0,0,1,394.94,180.52Z"/><path class="cls-2" d="M404.7,180.52a2.59,2.59,0,0,1,.47,1.61v3.11a.3.3,0,0,1-.1.24.32.32,0,0,1-.23.09.31.31,0,0,1-.33-.33v-3.08a1.92,1.92,0,0,0-.35-1.18,1.27,1.27,0,0,0-1.07-.45,1.82,1.82,0,0,0-.88.22,1.79,1.79,0,0,0-.66.59,1.46,1.46,0,0,0-.25.82v3.08a.33.33,0,0,1-.1.24.32.32,0,0,1-.23.09.31.31,0,0,1-.33-.33v-3.11a1.9,1.9,0,0,0-.33-1.16,1.2,1.2,0,0,0-1-.44,1.71,1.71,0,0,0-.85.22,1.82,1.82,0,0,0-.65.58,1.48,1.48,0,0,0-.25.8v3.11a.31.31,0,0,1-.33.33.32.32,0,0,1-.23-.09.3.3,0,0,1-.1-.24v-4.92a.3.3,0,0,1,.1-.24.32.32,0,0,1,.23-.09.31.31,0,0,1,.33.33V181a2.32,2.32,0,0,1,.81-.74,2,2,0,0,1,1.06-.3,1.9,1.9,0,0,1,1.1.31,1.62,1.62,0,0,1,.66.9,2.1,2.1,0,0,1,.85-.85,2.42,2.42,0,0,1,1.24-.36A1.71,1.71,0,0,1,404.7,180.52Z"/><path class="cls-2" d="M406.59,179a.38.38,0,0,1-.12-.3v-.11a.38.38,0,0,1,.12-.3.54.54,0,0,1,.35-.11c.29,0,.44.14.44.41v.11a.38.38,0,0,1-.12.3.47.47,0,0,1-.33.11A.5.5,0,0,1,406.59,179Zm.57,6.47a.32.32,0,0,1-.23.09.31.31,0,0,1-.33-.33v-5.06a.32.32,0,0,1,.09-.23.33.33,0,0,1,.24-.1.33.33,0,0,1,.23.1.29.29,0,0,1,.1.23v5.06A.3.3,0,0,1,407.16,185.48Z"/><path class="cls-2" d="M409.8,180.59v3.69a.78.78,0,0,0,.15.56.58.58,0,0,0,.41.15l.16,0,.16,0a.21.21,0,0,1,.17.08.26.26,0,0,1,.07.19.31.31,0,0,1-.18.26.76.76,0,0,1-.41.1,2.12,2.12,0,0,1-.53,0,.89.89,0,0,1-.45-.33,1.46,1.46,0,0,1-.21-.88v-3.72h-.8a.32.32,0,0,1-.23-.09.29.29,0,0,1-.09-.22.29.29,0,0,1,.32-.3h.8v-1.23a.32.32,0,0,1,.09-.23.33.33,0,0,1,.24-.1.37.37,0,0,1,.24.1.32.32,0,0,1,.09.23V180h1.1a.29.29,0,0,1,.21.09.3.3,0,0,1,.1.22.29.29,0,0,1-.09.22.33.33,0,0,1-.22.08Z"/><path class="cls-2" d="M413.25,180.59v3.69a.73.73,0,0,0,.16.56.54.54,0,0,0,.4.15l.17,0,.15,0a.19.19,0,0,1,.17.08.26.26,0,0,1,.07.19.29.29,0,0,1-.17.26.82.82,0,0,1-.42.1,2.17,2.17,0,0,1-.53,0,.87.87,0,0,1-.44-.33,1.39,1.39,0,0,1-.22-.88v-3.72h-.8a.33.33,0,0,1-.23-.09.29.29,0,0,1-.09-.22.31.31,0,0,1,.09-.22.32.32,0,0,1,.23-.08h.8v-1.23a.29.29,0,0,1,.1-.23.33.33,0,0,1,.23-.1.33.33,0,0,1,.24.1.32.32,0,0,1,.09.23V180h1.1a.31.31,0,0,1,.31.31.29.29,0,0,1-.09.22.33.33,0,0,1-.22.08Z"/><path class="cls-2" d="M420.2,182.66a.29.29,0,0,1-.23.1h-4.15a2.53,2.53,0,0,0,.26,1.18,2.12,2.12,0,0,0,.77.83,2.29,2.29,0,0,0,1.19.3,2,2,0,0,0,.94-.22,2,2,0,0,0,.67-.56.36.36,0,0,1,.24-.1.26.26,0,0,1,.19.09.25.25,0,0,1,.09.19.35.35,0,0,1-.11.24,2.78,2.78,0,0,1-.88.7,2.51,2.51,0,0,1-1.13.27,3,3,0,0,1-1.5-.36,2.54,2.54,0,0,1-1-1,3.07,3.07,0,0,1-.36-1.51,3.44,3.44,0,0,1,.35-1.58,2.59,2.59,0,0,1,1-1,2.36,2.36,0,0,1,1.26-.36,2.56,2.56,0,0,1,1.24.31,2.46,2.46,0,0,1,.94.9,2.69,2.69,0,0,1,.37,1.41A.27.27,0,0,1,420.2,182.66Zm-3.63-1.76a2,2,0,0,0-.7,1.26h3.75v-.08a1.84,1.84,0,0,0-.33-.87,1.8,1.8,0,0,0-.69-.56,2,2,0,0,0-.85-.19A1.86,1.86,0,0,0,416.57,180.9Z"/><path class="cls-2" d="M426.05,182.66a.33.33,0,0,1-.24.1h-4.15a2.53,2.53,0,0,0,.27,1.18,2.05,2.05,0,0,0,.77.83,2.23,2.23,0,0,0,1.18.3,1.92,1.92,0,0,0,.94-.22,2.11,2.11,0,0,0,.68-.56.34.34,0,0,1,.23-.1.31.31,0,0,1,.28.28.32.32,0,0,1-.11.24,2.78,2.78,0,0,1-.88.7,2.47,2.47,0,0,1-1.13.27,3.05,3.05,0,0,1-1.5-.36,2.54,2.54,0,0,1-1-1,3.07,3.07,0,0,1-.36-1.51,3.32,3.32,0,0,1,.36-1.58,2.5,2.5,0,0,1,.95-1,2.36,2.36,0,0,1,1.26-.36,2.56,2.56,0,0,1,1.24.31,2.46,2.46,0,0,1,.94.9,2.69,2.69,0,0,1,.37,1.41A.29.29,0,0,1,426.05,182.66Zm-3.64-1.76a2,2,0,0,0-.7,1.26h3.75v-.08a1.65,1.65,0,0,0-.33-.87,1.8,1.8,0,0,0-.69-.56,1.92,1.92,0,0,0-.85-.19A1.86,1.86,0,0,0,422.41,180.9Z"/><path class="cls-1" d="M399.85,145.27a1,1,0,0,1-1-1v-34.5H50.63v34.5a1,1,0,0,1-2,0v-35.5a1,1,0,0,1,1-1H399.85a1,1,0,0,1,1,1v35.5A1,1,0,0,1,399.85,145.27Z"/><polygon class="cls-1" points="258.21 216.15 307.66 216.15 332.39 174.42 307.66 132.69 258.21 132.69 233.48 174.42 258.21 216.15"/><path class="cls-2" d="M257.94,170.48a.37.37,0,0,1-.25.09.32.32,0,0,1-.24-.09.3.3,0,0,1-.1-.25v-7a.34.34,0,0,1,.1-.25.35.35,0,0,1,.6.25v7A.44.44,0,0,1,257.94,170.48Z"/><path class="cls-2" d="M263.82,165.42a2.53,2.53,0,0,1,.47,1.59v3.23a.3.3,0,0,1-.1.24.34.34,0,0,1-.46,0,.3.3,0,0,1-.1-.24V167a1.86,1.86,0,0,0-.35-1.16,1.36,1.36,0,0,0-1.11-.44,1.93,1.93,0,0,0-.9.22,1.77,1.77,0,0,0-.68.59,1.3,1.3,0,0,0-.27.79v3.2a.31.31,0,0,1-.33.33.32.32,0,0,1-.23-.09.3.3,0,0,1-.1-.24v-4.92a.3.3,0,0,1,.1-.24A.32.32,0,0,1,260,165a.31.31,0,0,1,.33.33v.6a2.48,2.48,0,0,1,2-1.1A1.81,1.81,0,0,1,263.82,165.42Z"/><path class="cls-2" d="M270.15,164.92a.25.25,0,0,1,.09.2.43.43,0,0,1,0,.19L268,170.37a.39.39,0,0,1-.12.14.29.29,0,0,1-.17.06.27.27,0,0,1-.2,0,.34.34,0,0,1-.13-.16l-2.17-5.06a.11.11,0,0,0,0-.07.28.28,0,0,1,0-.09.32.32,0,0,1,.34-.32.32.32,0,0,1,.18.06.51.51,0,0,1,.13.16l1.87,4.46,1.88-4.46a.48.48,0,0,1,.12-.16.33.33,0,0,1,.2,0A.37.37,0,0,1,270.15,164.92Z"/><path class="cls-2" d="M275.83,167.66a.29.29,0,0,1-.23.1h-4.16a2.53,2.53,0,0,0,.27,1.18,2.12,2.12,0,0,0,.77.83,2.29,2.29,0,0,0,1.19.3,2,2,0,0,0,.94-.22,2.07,2.07,0,0,0,.67-.56.36.36,0,0,1,.23-.1.27.27,0,0,1,.2.09.25.25,0,0,1,.09.19.35.35,0,0,1-.11.24,2.82,2.82,0,0,1-.89.7,2.43,2.43,0,0,1-1.12.27,3,3,0,0,1-1.5-.36,2.54,2.54,0,0,1-1-1,3.07,3.07,0,0,1-.36-1.51,3.32,3.32,0,0,1,.35-1.58,2.64,2.64,0,0,1,.95-1,2.42,2.42,0,0,1,1.27-.36,2.56,2.56,0,0,1,1.24.31,2.46,2.46,0,0,1,.94.9,2.79,2.79,0,0,1,.37,1.41A.27.27,0,0,1,275.83,167.66Zm-3.63-1.76a2,2,0,0,0-.7,1.26h3.75v-.08a1.84,1.84,0,0,0-.33-.87,1.8,1.8,0,0,0-.69-.56,2,2,0,0,0-.85-.19A1.84,1.84,0,0,0,272.2,165.9Z"/><path class="cls-2" d="M276.61,169.44a.24.24,0,0,1,.15-.22.24.24,0,0,1,.17-.06.3.3,0,0,1,.24.11,2.07,2.07,0,0,0,1.73.85,1.73,1.73,0,0,0,.92-.24.81.81,0,0,0,.39-.72.78.78,0,0,0-.36-.7,3.67,3.67,0,0,0-1-.39,4.48,4.48,0,0,1-1.43-.6,1.25,1.25,0,0,1-.52-1.09,1.36,1.36,0,0,1,.25-.81,1.72,1.72,0,0,1,.69-.55,2.38,2.38,0,0,1,1-.2,2.72,2.72,0,0,1,1,.18,2,2,0,0,1,.81.58.26.26,0,0,1,.1.22.27.27,0,0,1-.11.23.25.25,0,0,1-.19.07.27.27,0,0,1-.2-.09,1.74,1.74,0,0,0-.63-.45,2,2,0,0,0-.78-.16,1.53,1.53,0,0,0-.89.25.81.81,0,0,0-.36.72.75.75,0,0,0,.4.67,3.79,3.79,0,0,0,1.11.42,5.51,5.51,0,0,1,1,.32,1.57,1.57,0,0,1,.61.5,1.35,1.35,0,0,1,.24.84,1.33,1.33,0,0,1-.58,1.14,2.31,2.31,0,0,1-1.41.42,2.58,2.58,0,0,1-2.14-1A.45.45,0,0,1,276.61,169.44Z"/><path class="cls-2" d="M283,165.59v3.69a.78.78,0,0,0,.16.56.56.56,0,0,0,.41.15l.16,0,.15,0a.22.22,0,0,1,.18.08.32.32,0,0,1,.07.19.31.31,0,0,1-.18.26.82.82,0,0,1-.42.1,2.17,2.17,0,0,1-.53,0,.87.87,0,0,1-.44-.33,1.45,1.45,0,0,1-.22-.88v-3.72h-.8a.29.29,0,0,1-.22-.09.27.27,0,0,1-.1-.22.28.28,0,0,1,.1-.22.29.29,0,0,1,.22-.08h.8v-1.23a.34.34,0,0,1,.33-.33.33.33,0,0,1,.24.1.32.32,0,0,1,.09.23V165h1.1a.29.29,0,0,1,.22.09.33.33,0,0,1,.09.22.29.29,0,0,1-.09.22.31.31,0,0,1-.22.08Z"/><path class="cls-2" d="M293.2,165.52a2.59,2.59,0,0,1,.46,1.61v3.11a.31.31,0,0,1-.33.33.32.32,0,0,1-.23-.09.3.3,0,0,1-.1-.24v-3.08a1.92,1.92,0,0,0-.34-1.18,1.27,1.27,0,0,0-1.08-.45,1.81,1.81,0,0,0-.87.22,1.74,1.74,0,0,0-.67.59,1.54,1.54,0,0,0-.25.82v3.08a.31.31,0,0,1-.33.33.32.32,0,0,1-.23-.09.3.3,0,0,1-.1-.24v-3.11a1.9,1.9,0,0,0-.33-1.16,1.18,1.18,0,0,0-1-.44,1.75,1.75,0,0,0-.86.22,1.79,1.79,0,0,0-.64.58,1.4,1.4,0,0,0-.25.8v3.11a.3.3,0,0,1-.1.24.32.32,0,0,1-.23.09.31.31,0,0,1-.33-.33v-4.92a.31.31,0,0,1,.33-.33.32.32,0,0,1,.23.09.3.3,0,0,1,.1.24V166a2.28,2.28,0,0,1,.8-.74,2.06,2.06,0,0,1,1.07-.3,1.92,1.92,0,0,1,1.1.31,1.62,1.62,0,0,1,.66.9,2,2,0,0,1,.85-.85,2.42,2.42,0,0,1,1.24-.36A1.73,1.73,0,0,1,293.2,165.52Z"/><path class="cls-2" d="M299.77,167.66a.3.3,0,0,1-.23.1h-4.16a2.53,2.53,0,0,0,.27,1.18,2.05,2.05,0,0,0,.77.83,2.25,2.25,0,0,0,1.18.3,2,2,0,0,0,.95-.22,2.07,2.07,0,0,0,.67-.56.36.36,0,0,1,.23-.1.28.28,0,0,1,.2.09.25.25,0,0,1,.09.19.35.35,0,0,1-.11.24,2.82,2.82,0,0,1-.89.7,2.47,2.47,0,0,1-1.13.27,3,3,0,0,1-1.49-.36,2.57,2.57,0,0,1-1-1,3.07,3.07,0,0,1-.36-1.51,3.32,3.32,0,0,1,.36-1.58,2.56,2.56,0,0,1,.95-1,2.42,2.42,0,0,1,1.27-.36,2.5,2.5,0,0,1,1.23.31,2.39,2.39,0,0,1,.94.9,2.7,2.7,0,0,1,.38,1.41A.3.3,0,0,1,299.77,167.66Zm-3.64-1.76a2.07,2.07,0,0,0-.7,1.26h3.76v-.08a1.84,1.84,0,0,0-.33-.87,1.92,1.92,0,0,0-1.54-.75A1.89,1.89,0,0,0,296.13,165.9Z"/><path class="cls-2" d="M305.11,165.42a2.47,2.47,0,0,1,.48,1.59v3.23a.32.32,0,0,1-.33.33.31.31,0,0,1-.33-.33V167a1.81,1.81,0,0,0-.36-1.16,1.36,1.36,0,0,0-1.11-.44,2,2,0,0,0-1.58.81,1.29,1.29,0,0,0-.26.79v3.2a.33.33,0,0,1-.1.24.32.32,0,0,1-.23.09.31.31,0,0,1-.33-.33v-4.92a.31.31,0,0,1,.33-.33.32.32,0,0,1,.23.09.33.33,0,0,1,.1.24v.6a2.33,2.33,0,0,1,.85-.79,2.38,2.38,0,0,1,1.14-.31A1.81,1.81,0,0,1,305.11,165.42Z"/><path class="cls-2" d="M308.14,165.59v3.69a.78.78,0,0,0,.15.56.58.58,0,0,0,.41.15l.17,0,.15,0a.2.2,0,0,1,.17.08.26.26,0,0,1,.07.19.31.31,0,0,1-.17.26.82.82,0,0,1-.42.1,2.12,2.12,0,0,1-.53,0,.93.93,0,0,1-.45-.33,1.46,1.46,0,0,1-.21-.88v-3.72h-.8a.32.32,0,0,1-.23-.09.29.29,0,0,1-.09-.22.29.29,0,0,1,.32-.3h.8v-1.23a.32.32,0,0,1,.09-.23.33.33,0,0,1,.24-.1.37.37,0,0,1,.24.1.32.32,0,0,1,.09.23V165h1.1a.29.29,0,0,1,.21.09.3.3,0,0,1,.1.22.29.29,0,0,1-.09.22.33.33,0,0,1-.22.08Z"/><path class="cls-2" d="M263.14,178.72a.42.42,0,0,1-.08.22.3.3,0,0,1-.25.12.41.41,0,0,1-.18-.05,3.4,3.4,0,0,0-1.92-.59,3.12,3.12,0,0,0-1.61.42A3.05,3.05,0,0,0,258,180a3.6,3.6,0,0,0-.41,1.71,3.53,3.53,0,0,0,.42,1.74,3,3,0,0,0,1.14,1.16,3.11,3.11,0,0,0,1.6.42,3.43,3.43,0,0,0,1.91-.58.41.41,0,0,1,.19-.05.29.29,0,0,1,.25.13.32.32,0,0,1,.08.21.27.27,0,0,1-.16.26,3.94,3.94,0,0,1-1.05.48,4.12,4.12,0,0,1-1.22.19,3.78,3.78,0,0,1-1.93-.5,3.72,3.72,0,0,1-1.41-1.4,4.28,4.28,0,0,1,0-4.07,3.74,3.74,0,0,1,1.4-1.42,3.84,3.84,0,0,1,1.95-.51,4,4,0,0,1,1.2.17,3.7,3.7,0,0,1,1.06.5A.29.29,0,0,1,263.14,178.72Z"/><path class="cls-2" d="M268.92,184.25a2.6,2.6,0,0,1-1,1.05,2.82,2.82,0,0,1-2.83,0,2.69,2.69,0,0,1-1-1.05,3.07,3.07,0,0,1-.36-1.49,3.14,3.14,0,0,1,.36-1.5,2.69,2.69,0,0,1,1-1,2.76,2.76,0,0,1,2.83,0,2.6,2.6,0,0,1,1,1,3,3,0,0,1,.37,1.5A3,3,0,0,1,268.92,184.25Zm-.57-2.68a2.1,2.1,0,0,0-.76-.83,2.05,2.05,0,0,0-1.09-.3,2,2,0,0,0-1.07.3,2.13,2.13,0,0,0-.77.83,2.65,2.65,0,0,0,0,2.37,2.2,2.2,0,0,0,.77.83,2,2,0,0,0,1.07.3,2.05,2.05,0,0,0,1.85-1.12,2.49,2.49,0,0,0,.28-1.19A2.46,2.46,0,0,0,268.35,181.57Z"/><path class="cls-2" d="M278.2,180.52a2.59,2.59,0,0,1,.47,1.61v3.11a.32.32,0,0,1-.09.24.37.37,0,0,1-.48,0,.32.32,0,0,1-.09-.24v-3.08a1.92,1.92,0,0,0-.35-1.18,1.25,1.25,0,0,0-1.07-.45,1.76,1.76,0,0,0-.87.22,1.74,1.74,0,0,0-.67.59,1.46,1.46,0,0,0-.25.82v3.08a.3.3,0,0,1-.1.24.32.32,0,0,1-.23.09.31.31,0,0,1-.33-.33v-3.11a1.9,1.9,0,0,0-.33-1.16,1.2,1.2,0,0,0-1-.44,1.71,1.71,0,0,0-.85.22,1.82,1.82,0,0,0-.65.58,1.47,1.47,0,0,0-.24.8v3.11a.33.33,0,0,1-.1.24.32.32,0,0,1-.23.09.31.31,0,0,1-.33-.33v-4.92a.31.31,0,0,1,.33-.33.32.32,0,0,1,.23.09.33.33,0,0,1,.1.24V181a2.2,2.2,0,0,1,.8-.74,2.06,2.06,0,0,1,1.07-.3,1.92,1.92,0,0,1,1.1.31,1.72,1.72,0,0,1,.66.9,2,2,0,0,1,.84-.85,2.46,2.46,0,0,1,1.25-.36A1.69,1.69,0,0,1,278.2,180.52Z"/><path class="cls-2" d="M288,180.52a2.59,2.59,0,0,1,.47,1.61v3.11a.3.3,0,0,1-.1.24.32.32,0,0,1-.23.09.31.31,0,0,1-.33-.33v-3.08a1.92,1.92,0,0,0-.35-1.18,1.27,1.27,0,0,0-1.07-.45,1.82,1.82,0,0,0-.88.22,1.79,1.79,0,0,0-.66.59,1.46,1.46,0,0,0-.25.82v3.08a.33.33,0,0,1-.1.24.32.32,0,0,1-.23.09.31.31,0,0,1-.33-.33v-3.11a1.9,1.9,0,0,0-.33-1.16,1.2,1.2,0,0,0-1-.44,1.71,1.71,0,0,0-.85.22,1.74,1.74,0,0,0-.65.58,1.4,1.4,0,0,0-.25.8v3.11a.31.31,0,0,1-.33.33.32.32,0,0,1-.23-.09.3.3,0,0,1-.1-.24v-4.92a.3.3,0,0,1,.1-.24.32.32,0,0,1,.23-.09.31.31,0,0,1,.33.33V181a2.32,2.32,0,0,1,.81-.74,2,2,0,0,1,1.06-.3,1.9,1.9,0,0,1,1.1.31,1.62,1.62,0,0,1,.66.9,2.1,2.1,0,0,1,.85-.85,2.42,2.42,0,0,1,1.24-.36A1.71,1.71,0,0,1,288,180.52Z"/><path class="cls-2" d="M289.85,179a.38.38,0,0,1-.12-.3v-.11a.38.38,0,0,1,.12-.3.54.54,0,0,1,.35-.11c.29,0,.44.14.44.41v.11a.38.38,0,0,1-.12.3.47.47,0,0,1-.33.11A.5.5,0,0,1,289.85,179Zm.57,6.47a.32.32,0,0,1-.23.09.31.31,0,0,1-.33-.33v-5.06A.32.32,0,0,1,290,180a.33.33,0,0,1,.24-.1.33.33,0,0,1,.23.1.29.29,0,0,1,.1.23v5.06A.3.3,0,0,1,290.42,185.48Z"/><path class="cls-2" d="M293.06,180.59v3.69a.78.78,0,0,0,.15.56.56.56,0,0,0,.41.15l.16,0,.16,0a.21.21,0,0,1,.17.08.26.26,0,0,1,.07.19.31.31,0,0,1-.18.26.76.76,0,0,1-.41.1,2.12,2.12,0,0,1-.53,0,.89.89,0,0,1-.45-.33,1.46,1.46,0,0,1-.21-.88v-3.72h-.8a.32.32,0,0,1-.23-.09.29.29,0,0,1-.09-.22.29.29,0,0,1,.32-.3h.8v-1.23a.32.32,0,0,1,.09-.23.33.33,0,0,1,.24-.1.33.33,0,0,1,.23.1.29.29,0,0,1,.1.23V180h1.1a.29.29,0,0,1,.21.09.34.34,0,0,1,.1.22.29.29,0,0,1-.09.22.33.33,0,0,1-.22.08Z"/><path class="cls-2" d="M296.51,180.59v3.69a.73.73,0,0,0,.16.56.54.54,0,0,0,.4.15l.17,0,.15,0a.2.2,0,0,1,.17.08.26.26,0,0,1,.07.19.29.29,0,0,1-.17.26.82.82,0,0,1-.42.1,2.17,2.17,0,0,1-.53,0,.87.87,0,0,1-.44-.33,1.39,1.39,0,0,1-.22-.88v-3.72h-.8a.33.33,0,0,1-.23-.09.29.29,0,0,1-.09-.22.31.31,0,0,1,.09-.22.32.32,0,0,1,.23-.08h.8v-1.23a.29.29,0,0,1,.1-.23.33.33,0,0,1,.23-.1.33.33,0,0,1,.24.1.32.32,0,0,1,.09.23V180h1.1a.31.31,0,0,1,.31.31.29.29,0,0,1-.09.22.33.33,0,0,1-.22.08Z"/><path class="cls-2" d="M303.46,182.66a.29.29,0,0,1-.23.1h-4.16a2.53,2.53,0,0,0,.27,1.18,2.12,2.12,0,0,0,.77.83,2.29,2.29,0,0,0,1.19.3,2,2,0,0,0,.94-.22,2,2,0,0,0,.67-.56.36.36,0,0,1,.23-.1.27.27,0,0,1,.2.09.25.25,0,0,1,.09.19.35.35,0,0,1-.11.24,2.78,2.78,0,0,1-.88.7,2.51,2.51,0,0,1-1.13.27,3,3,0,0,1-1.5-.36,2.54,2.54,0,0,1-1-1,3.07,3.07,0,0,1-.36-1.51,3.44,3.44,0,0,1,.35-1.58,2.59,2.59,0,0,1,1-1,2.36,2.36,0,0,1,1.26-.36,2.56,2.56,0,0,1,1.24.31,2.46,2.46,0,0,1,.94.9,2.69,2.69,0,0,1,.37,1.41A.27.27,0,0,1,303.46,182.66Zm-3.63-1.76a2,2,0,0,0-.7,1.26h3.75v-.08a1.84,1.84,0,0,0-.33-.87,1.8,1.8,0,0,0-.69-.56,2,2,0,0,0-.85-.19A1.86,1.86,0,0,0,299.83,180.9Z"/><path class="cls-2" d="M309.3,182.66a.29.29,0,0,1-.23.1h-4.15a2.53,2.53,0,0,0,.27,1.18,2,2,0,0,0,.77.83,2.23,2.23,0,0,0,1.18.3,1.92,1.92,0,0,0,.94-.22,2,2,0,0,0,.67-.56.38.38,0,0,1,.24-.1.31.31,0,0,1,.28.28.32.32,0,0,1-.11.24,2.78,2.78,0,0,1-.88.7,2.51,2.51,0,0,1-1.13.27,3.05,3.05,0,0,1-1.5-.36,2.54,2.54,0,0,1-1-1,3.07,3.07,0,0,1-.36-1.51,3.32,3.32,0,0,1,.36-1.58,2.5,2.5,0,0,1,.95-1,2.36,2.36,0,0,1,1.26-.36,2.56,2.56,0,0,1,1.24.31,2.46,2.46,0,0,1,.94.9,2.69,2.69,0,0,1,.37,1.41A.27.27,0,0,1,309.3,182.66Zm-3.63-1.76a2,2,0,0,0-.7,1.26h3.75v-.08a1.74,1.74,0,0,0-.33-.87,1.8,1.8,0,0,0-.69-.56,1.92,1.92,0,0,0-.85-.19A1.86,1.86,0,0,0,305.67,180.9Z"/><path class="cls-1" d="M282.93,145.27a1,1,0,0,1-1-1v-35.5a1,1,0,1,1,2,0v35.5A1,1,0,0,1,282.93,145.27Z"/><polygon class="cls-1" points="24.73 216.15 74.18 216.15 98.91 174.42 74.18 132.69 24.73 132.69 0 174.42 24.73 216.15"/><path class="cls-2" d="M29,166.78a.36.36,0,0,1,.09.24v2.65a.34.34,0,0,1-.17.3,4,4,0,0,1-1.1.53,4.26,4.26,0,0,1-1.23.18,4,4,0,0,1-2-.51,3.8,3.8,0,0,1-1.42-1.42,4.2,4.2,0,0,1,0-4.05,3.8,3.8,0,0,1,1.42-1.42,4,4,0,0,1,2-.52,4.22,4.22,0,0,1,1.13.15,3.53,3.53,0,0,1,1,.4.33.33,0,0,1,.06.52.26.26,0,0,1-.21.1.46.46,0,0,1-.2-.05,3.5,3.5,0,0,0-1.75-.46,3.39,3.39,0,0,0-1.68.43A3.09,3.09,0,0,0,23.73,165a3.67,3.67,0,0,0,0,3.37,3.09,3.09,0,0,0,1.16,1.19,3.56,3.56,0,0,0,2.63.29,3.53,3.53,0,0,0,.86-.36v-2.18H26.64a.32.32,0,0,1-.24-.09.3.3,0,0,1-.1-.24.32.32,0,0,1,.34-.33h2.1A.36.36,0,0,1,29,166.78Z"/><path class="cls-2" d="M33.35,164.91a.27.27,0,0,1,.17.26.33.33,0,0,1-.08.25.29.29,0,0,1-.21.09.68.68,0,0,1-.22,0,.8.8,0,0,0-.3-.06,1.33,1.33,0,0,0-.81.32,2.4,2.4,0,0,0-.66.81,2.16,2.16,0,0,0-.26,1v2.71a.31.31,0,0,1-.33.33.32.32,0,0,1-.23-.09.3.3,0,0,1-.1-.24v-4.92a.3.3,0,0,1,.1-.24.32.32,0,0,1,.23-.09.31.31,0,0,1,.33.33v1a2.65,2.65,0,0,1,.77-1,1.94,1.94,0,0,1,1.2-.42A.87.87,0,0,1,33.35,164.91Z"/><path class="cls-2" d="M38.87,169.25a2.75,2.75,0,0,1-4.84,0,3.07,3.07,0,0,1-.36-1.49,3.14,3.14,0,0,1,.36-1.5,2.75,2.75,0,0,1,4.84,0,3.14,3.14,0,0,1,.36,1.5A3.07,3.07,0,0,1,38.87,169.25Zm-.57-2.68a2.06,2.06,0,0,0-.77-.83,2,2,0,0,0-1.08-.3,2,2,0,0,0-1.08.3,2.1,2.1,0,0,0-.76.83,2.65,2.65,0,0,0,0,2.37,2.17,2.17,0,0,0,.76.83,2,2,0,0,0,1.08.3,2,2,0,0,0,1.08-.3,2,2,0,0,0,.77-.82,2.6,2.6,0,0,0,.27-1.19A2.57,2.57,0,0,0,38.3,166.57Z"/><path class="cls-2" d="M44.75,165.08a.32.32,0,0,1,.09.24v3.1a2.17,2.17,0,0,1-.6,1.65,2.31,2.31,0,0,1-1.67.58,2.27,2.27,0,0,1-1.66-.58,2.17,2.17,0,0,1-.6-1.65v-3.1a.32.32,0,0,1,.09-.24.36.36,0,0,1,.24-.09.31.31,0,0,1,.33.33v3.1a1.46,1.46,0,0,0,1.6,1.62,1.61,1.61,0,0,0,1.19-.42,1.59,1.59,0,0,0,.42-1.2v-3.1a.3.3,0,0,1,.1-.24.32.32,0,0,1,.23-.09A.32.32,0,0,1,44.75,165.08Z"/><path class="cls-2" d="M50.29,165.28a2.56,2.56,0,0,1,.93,1,3.46,3.46,0,0,1,0,2.95,2.58,2.58,0,0,1-.93,1,2.38,2.38,0,0,1-1.31.37,2.32,2.32,0,0,1-1.17-.3,2.28,2.28,0,0,1-.85-.81v2.9a.33.33,0,0,1-.1.24.32.32,0,0,1-.24.09.32.32,0,0,1-.23-.09.33.33,0,0,1-.1-.24v-7.17a.37.37,0,0,1,.1-.24.29.29,0,0,1,.23-.1.3.3,0,0,1,.24.1.37.37,0,0,1,.1.24V166a2,2,0,0,1,.82-.81,2.53,2.53,0,0,1,2.51.07Zm-.35,4.46a2,2,0,0,0,.72-.8,2.64,2.64,0,0,0,.25-1.17,2.52,2.52,0,0,0-.25-1.15,2,2,0,0,0-.72-.8,1.82,1.82,0,0,0-1-.29,1.9,1.9,0,0,0-1.76,1.08,2.57,2.57,0,0,0-.25,1.16,2.64,2.64,0,0,0,.25,1.17,1.93,1.93,0,0,0,.72.8,1.86,1.86,0,0,0,1,.3A1.83,1.83,0,0,0,49.94,169.74Z"/><path class="cls-2" d="M61.32,170.26a.33.33,0,0,1,0,.14.34.34,0,0,1-.12.12.35.35,0,0,1-.17,0,.41.41,0,0,1-.19,0,1.26,1.26,0,0,1-.49-.57,3.1,3.1,0,0,1-.19-1.27,1.24,1.24,0,0,0-.43-1.08,1.65,1.65,0,0,0-1-.31H56.23v3a.32.32,0,0,1-.09.24.32.32,0,0,1-.23.09.44.44,0,0,1-.27-.09.3.3,0,0,1-.1-.24v-7a.32.32,0,0,1,.09-.23.33.33,0,0,1,.24-.1h3a2.33,2.33,0,0,1,1.13.27,1.92,1.92,0,0,1,.77.75A2,2,0,0,1,61,165a2.11,2.11,0,0,1-.37,1.24,1.78,1.78,0,0,1-1,.73,1.74,1.74,0,0,1,.79.63,1.85,1.85,0,0,1,.32,1.09,3.91,3.91,0,0,0,.1,1,.58.58,0,0,0,.27.38A.32.32,0,0,1,61.32,170.26Zm-2.45-3.58a1.56,1.56,0,0,0,.71-.25,1.62,1.62,0,0,0,.53-.6,1.81,1.81,0,0,0,.2-.85,1.39,1.39,0,0,0-.42-1,1.53,1.53,0,0,0-1.11-.42H56.23v3.16Z"/><path class="cls-2" d="M62.43,164a.38.38,0,0,1-.12-.3v-.11a.35.35,0,0,1,.13-.3.51.51,0,0,1,.34-.11c.3,0,.44.14.44.41v.11a.37.37,0,0,1-.11.3.5.5,0,0,1-.34.11A.51.51,0,0,1,62.43,164Zm.58,6.47a.32.32,0,0,1-.24.09.32.32,0,0,1-.23-.09.3.3,0,0,1-.1-.24v-5.06a.29.29,0,0,1,.1-.23.33.33,0,0,1,.23-.1.33.33,0,0,1,.24.1.32.32,0,0,1,.09.23v5.06A.32.32,0,0,1,63,170.48Z"/><path class="cls-2" d="M64.14,169.44a.23.23,0,0,1,.14-.22.24.24,0,0,1,.18-.06.33.33,0,0,1,.24.11,2.05,2.05,0,0,0,1.72.85,1.7,1.7,0,0,0,.92-.24.81.81,0,0,0,.39-.72.78.78,0,0,0-.36-.7,3.67,3.67,0,0,0-1-.39,4.48,4.48,0,0,1-1.43-.6,1.25,1.25,0,0,1-.52-1.09,1.44,1.44,0,0,1,.25-.81,1.72,1.72,0,0,1,.69-.55,2.4,2.4,0,0,1,1-.2,2.71,2.71,0,0,1,1,.18,2.05,2.05,0,0,1,.82.58.29.29,0,0,1,.1.22.3.3,0,0,1-.11.23.27.27,0,0,1-.2.07.28.28,0,0,1-.2-.09,1.66,1.66,0,0,0-.63-.45,2,2,0,0,0-.78-.16,1.5,1.5,0,0,0-.88.25.79.79,0,0,0-.37.72.77.77,0,0,0,.4.67,3.87,3.87,0,0,0,1.12.42,5.37,5.37,0,0,1,.94.32,1.5,1.5,0,0,1,.61.5,1.49,1.49,0,0,1-.33,2,2.34,2.34,0,0,1-1.42.42,2.55,2.55,0,0,1-2.13-1A.45.45,0,0,1,64.14,169.44Z"/><path class="cls-2" d="M74,170.24a.3.3,0,0,1-.11.24.37.37,0,0,1-.22.09.31.31,0,0,1-.24-.12L71,167.88l-.83.7v1.66a.31.31,0,0,1-.33.33.32.32,0,0,1-.23-.09.3.3,0,0,1-.1-.24v-7.48a.29.29,0,0,1,.1-.23.33.33,0,0,1,.23-.1.33.33,0,0,1,.24.1.32.32,0,0,1,.09.23v5L73.33,165a.33.33,0,0,1,.23-.11.29.29,0,0,1,.22.11.3.3,0,0,1,.1.22.35.35,0,0,1-.12.25l-2.26,1.93L73.88,170A.35.35,0,0,1,74,170.24Z"/><path class="cls-2" d="M29.66,178.72a.42.42,0,0,1-.08.22.32.32,0,0,1-.25.12.41.41,0,0,1-.18-.05,3.42,3.42,0,0,0-1.92-.59,3.12,3.12,0,0,0-1.61.42A3,3,0,0,0,24.48,180a3.6,3.6,0,0,0-.41,1.71,3.53,3.53,0,0,0,.42,1.74,3,3,0,0,0,1.14,1.16,3.11,3.11,0,0,0,1.6.42,3.43,3.43,0,0,0,1.91-.58.41.41,0,0,1,.19-.05.3.3,0,0,1,.25.13.32.32,0,0,1,.08.21.27.27,0,0,1-.16.26,3.94,3.94,0,0,1-1.05.48,4.12,4.12,0,0,1-1.22.19,3.78,3.78,0,0,1-1.93-.5,3.72,3.72,0,0,1-1.41-1.4,4.28,4.28,0,0,1,0-4.07,3.74,3.74,0,0,1,1.4-1.42,3.84,3.84,0,0,1,1.95-.51,4,4,0,0,1,1.2.17,3.7,3.7,0,0,1,1.06.5A.29.29,0,0,1,29.66,178.72Z"/><path class="cls-2" d="M35.44,184.25a2.6,2.6,0,0,1-1,1.05,2.84,2.84,0,0,1-2.84,0,2.73,2.73,0,0,1-1-1.05,3.07,3.07,0,0,1-.36-1.49,3.14,3.14,0,0,1,.36-1.5,2.73,2.73,0,0,1,1-1,2.78,2.78,0,0,1,2.84,0,2.6,2.6,0,0,1,1,1,3,3,0,0,1,.37,1.5A3,3,0,0,1,35.44,184.25Zm-.57-2.68a2.1,2.1,0,0,0-.76-.83,2.05,2.05,0,0,0-1.09-.3,2,2,0,0,0-1.07.3,2.13,2.13,0,0,0-.77.83,2.65,2.65,0,0,0,0,2.37,2.2,2.2,0,0,0,.77.83,2,2,0,0,0,1.07.3A2.05,2.05,0,0,0,34.87,184a2.49,2.49,0,0,0,.28-1.19A2.46,2.46,0,0,0,34.87,181.57Z"/><path class="cls-2" d="M44.72,180.52a2.59,2.59,0,0,1,.47,1.61v3.11a.32.32,0,0,1-.09.24.36.36,0,0,1-.24.09.31.31,0,0,1-.33-.33v-3.08a1.92,1.92,0,0,0-.35-1.18,1.27,1.27,0,0,0-1.07-.45,1.76,1.76,0,0,0-.87.22,1.74,1.74,0,0,0-.67.59,1.46,1.46,0,0,0-.25.82v3.08a.3.3,0,0,1-.1.24.32.32,0,0,1-.23.09.31.31,0,0,1-.33-.33v-3.11a1.9,1.9,0,0,0-.33-1.16,1.2,1.2,0,0,0-1-.44,1.71,1.71,0,0,0-.85.22,1.82,1.82,0,0,0-.65.58,1.48,1.48,0,0,0-.25.8v3.11a.31.31,0,0,1-.33.33.32.32,0,0,1-.23-.09.33.33,0,0,1-.1-.24v-4.92a.33.33,0,0,1,.1-.24.32.32,0,0,1,.23-.09.31.31,0,0,1,.33.33V181a2.32,2.32,0,0,1,.81-.74,2,2,0,0,1,1.06-.3,1.87,1.87,0,0,1,1.1.31,1.62,1.62,0,0,1,.66.9,2.1,2.1,0,0,1,.85-.85,2.45,2.45,0,0,1,1.24-.36A1.71,1.71,0,0,1,44.72,180.52Z"/><path class="cls-2" d="M54.48,180.52a2.59,2.59,0,0,1,.47,1.61v3.11a.3.3,0,0,1-.1.24.32.32,0,0,1-.23.09.31.31,0,0,1-.33-.33v-3.08a1.92,1.92,0,0,0-.35-1.18,1.27,1.27,0,0,0-1.07-.45,1.82,1.82,0,0,0-.88.22,1.79,1.79,0,0,0-.66.59,1.47,1.47,0,0,0-.26.82v3.08a.31.31,0,0,1-.33.33.32.32,0,0,1-.23-.09.33.33,0,0,1-.1-.24v-3.11a1.9,1.9,0,0,0-.33-1.16,1.18,1.18,0,0,0-1-.44,1.71,1.71,0,0,0-.85.22,1.74,1.74,0,0,0-.65.58,1.4,1.4,0,0,0-.25.8v3.11a.31.31,0,0,1-.33.33.36.36,0,0,1-.24-.09.32.32,0,0,1-.09-.24v-4.92a.32.32,0,0,1,.09-.24A.36.36,0,0,1,47,180a.31.31,0,0,1,.33.33V181a2.37,2.37,0,0,1,.8-.74,2.09,2.09,0,0,1,1.07-.3,1.9,1.9,0,0,1,1.1.31,1.62,1.62,0,0,1,.66.9,2.1,2.1,0,0,1,.85-.85,2.42,2.42,0,0,1,1.24-.36A1.71,1.71,0,0,1,54.48,180.52Z"/><path class="cls-2" d="M56.37,179a.35.35,0,0,1-.13-.3v-.11a.38.38,0,0,1,.13-.3.54.54,0,0,1,.35-.11c.29,0,.44.14.44.41v.11a.38.38,0,0,1-.12.3.49.49,0,0,1-.33.11A.5.5,0,0,1,56.37,179Zm.57,6.47a.32.32,0,0,1-.23.09.31.31,0,0,1-.33-.33v-5.06a.32.32,0,0,1,.09-.23.33.33,0,0,1,.24-.1.33.33,0,0,1,.23.1.29.29,0,0,1,.1.23v5.06A.3.3,0,0,1,56.94,185.48Z"/><path class="cls-2" d="M59.58,180.59v3.69a.78.78,0,0,0,.15.56.56.56,0,0,0,.41.15l.16,0,.16,0a.21.21,0,0,1,.17.08.26.26,0,0,1,.07.19.31.31,0,0,1-.18.26.76.76,0,0,1-.41.1,2.12,2.12,0,0,1-.53,0,.85.85,0,0,1-.45-.33,1.46,1.46,0,0,1-.21-.88v-3.72h-.81a.31.31,0,0,1-.22-.09.29.29,0,0,1-.09-.22.31.31,0,0,1,.09-.22.3.3,0,0,1,.22-.08h.81v-1.23a.32.32,0,0,1,.09-.23.33.33,0,0,1,.24-.1.33.33,0,0,1,.23.1.29.29,0,0,1,.1.23V180h1.1a.29.29,0,0,1,.21.09.34.34,0,0,1,.1.22.29.29,0,0,1-.09.22.33.33,0,0,1-.22.08Z"/><path class="cls-2" d="M63,180.59v3.69a.78.78,0,0,0,.15.56.58.58,0,0,0,.41.15l.17,0,.15,0a.2.2,0,0,1,.17.08.26.26,0,0,1,.07.19.31.31,0,0,1-.17.26.82.82,0,0,1-.42.1,2.12,2.12,0,0,1-.53,0,.87.87,0,0,1-.44-.33,1.39,1.39,0,0,1-.22-.88v-3.72h-.8a.32.32,0,0,1-.23-.09.29.29,0,0,1-.09-.22.29.29,0,0,1,.32-.3h.8v-1.23a.32.32,0,0,1,.09-.23.37.37,0,0,1,.24-.1.35.35,0,0,1,.24.1.32.32,0,0,1,.09.23V180h1.1a.31.31,0,0,1,.31.31.29.29,0,0,1-.09.22.33.33,0,0,1-.22.08Z"/><path class="cls-2" d="M70,182.66a.29.29,0,0,1-.23.1H65.59a2.53,2.53,0,0,0,.27,1.18,2.12,2.12,0,0,0,.77.83,2.29,2.29,0,0,0,1.19.3,2,2,0,0,0,.94-.22,2.07,2.07,0,0,0,.67-.56.36.36,0,0,1,.23-.1.27.27,0,0,1,.2.09.25.25,0,0,1,.09.19.35.35,0,0,1-.11.24,2.72,2.72,0,0,1-.89.7,2.43,2.43,0,0,1-1.12.27,3,3,0,0,1-1.5-.36,2.54,2.54,0,0,1-1-1,3.07,3.07,0,0,1-.36-1.51,3.44,3.44,0,0,1,.35-1.58,2.59,2.59,0,0,1,1-1,2.36,2.36,0,0,1,1.26-.36,2.56,2.56,0,0,1,1.24.31,2.46,2.46,0,0,1,.94.9,2.79,2.79,0,0,1,.37,1.41A.27.27,0,0,1,70,182.66Zm-3.63-1.76a2,2,0,0,0-.7,1.26H69.4v-.08a1.84,1.84,0,0,0-.33-.87,1.8,1.8,0,0,0-.69-.56,2,2,0,0,0-.85-.19A1.84,1.84,0,0,0,66.35,180.9Z"/><path class="cls-2" d="M75.82,182.66a.29.29,0,0,1-.23.1H71.43a2.53,2.53,0,0,0,.27,1.18,2.12,2.12,0,0,0,.77.83,2.29,2.29,0,0,0,1.19.3,2,2,0,0,0,.94-.22,2,2,0,0,0,.67-.56.36.36,0,0,1,.23-.1.27.27,0,0,1,.2.09.25.25,0,0,1,.09.19.35.35,0,0,1-.11.24,2.78,2.78,0,0,1-.88.7,2.51,2.51,0,0,1-1.13.27,3,3,0,0,1-1.5-.36,2.54,2.54,0,0,1-1-1,3.07,3.07,0,0,1-.36-1.51,3.44,3.44,0,0,1,.35-1.58,2.59,2.59,0,0,1,1-1,2.36,2.36,0,0,1,1.26-.36,2.56,2.56,0,0,1,1.24.31,2.46,2.46,0,0,1,.94.9,2.69,2.69,0,0,1,.37,1.41A.27.27,0,0,1,75.82,182.66Zm-3.63-1.76a2,2,0,0,0-.7,1.26h3.75v-.08a1.84,1.84,0,0,0-.33-.87,1.8,1.8,0,0,0-.69-.56,2,2,0,0,0-.85-.19A1.86,1.86,0,0,0,72.19,180.9Z"/><polygon class="cls-1" points="24.73 323.51 74.18 323.51 98.91 281.79 74.18 240.06 24.73 240.06 0 281.79 24.73 323.51"/><path class="cls-2" d="M28.91,267a3.6,3.6,0,0,1-6.42,0,4.57,4.57,0,0,1,0-4.08,3.54,3.54,0,0,1,1.3-1.41,3.88,3.88,0,0,1,3.81,0A3.57,3.57,0,0,1,28.91,263a4.66,4.66,0,0,1,0,4.08Zm-.61-3.74a2.8,2.8,0,0,0-1.06-1.17,2.85,2.85,0,0,0-1.54-.42,2.88,2.88,0,0,0-1.55.42,2.78,2.78,0,0,0-1,1.17,4,4,0,0,0,0,3.42,2.84,2.84,0,0,0,1,1.17,2.88,2.88,0,0,0,1.55.42,2.83,2.83,0,0,0,2.6-1.59,4,4,0,0,0,0-3.42Z"/><path class="cls-2" d="M34.5,263.56a2.7,2.7,0,0,1,.93,1,3.46,3.46,0,0,1,0,2.95,2.58,2.58,0,0,1-.93,1,2.38,2.38,0,0,1-1.31.37,2.32,2.32,0,0,1-1.17-.3,2.39,2.39,0,0,1-.86-.81v2.91a.32.32,0,0,1-.09.23.3.3,0,0,1-.24.1.29.29,0,0,1-.23-.1.33.33,0,0,1-.1-.23v-7.17a.37.37,0,0,1,.1-.25.33.33,0,0,1,.23-.1.33.33,0,0,1,.24.1.37.37,0,0,1,.09.25v.74a2.15,2.15,0,0,1,.83-.81,2.42,2.42,0,0,1,1.19-.3A2.53,2.53,0,0,1,34.5,263.56ZM34.15,268a2.09,2.09,0,0,0,.72-.81,2.61,2.61,0,0,0,.25-1.17,2.55,2.55,0,0,0-.25-1.15,2,2,0,0,0-.72-.8,1.9,1.9,0,0,0-1-.29,1.93,1.93,0,0,0-1,.28,2,2,0,0,0-.72.8,2.57,2.57,0,0,0-.25,1.16,2.61,2.61,0,0,0,.25,1.17,2,2,0,0,0,.72.81,1.94,1.94,0,0,0,1,.29A1.9,1.9,0,0,0,34.15,268Z"/><path class="cls-2" d="M41.5,266a.32.32,0,0,1-.23.09H37.12a2.5,2.5,0,0,0,.27,1.18,1.93,1.93,0,0,0,.77.83,2.23,2.23,0,0,0,1.18.3,2,2,0,0,0,.94-.22,1.77,1.77,0,0,0,.67-.56.38.38,0,0,1,.24-.1.25.25,0,0,1,.19.09.27.27,0,0,1,.09.2.33.33,0,0,1-.11.23,2.78,2.78,0,0,1-.88.7,2.39,2.39,0,0,1-1.13.28,3,3,0,0,1-1.5-.37,2.58,2.58,0,0,1-1-1,3.11,3.11,0,0,1-.36-1.52,3.28,3.28,0,0,1,.36-1.57,2.52,2.52,0,0,1,.95-1,2.36,2.36,0,0,1,1.26-.36,2.68,2.68,0,0,1,1.24.31,2.53,2.53,0,0,1,.94.9,2.69,2.69,0,0,1,.37,1.41A.29.29,0,0,1,41.5,266Zm-3.63-1.77a2.07,2.07,0,0,0-.7,1.27h3.75v-.09a1.76,1.76,0,0,0-.33-.86,1.64,1.64,0,0,0-.69-.56,1.93,1.93,0,0,0-.85-.2A1.86,1.86,0,0,0,37.87,264.18Z"/><path class="cls-2" d="M45.72,263.19a.29.29,0,0,1,.17.27.36.36,0,0,1-.08.24.26.26,0,0,1-.21.1.81.81,0,0,1-.22-.06,1,1,0,0,0-.3-.05,1.31,1.31,0,0,0-.81.31,2.4,2.4,0,0,0-.66.81,2.16,2.16,0,0,0-.26,1v2.72a.32.32,0,0,1-.09.23.3.3,0,0,1-.24.1.34.34,0,0,1-.33-.33V263.6a.31.31,0,0,1,.1-.24.32.32,0,0,1,.23-.09.32.32,0,0,1,.24.09.34.34,0,0,1,.09.24v1a2.51,2.51,0,0,1,.77-1,1.89,1.89,0,0,1,1.2-.43A.87.87,0,0,1,45.72,263.19Z"/><path class="cls-2" d="M51.32,263.34a.33.33,0,0,1,.1.24v4.95a.33.33,0,0,1-.1.23.29.29,0,0,1-.23.1.3.3,0,0,1-.24-.1.32.32,0,0,1-.09-.23v-.74a2.38,2.38,0,0,1-.83.84,2.36,2.36,0,0,1-2.52-.05,2.64,2.64,0,0,1-.93-1.05,3.38,3.38,0,0,1-.33-1.51,3.19,3.19,0,0,1,.34-1.5,2.48,2.48,0,0,1,.93-1,2.36,2.36,0,0,1,1.3-.38,2.4,2.4,0,0,1,1.21.32,2.23,2.23,0,0,1,.83.84v-.68a.32.32,0,0,1,.09-.24.3.3,0,0,1,.24-.1A.29.29,0,0,1,51.32,263.34Zm-1.49,4.71a2,2,0,0,0,.71-.84,2.81,2.81,0,0,0,0-2.36,2.06,2.06,0,0,0-.71-.83,1.85,1.85,0,0,0-1-.3,1.83,1.83,0,0,0-1,.3,2.05,2.05,0,0,0-.72.82A2.65,2.65,0,0,0,46.8,266a2.7,2.7,0,0,0,.25,1.19,2,2,0,0,0,.71.84,1.94,1.94,0,0,0,2.07,0Z"/><path class="cls-2" d="M54,263.87v3.69a.81.81,0,0,0,.15.57.55.55,0,0,0,.41.14.5.5,0,0,0,.16,0l.16,0a.25.25,0,0,1,.17.08.28.28,0,0,1,.07.19.3.3,0,0,1-.18.26.76.76,0,0,1-.41.11,2.09,2.09,0,0,1-.53-.06.76.76,0,0,1-.45-.33,1.44,1.44,0,0,1-.21-.88v-3.72H52.5a.3.3,0,0,1-.22-.08.31.31,0,0,1-.09-.22.29.29,0,0,1,.09-.22.31.31,0,0,1,.22-.09h.81V262a.31.31,0,0,1,.33-.33.32.32,0,0,1,.23.09.3.3,0,0,1,.1.24v1.22h1.1a.26.26,0,0,1,.21.1.32.32,0,0,1,.1.22.26.26,0,0,1-.09.21.29.29,0,0,1-.22.08Z"/><path class="cls-2" d="M56.29,262.3a.39.39,0,0,1-.12-.31v-.11a.38.38,0,0,1,.12-.3.54.54,0,0,1,.35-.1c.29,0,.44.13.44.4V262a.39.39,0,0,1-.12.31.45.45,0,0,1-.33.1A.49.49,0,0,1,56.29,262.3Zm.58,6.46a.33.33,0,0,1-.24.1.31.31,0,0,1-.24-.1.32.32,0,0,1-.09-.23v-5.06a.32.32,0,0,1,.09-.24.34.34,0,0,1,.24-.09.36.36,0,0,1,.24.09.32.32,0,0,1,.09.24v5.06A.32.32,0,0,1,56.87,268.76Z"/><path class="cls-2" d="M63.23,267.54a2.66,2.66,0,0,1-1,1,2.84,2.84,0,0,1-2.84,0,2.6,2.6,0,0,1-1-1A3.14,3.14,0,0,1,58,266a3.07,3.07,0,0,1,.36-1.49,2.76,2.76,0,0,1,3.84-1.06,2.76,2.76,0,0,1,1,1.06,3.07,3.07,0,0,1,.36,1.49A3.14,3.14,0,0,1,63.23,267.54Zm-.57-2.69a2.13,2.13,0,0,0-.77-.83,2.09,2.09,0,0,0-2.16,0,2.1,2.1,0,0,0-.76.83,2.49,2.49,0,0,0-.28,1.19,2.45,2.45,0,0,0,.28,1.18,2.1,2.1,0,0,0,.76.83,2.09,2.09,0,0,0,2.16,0,2,2,0,0,0,.77-.82,2.57,2.57,0,0,0,.27-1.19A2.6,2.6,0,0,0,62.66,264.85Z"/><path class="cls-2" d="M68.82,263.7a2.47,2.47,0,0,1,.48,1.59v3.24a.34.34,0,0,1-.33.33.33.33,0,0,1-.24-.1.32.32,0,0,1-.09-.23v-3.2a1.77,1.77,0,0,0-.36-1.16,1.3,1.3,0,0,0-1.1-.45,1.87,1.87,0,0,0-.9.22,2,2,0,0,0-.69.59,1.39,1.39,0,0,0-.26.8v3.2a.32.32,0,0,1-.09.23.34.34,0,0,1-.48,0,.32.32,0,0,1-.09-.23V263.6a.33.33,0,1,1,.66,0v.6a2.38,2.38,0,0,1,.85-.78,2.29,2.29,0,0,1,1.14-.32A1.81,1.81,0,0,1,68.82,263.7Z"/><path class="cls-2" d="M70.35,267.72a.24.24,0,0,1,.14-.22.24.24,0,0,1,.17-.06.38.38,0,0,1,.25.11,2.06,2.06,0,0,0,1.72.86,1.71,1.71,0,0,0,.92-.25.81.81,0,0,0,.39-.72.76.76,0,0,0-.36-.69,3.36,3.36,0,0,0-1-.4,4.07,4.07,0,0,1-1.43-.6,1.24,1.24,0,0,1-.52-1.08,1.44,1.44,0,0,1,.25-.81,1.66,1.66,0,0,1,.69-.56,2.4,2.4,0,0,1,1-.2,2.72,2.72,0,0,1,1,.19,2,2,0,0,1,.82.57.3.3,0,0,1,.1.22.3.3,0,0,1-.11.23.29.29,0,0,1-.2.07.27.27,0,0,1-.2-.09,1.66,1.66,0,0,0-.63-.45,2,2,0,0,0-.78-.15,1.57,1.57,0,0,0-.88.24.83.83,0,0,0,0,1.4,4.09,4.09,0,0,0,1.12.41,6.36,6.36,0,0,1,.94.32,1.66,1.66,0,0,1,.61.5,1.36,1.36,0,0,1,.24.85,1.34,1.34,0,0,1-.57,1.13,2.28,2.28,0,0,1-1.42.43,2.61,2.61,0,0,1-2.14-1A.59.59,0,0,1,70.35,267.72Z"/><path class="cls-2" d="M14.41,278.34a.33.33,0,0,1,.1.24v4.95a.33.33,0,0,1-.1.23.29.29,0,0,1-.23.1.3.3,0,0,1-.24-.1.32.32,0,0,1-.09-.23v-.74a2.38,2.38,0,0,1-.83.84,2.36,2.36,0,0,1-2.52-.05,2.64,2.64,0,0,1-.93-1.05A3.38,3.38,0,0,1,9.24,281a3.19,3.19,0,0,1,.34-1.5,2.54,2.54,0,0,1,.93-1,2.36,2.36,0,0,1,1.3-.38,2.4,2.4,0,0,1,1.21.32,2.23,2.23,0,0,1,.83.84v-.68a.32.32,0,0,1,.09-.24.3.3,0,0,1,.24-.1A.29.29,0,0,1,14.41,278.34Zm-1.49,4.71a2,2,0,0,0,.71-.84,2.81,2.81,0,0,0,0-2.36,2.06,2.06,0,0,0-.71-.83,1.85,1.85,0,0,0-1-.3,1.83,1.83,0,0,0-1,.3,2.05,2.05,0,0,0-.72.82A2.65,2.65,0,0,0,9.89,281a2.7,2.7,0,0,0,.25,1.19,2,2,0,0,0,.71.84,1.94,1.94,0,0,0,2.07,0Z"/><path class="cls-2" d="M20.11,278.7a2.47,2.47,0,0,1,.48,1.59v3.24a.29.29,0,0,1-.1.23.3.3,0,0,1-.23.1.3.3,0,0,1-.24-.1.32.32,0,0,1-.09-.23v-3.2a1.77,1.77,0,0,0-.36-1.16,1.33,1.33,0,0,0-1.1-.45,1.87,1.87,0,0,0-.9.22,2,2,0,0,0-.69.59,1.39,1.39,0,0,0-.26.8v3.2a.34.34,0,0,1-.33.33.3.3,0,0,1-.24-.1.32.32,0,0,1-.09-.23V278.6a.34.34,0,0,1,.09-.24.32.32,0,0,1,.24-.09.32.32,0,0,1,.23.09.31.31,0,0,1,.1.24v.6a2.38,2.38,0,0,1,.85-.78,2.29,2.29,0,0,1,1.14-.32A1.81,1.81,0,0,1,20.11,278.7Z"/><path class="cls-2" d="M26.84,275.81a.33.33,0,0,1,.1.24v7.48a.33.33,0,0,1-.1.23.29.29,0,0,1-.23.1.3.3,0,0,1-.24-.1.32.32,0,0,1-.09-.23v-.77a2.48,2.48,0,0,1-.82.86,2.25,2.25,0,0,1-1.21.35,2.39,2.39,0,0,1-1.31-.38,2.5,2.5,0,0,1-.93-1,3.5,3.5,0,0,1,0-3,2.63,2.63,0,0,1,.93-1,2.36,2.36,0,0,1,1.3-.38,2.31,2.31,0,0,1,1.2.33,2.33,2.33,0,0,1,.84.84v-3.22a.31.31,0,0,1,.33-.33A.32.32,0,0,1,26.84,275.81Zm-1.49,7.24a1.94,1.94,0,0,0,.71-.83,2.83,2.83,0,0,0,0-2.37,2.06,2.06,0,0,0-.71-.83,1.85,1.85,0,0,0-1-.3,1.83,1.83,0,0,0-1,.3,2.08,2.08,0,0,0-.72.83,2.93,2.93,0,0,0,0,2.37,2.08,2.08,0,0,0,.72.83,1.83,1.83,0,0,0,1,.3A1.85,1.85,0,0,0,25.35,283.05Z"/><path class="cls-2" d="M37.07,277a.42.42,0,0,1-.08.22.3.3,0,0,1-.25.13.32.32,0,0,1-.18-.06,3.41,3.41,0,0,0-1.92-.58,3.16,3.16,0,0,0-1.62.42,3,3,0,0,0-1.13,1.17,3.54,3.54,0,0,0-.41,1.71,3.49,3.49,0,0,0,.42,1.73A3,3,0,0,0,33,282.91a3.2,3.2,0,0,0,1.6.41,3.42,3.42,0,0,0,1.91-.57.32.32,0,0,1,.44.07.32.32,0,0,1,.08.21.29.29,0,0,1-.16.27,4.1,4.1,0,0,1-1,.48,4.48,4.48,0,0,1-1.22.19,3.88,3.88,0,0,1-1.93-.5,3.61,3.61,0,0,1-1.41-1.41,4,4,0,0,1-.53-2.05,4,4,0,0,1,.52-2,3.74,3.74,0,0,1,1.4-1.42,3.78,3.78,0,0,1,2-.51,4.4,4.4,0,0,1,1.2.17,4,4,0,0,1,1.06.5A.32.32,0,0,1,37.07,277Z"/><path class="cls-2" d="M42.85,282.54a2.6,2.6,0,0,1-1,1,2.84,2.84,0,0,1-2.84,0,2.66,2.66,0,0,1-1-1,3.14,3.14,0,0,1-.36-1.5,3.07,3.07,0,0,1,.36-1.49,2.76,2.76,0,0,1,1-1.06,2.74,2.74,0,0,1,3.84,1.06,3.08,3.08,0,0,1,.37,1.49A3.14,3.14,0,0,1,42.85,282.54Zm-.57-2.69a2.1,2.1,0,0,0-.76-.83,2.11,2.11,0,0,0-2.17,0,2.18,2.18,0,0,0-.76.83,2.49,2.49,0,0,0-.28,1.19,2.45,2.45,0,0,0,.28,1.18,2.18,2.18,0,0,0,.76.83,2.11,2.11,0,0,0,2.17,0,2,2,0,0,0,.76-.82,2.58,2.58,0,0,0,.28-1.19A2.61,2.61,0,0,0,42.28,279.85Z"/><path class="cls-2" d="M52.13,278.8a2.61,2.61,0,0,1,.47,1.61v3.12a.34.34,0,0,1-.33.33.3.3,0,0,1-.24-.1.32.32,0,0,1-.09-.23v-3.08a1.88,1.88,0,0,0-.35-1.18,1.25,1.25,0,0,0-1.07-.46,1.82,1.82,0,0,0-.88.22,1.9,1.9,0,0,0-.66.6,1.42,1.42,0,0,0-.25.82v3.08a.33.33,0,0,1-.1.23.29.29,0,0,1-.23.1.3.3,0,0,1-.24-.1.32.32,0,0,1-.09-.23v-3.12a1.92,1.92,0,0,0-.33-1.16,1.23,1.23,0,0,0-1-.44,1.71,1.71,0,0,0-.85.22,1.84,1.84,0,0,0-.65.59,1.42,1.42,0,0,0-.25.79v3.12a.32.32,0,0,1-.09.23.3.3,0,0,1-.24.1.34.34,0,0,1-.33-.33V278.6a.31.31,0,0,1,.1-.24.32.32,0,0,1,.23-.09.32.32,0,0,1,.24.09.34.34,0,0,1,.09.24v.64a2.44,2.44,0,0,1,.81-.75,2,2,0,0,1,1.06-.3,2,2,0,0,1,1.1.31,1.7,1.7,0,0,1,.66.9,2.08,2.08,0,0,1,.85-.84,2.37,2.37,0,0,1,1.24-.37A1.74,1.74,0,0,1,52.13,278.8Z"/><path class="cls-2" d="M58,278.56a2.55,2.55,0,0,1,.93,1,3.37,3.37,0,0,1,0,2.95,2.56,2.56,0,0,1-.92,1,2.49,2.49,0,0,1-2.49.07,2.36,2.36,0,0,1-.85-.81v2.91a.32.32,0,0,1-.09.23.34.34,0,0,1-.48,0,.32.32,0,0,1-.09-.23v-7.17a.37.37,0,0,1,.09-.25.34.34,0,0,1,.48,0,.37.37,0,0,1,.09.25v.74a2.09,2.09,0,0,1,.83-.81,2.35,2.35,0,0,1,1.18-.3A2.47,2.47,0,0,1,58,278.56ZM57.7,283a2.07,2.07,0,0,0,.71-.81,2.61,2.61,0,0,0,.26-1.17,2.56,2.56,0,0,0-.26-1.15,2,2,0,0,0-.71-.8,1.93,1.93,0,0,0-1-.29,1.87,1.87,0,0,0-1.76,1.08,2.57,2.57,0,0,0-.25,1.16,2.61,2.61,0,0,0,.25,1.17,2,2,0,0,0,.71.81,2,2,0,0,0,1.05.29A1.93,1.93,0,0,0,57.7,283Z"/><path class="cls-2" d="M61,283.76a.3.3,0,0,1-.24.1.34.34,0,0,1-.33-.33v-7.48a.3.3,0,0,1,.1-.24.32.32,0,0,1,.23-.09.31.31,0,0,1,.33.33v7.48A.32.32,0,0,1,61,283.76Z"/><path class="cls-2" d="M62.62,277.3a.39.39,0,0,1-.12-.31v-.11a.38.38,0,0,1,.12-.3.54.54,0,0,1,.35-.1c.29,0,.44.13.44.4V277a.42.42,0,0,1-.11.31.63.63,0,0,1-.68,0Zm.58,6.46a.34.34,0,0,1-.48,0,.32.32,0,0,1-.09-.23v-5.06a.32.32,0,0,1,.09-.24.37.37,0,0,1,.48,0,.32.32,0,0,1,.09.24v5.06A.32.32,0,0,1,63.2,283.76Z"/><path class="cls-2" d="M69.53,278.34a.33.33,0,0,1,.1.24v4.95a.33.33,0,0,1-.1.23.29.29,0,0,1-.23.1.3.3,0,0,1-.24-.1.32.32,0,0,1-.09-.23v-.74a2.38,2.38,0,0,1-.83.84,2.36,2.36,0,0,1-2.52-.05,2.64,2.64,0,0,1-.93-1.05,3.38,3.38,0,0,1-.33-1.51,3.19,3.19,0,0,1,.34-1.5,2.54,2.54,0,0,1,.93-1,2.36,2.36,0,0,1,1.3-.38,2.4,2.4,0,0,1,1.21.32,2.23,2.23,0,0,1,.83.84v-.68a.32.32,0,0,1,.09-.24.3.3,0,0,1,.24-.1A.29.29,0,0,1,69.53,278.34ZM68,283.05a2,2,0,0,0,.71-.84,2.81,2.81,0,0,0,0-2.36A2.06,2.06,0,0,0,68,279a1.85,1.85,0,0,0-1-.3,1.83,1.83,0,0,0-1,.3,2.05,2.05,0,0,0-.72.82A2.65,2.65,0,0,0,65,281a2.7,2.7,0,0,0,.25,1.19,2,2,0,0,0,.71.84,1.94,1.94,0,0,0,2.07,0Z"/><path class="cls-2" d="M75.23,278.7a2.47,2.47,0,0,1,.48,1.59v3.24a.29.29,0,0,1-.1.23.3.3,0,0,1-.23.1.3.3,0,0,1-.24-.1.32.32,0,0,1-.09-.23v-3.2a1.77,1.77,0,0,0-.36-1.16,1.33,1.33,0,0,0-1.1-.45,1.87,1.87,0,0,0-.9.22,2,2,0,0,0-.69.59,1.39,1.39,0,0,0-.26.8v3.2a.34.34,0,0,1-.33.33.3.3,0,0,1-.24-.1.32.32,0,0,1-.09-.23V278.6a.34.34,0,0,1,.09-.24.32.32,0,0,1,.24-.09.32.32,0,0,1,.23.09.31.31,0,0,1,.1.24v.6a2.38,2.38,0,0,1,.85-.78,2.29,2.29,0,0,1,1.14-.32A1.81,1.81,0,0,1,75.23,278.7Z"/><path class="cls-2" d="M80.55,278.22a2.19,2.19,0,0,1,.72.31.57.57,0,0,1,.27.43.35.35,0,0,1-.08.22.26.26,0,0,1-.21.1.34.34,0,0,1-.18,0,1.53,1.53,0,0,1-.16-.13.94.94,0,0,0-.27-.21,1.79,1.79,0,0,0-.44-.13,3.48,3.48,0,0,0-.58,0,2,2,0,0,0-1.1.31,2.18,2.18,0,0,0-.79.83,2.46,2.46,0,0,0-.28,1.17,2.57,2.57,0,0,0,.27,1.19,2.07,2.07,0,0,0,1.88,1.13,2.72,2.72,0,0,0,.64-.06,3,3,0,0,0,.46-.19l.27-.2.15-.11a.23.23,0,0,1,.14,0,.25.25,0,0,1,.21.08.3.3,0,0,1,.08.21.6.6,0,0,1-.26.41,2.36,2.36,0,0,1-.73.36,3,3,0,0,1-1,.16,2.7,2.7,0,0,1-1.43-.38,2.55,2.55,0,0,1-1-1,3.26,3.26,0,0,1-.34-1.51,3.07,3.07,0,0,1,.35-1.47,2.66,2.66,0,0,1,1-1.06,2.73,2.73,0,0,1,1.46-.4A3.6,3.6,0,0,1,80.55,278.22Z"/><path class="cls-2" d="M87.19,281A.32.32,0,0,1,87,281H82.8a2.5,2.5,0,0,0,.27,1.18,2.06,2.06,0,0,0,.77.83,2.29,2.29,0,0,0,1.19.3,2,2,0,0,0,.94-.22,1.85,1.85,0,0,0,.67-.56.36.36,0,0,1,.23-.1.31.31,0,0,1,.29.29.33.33,0,0,1-.11.23,2.82,2.82,0,0,1-.89.7A2.33,2.33,0,0,1,85,284a2.93,2.93,0,0,1-1.5-.37,2.58,2.58,0,0,1-1-1,3.11,3.11,0,0,1-.36-1.52,3.28,3.28,0,0,1,.35-1.57,2.67,2.67,0,0,1,1-1,2.42,2.42,0,0,1,1.27-.36,2.68,2.68,0,0,1,1.24.31,2.53,2.53,0,0,1,.94.9,2.79,2.79,0,0,1,.37,1.41A.29.29,0,0,1,87.19,281Zm-3.63-1.77a2,2,0,0,0-.7,1.27h3.75v-.09a1.76,1.76,0,0,0-.33-.86,1.64,1.64,0,0,0-.69-.56,2,2,0,0,0-.85-.2A1.84,1.84,0,0,0,83.56,279.18Z"/><path class="cls-2" d="M20,298.54a.51.51,0,0,1,0,.14.34.34,0,0,1-.12.12.3.3,0,0,1-.15.05.35.35,0,0,1-.18-.05,1.18,1.18,0,0,1-.47-.57,3.22,3.22,0,0,1-.18-1.26,1.3,1.3,0,0,0-.41-1.09,1.52,1.52,0,0,0-1-.31H15.18v3a.36.36,0,0,1-.08.23.27.27,0,0,1-.22.1.33.33,0,0,1-.25-.1.3.3,0,0,1-.11-.23v-7a.32.32,0,0,1,.09-.24.3.3,0,0,1,.23-.09h2.82a2.09,2.09,0,0,1,1.06.27,1.88,1.88,0,0,1,.74.74,2.13,2.13,0,0,1,.27,1.07,2.19,2.19,0,0,1-.35,1.23,1.84,1.84,0,0,1-.92.74,1.53,1.53,0,0,1,.75.63,2,2,0,0,1,.31,1.08,3.46,3.46,0,0,0,.09,1,.6.6,0,0,0,.25.38A.33.33,0,0,1,20,298.54ZM17.69,295a1.35,1.35,0,0,0,.68-.25,1.61,1.61,0,0,0,.5-.59,2,2,0,0,0,.19-.86,1.42,1.42,0,0,0-.41-1,1.36,1.36,0,0,0-1-.41H15.18V295Z"/><path class="cls-2" d="M21.07,292.3A.42.42,0,0,1,21,292v-.11a.38.38,0,0,1,.12-.3.48.48,0,0,1,.33-.1c.28,0,.42.13.42.4V292a.42.42,0,0,1-.11.31.46.46,0,0,1-.32.1A.48.48,0,0,1,21.07,292.3Zm.55,6.46a.27.27,0,0,1-.22.1.29.29,0,0,1-.23-.1.32.32,0,0,1-.09-.23v-5.06a.32.32,0,0,1,.09-.24.32.32,0,0,1,.23-.09.29.29,0,0,1,.22.09.32.32,0,0,1,.09.24v5.06A.32.32,0,0,1,21.62,298.76Z"/><path class="cls-2" d="M22.69,297.72a.26.26,0,0,1,.14-.22.24.24,0,0,1,.17-.06.33.33,0,0,1,.23.11,1.92,1.92,0,0,0,1.64.86,1.58,1.58,0,0,0,.87-.25.82.82,0,0,0,.37-.72.76.76,0,0,0-.34-.69,3.08,3.08,0,0,0-1-.4,3.77,3.77,0,0,1-1.35-.6,1.28,1.28,0,0,1-.5-1.08,1.43,1.43,0,0,1,.24-.81,1.58,1.58,0,0,1,.66-.56,2.12,2.12,0,0,1,.93-.2,2.52,2.52,0,0,1,.91.19,2,2,0,0,1,.78.57.29.29,0,0,1,.09.22.33.33,0,0,1-.1.23.26.26,0,0,1-.19.07.25.25,0,0,1-.19-.09,1.64,1.64,0,0,0-.6-.45,1.81,1.81,0,0,0-.74-.15,1.43,1.43,0,0,0-.84.24.83.83,0,0,0-.35.73.8.8,0,0,0,.38.67,4,4,0,0,0,1.06.41,6.09,6.09,0,0,1,.9.32,1.56,1.56,0,0,1,.58.5,1.43,1.43,0,0,1,.23.85,1.37,1.37,0,0,1-.55,1.13,2.08,2.08,0,0,1-1.35.43,2.41,2.41,0,0,1-2-1A.51.51,0,0,1,22.69,297.72Z"/><path class="cls-2" d="M32.05,298.53a.3.3,0,0,1-.11.23.31.31,0,0,1-.21.1.29.29,0,0,1-.23-.12l-2.31-2.58-.78.71v1.66a.32.32,0,0,1-.09.23.27.27,0,0,1-.22.1.29.29,0,0,1-.23-.1.32.32,0,0,1-.09-.23v-7.48a.32.32,0,0,1,.09-.24.32.32,0,0,1,.23-.09.29.29,0,0,1,.22.09.32.32,0,0,1,.09.24v5l3-2.74a.29.29,0,0,1,.22-.11.28.28,0,0,1,.21.11.33.33,0,0,1,.09.22.4.4,0,0,1-.11.26l-2.16,1.92L32,298.27A.37.37,0,0,1,32.05,298.53Z"/><path class="cls-2" d="M41.29,292a.4.4,0,0,1-.07.22.27.27,0,0,1-.24.13.29.29,0,0,1-.17-.06,3.09,3.09,0,0,0-1.83-.58,2.86,2.86,0,0,0-2.6,1.59A3.65,3.65,0,0,0,36,295a3.71,3.71,0,0,0,.39,1.73,3.05,3.05,0,0,0,1.08,1.17,3,3,0,0,0,1.52.41,3.12,3.12,0,0,0,1.82-.57.32.32,0,0,1,.18-.06.29.29,0,0,1,.24.13.31.31,0,0,1,.07.21.29.29,0,0,1-.14.27,3.8,3.8,0,0,1-1,.48A4,4,0,0,1,39,299a3.54,3.54,0,0,1-1.83-.5,3.64,3.64,0,0,1-1.34-1.41,4.47,4.47,0,0,1,0-4.07,3.65,3.65,0,0,1,1.33-1.42,3.45,3.45,0,0,1,1.84-.51,4.05,4.05,0,0,1,1.15.17,3.81,3.81,0,0,1,1,.5A.32.32,0,0,1,41.29,292Z"/><path class="cls-2" d="M46.79,297.54a2.62,2.62,0,0,1-.95,1,2.5,2.5,0,0,1-1.35.38,2.55,2.55,0,0,1-1.35-.38,2.62,2.62,0,0,1-1-1,3.24,3.24,0,0,1-.34-1.5,3.17,3.17,0,0,1,.34-1.49,2.71,2.71,0,0,1,1-1.06,2.47,2.47,0,0,1,1.35-.39,2.42,2.42,0,0,1,1.35.39,2.71,2.71,0,0,1,.95,1.06,3.18,3.18,0,0,1,.35,1.49A3.25,3.25,0,0,1,46.79,297.54Zm-.54-2.69a2.11,2.11,0,0,0-.73-.83,1.85,1.85,0,0,0-1-.3,1.82,1.82,0,0,0-1,.3,2.11,2.11,0,0,0-.73.83,2.6,2.6,0,0,0-.26,1.19,2.56,2.56,0,0,0,.26,1.18,2.11,2.11,0,0,0,.73.83,1.82,1.82,0,0,0,1,.3,1.85,1.85,0,0,0,1-.3,2,2,0,0,0,.73-.82,2.7,2.7,0,0,0,.26-1.19A2.73,2.73,0,0,0,46.25,294.85Z"/><path class="cls-2" d="M55.61,293.8a2.74,2.74,0,0,1,.44,1.61v3.12a.32.32,0,0,1-.09.23.27.27,0,0,1-.22.1.29.29,0,0,1-.23-.1.32.32,0,0,1-.09-.23v-3.08a1.94,1.94,0,0,0-.33-1.18,1.16,1.16,0,0,0-1-.46,1.64,1.64,0,0,0-.83.22,1.81,1.81,0,0,0-.63.6,1.48,1.48,0,0,0-.24.82v3.08a.32.32,0,0,1-.09.23.27.27,0,0,1-.22.1.29.29,0,0,1-.23-.1.32.32,0,0,1-.09-.23v-3.12a2,2,0,0,0-.31-1.16,1.14,1.14,0,0,0-1-.44,1.54,1.54,0,0,0-.81.22,1.75,1.75,0,0,0-.62.59,1.48,1.48,0,0,0-.23.79v3.12a.32.32,0,0,1-.09.23.29.29,0,0,1-.23.1.27.27,0,0,1-.22-.1.32.32,0,0,1-.09-.23V293.6a.34.34,0,0,1,.09-.24.29.29,0,0,1,.22-.09.32.32,0,0,1,.23.09.34.34,0,0,1,.09.24v.64a2.27,2.27,0,0,1,.76-.75,1.88,1.88,0,0,1,1-.3,1.81,1.81,0,0,1,1,.31,1.76,1.76,0,0,1,.63.9,1.93,1.93,0,0,1,.8-.84,2.15,2.15,0,0,1,1.18-.37A1.63,1.63,0,0,1,55.61,293.8Z"/><path class="cls-2" d="M64.87,293.8a2.67,2.67,0,0,1,.45,1.61v3.12a.32.32,0,0,1-.09.23.28.28,0,0,1-.23.1.27.27,0,0,1-.22-.1.32.32,0,0,1-.09-.23v-3.08a1.94,1.94,0,0,0-.33-1.18,1.16,1.16,0,0,0-1-.46,1.64,1.64,0,0,0-.83.22,1.81,1.81,0,0,0-.63.6,1.48,1.48,0,0,0-.24.82v3.08a.32.32,0,0,1-.09.23.27.27,0,0,1-.22.1.29.29,0,0,1-.23-.1.32.32,0,0,1-.09-.23v-3.12a2,2,0,0,0-.31-1.16,1.14,1.14,0,0,0-1-.44,1.54,1.54,0,0,0-.81.22,1.75,1.75,0,0,0-.62.59,1.4,1.4,0,0,0-.23.79v3.12a.32.32,0,0,1-.09.23.29.29,0,0,1-.23.1.27.27,0,0,1-.22-.1.32.32,0,0,1-.09-.23V293.6a.34.34,0,0,1,.09-.24.29.29,0,0,1,.22-.09.32.32,0,0,1,.23.09.34.34,0,0,1,.09.24v.64a2.27,2.27,0,0,1,.76-.75,1.88,1.88,0,0,1,1-.3,1.83,1.83,0,0,1,1.05.31,1.69,1.69,0,0,1,.62.9,2,2,0,0,1,.81-.84,2.15,2.15,0,0,1,1.18-.37A1.59,1.59,0,0,1,64.87,293.8Z"/><path class="cls-2" d="M66.67,292.3a.39.39,0,0,1-.12-.31v-.11a.38.38,0,0,1,.12-.3.48.48,0,0,1,.33-.1c.28,0,.42.13.42.4V292a.42.42,0,0,1-.11.31.56.56,0,0,1-.64,0Zm.54,6.46a.29.29,0,0,1-.44,0,.32.32,0,0,1-.09-.23v-5.06a.32.32,0,0,1,.09-.24.31.31,0,0,1,.44,0,.32.32,0,0,1,.09.24v5.06A.32.32,0,0,1,67.21,298.76Z"/><path class="cls-2" d="M69.72,293.87v3.69a.87.87,0,0,0,.14.57.52.52,0,0,0,.39.14.53.53,0,0,0,.16,0l.14,0a.23.23,0,0,1,.17.08.33.33,0,0,1,.06.19.29.29,0,0,1-.16.26.77.77,0,0,1-.4.11,1.85,1.85,0,0,1-.5-.06.75.75,0,0,1-.43-.33,1.52,1.52,0,0,1-.2-.88v-3.72h-.76a.29.29,0,0,1-.22-.08.31.31,0,0,1-.09-.22.31.31,0,0,1,.31-.31h.76V292a.32.32,0,0,1,.09-.24.29.29,0,0,1,.22-.09.32.32,0,0,1,.23.09.32.32,0,0,1,.09.24v1.22h1a.26.26,0,0,1,.21.1.31.31,0,0,1,.09.22.26.26,0,0,1-.09.21.25.25,0,0,1-.21.08Z"/><path class="cls-2" d="M73,293.87v3.69a.87.87,0,0,0,.14.57.52.52,0,0,0,.39.14.5.5,0,0,0,.16,0l.14,0a.23.23,0,0,1,.17.08.33.33,0,0,1,.06.19.29.29,0,0,1-.16.26.75.75,0,0,1-.4.11,1.85,1.85,0,0,1-.5-.06.71.71,0,0,1-.42-.33,1.44,1.44,0,0,1-.21-.88v-3.72h-.76a.3.3,0,0,1-.22-.08.35.35,0,0,1-.08-.22.33.33,0,0,1,.08-.22.31.31,0,0,1,.22-.09h.76V292a.32.32,0,0,1,.09-.24.3.3,0,0,1,.23-.09.29.29,0,0,1,.22.09A.32.32,0,0,1,73,292v1.22h1a.26.26,0,0,1,.21.1.31.31,0,0,1,.09.22.26.26,0,0,1-.09.21.25.25,0,0,1-.21.08Z"/><path class="cls-2" d="M79.6,296a.29.29,0,0,1-.22.09H75.43a2.63,2.63,0,0,0,.26,1.18,2,2,0,0,0,.73.83,2.06,2.06,0,0,0,1.12.3,1.77,1.77,0,0,0,.9-.22,1.75,1.75,0,0,0,.64-.56.33.33,0,0,1,.22-.1.26.26,0,0,1,.19.09.3.3,0,0,1,.08.2.32.32,0,0,1-.1.23,2.86,2.86,0,0,1-.84.7,2.17,2.17,0,0,1-1.07.28,2.7,2.7,0,0,1-1.43-.37,2.53,2.53,0,0,1-1-1,3.21,3.21,0,0,1-.34-1.52,3.39,3.39,0,0,1,.34-1.57,2.49,2.49,0,0,1,.9-1,2.21,2.21,0,0,1,1.2-.36,2.45,2.45,0,0,1,1.18.31,2.48,2.48,0,0,1,.89.9,2.89,2.89,0,0,1,.36,1.41A.29.29,0,0,1,79.6,296Zm-3.45-1.77a2,2,0,0,0-.66,1.27h3.56v-.09a1.85,1.85,0,0,0-.31-.86,1.68,1.68,0,0,0-.66-.56,1.8,1.8,0,0,0-.81-.2A1.71,1.71,0,0,0,76.15,294.18Z"/><path class="cls-2" d="M85.15,296a.29.29,0,0,1-.22.09H81a2.63,2.63,0,0,0,.26,1.18,2,2,0,0,0,.73.83,2.06,2.06,0,0,0,1.12.3,1.77,1.77,0,0,0,.9-.22,1.75,1.75,0,0,0,.64-.56.33.33,0,0,1,.22-.1.26.26,0,0,1,.19.09.3.3,0,0,1,.08.2.32.32,0,0,1-.1.23,2.86,2.86,0,0,1-.84.7,2.18,2.18,0,0,1-1.08.28,2.69,2.69,0,0,1-1.42-.37,2.53,2.53,0,0,1-1-1,3.21,3.21,0,0,1-.34-1.52,3.39,3.39,0,0,1,.34-1.57,2.49,2.49,0,0,1,.9-1,2.21,2.21,0,0,1,1.2-.36,2.45,2.45,0,0,1,1.18.31,2.48,2.48,0,0,1,.89.9,2.89,2.89,0,0,1,.36,1.41A.33.33,0,0,1,85.15,296Zm-3.45-1.77a2,2,0,0,0-.66,1.27H84.6v-.09a1.85,1.85,0,0,0-.31-.86,1.68,1.68,0,0,0-.66-.56,1.8,1.8,0,0,0-.81-.2A1.71,1.71,0,0,0,81.7,294.18Z"/><path class="cls-1" d="M49.63,251.23a1,1,0,0,1-1-1v-35.5a1,1,0,0,1,2,0v35.5A1,1,0,0,1,49.63,251.23Z"/><polygon class="cls-1" points="141.47 216.15 190.92 216.15 215.65 174.42 190.92 132.69 141.47 132.69 116.74 174.42 141.47 216.15"/><path class="cls-2" d="M143.25,166.78a.37.37,0,0,1,.1.24v2.65a.34.34,0,0,1-.17.3,4.15,4.15,0,0,1-1.1.53,4.26,4.26,0,0,1-1.23.18,4,4,0,0,1-2-.51,3.72,3.72,0,0,1-1.42-1.42,4.2,4.2,0,0,1,0-4.05,3.72,3.72,0,0,1,1.42-1.42,4,4,0,0,1,2-.52,4.28,4.28,0,0,1,1.13.15,3.66,3.66,0,0,1,1,.4.32.32,0,0,1,.15.28.34.34,0,0,1-.09.24.26.26,0,0,1-.21.1.42.42,0,0,1-.2-.05,3.5,3.5,0,0,0-1.75-.46,3.39,3.39,0,0,0-1.68.43A3.09,3.09,0,0,0,138,165a3.59,3.59,0,0,0,0,3.37,3.09,3.09,0,0,0,1.16,1.19,3.38,3.38,0,0,0,1.68.42,3.51,3.51,0,0,0,1-.13,3.45,3.45,0,0,0,.85-.36v-2.18h-1.74a.36.36,0,0,1-.24-.09.33.33,0,0,1-.1-.24.37.37,0,0,1,.1-.24.36.36,0,0,1,.24-.09H143A.32.32,0,0,1,143.25,166.78Z"/><path class="cls-2" d="M147.63,164.91a.29.29,0,0,1,.17.26.33.33,0,0,1-.09.25.29.29,0,0,1-.21.09.7.7,0,0,1-.21,0,.89.89,0,0,0-.3-.06,1.33,1.33,0,0,0-.81.32,2.4,2.4,0,0,0-.66.81,2.16,2.16,0,0,0-.26,1v2.71a.32.32,0,0,1-.09.24.36.36,0,0,1-.48,0,.32.32,0,0,1-.09-.24v-4.92a.32.32,0,0,1,.09-.24.36.36,0,0,1,.48,0,.32.32,0,0,1,.09.24v1a2.63,2.63,0,0,1,.76-1,2,2,0,0,1,1.21-.42A.87.87,0,0,1,147.63,164.91Z"/><path class="cls-2" d="M153.15,169.25a2.79,2.79,0,0,1-3.84,1.05,2.6,2.6,0,0,1-1-1.05,3,3,0,0,1-.37-1.49,3,3,0,0,1,.37-1.5,2.6,2.6,0,0,1,1-1,2.75,2.75,0,0,1,3.84,1,3.14,3.14,0,0,1,.36,1.5A3.07,3.07,0,0,1,153.15,169.25Zm-.57-2.68a2.13,2.13,0,0,0-.77-.83,2,2,0,0,0-1.08-.3,2,2,0,0,0-1.08.3,2.2,2.2,0,0,0-.77.83,2.65,2.65,0,0,0,0,2.37,2.28,2.28,0,0,0,.77.83,2,2,0,0,0,1.08.3,2,2,0,0,0,1.08-.3,2.1,2.1,0,0,0,.77-.82,2.6,2.6,0,0,0,.27-1.19A2.57,2.57,0,0,0,152.58,166.57Z"/><path class="cls-2" d="M159,165.08a.32.32,0,0,1,.09.24v3.1a2.17,2.17,0,0,1-.6,1.65,2.34,2.34,0,0,1-1.68.58,2.26,2.26,0,0,1-1.65-.58,2.17,2.17,0,0,1-.6-1.65v-3.1a.31.31,0,0,1,.33-.33.32.32,0,0,1,.23.09.3.3,0,0,1,.1.24v3.1a1.59,1.59,0,0,0,.42,1.2,1.57,1.57,0,0,0,1.17.42,1.64,1.64,0,0,0,1.2-.42,1.59,1.59,0,0,0,.42-1.2v-3.1a.32.32,0,0,1,.09-.24.37.37,0,0,1,.48,0Z"/><path class="cls-2" d="M164.56,165.28a2.42,2.42,0,0,1,.93,1,3.37,3.37,0,0,1,0,2.95,2.56,2.56,0,0,1-.92,1,2.41,2.41,0,0,1-3.34-.74v2.9a.31.31,0,0,1-.33.33.36.36,0,0,1-.24-.09.32.32,0,0,1-.09-.24v-7.17a.36.36,0,0,1,.09-.24.33.33,0,0,1,.24-.1.3.3,0,0,1,.24.1.36.36,0,0,1,.09.24V166a2,2,0,0,1,.83-.81,2.51,2.51,0,0,1,2.5.07Zm-.34,4.46a2,2,0,0,0,.71-.8,2.51,2.51,0,0,0,.26-1.17,2.41,2.41,0,0,0-.26-1.15,2,2,0,0,0-.71-.8,1.84,1.84,0,0,0-1-.29,1.87,1.87,0,0,0-1.76,1.08,2.57,2.57,0,0,0-.25,1.16,2.64,2.64,0,0,0,.25,1.17,2,2,0,0,0,.71.8,1.89,1.89,0,0,0,1.05.3A1.85,1.85,0,0,0,164.22,169.74Z"/><path class="cls-2" d="M175.58,170.27a.33.33,0,0,1-.1.23.35.35,0,0,1-.23.09.35.35,0,0,1-.2-.07.44.44,0,0,1-.12-.15l-.83-2h-3.57l-.82,2a.32.32,0,0,1-.29.22.35.35,0,0,1-.24-.08.29.29,0,0,1-.08-.21v0a.25.25,0,0,1,0-.1l2.9-7.11a.32.32,0,0,1,.33-.22.31.31,0,0,1,.19.06.4.4,0,0,1,.13.16l2.89,7.07A.5.5,0,0,1,175.58,170.27Zm-4.8-2.57h3.06l-1.54-3.76Z"/><path class="cls-2" d="M180.82,165.08a.32.32,0,0,1,.09.24v3.1a2.17,2.17,0,0,1-.6,1.65,2.34,2.34,0,0,1-1.68.58,2.26,2.26,0,0,1-1.65-.58,2.17,2.17,0,0,1-.6-1.65v-3.1a.31.31,0,0,1,.33-.33.36.36,0,0,1,.24.09.32.32,0,0,1,.09.24v3.1a1.46,1.46,0,0,0,1.59,1.62,1.64,1.64,0,0,0,1.2-.42,1.59,1.59,0,0,0,.42-1.2v-3.1a.32.32,0,0,1,.09-.24.36.36,0,0,1,.24-.09A.34.34,0,0,1,180.82,165.08Z"/><path class="cls-2" d="M187.16,162.53a.29.29,0,0,1,.1.23v7.48a.3.3,0,0,1-.1.24.32.32,0,0,1-.23.09.31.31,0,0,1-.33-.33v-.77a2.4,2.4,0,0,1-.82.86,2.16,2.16,0,0,1-1.21.35,2.31,2.31,0,0,1-1.31-.38,2.64,2.64,0,0,1-.93-1.05,3.48,3.48,0,0,1,0-3,2.64,2.64,0,0,1,.93-1.05,2.38,2.38,0,0,1,1.3-.38,2.28,2.28,0,0,1,1.2.33,2.12,2.12,0,0,1,.84.84v-3.23a.32.32,0,0,1,.09-.23.33.33,0,0,1,.24-.1A.33.33,0,0,1,187.16,162.53Zm-1.49,7.24a2,2,0,0,0,.71-.83,2.6,2.6,0,0,0,.26-1.19,2.53,2.53,0,0,0-.26-1.18,2.06,2.06,0,0,0-.71-.83,1.85,1.85,0,0,0-1-.3,1.83,1.83,0,0,0-1,.3,2.06,2.06,0,0,0-.71.83,2.53,2.53,0,0,0-.26,1.18,2.6,2.6,0,0,0,.26,1.19,2.13,2.13,0,0,0,.71.83,1.83,1.83,0,0,0,1,.3A1.85,1.85,0,0,0,185.67,169.77Z"/><path class="cls-2" d="M188.68,164a.38.38,0,0,1-.12-.3v-.11a.38.38,0,0,1,.12-.3.54.54,0,0,1,.35-.11c.29,0,.44.14.44.41v.11a.38.38,0,0,1-.12.3.47.47,0,0,1-.33.11A.5.5,0,0,1,188.68,164Zm.57,6.47a.32.32,0,0,1-.23.09.31.31,0,0,1-.33-.33v-5.06a.32.32,0,0,1,.09-.23.33.33,0,0,1,.24-.1.33.33,0,0,1,.23.1.29.29,0,0,1,.1.23v5.06A.3.3,0,0,1,189.25,170.48Z"/><path class="cls-2" d="M191.89,165.59v3.69a.78.78,0,0,0,.15.56.56.56,0,0,0,.41.15l.16,0,.16,0a.21.21,0,0,1,.17.08.26.26,0,0,1,.07.19.31.31,0,0,1-.18.26.76.76,0,0,1-.41.1,2.12,2.12,0,0,1-.53,0,.89.89,0,0,1-.45-.33,1.46,1.46,0,0,1-.21-.88v-3.72h-.8a.32.32,0,0,1-.23-.09.29.29,0,0,1-.09-.22.29.29,0,0,1,.32-.3h.8v-1.23a.32.32,0,0,1,.09-.23.33.33,0,0,1,.24-.1.33.33,0,0,1,.23.1.29.29,0,0,1,.1.23V165H193a.29.29,0,0,1,.21.09.3.3,0,0,1,.1.22.29.29,0,0,1-.09.22.33.33,0,0,1-.22.08Z"/><path class="cls-2" d="M146.4,178.72a.42.42,0,0,1-.08.22.3.3,0,0,1-.25.12.41.41,0,0,1-.18-.05,3.4,3.4,0,0,0-1.92-.59,3.12,3.12,0,0,0-1.61.42,3.05,3.05,0,0,0-1.14,1.17,3.6,3.6,0,0,0-.41,1.71,3.53,3.53,0,0,0,.42,1.74,3,3,0,0,0,1.14,1.16,3.11,3.11,0,0,0,1.6.42,3.43,3.43,0,0,0,1.91-.58.41.41,0,0,1,.19-.05.29.29,0,0,1,.25.13.32.32,0,0,1,.08.21.27.27,0,0,1-.16.26,3.94,3.94,0,0,1-1.05.48,4.12,4.12,0,0,1-1.22.19,3.78,3.78,0,0,1-1.93-.5,3.72,3.72,0,0,1-1.41-1.4,4.28,4.28,0,0,1,0-4.07,3.74,3.74,0,0,1,1.4-1.42,3.84,3.84,0,0,1,1.95-.51,4,4,0,0,1,1.2.17,3.7,3.7,0,0,1,1.06.5A.29.29,0,0,1,146.4,178.72Z"/><path class="cls-2" d="M152.18,184.25a2.6,2.6,0,0,1-1,1.05,2.82,2.82,0,0,1-2.83,0,2.69,2.69,0,0,1-1-1.05,3.07,3.07,0,0,1-.36-1.49,3.14,3.14,0,0,1,.36-1.5,2.69,2.69,0,0,1,1-1,2.76,2.76,0,0,1,2.83,0,2.6,2.6,0,0,1,1,1,3,3,0,0,1,.37,1.5A3,3,0,0,1,152.18,184.25Zm-.57-2.68a2.1,2.1,0,0,0-.76-.83,2.05,2.05,0,0,0-1.09-.3,2,2,0,0,0-1.07.3,2.13,2.13,0,0,0-.77.83,2.65,2.65,0,0,0,0,2.37,2.2,2.2,0,0,0,.77.83,2,2,0,0,0,1.07.3,2.05,2.05,0,0,0,1.85-1.12,2.49,2.49,0,0,0,.28-1.19A2.46,2.46,0,0,0,151.61,181.57Z"/><path class="cls-2" d="M161.46,180.52a2.59,2.59,0,0,1,.47,1.61v3.11a.32.32,0,0,1-.09.24.37.37,0,0,1-.48,0,.32.32,0,0,1-.09-.24v-3.08a1.92,1.92,0,0,0-.35-1.18,1.25,1.25,0,0,0-1.07-.45,1.76,1.76,0,0,0-.87.22,1.74,1.74,0,0,0-.67.59,1.46,1.46,0,0,0-.25.82v3.08a.3.3,0,0,1-.1.24.32.32,0,0,1-.23.09.31.31,0,0,1-.33-.33v-3.11a1.9,1.9,0,0,0-.33-1.16,1.2,1.2,0,0,0-1-.44,1.71,1.71,0,0,0-.85.22,1.82,1.82,0,0,0-.65.58,1.47,1.47,0,0,0-.24.8v3.11a.33.33,0,0,1-.1.24.32.32,0,0,1-.23.09.31.31,0,0,1-.33-.33v-4.92A.31.31,0,0,1,154,180a.32.32,0,0,1,.23.09.33.33,0,0,1,.1.24V181a2.2,2.2,0,0,1,.8-.74,2.06,2.06,0,0,1,1.07-.3,1.92,1.92,0,0,1,1.1.31,1.72,1.72,0,0,1,.66.9,2,2,0,0,1,.84-.85,2.46,2.46,0,0,1,1.25-.36A1.69,1.69,0,0,1,161.46,180.52Z"/><path class="cls-2" d="M171.22,180.52a2.59,2.59,0,0,1,.47,1.61v3.11a.3.3,0,0,1-.1.24.32.32,0,0,1-.23.09.31.31,0,0,1-.33-.33v-3.08a1.92,1.92,0,0,0-.35-1.18,1.27,1.27,0,0,0-1.07-.45,1.82,1.82,0,0,0-.88.22,1.79,1.79,0,0,0-.66.59,1.46,1.46,0,0,0-.25.82v3.08a.33.33,0,0,1-.1.24.32.32,0,0,1-.23.09.31.31,0,0,1-.33-.33v-3.11a1.9,1.9,0,0,0-.33-1.16,1.2,1.2,0,0,0-1-.44,1.71,1.71,0,0,0-.85.22,1.82,1.82,0,0,0-.65.58,1.4,1.4,0,0,0-.25.8v3.11a.31.31,0,0,1-.33.33.32.32,0,0,1-.23-.09.3.3,0,0,1-.1-.24v-4.92a.3.3,0,0,1,.1-.24.32.32,0,0,1,.23-.09.31.31,0,0,1,.33.33V181a2.32,2.32,0,0,1,.81-.74,2,2,0,0,1,1.06-.3,1.9,1.9,0,0,1,1.1.31,1.62,1.62,0,0,1,.66.9,2.1,2.1,0,0,1,.85-.85,2.42,2.42,0,0,1,1.24-.36A1.71,1.71,0,0,1,171.22,180.52Z"/><path class="cls-2" d="M173.11,179a.38.38,0,0,1-.12-.3v-.11a.38.38,0,0,1,.12-.3.54.54,0,0,1,.35-.11c.29,0,.44.14.44.41v.11a.38.38,0,0,1-.12.3.47.47,0,0,1-.33.11A.5.5,0,0,1,173.11,179Zm.57,6.47a.32.32,0,0,1-.23.09.31.31,0,0,1-.33-.33v-5.06a.32.32,0,0,1,.09-.23.33.33,0,0,1,.24-.1.33.33,0,0,1,.23.1.29.29,0,0,1,.1.23v5.06A.3.3,0,0,1,173.68,185.48Z"/><path class="cls-2" d="M176.32,180.59v3.69a.78.78,0,0,0,.15.56.56.56,0,0,0,.41.15l.16,0,.16,0a.21.21,0,0,1,.17.08.26.26,0,0,1,.07.19.31.31,0,0,1-.18.26.76.76,0,0,1-.41.1,2.12,2.12,0,0,1-.53,0,.89.89,0,0,1-.45-.33,1.46,1.46,0,0,1-.21-.88v-3.72h-.8a.32.32,0,0,1-.23-.09.29.29,0,0,1-.09-.22.29.29,0,0,1,.32-.3h.8v-1.23a.32.32,0,0,1,.09-.23.33.33,0,0,1,.24-.1.33.33,0,0,1,.23.1.29.29,0,0,1,.1.23V180h1.1a.29.29,0,0,1,.21.09.34.34,0,0,1,.1.22.29.29,0,0,1-.09.22.33.33,0,0,1-.22.08Z"/><path class="cls-2" d="M179.77,180.59v3.69a.73.73,0,0,0,.16.56.54.54,0,0,0,.4.15l.17,0,.15,0a.2.2,0,0,1,.17.08.26.26,0,0,1,.07.19.29.29,0,0,1-.17.26.82.82,0,0,1-.42.1,2.17,2.17,0,0,1-.53,0,.87.87,0,0,1-.44-.33,1.39,1.39,0,0,1-.22-.88v-3.72h-.8a.33.33,0,0,1-.23-.09.29.29,0,0,1-.09-.22.31.31,0,0,1,.09-.22.32.32,0,0,1,.23-.08h.8v-1.23a.29.29,0,0,1,.1-.23.33.33,0,0,1,.23-.1.33.33,0,0,1,.24.1.32.32,0,0,1,.09.23V180h1.1a.31.31,0,0,1,.31.31.29.29,0,0,1-.09.22.33.33,0,0,1-.22.08Z"/><path class="cls-2" d="M186.72,182.66a.29.29,0,0,1-.23.1h-4.15a2.53,2.53,0,0,0,.26,1.18,2.12,2.12,0,0,0,.77.83,2.29,2.29,0,0,0,1.19.3,2,2,0,0,0,.94-.22,2,2,0,0,0,.67-.56.36.36,0,0,1,.24-.1.26.26,0,0,1,.19.09.25.25,0,0,1,.09.19.35.35,0,0,1-.11.24,2.78,2.78,0,0,1-.88.7,2.51,2.51,0,0,1-1.13.27,3,3,0,0,1-1.5-.36,2.54,2.54,0,0,1-1-1,3.07,3.07,0,0,1-.36-1.51,3.44,3.44,0,0,1,.35-1.58,2.59,2.59,0,0,1,1-1,2.36,2.36,0,0,1,1.26-.36,2.56,2.56,0,0,1,1.24.31,2.46,2.46,0,0,1,.94.9,2.69,2.69,0,0,1,.37,1.41A.27.27,0,0,1,186.72,182.66Zm-3.63-1.76a2,2,0,0,0-.7,1.26h3.75v-.08a1.84,1.84,0,0,0-.33-.87,1.8,1.8,0,0,0-.69-.56,2,2,0,0,0-.85-.19A1.86,1.86,0,0,0,183.09,180.9Z"/><path class="cls-2" d="M192.57,182.66a.33.33,0,0,1-.24.1h-4.15a2.53,2.53,0,0,0,.27,1.18,2.05,2.05,0,0,0,.77.83,2.23,2.23,0,0,0,1.18.3,1.92,1.92,0,0,0,.94-.22,2.11,2.11,0,0,0,.68-.56.34.34,0,0,1,.23-.1.31.31,0,0,1,.28.28.32.32,0,0,1-.11.24,2.78,2.78,0,0,1-.88.7,2.47,2.47,0,0,1-1.13.27,3.05,3.05,0,0,1-1.5-.36,2.54,2.54,0,0,1-1-1,3.07,3.07,0,0,1-.36-1.51,3.32,3.32,0,0,1,.36-1.58,2.5,2.5,0,0,1,.95-1,2.36,2.36,0,0,1,1.26-.36,2.56,2.56,0,0,1,1.24.31,2.46,2.46,0,0,1,.94.9,2.69,2.69,0,0,1,.37,1.41A.29.29,0,0,1,192.57,182.66Zm-3.64-1.76a2,2,0,0,0-.7,1.26H192v-.08a1.65,1.65,0,0,0-.33-.87,1.8,1.8,0,0,0-.69-.56,1.92,1.92,0,0,0-.85-.19A1.86,1.86,0,0,0,188.93,180.9Z"/><polygon class="cls-1" points="141.47 323.51 190.92 323.51 215.65 281.79 190.92 240.06 141.47 240.06 116.74 281.79 141.47 323.51"/><path class="cls-2" d="M148.84,268.74a.26.26,0,0,1,.1.21.51.51,0,0,1,0,.17l-2.94,7a.4.4,0,0,1-.13.16.33.33,0,0,1-.19.06.3.3,0,0,1-.18-.06.32.32,0,0,1-.13-.15l-2.92-7a.39.39,0,0,1,0-.17.33.33,0,0,1,.1-.24.37.37,0,0,1,.22-.08.33.33,0,0,1,.33.24l2.65,6.33,2.61-6.35a.44.44,0,0,1,.14-.16.27.27,0,0,1,.17-.06A.34.34,0,0,1,148.84,268.74Z"/><path class="cls-2" d="M154.57,270.84a.32.32,0,0,1,.09.24V276a.32.32,0,0,1-.09.23.31.31,0,0,1-.24.1.33.33,0,0,1-.24-.1A.32.32,0,0,1,154,276v-.74a2.35,2.35,0,0,1-.82.84,2.32,2.32,0,0,1-1.2.34,2.36,2.36,0,0,1-1.33-.39,2.61,2.61,0,0,1-.92-1.05,3.26,3.26,0,0,1-.34-1.51,3.31,3.31,0,0,1,.34-1.5,2.61,2.61,0,0,1,.93-1,2.45,2.45,0,0,1,2.52-.06,2.2,2.2,0,0,1,.82.84v-.68a.32.32,0,0,1,.33-.34A.31.31,0,0,1,154.57,270.84Zm-1.5,4.71a2,2,0,0,0,.72-.84,2.7,2.7,0,0,0,.25-1.19,2.67,2.67,0,0,0-.25-1.17,2.08,2.08,0,0,0-.72-.83,1.83,1.83,0,0,0-1-.3,1.85,1.85,0,0,0-1,.3,2,2,0,0,0-.71.82,2.66,2.66,0,0,0-.26,1.18,2.7,2.7,0,0,0,.25,1.19,2,2,0,0,0,.71.84,1.86,1.86,0,0,0,1,.3A1.83,1.83,0,0,0,153.07,275.55Z"/><path class="cls-2" d="M156.74,276.26a.29.29,0,0,1-.23.1.3.3,0,0,1-.24-.1.32.32,0,0,1-.09-.23v-7.48a.31.31,0,0,1,.33-.33.32.32,0,0,1,.23.09.3.3,0,0,1,.1.24V276A.29.29,0,0,1,156.74,276.26Z"/><path class="cls-2" d="M162.75,270.86a.34.34,0,0,1,.09.24v3.1a2.21,2.21,0,0,1-.6,1.66,2.33,2.33,0,0,1-1.67.57,2.31,2.31,0,0,1-1.66-.57,2.21,2.21,0,0,1-.6-1.66v-3.1a.31.31,0,0,1,.1-.24.32.32,0,0,1,.23-.09.32.32,0,0,1,.24.09.34.34,0,0,1,.09.24v3.1a1.45,1.45,0,0,0,1.6,1.62,1.65,1.65,0,0,0,1.19-.41,1.63,1.63,0,0,0,.42-1.21v-3.1a.35.35,0,0,1,.1-.24.32.32,0,0,1,.23-.09A.32.32,0,0,1,162.75,270.86Z"/><path class="cls-2" d="M169.1,270.84a.32.32,0,0,1,.09.24V276a.32.32,0,0,1-.09.23.3.3,0,0,1-.24.1.33.33,0,0,1-.24-.1.32.32,0,0,1-.09-.23v-.74a2.35,2.35,0,0,1-.82.84,2.32,2.32,0,0,1-1.2.34,2.36,2.36,0,0,1-1.33-.39,2.61,2.61,0,0,1-.92-1.05,3.26,3.26,0,0,1-.34-1.51,3.31,3.31,0,0,1,.34-1.5,2.61,2.61,0,0,1,.93-1,2.45,2.45,0,0,1,2.52-.06,2.2,2.2,0,0,1,.82.84v-.68a.32.32,0,0,1,.33-.34A.3.3,0,0,1,169.1,270.84Zm-1.5,4.71a2,2,0,0,0,.72-.84,2.81,2.81,0,0,0,0-2.36,2.08,2.08,0,0,0-.72-.83,1.83,1.83,0,0,0-1-.3,1.85,1.85,0,0,0-1,.3,2,2,0,0,0-.71.82,2.66,2.66,0,0,0-.26,1.18,2.84,2.84,0,0,0,.25,1.19,2,2,0,0,0,.71.84,1.86,1.86,0,0,0,1,.3A1.83,1.83,0,0,0,167.6,275.55Z"/><path class="cls-2" d="M171.74,271.37v3.69a.76.76,0,0,0,.16.57.54.54,0,0,0,.4.14.56.56,0,0,0,.17,0l.15,0a.21.21,0,0,1,.17.08.29.29,0,0,1,.08.19.3.3,0,0,1-.18.26.82.82,0,0,1-.42.11,2.15,2.15,0,0,1-.53-.06.77.77,0,0,1-.44-.33,1.37,1.37,0,0,1-.22-.88v-3.72h-.8a.32.32,0,0,1-.23-.08.31.31,0,0,1-.09-.22.29.29,0,0,1,.09-.22.33.33,0,0,1,.23-.09h.8v-1.22a.3.3,0,0,1,.1-.24.32.32,0,0,1,.23-.09.31.31,0,0,1,.33.33v1.22h1.1a.28.28,0,0,1,.22.1.31.31,0,0,1,.09.22.26.26,0,0,1-.09.21.29.29,0,0,1-.22.08Z"/><path class="cls-2" d="M174.06,269.8a.39.39,0,0,1-.12-.31v-.11a.38.38,0,0,1,.13-.3.52.52,0,0,1,.35-.1c.29,0,.44.13.44.4v.11a.39.39,0,0,1-.12.31.48.48,0,0,1-.33.1A.52.52,0,0,1,174.06,269.8Zm.58,6.46a.29.29,0,0,1-.23.1.3.3,0,0,1-.24-.1.32.32,0,0,1-.09-.23V271a.31.31,0,0,1,.33-.33.32.32,0,0,1,.23.09.33.33,0,0,1,.1.24V276A.33.33,0,0,1,174.64,276.26Z"/><path class="cls-2" d="M181,275a2.73,2.73,0,0,1-2.42,1.43,2.72,2.72,0,0,1-1.42-.38,2.69,2.69,0,0,1-1-1,3.14,3.14,0,0,1-.36-1.5,3.07,3.07,0,0,1,.36-1.49,2.78,2.78,0,0,1,1-1.06,2.76,2.76,0,0,1,2.83,0,2.78,2.78,0,0,1,1,1.06,3.07,3.07,0,0,1,.36,1.49A3.14,3.14,0,0,1,181,275Zm-.58-2.69a2.1,2.1,0,0,0-.76-.83,2,2,0,0,0-1.08-.3,2,2,0,0,0-1.08.3,2.13,2.13,0,0,0-.77.83,2.61,2.61,0,0,0-.28,1.19,2.57,2.57,0,0,0,.28,1.18,2.13,2.13,0,0,0,.77.83,2,2,0,0,0,1.08.3,2,2,0,0,0,1.08-.3,2,2,0,0,0,.76-.82,2.46,2.46,0,0,0,.28-1.19A2.49,2.49,0,0,0,180.43,272.35Z"/><path class="cls-2" d="M186.6,271.2a2.47,2.47,0,0,1,.48,1.59V276a.33.33,0,0,1-.1.23.32.32,0,0,1-.23.1.3.3,0,0,1-.24-.1.32.32,0,0,1-.09-.23v-3.2a1.77,1.77,0,0,0-.36-1.16,1.34,1.34,0,0,0-1.11-.45,1.86,1.86,0,0,0-.89.22,1.89,1.89,0,0,0-.69.59,1.32,1.32,0,0,0-.26.8V276a.33.33,0,0,1-.1.23.29.29,0,0,1-.23.1.3.3,0,0,1-.24-.1.32.32,0,0,1-.09-.23V271.1a.34.34,0,0,1,.09-.24.32.32,0,0,1,.24-.09.32.32,0,0,1,.23.09.35.35,0,0,1,.1.24v.6a2.52,2.52,0,0,1,2-1.1A1.81,1.81,0,0,1,186.6,271.2Z"/><path class="cls-2" d="M146.36,284.5a.42.42,0,0,1-.08.22.29.29,0,0,1-.25.13.32.32,0,0,1-.18-.06,3.36,3.36,0,0,0-1.92-.58,3.14,3.14,0,0,0-1.61.42,2.9,2.9,0,0,0-1.13,1.17,3.44,3.44,0,0,0-.42,1.71,3.49,3.49,0,0,0,.42,1.73,3.05,3.05,0,0,0,1.14,1.17,3.2,3.2,0,0,0,1.6.41,3.4,3.4,0,0,0,1.91-.57.33.33,0,0,1,.19-.06.31.31,0,0,1,.25.13.32.32,0,0,1,.08.21.29.29,0,0,1-.15.27,4.17,4.17,0,0,1-1.06.48,4.42,4.42,0,0,1-1.22.19A3.88,3.88,0,0,1,142,291a3.74,3.74,0,0,1-1.41-1.41,4.24,4.24,0,0,1,0-4.07,3.72,3.72,0,0,1,1.39-1.42,3.84,3.84,0,0,1,2-.51,4.4,4.4,0,0,1,1.2.17,4,4,0,0,1,1.07.5A.31.31,0,0,1,146.36,284.5Z"/><path class="cls-2" d="M152.15,290a2.73,2.73,0,0,1-1,1,2.84,2.84,0,0,1-2.84,0,2.6,2.6,0,0,1-1-1,3,3,0,0,1-.37-1.5,3,3,0,0,1,.37-1.49,2.69,2.69,0,0,1,1-1.06,2.78,2.78,0,0,1,2.84,0,2.83,2.83,0,0,1,1,1.06,3.07,3.07,0,0,1,.36,1.49A3.14,3.14,0,0,1,152.15,290Zm-.58-2.69a2,2,0,0,0-1.84-1.13,2,2,0,0,0-1.08.3,2.2,2.2,0,0,0-.77.83,2.61,2.61,0,0,0-.28,1.19,2.57,2.57,0,0,0,.28,1.18,2.2,2.2,0,0,0,.77.83,2,2,0,0,0,1.08.3,2,2,0,0,0,1.08-.3,2,2,0,0,0,.76-.82,2.46,2.46,0,0,0,.28-1.19A2.49,2.49,0,0,0,151.57,287.35Z"/><path class="cls-2" d="M161.42,286.3a2.55,2.55,0,0,1,.47,1.61V291a.32.32,0,0,1-.09.23.3.3,0,0,1-.24.1.34.34,0,0,1-.33-.33V288a1.88,1.88,0,0,0-.34-1.18,1.27,1.27,0,0,0-1.08-.46,1.79,1.79,0,0,0-.87.22,1.85,1.85,0,0,0-.67.6,1.42,1.42,0,0,0-.25.82V291a.32.32,0,0,1-.09.23.31.31,0,0,1-.24.1.33.33,0,0,1-.24-.1.32.32,0,0,1-.09-.23v-3.12a1.92,1.92,0,0,0-.33-1.16,1.21,1.21,0,0,0-1-.44,1.75,1.75,0,0,0-.86.22,1.81,1.81,0,0,0-.64.59,1.35,1.35,0,0,0-.25.79V291a.34.34,0,0,1-.33.33.3.3,0,0,1-.24-.1.32.32,0,0,1-.09-.23V286.1a.34.34,0,0,1,.09-.24.32.32,0,0,1,.24-.09.32.32,0,0,1,.23.09.31.31,0,0,1,.1.24v.64a2.41,2.41,0,0,1,.8-.75,2.06,2.06,0,0,1,1.07-.3,2,2,0,0,1,1.1.31,1.7,1.7,0,0,1,.66.9,2,2,0,0,1,.84-.84,2.38,2.38,0,0,1,1.25-.37A1.72,1.72,0,0,1,161.42,286.3Z"/><path class="cls-2" d="M171.18,286.3a2.61,2.61,0,0,1,.47,1.61V291a.32.32,0,0,1-.09.23.33.33,0,0,1-.24.1.31.31,0,0,1-.24-.1A.32.32,0,0,1,171,291V288a1.88,1.88,0,0,0-.35-1.18,1.25,1.25,0,0,0-1.07-.46,1.76,1.76,0,0,0-.87.22,1.85,1.85,0,0,0-.67.6,1.42,1.42,0,0,0-.25.82V291a.34.34,0,0,1-.33.33.3.3,0,0,1-.24-.1.32.32,0,0,1-.09-.23v-3.12a1.92,1.92,0,0,0-.33-1.16,1.23,1.23,0,0,0-1-.44,1.71,1.71,0,0,0-.85.22,1.84,1.84,0,0,0-.65.59,1.42,1.42,0,0,0-.25.79V291a.32.32,0,0,1-.09.23.3.3,0,0,1-.24.1.29.29,0,0,1-.23-.1.33.33,0,0,1-.1-.23V286.1a.35.35,0,0,1,.1-.24.32.32,0,0,1,.23-.09.32.32,0,0,1,.24.09.34.34,0,0,1,.09.24v.64a2.44,2.44,0,0,1,.81-.75,2,2,0,0,1,1.06-.3,2,2,0,0,1,1.1.31,1.7,1.7,0,0,1,.66.9,2.08,2.08,0,0,1,.85-.84,2.37,2.37,0,0,1,1.24-.37A1.74,1.74,0,0,1,171.18,286.3Z"/><path class="cls-2" d="M173.07,284.8a.39.39,0,0,1-.12-.31v-.11a.38.38,0,0,1,.12-.3.54.54,0,0,1,.35-.1c.29,0,.44.13.44.4v.11a.39.39,0,0,1-.12.31.45.45,0,0,1-.33.1A.49.49,0,0,1,173.07,284.8Zm.58,6.46a.33.33,0,0,1-.24.1.31.31,0,0,1-.24-.1.32.32,0,0,1-.09-.23V286a.32.32,0,0,1,.09-.24.34.34,0,0,1,.24-.09.36.36,0,0,1,.24.09.32.32,0,0,1,.09.24V291A.32.32,0,0,1,173.65,291.26Z"/><path class="cls-2" d="M176.28,286.37v3.69a.81.81,0,0,0,.15.57.57.57,0,0,0,.41.14.56.56,0,0,0,.17,0l.15,0a.23.23,0,0,1,.17.08.28.28,0,0,1,.07.19.3.3,0,0,1-.17.26.82.82,0,0,1-.42.11,2.09,2.09,0,0,1-.53-.06.82.82,0,0,1-.45-.33,1.44,1.44,0,0,1-.21-.88v-3.72h-.8a.29.29,0,0,1-.32-.3.29.29,0,0,1,.09-.22.32.32,0,0,1,.23-.09h.8v-1.22a.32.32,0,0,1,.09-.24.36.36,0,0,1,.48,0,.32.32,0,0,1,.09.24v1.22h1.1a.26.26,0,0,1,.21.1.28.28,0,0,1,.1.22.26.26,0,0,1-.09.21.29.29,0,0,1-.22.08Z"/><path class="cls-2" d="M179.73,286.37v3.69a.81.81,0,0,0,.16.57.55.55,0,0,0,.41.14.53.53,0,0,0,.16,0l.15,0a.21.21,0,0,1,.17.08.29.29,0,0,1,.08.19.3.3,0,0,1-.18.26.82.82,0,0,1-.42.11,2.15,2.15,0,0,1-.53-.06.77.77,0,0,1-.44-.33,1.43,1.43,0,0,1-.22-.88v-3.72h-.8a.29.29,0,0,1-.22-.08.28.28,0,0,1-.1-.22.27.27,0,0,1,.1-.22.29.29,0,0,1,.22-.09h.8v-1.22a.33.33,0,0,1,.1-.24.32.32,0,0,1,.23-.09.31.31,0,0,1,.33.33v1.22h1.1a.28.28,0,0,1,.22.1.31.31,0,0,1,.09.22.26.26,0,0,1-.09.21.27.27,0,0,1-.22.08Z"/><path class="cls-2" d="M186.69,288.45a.35.35,0,0,1-.23.09H182.3a2.5,2.5,0,0,0,.27,1.18,2,2,0,0,0,.77.83,2.23,2.23,0,0,0,1.18.3,2,2,0,0,0,.95-.22,1.93,1.93,0,0,0,.67-.56.34.34,0,0,1,.23-.1.25.25,0,0,1,.19.09.27.27,0,0,1,.09.2.3.3,0,0,1-.11.23,2.78,2.78,0,0,1-.88.7,2.36,2.36,0,0,1-1.13.28,3,3,0,0,1-1.5-.37,2.58,2.58,0,0,1-1-1,3.11,3.11,0,0,1-.36-1.52A3.28,3.28,0,0,1,182,287a2.52,2.52,0,0,1,.95-1,2.39,2.39,0,0,1,1.26-.36,2.65,2.65,0,0,1,1.24.31,2.46,2.46,0,0,1,.94.9,2.79,2.79,0,0,1,.38,1.41A.33.33,0,0,1,186.69,288.45Zm-3.64-1.77a2.07,2.07,0,0,0-.7,1.27h3.75v-.09a1.59,1.59,0,0,0-.33-.86,1.67,1.67,0,0,0-.68-.56,2,2,0,0,0-.86-.2A1.86,1.86,0,0,0,183.05,286.68Z"/><path class="cls-2" d="M192.53,288.45a.35.35,0,0,1-.23.09h-4.16a2.5,2.5,0,0,0,.27,1.18,2,2,0,0,0,.77.83,2.25,2.25,0,0,0,1.18.3,2,2,0,0,0,.95-.22,1.93,1.93,0,0,0,.67-.56.34.34,0,0,1,.23-.1.28.28,0,0,1,.2.09.29.29,0,0,1,0,.43,2.78,2.78,0,0,1-.88.7,2.36,2.36,0,0,1-1.13.28,2.92,2.92,0,0,1-1.49-.37,2.61,2.61,0,0,1-1-1,3.11,3.11,0,0,1-.36-1.52,3.28,3.28,0,0,1,.36-1.57,2.59,2.59,0,0,1,.95-1,2.41,2.41,0,0,1,1.26-.36,2.65,2.65,0,0,1,1.24.31,2.46,2.46,0,0,1,.94.9,2.79,2.79,0,0,1,.38,1.41A.33.33,0,0,1,192.53,288.45Zm-3.64-1.77a2.12,2.12,0,0,0-.7,1.27h3.75v-.09a1.59,1.59,0,0,0-.33-.86,1.67,1.67,0,0,0-.68-.56,2,2,0,0,0-.86-.2A1.86,1.86,0,0,0,188.89,286.68Z"/><path class="cls-1" d="M166.19,145.27a1,1,0,0,1-1-1v-35.5a1,1,0,1,1,2,0v35.5A1,1,0,0,1,166.19,145.27Z"/><path class="cls-1" d="M166.19,251.23a1,1,0,0,1-1-1v-35.5a1,1,0,1,1,2,0v35.5A1,1,0,0,1,166.19,251.23Z"/><path class="cls-1" d="M225.13,108.91a1,1,0,0,1-1-1V72.41a1,1,0,1,1,2,0v35.5A1,1,0,0,1,225.13,108.91Z"/></g></g></svg>